G04 #@! TF.GenerationSoftware,KiCad,Pcbnew,8.0.4*
G04 #@! TF.CreationDate,2025-03-09T16:09:27+01:00*
G04 #@! TF.ProjectId,nerdaxe-gamma_v2.2,6e657264-6178-4652-9d67-616d6d615f76,rev?*
G04 #@! TF.SameCoordinates,Original*
G04 #@! TF.FileFunction,Legend,Top*
G04 #@! TF.FilePolarity,Positive*
%FSLAX46Y46*%
G04 Gerber Fmt 4.6, Leading zero omitted, Abs format (unit mm)*
G04 Created by KiCad (PCBNEW 8.0.4) date 2025-03-09 16:09:27*
%MOMM*%
%LPD*%
G01*
G04 APERTURE LIST*
G04 Aperture macros list*
%AMRoundRect*
0 Rectangle with rounded corners*
0 $1 Rounding radius*
0 $2 $3 $4 $5 $6 $7 $8 $9 X,Y pos of 4 corners*
0 Add a 4 corners polygon primitive as box body*
4,1,4,$2,$3,$4,$5,$6,$7,$8,$9,$2,$3,0*
0 Add four circle primitives for the rounded corners*
1,1,$1+$1,$2,$3*
1,1,$1+$1,$4,$5*
1,1,$1+$1,$6,$7*
1,1,$1+$1,$8,$9*
0 Add four rect primitives between the rounded corners*
20,1,$1+$1,$2,$3,$4,$5,0*
20,1,$1+$1,$4,$5,$6,$7,0*
20,1,$1+$1,$6,$7,$8,$9,0*
20,1,$1+$1,$8,$9,$2,$3,0*%
G04 Aperture macros list end*
%ADD10C,0.150000*%
%ADD11C,0.100000*%
%ADD12C,0.120000*%
%ADD13C,0.313180*%
%ADD14C,0.254165*%
%ADD15RoundRect,0.250000X-0.450000X0.262500X-0.450000X-0.262500X0.450000X-0.262500X0.450000X0.262500X0*%
%ADD16RoundRect,0.140000X-0.140000X-0.170000X0.140000X-0.170000X0.140000X0.170000X-0.140000X0.170000X0*%
%ADD17RoundRect,0.250000X0.262500X0.450000X-0.262500X0.450000X-0.262500X-0.450000X0.262500X-0.450000X0*%
%ADD18RoundRect,0.250000X-0.262500X-0.450000X0.262500X-0.450000X0.262500X0.450000X-0.262500X0.450000X0*%
%ADD19RoundRect,0.250000X0.450000X-0.262500X0.450000X0.262500X-0.450000X0.262500X-0.450000X-0.262500X0*%
%ADD20RoundRect,0.135000X0.135000X0.185000X-0.135000X0.185000X-0.135000X-0.185000X0.135000X-0.185000X0*%
%ADD21RoundRect,0.250000X0.325000X1.100000X-0.325000X1.100000X-0.325000X-1.100000X0.325000X-1.100000X0*%
%ADD22C,1.500000*%
%ADD23C,2.000000*%
%ADD24RoundRect,0.140000X0.140000X0.170000X-0.140000X0.170000X-0.140000X-0.170000X0.140000X-0.170000X0*%
%ADD25RoundRect,0.140000X0.170000X-0.140000X0.170000X0.140000X-0.170000X0.140000X-0.170000X-0.140000X0*%
%ADD26RoundRect,0.140000X-0.170000X0.140000X-0.170000X-0.140000X0.170000X-0.140000X0.170000X0.140000X0*%
%ADD27RoundRect,0.135000X-0.185000X0.135000X-0.185000X-0.135000X0.185000X-0.135000X0.185000X0.135000X0*%
%ADD28C,3.000000*%
%ADD29RoundRect,0.150000X-0.512500X-0.150000X0.512500X-0.150000X0.512500X0.150000X-0.512500X0.150000X0*%
%ADD30R,1.100000X1.300000*%
%ADD31C,0.800000*%
%ADD32C,6.000000*%
%ADD33RoundRect,0.250000X-0.650000X0.325000X-0.650000X-0.325000X0.650000X-0.325000X0.650000X0.325000X0*%
%ADD34R,0.400000X1.100000*%
%ADD35C,3.500000*%
%ADD36RoundRect,0.100000X-0.637500X-0.100000X0.637500X-0.100000X0.637500X0.100000X-0.637500X0.100000X0*%
%ADD37RoundRect,0.135000X-0.135000X-0.185000X0.135000X-0.185000X0.135000X0.185000X-0.135000X0.185000X0*%
%ADD38RoundRect,0.135000X0.185000X-0.135000X0.185000X0.135000X-0.185000X0.135000X-0.185000X-0.135000X0*%
%ADD39RoundRect,0.250000X-0.650000X1.000000X-0.650000X-1.000000X0.650000X-1.000000X0.650000X1.000000X0*%
%ADD40C,1.574800*%
%ADD41C,1.295400*%
%ADD42C,1.700000*%
%ADD43C,1.800000*%
%ADD44C,1.600000*%
%ADD45C,0.400000*%
G04 APERTURE END LIST*
D10*
X97609819Y-55887857D02*
X97133628Y-56221190D01*
X97609819Y-56459285D02*
X96609819Y-56459285D01*
X96609819Y-56459285D02*
X96609819Y-56078333D01*
X96609819Y-56078333D02*
X96657438Y-55983095D01*
X96657438Y-55983095D02*
X96705057Y-55935476D01*
X96705057Y-55935476D02*
X96800295Y-55887857D01*
X96800295Y-55887857D02*
X96943152Y-55887857D01*
X96943152Y-55887857D02*
X97038390Y-55935476D01*
X97038390Y-55935476D02*
X97086009Y-55983095D01*
X97086009Y-55983095D02*
X97133628Y-56078333D01*
X97133628Y-56078333D02*
X97133628Y-56459285D01*
X96705057Y-55506904D02*
X96657438Y-55459285D01*
X96657438Y-55459285D02*
X96609819Y-55364047D01*
X96609819Y-55364047D02*
X96609819Y-55125952D01*
X96609819Y-55125952D02*
X96657438Y-55030714D01*
X96657438Y-55030714D02*
X96705057Y-54983095D01*
X96705057Y-54983095D02*
X96800295Y-54935476D01*
X96800295Y-54935476D02*
X96895533Y-54935476D01*
X96895533Y-54935476D02*
X97038390Y-54983095D01*
X97038390Y-54983095D02*
X97609819Y-55554523D01*
X97609819Y-55554523D02*
X97609819Y-54935476D01*
X96609819Y-54602142D02*
X96609819Y-53935476D01*
X96609819Y-53935476D02*
X97609819Y-54364047D01*
X94815819Y-55887857D02*
X94339628Y-56221190D01*
X94815819Y-56459285D02*
X93815819Y-56459285D01*
X93815819Y-56459285D02*
X93815819Y-56078333D01*
X93815819Y-56078333D02*
X93863438Y-55983095D01*
X93863438Y-55983095D02*
X93911057Y-55935476D01*
X93911057Y-55935476D02*
X94006295Y-55887857D01*
X94006295Y-55887857D02*
X94149152Y-55887857D01*
X94149152Y-55887857D02*
X94244390Y-55935476D01*
X94244390Y-55935476D02*
X94292009Y-55983095D01*
X94292009Y-55983095D02*
X94339628Y-56078333D01*
X94339628Y-56078333D02*
X94339628Y-56459285D01*
X93911057Y-55506904D02*
X93863438Y-55459285D01*
X93863438Y-55459285D02*
X93815819Y-55364047D01*
X93815819Y-55364047D02*
X93815819Y-55125952D01*
X93815819Y-55125952D02*
X93863438Y-55030714D01*
X93863438Y-55030714D02*
X93911057Y-54983095D01*
X93911057Y-54983095D02*
X94006295Y-54935476D01*
X94006295Y-54935476D02*
X94101533Y-54935476D01*
X94101533Y-54935476D02*
X94244390Y-54983095D01*
X94244390Y-54983095D02*
X94815819Y-55554523D01*
X94815819Y-55554523D02*
X94815819Y-54935476D01*
X93815819Y-54078333D02*
X93815819Y-54268809D01*
X93815819Y-54268809D02*
X93863438Y-54364047D01*
X93863438Y-54364047D02*
X93911057Y-54411666D01*
X93911057Y-54411666D02*
X94053914Y-54506904D01*
X94053914Y-54506904D02*
X94244390Y-54554523D01*
X94244390Y-54554523D02*
X94625342Y-54554523D01*
X94625342Y-54554523D02*
X94720580Y-54506904D01*
X94720580Y-54506904D02*
X94768200Y-54459285D01*
X94768200Y-54459285D02*
X94815819Y-54364047D01*
X94815819Y-54364047D02*
X94815819Y-54173571D01*
X94815819Y-54173571D02*
X94768200Y-54078333D01*
X94768200Y-54078333D02*
X94720580Y-54030714D01*
X94720580Y-54030714D02*
X94625342Y-53983095D01*
X94625342Y-53983095D02*
X94387247Y-53983095D01*
X94387247Y-53983095D02*
X94292009Y-54030714D01*
X94292009Y-54030714D02*
X94244390Y-54078333D01*
X94244390Y-54078333D02*
X94196771Y-54173571D01*
X94196771Y-54173571D02*
X94196771Y-54364047D01*
X94196771Y-54364047D02*
X94244390Y-54459285D01*
X94244390Y-54459285D02*
X94292009Y-54506904D01*
X94292009Y-54506904D02*
X94387247Y-54554523D01*
X96385142Y-129391580D02*
X96337523Y-129439200D01*
X96337523Y-129439200D02*
X96194666Y-129486819D01*
X96194666Y-129486819D02*
X96099428Y-129486819D01*
X96099428Y-129486819D02*
X95956571Y-129439200D01*
X95956571Y-129439200D02*
X95861333Y-129343961D01*
X95861333Y-129343961D02*
X95813714Y-129248723D01*
X95813714Y-129248723D02*
X95766095Y-129058247D01*
X95766095Y-129058247D02*
X95766095Y-128915390D01*
X95766095Y-128915390D02*
X95813714Y-128724914D01*
X95813714Y-128724914D02*
X95861333Y-128629676D01*
X95861333Y-128629676D02*
X95956571Y-128534438D01*
X95956571Y-128534438D02*
X96099428Y-128486819D01*
X96099428Y-128486819D02*
X96194666Y-128486819D01*
X96194666Y-128486819D02*
X96337523Y-128534438D01*
X96337523Y-128534438D02*
X96385142Y-128582057D01*
X96766095Y-128582057D02*
X96813714Y-128534438D01*
X96813714Y-128534438D02*
X96908952Y-128486819D01*
X96908952Y-128486819D02*
X97147047Y-128486819D01*
X97147047Y-128486819D02*
X97242285Y-128534438D01*
X97242285Y-128534438D02*
X97289904Y-128582057D01*
X97289904Y-128582057D02*
X97337523Y-128677295D01*
X97337523Y-128677295D02*
X97337523Y-128772533D01*
X97337523Y-128772533D02*
X97289904Y-128915390D01*
X97289904Y-128915390D02*
X96718476Y-129486819D01*
X96718476Y-129486819D02*
X97337523Y-129486819D01*
X97670857Y-128486819D02*
X98289904Y-128486819D01*
X98289904Y-128486819D02*
X97956571Y-128867771D01*
X97956571Y-128867771D02*
X98099428Y-128867771D01*
X98099428Y-128867771D02*
X98194666Y-128915390D01*
X98194666Y-128915390D02*
X98242285Y-128963009D01*
X98242285Y-128963009D02*
X98289904Y-129058247D01*
X98289904Y-129058247D02*
X98289904Y-129296342D01*
X98289904Y-129296342D02*
X98242285Y-129391580D01*
X98242285Y-129391580D02*
X98194666Y-129439200D01*
X98194666Y-129439200D02*
X98099428Y-129486819D01*
X98099428Y-129486819D02*
X97813714Y-129486819D01*
X97813714Y-129486819D02*
X97718476Y-129439200D01*
X97718476Y-129439200D02*
X97670857Y-129391580D01*
X99369666Y-125153009D02*
X99036333Y-125153009D01*
X99036333Y-125676819D02*
X99036333Y-124676819D01*
X99036333Y-124676819D02*
X99512523Y-124676819D01*
X100226809Y-125153009D02*
X100369666Y-125200628D01*
X100369666Y-125200628D02*
X100417285Y-125248247D01*
X100417285Y-125248247D02*
X100464904Y-125343485D01*
X100464904Y-125343485D02*
X100464904Y-125486342D01*
X100464904Y-125486342D02*
X100417285Y-125581580D01*
X100417285Y-125581580D02*
X100369666Y-125629200D01*
X100369666Y-125629200D02*
X100274428Y-125676819D01*
X100274428Y-125676819D02*
X99893476Y-125676819D01*
X99893476Y-125676819D02*
X99893476Y-124676819D01*
X99893476Y-124676819D02*
X100226809Y-124676819D01*
X100226809Y-124676819D02*
X100322047Y-124724438D01*
X100322047Y-124724438D02*
X100369666Y-124772057D01*
X100369666Y-124772057D02*
X100417285Y-124867295D01*
X100417285Y-124867295D02*
X100417285Y-124962533D01*
X100417285Y-124962533D02*
X100369666Y-125057771D01*
X100369666Y-125057771D02*
X100322047Y-125105390D01*
X100322047Y-125105390D02*
X100226809Y-125153009D01*
X100226809Y-125153009D02*
X99893476Y-125153009D01*
X101036333Y-125105390D02*
X100941095Y-125057771D01*
X100941095Y-125057771D02*
X100893476Y-125010152D01*
X100893476Y-125010152D02*
X100845857Y-124914914D01*
X100845857Y-124914914D02*
X100845857Y-124867295D01*
X100845857Y-124867295D02*
X100893476Y-124772057D01*
X100893476Y-124772057D02*
X100941095Y-124724438D01*
X100941095Y-124724438D02*
X101036333Y-124676819D01*
X101036333Y-124676819D02*
X101226809Y-124676819D01*
X101226809Y-124676819D02*
X101322047Y-124724438D01*
X101322047Y-124724438D02*
X101369666Y-124772057D01*
X101369666Y-124772057D02*
X101417285Y-124867295D01*
X101417285Y-124867295D02*
X101417285Y-124914914D01*
X101417285Y-124914914D02*
X101369666Y-125010152D01*
X101369666Y-125010152D02*
X101322047Y-125057771D01*
X101322047Y-125057771D02*
X101226809Y-125105390D01*
X101226809Y-125105390D02*
X101036333Y-125105390D01*
X101036333Y-125105390D02*
X100941095Y-125153009D01*
X100941095Y-125153009D02*
X100893476Y-125200628D01*
X100893476Y-125200628D02*
X100845857Y-125295866D01*
X100845857Y-125295866D02*
X100845857Y-125486342D01*
X100845857Y-125486342D02*
X100893476Y-125581580D01*
X100893476Y-125581580D02*
X100941095Y-125629200D01*
X100941095Y-125629200D02*
X101036333Y-125676819D01*
X101036333Y-125676819D02*
X101226809Y-125676819D01*
X101226809Y-125676819D02*
X101322047Y-125629200D01*
X101322047Y-125629200D02*
X101369666Y-125581580D01*
X101369666Y-125581580D02*
X101417285Y-125486342D01*
X101417285Y-125486342D02*
X101417285Y-125295866D01*
X101417285Y-125295866D02*
X101369666Y-125200628D01*
X101369666Y-125200628D02*
X101322047Y-125153009D01*
X101322047Y-125153009D02*
X101226809Y-125105390D01*
D11*
X117824333Y-124913847D02*
X117557667Y-124913847D01*
X117557667Y-125332895D02*
X117557667Y-124532895D01*
X117557667Y-124532895D02*
X117938619Y-124532895D01*
X118510047Y-124913847D02*
X118624333Y-124951942D01*
X118624333Y-124951942D02*
X118662428Y-124990038D01*
X118662428Y-124990038D02*
X118700524Y-125066228D01*
X118700524Y-125066228D02*
X118700524Y-125180514D01*
X118700524Y-125180514D02*
X118662428Y-125256704D01*
X118662428Y-125256704D02*
X118624333Y-125294800D01*
X118624333Y-125294800D02*
X118548143Y-125332895D01*
X118548143Y-125332895D02*
X118243381Y-125332895D01*
X118243381Y-125332895D02*
X118243381Y-124532895D01*
X118243381Y-124532895D02*
X118510047Y-124532895D01*
X118510047Y-124532895D02*
X118586238Y-124570990D01*
X118586238Y-124570990D02*
X118624333Y-124609085D01*
X118624333Y-124609085D02*
X118662428Y-124685276D01*
X118662428Y-124685276D02*
X118662428Y-124761466D01*
X118662428Y-124761466D02*
X118624333Y-124837657D01*
X118624333Y-124837657D02*
X118586238Y-124875752D01*
X118586238Y-124875752D02*
X118510047Y-124913847D01*
X118510047Y-124913847D02*
X118243381Y-124913847D01*
X118967190Y-124532895D02*
X119500524Y-124532895D01*
X119500524Y-124532895D02*
X119157666Y-125332895D01*
D10*
X101782666Y-136964009D02*
X101449333Y-136964009D01*
X101449333Y-137487819D02*
X101449333Y-136487819D01*
X101449333Y-136487819D02*
X101925523Y-136487819D01*
X102639809Y-136964009D02*
X102782666Y-137011628D01*
X102782666Y-137011628D02*
X102830285Y-137059247D01*
X102830285Y-137059247D02*
X102877904Y-137154485D01*
X102877904Y-137154485D02*
X102877904Y-137297342D01*
X102877904Y-137297342D02*
X102830285Y-137392580D01*
X102830285Y-137392580D02*
X102782666Y-137440200D01*
X102782666Y-137440200D02*
X102687428Y-137487819D01*
X102687428Y-137487819D02*
X102306476Y-137487819D01*
X102306476Y-137487819D02*
X102306476Y-136487819D01*
X102306476Y-136487819D02*
X102639809Y-136487819D01*
X102639809Y-136487819D02*
X102735047Y-136535438D01*
X102735047Y-136535438D02*
X102782666Y-136583057D01*
X102782666Y-136583057D02*
X102830285Y-136678295D01*
X102830285Y-136678295D02*
X102830285Y-136773533D01*
X102830285Y-136773533D02*
X102782666Y-136868771D01*
X102782666Y-136868771D02*
X102735047Y-136916390D01*
X102735047Y-136916390D02*
X102639809Y-136964009D01*
X102639809Y-136964009D02*
X102306476Y-136964009D01*
X103735047Y-136487819D02*
X103544571Y-136487819D01*
X103544571Y-136487819D02*
X103449333Y-136535438D01*
X103449333Y-136535438D02*
X103401714Y-136583057D01*
X103401714Y-136583057D02*
X103306476Y-136725914D01*
X103306476Y-136725914D02*
X103258857Y-136916390D01*
X103258857Y-136916390D02*
X103258857Y-137297342D01*
X103258857Y-137297342D02*
X103306476Y-137392580D01*
X103306476Y-137392580D02*
X103354095Y-137440200D01*
X103354095Y-137440200D02*
X103449333Y-137487819D01*
X103449333Y-137487819D02*
X103639809Y-137487819D01*
X103639809Y-137487819D02*
X103735047Y-137440200D01*
X103735047Y-137440200D02*
X103782666Y-137392580D01*
X103782666Y-137392580D02*
X103830285Y-137297342D01*
X103830285Y-137297342D02*
X103830285Y-137059247D01*
X103830285Y-137059247D02*
X103782666Y-136964009D01*
X103782666Y-136964009D02*
X103735047Y-136916390D01*
X103735047Y-136916390D02*
X103639809Y-136868771D01*
X103639809Y-136868771D02*
X103449333Y-136868771D01*
X103449333Y-136868771D02*
X103354095Y-136916390D01*
X103354095Y-136916390D02*
X103306476Y-136964009D01*
X103306476Y-136964009D02*
X103258857Y-137059247D01*
X126041009Y-101798333D02*
X126041009Y-102131666D01*
X126564819Y-102131666D02*
X125564819Y-102131666D01*
X125564819Y-102131666D02*
X125564819Y-101655476D01*
X126041009Y-100941190D02*
X126088628Y-100798333D01*
X126088628Y-100798333D02*
X126136247Y-100750714D01*
X126136247Y-100750714D02*
X126231485Y-100703095D01*
X126231485Y-100703095D02*
X126374342Y-100703095D01*
X126374342Y-100703095D02*
X126469580Y-100750714D01*
X126469580Y-100750714D02*
X126517200Y-100798333D01*
X126517200Y-100798333D02*
X126564819Y-100893571D01*
X126564819Y-100893571D02*
X126564819Y-101274523D01*
X126564819Y-101274523D02*
X125564819Y-101274523D01*
X125564819Y-101274523D02*
X125564819Y-100941190D01*
X125564819Y-100941190D02*
X125612438Y-100845952D01*
X125612438Y-100845952D02*
X125660057Y-100798333D01*
X125660057Y-100798333D02*
X125755295Y-100750714D01*
X125755295Y-100750714D02*
X125850533Y-100750714D01*
X125850533Y-100750714D02*
X125945771Y-100798333D01*
X125945771Y-100798333D02*
X125993390Y-100845952D01*
X125993390Y-100845952D02*
X126041009Y-100941190D01*
X126041009Y-100941190D02*
X126041009Y-101274523D01*
X125564819Y-99798333D02*
X125564819Y-100274523D01*
X125564819Y-100274523D02*
X126041009Y-100322142D01*
X126041009Y-100322142D02*
X125993390Y-100274523D01*
X125993390Y-100274523D02*
X125945771Y-100179285D01*
X125945771Y-100179285D02*
X125945771Y-99941190D01*
X125945771Y-99941190D02*
X125993390Y-99845952D01*
X125993390Y-99845952D02*
X126041009Y-99798333D01*
X126041009Y-99798333D02*
X126136247Y-99750714D01*
X126136247Y-99750714D02*
X126374342Y-99750714D01*
X126374342Y-99750714D02*
X126469580Y-99798333D01*
X126469580Y-99798333D02*
X126517200Y-99845952D01*
X126517200Y-99845952D02*
X126564819Y-99941190D01*
X126564819Y-99941190D02*
X126564819Y-100179285D01*
X126564819Y-100179285D02*
X126517200Y-100274523D01*
X126517200Y-100274523D02*
X126469580Y-100322142D01*
X109148666Y-136202009D02*
X108815333Y-136202009D01*
X108815333Y-136725819D02*
X108815333Y-135725819D01*
X108815333Y-135725819D02*
X109291523Y-135725819D01*
X110005809Y-136202009D02*
X110148666Y-136249628D01*
X110148666Y-136249628D02*
X110196285Y-136297247D01*
X110196285Y-136297247D02*
X110243904Y-136392485D01*
X110243904Y-136392485D02*
X110243904Y-136535342D01*
X110243904Y-136535342D02*
X110196285Y-136630580D01*
X110196285Y-136630580D02*
X110148666Y-136678200D01*
X110148666Y-136678200D02*
X110053428Y-136725819D01*
X110053428Y-136725819D02*
X109672476Y-136725819D01*
X109672476Y-136725819D02*
X109672476Y-135725819D01*
X109672476Y-135725819D02*
X110005809Y-135725819D01*
X110005809Y-135725819D02*
X110101047Y-135773438D01*
X110101047Y-135773438D02*
X110148666Y-135821057D01*
X110148666Y-135821057D02*
X110196285Y-135916295D01*
X110196285Y-135916295D02*
X110196285Y-136011533D01*
X110196285Y-136011533D02*
X110148666Y-136106771D01*
X110148666Y-136106771D02*
X110101047Y-136154390D01*
X110101047Y-136154390D02*
X110005809Y-136202009D01*
X110005809Y-136202009D02*
X109672476Y-136202009D01*
X111101047Y-136059152D02*
X111101047Y-136725819D01*
X110862952Y-135678200D02*
X110624857Y-136392485D01*
X110624857Y-136392485D02*
X111243904Y-136392485D01*
X82609009Y-76017333D02*
X82609009Y-76350666D01*
X83132819Y-76350666D02*
X82132819Y-76350666D01*
X82132819Y-76350666D02*
X82132819Y-75874476D01*
X82609009Y-75160190D02*
X82656628Y-75017333D01*
X82656628Y-75017333D02*
X82704247Y-74969714D01*
X82704247Y-74969714D02*
X82799485Y-74922095D01*
X82799485Y-74922095D02*
X82942342Y-74922095D01*
X82942342Y-74922095D02*
X83037580Y-74969714D01*
X83037580Y-74969714D02*
X83085200Y-75017333D01*
X83085200Y-75017333D02*
X83132819Y-75112571D01*
X83132819Y-75112571D02*
X83132819Y-75493523D01*
X83132819Y-75493523D02*
X82132819Y-75493523D01*
X82132819Y-75493523D02*
X82132819Y-75160190D01*
X82132819Y-75160190D02*
X82180438Y-75064952D01*
X82180438Y-75064952D02*
X82228057Y-75017333D01*
X82228057Y-75017333D02*
X82323295Y-74969714D01*
X82323295Y-74969714D02*
X82418533Y-74969714D01*
X82418533Y-74969714D02*
X82513771Y-75017333D01*
X82513771Y-75017333D02*
X82561390Y-75064952D01*
X82561390Y-75064952D02*
X82609009Y-75160190D01*
X82609009Y-75160190D02*
X82609009Y-75493523D01*
X82132819Y-74588761D02*
X82132819Y-73969714D01*
X82132819Y-73969714D02*
X82513771Y-74303047D01*
X82513771Y-74303047D02*
X82513771Y-74160190D01*
X82513771Y-74160190D02*
X82561390Y-74064952D01*
X82561390Y-74064952D02*
X82609009Y-74017333D01*
X82609009Y-74017333D02*
X82704247Y-73969714D01*
X82704247Y-73969714D02*
X82942342Y-73969714D01*
X82942342Y-73969714D02*
X83037580Y-74017333D01*
X83037580Y-74017333D02*
X83085200Y-74064952D01*
X83085200Y-74064952D02*
X83132819Y-74160190D01*
X83132819Y-74160190D02*
X83132819Y-74445904D01*
X83132819Y-74445904D02*
X83085200Y-74541142D01*
X83085200Y-74541142D02*
X83037580Y-74588761D01*
X111945009Y-65857333D02*
X111945009Y-66190666D01*
X112468819Y-66190666D02*
X111468819Y-66190666D01*
X111468819Y-66190666D02*
X111468819Y-65714476D01*
X111945009Y-65000190D02*
X111992628Y-64857333D01*
X111992628Y-64857333D02*
X112040247Y-64809714D01*
X112040247Y-64809714D02*
X112135485Y-64762095D01*
X112135485Y-64762095D02*
X112278342Y-64762095D01*
X112278342Y-64762095D02*
X112373580Y-64809714D01*
X112373580Y-64809714D02*
X112421200Y-64857333D01*
X112421200Y-64857333D02*
X112468819Y-64952571D01*
X112468819Y-64952571D02*
X112468819Y-65333523D01*
X112468819Y-65333523D02*
X111468819Y-65333523D01*
X111468819Y-65333523D02*
X111468819Y-65000190D01*
X111468819Y-65000190D02*
X111516438Y-64904952D01*
X111516438Y-64904952D02*
X111564057Y-64857333D01*
X111564057Y-64857333D02*
X111659295Y-64809714D01*
X111659295Y-64809714D02*
X111754533Y-64809714D01*
X111754533Y-64809714D02*
X111849771Y-64857333D01*
X111849771Y-64857333D02*
X111897390Y-64904952D01*
X111897390Y-64904952D02*
X111945009Y-65000190D01*
X111945009Y-65000190D02*
X111945009Y-65333523D01*
X111564057Y-64381142D02*
X111516438Y-64333523D01*
X111516438Y-64333523D02*
X111468819Y-64238285D01*
X111468819Y-64238285D02*
X111468819Y-64000190D01*
X111468819Y-64000190D02*
X111516438Y-63904952D01*
X111516438Y-63904952D02*
X111564057Y-63857333D01*
X111564057Y-63857333D02*
X111659295Y-63809714D01*
X111659295Y-63809714D02*
X111754533Y-63809714D01*
X111754533Y-63809714D02*
X111897390Y-63857333D01*
X111897390Y-63857333D02*
X112468819Y-64428761D01*
X112468819Y-64428761D02*
X112468819Y-63809714D01*
X120307142Y-105414819D02*
X119973809Y-104938628D01*
X119735714Y-105414819D02*
X119735714Y-104414819D01*
X119735714Y-104414819D02*
X120116666Y-104414819D01*
X120116666Y-104414819D02*
X120211904Y-104462438D01*
X120211904Y-104462438D02*
X120259523Y-104510057D01*
X120259523Y-104510057D02*
X120307142Y-104605295D01*
X120307142Y-104605295D02*
X120307142Y-104748152D01*
X120307142Y-104748152D02*
X120259523Y-104843390D01*
X120259523Y-104843390D02*
X120211904Y-104891009D01*
X120211904Y-104891009D02*
X120116666Y-104938628D01*
X120116666Y-104938628D02*
X119735714Y-104938628D01*
X120688095Y-104510057D02*
X120735714Y-104462438D01*
X120735714Y-104462438D02*
X120830952Y-104414819D01*
X120830952Y-104414819D02*
X121069047Y-104414819D01*
X121069047Y-104414819D02*
X121164285Y-104462438D01*
X121164285Y-104462438D02*
X121211904Y-104510057D01*
X121211904Y-104510057D02*
X121259523Y-104605295D01*
X121259523Y-104605295D02*
X121259523Y-104700533D01*
X121259523Y-104700533D02*
X121211904Y-104843390D01*
X121211904Y-104843390D02*
X120640476Y-105414819D01*
X120640476Y-105414819D02*
X121259523Y-105414819D01*
X122211904Y-105414819D02*
X121640476Y-105414819D01*
X121926190Y-105414819D02*
X121926190Y-104414819D01*
X121926190Y-104414819D02*
X121830952Y-104557676D01*
X121830952Y-104557676D02*
X121735714Y-104652914D01*
X121735714Y-104652914D02*
X121640476Y-104700533D01*
D11*
X97824704Y-140341285D02*
X97862800Y-140379381D01*
X97862800Y-140379381D02*
X97900895Y-140493666D01*
X97900895Y-140493666D02*
X97900895Y-140569857D01*
X97900895Y-140569857D02*
X97862800Y-140684143D01*
X97862800Y-140684143D02*
X97786609Y-140760333D01*
X97786609Y-140760333D02*
X97710419Y-140798428D01*
X97710419Y-140798428D02*
X97558038Y-140836524D01*
X97558038Y-140836524D02*
X97443752Y-140836524D01*
X97443752Y-140836524D02*
X97291371Y-140798428D01*
X97291371Y-140798428D02*
X97215180Y-140760333D01*
X97215180Y-140760333D02*
X97138990Y-140684143D01*
X97138990Y-140684143D02*
X97100895Y-140569857D01*
X97100895Y-140569857D02*
X97100895Y-140493666D01*
X97100895Y-140493666D02*
X97138990Y-140379381D01*
X97138990Y-140379381D02*
X97177085Y-140341285D01*
X97100895Y-139617476D02*
X97100895Y-139998428D01*
X97100895Y-139998428D02*
X97481847Y-140036524D01*
X97481847Y-140036524D02*
X97443752Y-139998428D01*
X97443752Y-139998428D02*
X97405657Y-139922238D01*
X97405657Y-139922238D02*
X97405657Y-139731762D01*
X97405657Y-139731762D02*
X97443752Y-139655571D01*
X97443752Y-139655571D02*
X97481847Y-139617476D01*
X97481847Y-139617476D02*
X97558038Y-139579381D01*
X97558038Y-139579381D02*
X97748514Y-139579381D01*
X97748514Y-139579381D02*
X97824704Y-139617476D01*
X97824704Y-139617476D02*
X97862800Y-139655571D01*
X97862800Y-139655571D02*
X97900895Y-139731762D01*
X97900895Y-139731762D02*
X97900895Y-139922238D01*
X97900895Y-139922238D02*
X97862800Y-139998428D01*
X97862800Y-139998428D02*
X97824704Y-140036524D01*
X97900895Y-138817476D02*
X97900895Y-139274619D01*
X97900895Y-139046047D02*
X97100895Y-139046047D01*
X97100895Y-139046047D02*
X97215180Y-139122238D01*
X97215180Y-139122238D02*
X97291371Y-139198428D01*
X97291371Y-139198428D02*
X97329466Y-139274619D01*
D10*
X114195905Y-134079819D02*
X114767333Y-134079819D01*
X114481619Y-135079819D02*
X114481619Y-134079819D01*
X115100667Y-135079819D02*
X115100667Y-134079819D01*
X115100667Y-134079819D02*
X115481619Y-134079819D01*
X115481619Y-134079819D02*
X115576857Y-134127438D01*
X115576857Y-134127438D02*
X115624476Y-134175057D01*
X115624476Y-134175057D02*
X115672095Y-134270295D01*
X115672095Y-134270295D02*
X115672095Y-134413152D01*
X115672095Y-134413152D02*
X115624476Y-134508390D01*
X115624476Y-134508390D02*
X115576857Y-134556009D01*
X115576857Y-134556009D02*
X115481619Y-134603628D01*
X115481619Y-134603628D02*
X115100667Y-134603628D01*
X116624476Y-135079819D02*
X116053048Y-135079819D01*
X116338762Y-135079819D02*
X116338762Y-134079819D01*
X116338762Y-134079819D02*
X116243524Y-134222676D01*
X116243524Y-134222676D02*
X116148286Y-134317914D01*
X116148286Y-134317914D02*
X116053048Y-134365533D01*
X117100667Y-135079819D02*
X117291143Y-135079819D01*
X117291143Y-135079819D02*
X117386381Y-135032200D01*
X117386381Y-135032200D02*
X117434000Y-134984580D01*
X117434000Y-134984580D02*
X117529238Y-134841723D01*
X117529238Y-134841723D02*
X117576857Y-134651247D01*
X117576857Y-134651247D02*
X117576857Y-134270295D01*
X117576857Y-134270295D02*
X117529238Y-134175057D01*
X117529238Y-134175057D02*
X117481619Y-134127438D01*
X117481619Y-134127438D02*
X117386381Y-134079819D01*
X117386381Y-134079819D02*
X117195905Y-134079819D01*
X117195905Y-134079819D02*
X117100667Y-134127438D01*
X117100667Y-134127438D02*
X117053048Y-134175057D01*
X117053048Y-134175057D02*
X117005429Y-134270295D01*
X117005429Y-134270295D02*
X117005429Y-134508390D01*
X117005429Y-134508390D02*
X117053048Y-134603628D01*
X117053048Y-134603628D02*
X117100667Y-134651247D01*
X117100667Y-134651247D02*
X117195905Y-134698866D01*
X117195905Y-134698866D02*
X117386381Y-134698866D01*
X117386381Y-134698866D02*
X117481619Y-134651247D01*
X117481619Y-134651247D02*
X117529238Y-134603628D01*
X117529238Y-134603628D02*
X117576857Y-134508390D01*
X98137142Y-103589580D02*
X98089523Y-103637200D01*
X98089523Y-103637200D02*
X97946666Y-103684819D01*
X97946666Y-103684819D02*
X97851428Y-103684819D01*
X97851428Y-103684819D02*
X97708571Y-103637200D01*
X97708571Y-103637200D02*
X97613333Y-103541961D01*
X97613333Y-103541961D02*
X97565714Y-103446723D01*
X97565714Y-103446723D02*
X97518095Y-103256247D01*
X97518095Y-103256247D02*
X97518095Y-103113390D01*
X97518095Y-103113390D02*
X97565714Y-102922914D01*
X97565714Y-102922914D02*
X97613333Y-102827676D01*
X97613333Y-102827676D02*
X97708571Y-102732438D01*
X97708571Y-102732438D02*
X97851428Y-102684819D01*
X97851428Y-102684819D02*
X97946666Y-102684819D01*
X97946666Y-102684819D02*
X98089523Y-102732438D01*
X98089523Y-102732438D02*
X98137142Y-102780057D01*
X98994285Y-103018152D02*
X98994285Y-103684819D01*
X98756190Y-102637200D02*
X98518095Y-103351485D01*
X98518095Y-103351485D02*
X99137142Y-103351485D01*
X100041904Y-103684819D02*
X99470476Y-103684819D01*
X99756190Y-103684819D02*
X99756190Y-102684819D01*
X99756190Y-102684819D02*
X99660952Y-102827676D01*
X99660952Y-102827676D02*
X99565714Y-102922914D01*
X99565714Y-102922914D02*
X99470476Y-102970533D01*
X123991905Y-122390819D02*
X124563333Y-122390819D01*
X124277619Y-123390819D02*
X124277619Y-122390819D01*
X124896667Y-123390819D02*
X124896667Y-122390819D01*
X124896667Y-122390819D02*
X125277619Y-122390819D01*
X125277619Y-122390819D02*
X125372857Y-122438438D01*
X125372857Y-122438438D02*
X125420476Y-122486057D01*
X125420476Y-122486057D02*
X125468095Y-122581295D01*
X125468095Y-122581295D02*
X125468095Y-122724152D01*
X125468095Y-122724152D02*
X125420476Y-122819390D01*
X125420476Y-122819390D02*
X125372857Y-122867009D01*
X125372857Y-122867009D02*
X125277619Y-122914628D01*
X125277619Y-122914628D02*
X124896667Y-122914628D01*
X125849048Y-122486057D02*
X125896667Y-122438438D01*
X125896667Y-122438438D02*
X125991905Y-122390819D01*
X125991905Y-122390819D02*
X126230000Y-122390819D01*
X126230000Y-122390819D02*
X126325238Y-122438438D01*
X126325238Y-122438438D02*
X126372857Y-122486057D01*
X126372857Y-122486057D02*
X126420476Y-122581295D01*
X126420476Y-122581295D02*
X126420476Y-122676533D01*
X126420476Y-122676533D02*
X126372857Y-122819390D01*
X126372857Y-122819390D02*
X125801429Y-123390819D01*
X125801429Y-123390819D02*
X126420476Y-123390819D01*
X127372857Y-123390819D02*
X126801429Y-123390819D01*
X127087143Y-123390819D02*
X127087143Y-122390819D01*
X127087143Y-122390819D02*
X126991905Y-122533676D01*
X126991905Y-122533676D02*
X126896667Y-122628914D01*
X126896667Y-122628914D02*
X126801429Y-122676533D01*
X118241905Y-120124819D02*
X118813333Y-120124819D01*
X118527619Y-121124819D02*
X118527619Y-120124819D01*
X119146667Y-121124819D02*
X119146667Y-120124819D01*
X119146667Y-120124819D02*
X119527619Y-120124819D01*
X119527619Y-120124819D02*
X119622857Y-120172438D01*
X119622857Y-120172438D02*
X119670476Y-120220057D01*
X119670476Y-120220057D02*
X119718095Y-120315295D01*
X119718095Y-120315295D02*
X119718095Y-120458152D01*
X119718095Y-120458152D02*
X119670476Y-120553390D01*
X119670476Y-120553390D02*
X119622857Y-120601009D01*
X119622857Y-120601009D02*
X119527619Y-120648628D01*
X119527619Y-120648628D02*
X119146667Y-120648628D01*
X120670476Y-121124819D02*
X120099048Y-121124819D01*
X120384762Y-121124819D02*
X120384762Y-120124819D01*
X120384762Y-120124819D02*
X120289524Y-120267676D01*
X120289524Y-120267676D02*
X120194286Y-120362914D01*
X120194286Y-120362914D02*
X120099048Y-120410533D01*
X121241905Y-120553390D02*
X121146667Y-120505771D01*
X121146667Y-120505771D02*
X121099048Y-120458152D01*
X121099048Y-120458152D02*
X121051429Y-120362914D01*
X121051429Y-120362914D02*
X121051429Y-120315295D01*
X121051429Y-120315295D02*
X121099048Y-120220057D01*
X121099048Y-120220057D02*
X121146667Y-120172438D01*
X121146667Y-120172438D02*
X121241905Y-120124819D01*
X121241905Y-120124819D02*
X121432381Y-120124819D01*
X121432381Y-120124819D02*
X121527619Y-120172438D01*
X121527619Y-120172438D02*
X121575238Y-120220057D01*
X121575238Y-120220057D02*
X121622857Y-120315295D01*
X121622857Y-120315295D02*
X121622857Y-120362914D01*
X121622857Y-120362914D02*
X121575238Y-120458152D01*
X121575238Y-120458152D02*
X121527619Y-120505771D01*
X121527619Y-120505771D02*
X121432381Y-120553390D01*
X121432381Y-120553390D02*
X121241905Y-120553390D01*
X121241905Y-120553390D02*
X121146667Y-120601009D01*
X121146667Y-120601009D02*
X121099048Y-120648628D01*
X121099048Y-120648628D02*
X121051429Y-120743866D01*
X121051429Y-120743866D02*
X121051429Y-120934342D01*
X121051429Y-120934342D02*
X121099048Y-121029580D01*
X121099048Y-121029580D02*
X121146667Y-121077200D01*
X121146667Y-121077200D02*
X121241905Y-121124819D01*
X121241905Y-121124819D02*
X121432381Y-121124819D01*
X121432381Y-121124819D02*
X121527619Y-121077200D01*
X121527619Y-121077200D02*
X121575238Y-121029580D01*
X121575238Y-121029580D02*
X121622857Y-120934342D01*
X121622857Y-120934342D02*
X121622857Y-120743866D01*
X121622857Y-120743866D02*
X121575238Y-120648628D01*
X121575238Y-120648628D02*
X121527619Y-120601009D01*
X121527619Y-120601009D02*
X121432381Y-120553390D01*
X101967142Y-122729580D02*
X101919523Y-122777200D01*
X101919523Y-122777200D02*
X101776666Y-122824819D01*
X101776666Y-122824819D02*
X101681428Y-122824819D01*
X101681428Y-122824819D02*
X101538571Y-122777200D01*
X101538571Y-122777200D02*
X101443333Y-122681961D01*
X101443333Y-122681961D02*
X101395714Y-122586723D01*
X101395714Y-122586723D02*
X101348095Y-122396247D01*
X101348095Y-122396247D02*
X101348095Y-122253390D01*
X101348095Y-122253390D02*
X101395714Y-122062914D01*
X101395714Y-122062914D02*
X101443333Y-121967676D01*
X101443333Y-121967676D02*
X101538571Y-121872438D01*
X101538571Y-121872438D02*
X101681428Y-121824819D01*
X101681428Y-121824819D02*
X101776666Y-121824819D01*
X101776666Y-121824819D02*
X101919523Y-121872438D01*
X101919523Y-121872438D02*
X101967142Y-121920057D01*
X102824285Y-122158152D02*
X102824285Y-122824819D01*
X102586190Y-121777200D02*
X102348095Y-122491485D01*
X102348095Y-122491485D02*
X102967142Y-122491485D01*
X103300476Y-121920057D02*
X103348095Y-121872438D01*
X103348095Y-121872438D02*
X103443333Y-121824819D01*
X103443333Y-121824819D02*
X103681428Y-121824819D01*
X103681428Y-121824819D02*
X103776666Y-121872438D01*
X103776666Y-121872438D02*
X103824285Y-121920057D01*
X103824285Y-121920057D02*
X103871904Y-122015295D01*
X103871904Y-122015295D02*
X103871904Y-122110533D01*
X103871904Y-122110533D02*
X103824285Y-122253390D01*
X103824285Y-122253390D02*
X103252857Y-122824819D01*
X103252857Y-122824819D02*
X103871904Y-122824819D01*
X108534780Y-107942857D02*
X108582400Y-107990476D01*
X108582400Y-107990476D02*
X108630019Y-108133333D01*
X108630019Y-108133333D02*
X108630019Y-108228571D01*
X108630019Y-108228571D02*
X108582400Y-108371428D01*
X108582400Y-108371428D02*
X108487161Y-108466666D01*
X108487161Y-108466666D02*
X108391923Y-108514285D01*
X108391923Y-108514285D02*
X108201447Y-108561904D01*
X108201447Y-108561904D02*
X108058590Y-108561904D01*
X108058590Y-108561904D02*
X107868114Y-108514285D01*
X107868114Y-108514285D02*
X107772876Y-108466666D01*
X107772876Y-108466666D02*
X107677638Y-108371428D01*
X107677638Y-108371428D02*
X107630019Y-108228571D01*
X107630019Y-108228571D02*
X107630019Y-108133333D01*
X107630019Y-108133333D02*
X107677638Y-107990476D01*
X107677638Y-107990476D02*
X107725257Y-107942857D01*
X107963352Y-107085714D02*
X108630019Y-107085714D01*
X107582400Y-107323809D02*
X108296685Y-107561904D01*
X108296685Y-107561904D02*
X108296685Y-106942857D01*
X107630019Y-106371428D02*
X107630019Y-106276190D01*
X107630019Y-106276190D02*
X107677638Y-106180952D01*
X107677638Y-106180952D02*
X107725257Y-106133333D01*
X107725257Y-106133333D02*
X107820495Y-106085714D01*
X107820495Y-106085714D02*
X108010971Y-106038095D01*
X108010971Y-106038095D02*
X108249066Y-106038095D01*
X108249066Y-106038095D02*
X108439542Y-106085714D01*
X108439542Y-106085714D02*
X108534780Y-106133333D01*
X108534780Y-106133333D02*
X108582400Y-106180952D01*
X108582400Y-106180952D02*
X108630019Y-106276190D01*
X108630019Y-106276190D02*
X108630019Y-106371428D01*
X108630019Y-106371428D02*
X108582400Y-106466666D01*
X108582400Y-106466666D02*
X108534780Y-106514285D01*
X108534780Y-106514285D02*
X108439542Y-106561904D01*
X108439542Y-106561904D02*
X108249066Y-106609523D01*
X108249066Y-106609523D02*
X108010971Y-106609523D01*
X108010971Y-106609523D02*
X107820495Y-106561904D01*
X107820495Y-106561904D02*
X107725257Y-106514285D01*
X107725257Y-106514285D02*
X107677638Y-106466666D01*
X107677638Y-106466666D02*
X107630019Y-106371428D01*
X93884819Y-122752857D02*
X93408628Y-123086190D01*
X93884819Y-123324285D02*
X92884819Y-123324285D01*
X92884819Y-123324285D02*
X92884819Y-122943333D01*
X92884819Y-122943333D02*
X92932438Y-122848095D01*
X92932438Y-122848095D02*
X92980057Y-122800476D01*
X92980057Y-122800476D02*
X93075295Y-122752857D01*
X93075295Y-122752857D02*
X93218152Y-122752857D01*
X93218152Y-122752857D02*
X93313390Y-122800476D01*
X93313390Y-122800476D02*
X93361009Y-122848095D01*
X93361009Y-122848095D02*
X93408628Y-122943333D01*
X93408628Y-122943333D02*
X93408628Y-123324285D01*
X92980057Y-122371904D02*
X92932438Y-122324285D01*
X92932438Y-122324285D02*
X92884819Y-122229047D01*
X92884819Y-122229047D02*
X92884819Y-121990952D01*
X92884819Y-121990952D02*
X92932438Y-121895714D01*
X92932438Y-121895714D02*
X92980057Y-121848095D01*
X92980057Y-121848095D02*
X93075295Y-121800476D01*
X93075295Y-121800476D02*
X93170533Y-121800476D01*
X93170533Y-121800476D02*
X93313390Y-121848095D01*
X93313390Y-121848095D02*
X93884819Y-122419523D01*
X93884819Y-122419523D02*
X93884819Y-121800476D01*
X92884819Y-121467142D02*
X92884819Y-120848095D01*
X92884819Y-120848095D02*
X93265771Y-121181428D01*
X93265771Y-121181428D02*
X93265771Y-121038571D01*
X93265771Y-121038571D02*
X93313390Y-120943333D01*
X93313390Y-120943333D02*
X93361009Y-120895714D01*
X93361009Y-120895714D02*
X93456247Y-120848095D01*
X93456247Y-120848095D02*
X93694342Y-120848095D01*
X93694342Y-120848095D02*
X93789580Y-120895714D01*
X93789580Y-120895714D02*
X93837200Y-120943333D01*
X93837200Y-120943333D02*
X93884819Y-121038571D01*
X93884819Y-121038571D02*
X93884819Y-121324285D01*
X93884819Y-121324285D02*
X93837200Y-121419523D01*
X93837200Y-121419523D02*
X93789580Y-121467142D01*
X95437142Y-108399580D02*
X95389523Y-108447200D01*
X95389523Y-108447200D02*
X95246666Y-108494819D01*
X95246666Y-108494819D02*
X95151428Y-108494819D01*
X95151428Y-108494819D02*
X95008571Y-108447200D01*
X95008571Y-108447200D02*
X94913333Y-108351961D01*
X94913333Y-108351961D02*
X94865714Y-108256723D01*
X94865714Y-108256723D02*
X94818095Y-108066247D01*
X94818095Y-108066247D02*
X94818095Y-107923390D01*
X94818095Y-107923390D02*
X94865714Y-107732914D01*
X94865714Y-107732914D02*
X94913333Y-107637676D01*
X94913333Y-107637676D02*
X95008571Y-107542438D01*
X95008571Y-107542438D02*
X95151428Y-107494819D01*
X95151428Y-107494819D02*
X95246666Y-107494819D01*
X95246666Y-107494819D02*
X95389523Y-107542438D01*
X95389523Y-107542438D02*
X95437142Y-107590057D01*
X96294285Y-107828152D02*
X96294285Y-108494819D01*
X96056190Y-107447200D02*
X95818095Y-108161485D01*
X95818095Y-108161485D02*
X96437142Y-108161485D01*
X97246666Y-107494819D02*
X97056190Y-107494819D01*
X97056190Y-107494819D02*
X96960952Y-107542438D01*
X96960952Y-107542438D02*
X96913333Y-107590057D01*
X96913333Y-107590057D02*
X96818095Y-107732914D01*
X96818095Y-107732914D02*
X96770476Y-107923390D01*
X96770476Y-107923390D02*
X96770476Y-108304342D01*
X96770476Y-108304342D02*
X96818095Y-108399580D01*
X96818095Y-108399580D02*
X96865714Y-108447200D01*
X96865714Y-108447200D02*
X96960952Y-108494819D01*
X96960952Y-108494819D02*
X97151428Y-108494819D01*
X97151428Y-108494819D02*
X97246666Y-108447200D01*
X97246666Y-108447200D02*
X97294285Y-108399580D01*
X97294285Y-108399580D02*
X97341904Y-108304342D01*
X97341904Y-108304342D02*
X97341904Y-108066247D01*
X97341904Y-108066247D02*
X97294285Y-107971009D01*
X97294285Y-107971009D02*
X97246666Y-107923390D01*
X97246666Y-107923390D02*
X97151428Y-107875771D01*
X97151428Y-107875771D02*
X96960952Y-107875771D01*
X96960952Y-107875771D02*
X96865714Y-107923390D01*
X96865714Y-107923390D02*
X96818095Y-107971009D01*
X96818095Y-107971009D02*
X96770476Y-108066247D01*
X102324580Y-107842857D02*
X102372200Y-107890476D01*
X102372200Y-107890476D02*
X102419819Y-108033333D01*
X102419819Y-108033333D02*
X102419819Y-108128571D01*
X102419819Y-108128571D02*
X102372200Y-108271428D01*
X102372200Y-108271428D02*
X102276961Y-108366666D01*
X102276961Y-108366666D02*
X102181723Y-108414285D01*
X102181723Y-108414285D02*
X101991247Y-108461904D01*
X101991247Y-108461904D02*
X101848390Y-108461904D01*
X101848390Y-108461904D02*
X101657914Y-108414285D01*
X101657914Y-108414285D02*
X101562676Y-108366666D01*
X101562676Y-108366666D02*
X101467438Y-108271428D01*
X101467438Y-108271428D02*
X101419819Y-108128571D01*
X101419819Y-108128571D02*
X101419819Y-108033333D01*
X101419819Y-108033333D02*
X101467438Y-107890476D01*
X101467438Y-107890476D02*
X101515057Y-107842857D01*
X101419819Y-107509523D02*
X101419819Y-106890476D01*
X101419819Y-106890476D02*
X101800771Y-107223809D01*
X101800771Y-107223809D02*
X101800771Y-107080952D01*
X101800771Y-107080952D02*
X101848390Y-106985714D01*
X101848390Y-106985714D02*
X101896009Y-106938095D01*
X101896009Y-106938095D02*
X101991247Y-106890476D01*
X101991247Y-106890476D02*
X102229342Y-106890476D01*
X102229342Y-106890476D02*
X102324580Y-106938095D01*
X102324580Y-106938095D02*
X102372200Y-106985714D01*
X102372200Y-106985714D02*
X102419819Y-107080952D01*
X102419819Y-107080952D02*
X102419819Y-107366666D01*
X102419819Y-107366666D02*
X102372200Y-107461904D01*
X102372200Y-107461904D02*
X102324580Y-107509523D01*
X102419819Y-106414285D02*
X102419819Y-106223809D01*
X102419819Y-106223809D02*
X102372200Y-106128571D01*
X102372200Y-106128571D02*
X102324580Y-106080952D01*
X102324580Y-106080952D02*
X102181723Y-105985714D01*
X102181723Y-105985714D02*
X101991247Y-105938095D01*
X101991247Y-105938095D02*
X101610295Y-105938095D01*
X101610295Y-105938095D02*
X101515057Y-105985714D01*
X101515057Y-105985714D02*
X101467438Y-106033333D01*
X101467438Y-106033333D02*
X101419819Y-106128571D01*
X101419819Y-106128571D02*
X101419819Y-106319047D01*
X101419819Y-106319047D02*
X101467438Y-106414285D01*
X101467438Y-106414285D02*
X101515057Y-106461904D01*
X101515057Y-106461904D02*
X101610295Y-106509523D01*
X101610295Y-106509523D02*
X101848390Y-106509523D01*
X101848390Y-106509523D02*
X101943628Y-106461904D01*
X101943628Y-106461904D02*
X101991247Y-106414285D01*
X101991247Y-106414285D02*
X102038866Y-106319047D01*
X102038866Y-106319047D02*
X102038866Y-106128571D01*
X102038866Y-106128571D02*
X101991247Y-106033333D01*
X101991247Y-106033333D02*
X101943628Y-105985714D01*
X101943628Y-105985714D02*
X101848390Y-105938095D01*
X100711095Y-127524819D02*
X100711095Y-128334342D01*
X100711095Y-128334342D02*
X100758714Y-128429580D01*
X100758714Y-128429580D02*
X100806333Y-128477200D01*
X100806333Y-128477200D02*
X100901571Y-128524819D01*
X100901571Y-128524819D02*
X101092047Y-128524819D01*
X101092047Y-128524819D02*
X101187285Y-128477200D01*
X101187285Y-128477200D02*
X101234904Y-128429580D01*
X101234904Y-128429580D02*
X101282523Y-128334342D01*
X101282523Y-128334342D02*
X101282523Y-127524819D01*
X102187285Y-127524819D02*
X101996809Y-127524819D01*
X101996809Y-127524819D02*
X101901571Y-127572438D01*
X101901571Y-127572438D02*
X101853952Y-127620057D01*
X101853952Y-127620057D02*
X101758714Y-127762914D01*
X101758714Y-127762914D02*
X101711095Y-127953390D01*
X101711095Y-127953390D02*
X101711095Y-128334342D01*
X101711095Y-128334342D02*
X101758714Y-128429580D01*
X101758714Y-128429580D02*
X101806333Y-128477200D01*
X101806333Y-128477200D02*
X101901571Y-128524819D01*
X101901571Y-128524819D02*
X102092047Y-128524819D01*
X102092047Y-128524819D02*
X102187285Y-128477200D01*
X102187285Y-128477200D02*
X102234904Y-128429580D01*
X102234904Y-128429580D02*
X102282523Y-128334342D01*
X102282523Y-128334342D02*
X102282523Y-128096247D01*
X102282523Y-128096247D02*
X102234904Y-128001009D01*
X102234904Y-128001009D02*
X102187285Y-127953390D01*
X102187285Y-127953390D02*
X102092047Y-127905771D01*
X102092047Y-127905771D02*
X101901571Y-127905771D01*
X101901571Y-127905771D02*
X101806333Y-127953390D01*
X101806333Y-127953390D02*
X101758714Y-128001009D01*
X101758714Y-128001009D02*
X101711095Y-128096247D01*
X112101905Y-95334819D02*
X112673333Y-95334819D01*
X112387619Y-96334819D02*
X112387619Y-95334819D01*
X113006667Y-96334819D02*
X113006667Y-95334819D01*
X113006667Y-95334819D02*
X113387619Y-95334819D01*
X113387619Y-95334819D02*
X113482857Y-95382438D01*
X113482857Y-95382438D02*
X113530476Y-95430057D01*
X113530476Y-95430057D02*
X113578095Y-95525295D01*
X113578095Y-95525295D02*
X113578095Y-95668152D01*
X113578095Y-95668152D02*
X113530476Y-95763390D01*
X113530476Y-95763390D02*
X113482857Y-95811009D01*
X113482857Y-95811009D02*
X113387619Y-95858628D01*
X113387619Y-95858628D02*
X113006667Y-95858628D01*
X114530476Y-96334819D02*
X113959048Y-96334819D01*
X114244762Y-96334819D02*
X114244762Y-95334819D01*
X114244762Y-95334819D02*
X114149524Y-95477676D01*
X114149524Y-95477676D02*
X114054286Y-95572914D01*
X114054286Y-95572914D02*
X113959048Y-95620533D01*
X114863810Y-95334819D02*
X115482857Y-95334819D01*
X115482857Y-95334819D02*
X115149524Y-95715771D01*
X115149524Y-95715771D02*
X115292381Y-95715771D01*
X115292381Y-95715771D02*
X115387619Y-95763390D01*
X115387619Y-95763390D02*
X115435238Y-95811009D01*
X115435238Y-95811009D02*
X115482857Y-95906247D01*
X115482857Y-95906247D02*
X115482857Y-96144342D01*
X115482857Y-96144342D02*
X115435238Y-96239580D01*
X115435238Y-96239580D02*
X115387619Y-96287200D01*
X115387619Y-96287200D02*
X115292381Y-96334819D01*
X115292381Y-96334819D02*
X115006667Y-96334819D01*
X115006667Y-96334819D02*
X114911429Y-96287200D01*
X114911429Y-96287200D02*
X114863810Y-96239580D01*
X96101819Y-122515094D02*
X96101819Y-121943666D01*
X97101819Y-122229380D02*
X96101819Y-122229380D01*
X97101819Y-121610332D02*
X96101819Y-121610332D01*
X96101819Y-121610332D02*
X96101819Y-121229380D01*
X96101819Y-121229380D02*
X96149438Y-121134142D01*
X96149438Y-121134142D02*
X96197057Y-121086523D01*
X96197057Y-121086523D02*
X96292295Y-121038904D01*
X96292295Y-121038904D02*
X96435152Y-121038904D01*
X96435152Y-121038904D02*
X96530390Y-121086523D01*
X96530390Y-121086523D02*
X96578009Y-121134142D01*
X96578009Y-121134142D02*
X96625628Y-121229380D01*
X96625628Y-121229380D02*
X96625628Y-121610332D01*
X96101819Y-120705570D02*
X96101819Y-120086523D01*
X96101819Y-120086523D02*
X96482771Y-120419856D01*
X96482771Y-120419856D02*
X96482771Y-120276999D01*
X96482771Y-120276999D02*
X96530390Y-120181761D01*
X96530390Y-120181761D02*
X96578009Y-120134142D01*
X96578009Y-120134142D02*
X96673247Y-120086523D01*
X96673247Y-120086523D02*
X96911342Y-120086523D01*
X96911342Y-120086523D02*
X97006580Y-120134142D01*
X97006580Y-120134142D02*
X97054200Y-120181761D01*
X97054200Y-120181761D02*
X97101819Y-120276999D01*
X97101819Y-120276999D02*
X97101819Y-120562713D01*
X97101819Y-120562713D02*
X97054200Y-120657951D01*
X97054200Y-120657951D02*
X97006580Y-120705570D01*
X96101819Y-119181761D02*
X96101819Y-119657951D01*
X96101819Y-119657951D02*
X96578009Y-119705570D01*
X96578009Y-119705570D02*
X96530390Y-119657951D01*
X96530390Y-119657951D02*
X96482771Y-119562713D01*
X96482771Y-119562713D02*
X96482771Y-119324618D01*
X96482771Y-119324618D02*
X96530390Y-119229380D01*
X96530390Y-119229380D02*
X96578009Y-119181761D01*
X96578009Y-119181761D02*
X96673247Y-119134142D01*
X96673247Y-119134142D02*
X96911342Y-119134142D01*
X96911342Y-119134142D02*
X97006580Y-119181761D01*
X97006580Y-119181761D02*
X97054200Y-119229380D01*
X97054200Y-119229380D02*
X97101819Y-119324618D01*
X97101819Y-119324618D02*
X97101819Y-119562713D01*
X97101819Y-119562713D02*
X97054200Y-119657951D01*
X97054200Y-119657951D02*
X97006580Y-119705570D01*
X102283095Y-95307819D02*
X102854523Y-95307819D01*
X102568809Y-96307819D02*
X102568809Y-95307819D01*
X103187857Y-96307819D02*
X103187857Y-95307819D01*
X103187857Y-95307819D02*
X103568809Y-95307819D01*
X103568809Y-95307819D02*
X103664047Y-95355438D01*
X103664047Y-95355438D02*
X103711666Y-95403057D01*
X103711666Y-95403057D02*
X103759285Y-95498295D01*
X103759285Y-95498295D02*
X103759285Y-95641152D01*
X103759285Y-95641152D02*
X103711666Y-95736390D01*
X103711666Y-95736390D02*
X103664047Y-95784009D01*
X103664047Y-95784009D02*
X103568809Y-95831628D01*
X103568809Y-95831628D02*
X103187857Y-95831628D01*
X104092619Y-95307819D02*
X104711666Y-95307819D01*
X104711666Y-95307819D02*
X104378333Y-95688771D01*
X104378333Y-95688771D02*
X104521190Y-95688771D01*
X104521190Y-95688771D02*
X104616428Y-95736390D01*
X104616428Y-95736390D02*
X104664047Y-95784009D01*
X104664047Y-95784009D02*
X104711666Y-95879247D01*
X104711666Y-95879247D02*
X104711666Y-96117342D01*
X104711666Y-96117342D02*
X104664047Y-96212580D01*
X104664047Y-96212580D02*
X104616428Y-96260200D01*
X104616428Y-96260200D02*
X104521190Y-96307819D01*
X104521190Y-96307819D02*
X104235476Y-96307819D01*
X104235476Y-96307819D02*
X104140238Y-96260200D01*
X104140238Y-96260200D02*
X104092619Y-96212580D01*
X98657580Y-124340857D02*
X98705200Y-124388476D01*
X98705200Y-124388476D02*
X98752819Y-124531333D01*
X98752819Y-124531333D02*
X98752819Y-124626571D01*
X98752819Y-124626571D02*
X98705200Y-124769428D01*
X98705200Y-124769428D02*
X98609961Y-124864666D01*
X98609961Y-124864666D02*
X98514723Y-124912285D01*
X98514723Y-124912285D02*
X98324247Y-124959904D01*
X98324247Y-124959904D02*
X98181390Y-124959904D01*
X98181390Y-124959904D02*
X97990914Y-124912285D01*
X97990914Y-124912285D02*
X97895676Y-124864666D01*
X97895676Y-124864666D02*
X97800438Y-124769428D01*
X97800438Y-124769428D02*
X97752819Y-124626571D01*
X97752819Y-124626571D02*
X97752819Y-124531333D01*
X97752819Y-124531333D02*
X97800438Y-124388476D01*
X97800438Y-124388476D02*
X97848057Y-124340857D01*
X98086152Y-123483714D02*
X98752819Y-123483714D01*
X97705200Y-123721809D02*
X98419485Y-123959904D01*
X98419485Y-123959904D02*
X98419485Y-123340857D01*
X97752819Y-122483714D02*
X97752819Y-122959904D01*
X97752819Y-122959904D02*
X98229009Y-123007523D01*
X98229009Y-123007523D02*
X98181390Y-122959904D01*
X98181390Y-122959904D02*
X98133771Y-122864666D01*
X98133771Y-122864666D02*
X98133771Y-122626571D01*
X98133771Y-122626571D02*
X98181390Y-122531333D01*
X98181390Y-122531333D02*
X98229009Y-122483714D01*
X98229009Y-122483714D02*
X98324247Y-122436095D01*
X98324247Y-122436095D02*
X98562342Y-122436095D01*
X98562342Y-122436095D02*
X98657580Y-122483714D01*
X98657580Y-122483714D02*
X98705200Y-122531333D01*
X98705200Y-122531333D02*
X98752819Y-122626571D01*
X98752819Y-122626571D02*
X98752819Y-122864666D01*
X98752819Y-122864666D02*
X98705200Y-122959904D01*
X98705200Y-122959904D02*
X98657580Y-123007523D01*
X112627580Y-125229857D02*
X112675200Y-125277476D01*
X112675200Y-125277476D02*
X112722819Y-125420333D01*
X112722819Y-125420333D02*
X112722819Y-125515571D01*
X112722819Y-125515571D02*
X112675200Y-125658428D01*
X112675200Y-125658428D02*
X112579961Y-125753666D01*
X112579961Y-125753666D02*
X112484723Y-125801285D01*
X112484723Y-125801285D02*
X112294247Y-125848904D01*
X112294247Y-125848904D02*
X112151390Y-125848904D01*
X112151390Y-125848904D02*
X111960914Y-125801285D01*
X111960914Y-125801285D02*
X111865676Y-125753666D01*
X111865676Y-125753666D02*
X111770438Y-125658428D01*
X111770438Y-125658428D02*
X111722819Y-125515571D01*
X111722819Y-125515571D02*
X111722819Y-125420333D01*
X111722819Y-125420333D02*
X111770438Y-125277476D01*
X111770438Y-125277476D02*
X111818057Y-125229857D01*
X111722819Y-124896523D02*
X111722819Y-124277476D01*
X111722819Y-124277476D02*
X112103771Y-124610809D01*
X112103771Y-124610809D02*
X112103771Y-124467952D01*
X112103771Y-124467952D02*
X112151390Y-124372714D01*
X112151390Y-124372714D02*
X112199009Y-124325095D01*
X112199009Y-124325095D02*
X112294247Y-124277476D01*
X112294247Y-124277476D02*
X112532342Y-124277476D01*
X112532342Y-124277476D02*
X112627580Y-124325095D01*
X112627580Y-124325095D02*
X112675200Y-124372714D01*
X112675200Y-124372714D02*
X112722819Y-124467952D01*
X112722819Y-124467952D02*
X112722819Y-124753666D01*
X112722819Y-124753666D02*
X112675200Y-124848904D01*
X112675200Y-124848904D02*
X112627580Y-124896523D01*
X111722819Y-123372714D02*
X111722819Y-123848904D01*
X111722819Y-123848904D02*
X112199009Y-123896523D01*
X112199009Y-123896523D02*
X112151390Y-123848904D01*
X112151390Y-123848904D02*
X112103771Y-123753666D01*
X112103771Y-123753666D02*
X112103771Y-123515571D01*
X112103771Y-123515571D02*
X112151390Y-123420333D01*
X112151390Y-123420333D02*
X112199009Y-123372714D01*
X112199009Y-123372714D02*
X112294247Y-123325095D01*
X112294247Y-123325095D02*
X112532342Y-123325095D01*
X112532342Y-123325095D02*
X112627580Y-123372714D01*
X112627580Y-123372714D02*
X112675200Y-123420333D01*
X112675200Y-123420333D02*
X112722819Y-123515571D01*
X112722819Y-123515571D02*
X112722819Y-123753666D01*
X112722819Y-123753666D02*
X112675200Y-123848904D01*
X112675200Y-123848904D02*
X112627580Y-123896523D01*
X114068095Y-122104819D02*
X114068095Y-122914342D01*
X114068095Y-122914342D02*
X114115714Y-123009580D01*
X114115714Y-123009580D02*
X114163333Y-123057200D01*
X114163333Y-123057200D02*
X114258571Y-123104819D01*
X114258571Y-123104819D02*
X114449047Y-123104819D01*
X114449047Y-123104819D02*
X114544285Y-123057200D01*
X114544285Y-123057200D02*
X114591904Y-123009580D01*
X114591904Y-123009580D02*
X114639523Y-122914342D01*
X114639523Y-122914342D02*
X114639523Y-122104819D01*
X115020476Y-122104819D02*
X115687142Y-122104819D01*
X115687142Y-122104819D02*
X115258571Y-123104819D01*
X101687142Y-134689580D02*
X101639523Y-134737200D01*
X101639523Y-134737200D02*
X101496666Y-134784819D01*
X101496666Y-134784819D02*
X101401428Y-134784819D01*
X101401428Y-134784819D02*
X101258571Y-134737200D01*
X101258571Y-134737200D02*
X101163333Y-134641961D01*
X101163333Y-134641961D02*
X101115714Y-134546723D01*
X101115714Y-134546723D02*
X101068095Y-134356247D01*
X101068095Y-134356247D02*
X101068095Y-134213390D01*
X101068095Y-134213390D02*
X101115714Y-134022914D01*
X101115714Y-134022914D02*
X101163333Y-133927676D01*
X101163333Y-133927676D02*
X101258571Y-133832438D01*
X101258571Y-133832438D02*
X101401428Y-133784819D01*
X101401428Y-133784819D02*
X101496666Y-133784819D01*
X101496666Y-133784819D02*
X101639523Y-133832438D01*
X101639523Y-133832438D02*
X101687142Y-133880057D01*
X102068095Y-133880057D02*
X102115714Y-133832438D01*
X102115714Y-133832438D02*
X102210952Y-133784819D01*
X102210952Y-133784819D02*
X102449047Y-133784819D01*
X102449047Y-133784819D02*
X102544285Y-133832438D01*
X102544285Y-133832438D02*
X102591904Y-133880057D01*
X102591904Y-133880057D02*
X102639523Y-133975295D01*
X102639523Y-133975295D02*
X102639523Y-134070533D01*
X102639523Y-134070533D02*
X102591904Y-134213390D01*
X102591904Y-134213390D02*
X102020476Y-134784819D01*
X102020476Y-134784819D02*
X102639523Y-134784819D01*
X102972857Y-133784819D02*
X103639523Y-133784819D01*
X103639523Y-133784819D02*
X103210952Y-134784819D01*
X106033095Y-95427819D02*
X106604523Y-95427819D01*
X106318809Y-96427819D02*
X106318809Y-95427819D01*
X106937857Y-96427819D02*
X106937857Y-95427819D01*
X106937857Y-95427819D02*
X107318809Y-95427819D01*
X107318809Y-95427819D02*
X107414047Y-95475438D01*
X107414047Y-95475438D02*
X107461666Y-95523057D01*
X107461666Y-95523057D02*
X107509285Y-95618295D01*
X107509285Y-95618295D02*
X107509285Y-95761152D01*
X107509285Y-95761152D02*
X107461666Y-95856390D01*
X107461666Y-95856390D02*
X107414047Y-95904009D01*
X107414047Y-95904009D02*
X107318809Y-95951628D01*
X107318809Y-95951628D02*
X106937857Y-95951628D01*
X108366428Y-95761152D02*
X108366428Y-96427819D01*
X108128333Y-95380200D02*
X107890238Y-96094485D01*
X107890238Y-96094485D02*
X108509285Y-96094485D01*
X117340142Y-128375580D02*
X117292523Y-128423200D01*
X117292523Y-128423200D02*
X117149666Y-128470819D01*
X117149666Y-128470819D02*
X117054428Y-128470819D01*
X117054428Y-128470819D02*
X116911571Y-128423200D01*
X116911571Y-128423200D02*
X116816333Y-128327961D01*
X116816333Y-128327961D02*
X116768714Y-128232723D01*
X116768714Y-128232723D02*
X116721095Y-128042247D01*
X116721095Y-128042247D02*
X116721095Y-127899390D01*
X116721095Y-127899390D02*
X116768714Y-127708914D01*
X116768714Y-127708914D02*
X116816333Y-127613676D01*
X116816333Y-127613676D02*
X116911571Y-127518438D01*
X116911571Y-127518438D02*
X117054428Y-127470819D01*
X117054428Y-127470819D02*
X117149666Y-127470819D01*
X117149666Y-127470819D02*
X117292523Y-127518438D01*
X117292523Y-127518438D02*
X117340142Y-127566057D01*
X117721095Y-127566057D02*
X117768714Y-127518438D01*
X117768714Y-127518438D02*
X117863952Y-127470819D01*
X117863952Y-127470819D02*
X118102047Y-127470819D01*
X118102047Y-127470819D02*
X118197285Y-127518438D01*
X118197285Y-127518438D02*
X118244904Y-127566057D01*
X118244904Y-127566057D02*
X118292523Y-127661295D01*
X118292523Y-127661295D02*
X118292523Y-127756533D01*
X118292523Y-127756533D02*
X118244904Y-127899390D01*
X118244904Y-127899390D02*
X117673476Y-128470819D01*
X117673476Y-128470819D02*
X118292523Y-128470819D01*
X118768714Y-128470819D02*
X118959190Y-128470819D01*
X118959190Y-128470819D02*
X119054428Y-128423200D01*
X119054428Y-128423200D02*
X119102047Y-128375580D01*
X119102047Y-128375580D02*
X119197285Y-128232723D01*
X119197285Y-128232723D02*
X119244904Y-128042247D01*
X119244904Y-128042247D02*
X119244904Y-127661295D01*
X119244904Y-127661295D02*
X119197285Y-127566057D01*
X119197285Y-127566057D02*
X119149666Y-127518438D01*
X119149666Y-127518438D02*
X119054428Y-127470819D01*
X119054428Y-127470819D02*
X118863952Y-127470819D01*
X118863952Y-127470819D02*
X118768714Y-127518438D01*
X118768714Y-127518438D02*
X118721095Y-127566057D01*
X118721095Y-127566057D02*
X118673476Y-127661295D01*
X118673476Y-127661295D02*
X118673476Y-127899390D01*
X118673476Y-127899390D02*
X118721095Y-127994628D01*
X118721095Y-127994628D02*
X118768714Y-128042247D01*
X118768714Y-128042247D02*
X118863952Y-128089866D01*
X118863952Y-128089866D02*
X119054428Y-128089866D01*
X119054428Y-128089866D02*
X119149666Y-128042247D01*
X119149666Y-128042247D02*
X119197285Y-127994628D01*
X119197285Y-127994628D02*
X119244904Y-127899390D01*
X109386905Y-100894819D02*
X109958333Y-100894819D01*
X109672619Y-101894819D02*
X109672619Y-100894819D01*
X110291667Y-101894819D02*
X110291667Y-100894819D01*
X110291667Y-100894819D02*
X110672619Y-100894819D01*
X110672619Y-100894819D02*
X110767857Y-100942438D01*
X110767857Y-100942438D02*
X110815476Y-100990057D01*
X110815476Y-100990057D02*
X110863095Y-101085295D01*
X110863095Y-101085295D02*
X110863095Y-101228152D01*
X110863095Y-101228152D02*
X110815476Y-101323390D01*
X110815476Y-101323390D02*
X110767857Y-101371009D01*
X110767857Y-101371009D02*
X110672619Y-101418628D01*
X110672619Y-101418628D02*
X110291667Y-101418628D01*
X111815476Y-101894819D02*
X111244048Y-101894819D01*
X111529762Y-101894819D02*
X111529762Y-100894819D01*
X111529762Y-100894819D02*
X111434524Y-101037676D01*
X111434524Y-101037676D02*
X111339286Y-101132914D01*
X111339286Y-101132914D02*
X111244048Y-101180533D01*
X112672619Y-101228152D02*
X112672619Y-101894819D01*
X112434524Y-100847200D02*
X112196429Y-101561485D01*
X112196429Y-101561485D02*
X112815476Y-101561485D01*
X125027142Y-119514819D02*
X124693809Y-119038628D01*
X124455714Y-119514819D02*
X124455714Y-118514819D01*
X124455714Y-118514819D02*
X124836666Y-118514819D01*
X124836666Y-118514819D02*
X124931904Y-118562438D01*
X124931904Y-118562438D02*
X124979523Y-118610057D01*
X124979523Y-118610057D02*
X125027142Y-118705295D01*
X125027142Y-118705295D02*
X125027142Y-118848152D01*
X125027142Y-118848152D02*
X124979523Y-118943390D01*
X124979523Y-118943390D02*
X124931904Y-118991009D01*
X124931904Y-118991009D02*
X124836666Y-119038628D01*
X124836666Y-119038628D02*
X124455714Y-119038628D01*
X125979523Y-119514819D02*
X125408095Y-119514819D01*
X125693809Y-119514819D02*
X125693809Y-118514819D01*
X125693809Y-118514819D02*
X125598571Y-118657676D01*
X125598571Y-118657676D02*
X125503333Y-118752914D01*
X125503333Y-118752914D02*
X125408095Y-118800533D01*
X126455714Y-119514819D02*
X126646190Y-119514819D01*
X126646190Y-119514819D02*
X126741428Y-119467200D01*
X126741428Y-119467200D02*
X126789047Y-119419580D01*
X126789047Y-119419580D02*
X126884285Y-119276723D01*
X126884285Y-119276723D02*
X126931904Y-119086247D01*
X126931904Y-119086247D02*
X126931904Y-118705295D01*
X126931904Y-118705295D02*
X126884285Y-118610057D01*
X126884285Y-118610057D02*
X126836666Y-118562438D01*
X126836666Y-118562438D02*
X126741428Y-118514819D01*
X126741428Y-118514819D02*
X126550952Y-118514819D01*
X126550952Y-118514819D02*
X126455714Y-118562438D01*
X126455714Y-118562438D02*
X126408095Y-118610057D01*
X126408095Y-118610057D02*
X126360476Y-118705295D01*
X126360476Y-118705295D02*
X126360476Y-118943390D01*
X126360476Y-118943390D02*
X126408095Y-119038628D01*
X126408095Y-119038628D02*
X126455714Y-119086247D01*
X126455714Y-119086247D02*
X126550952Y-119133866D01*
X126550952Y-119133866D02*
X126741428Y-119133866D01*
X126741428Y-119133866D02*
X126836666Y-119086247D01*
X126836666Y-119086247D02*
X126884285Y-119038628D01*
X126884285Y-119038628D02*
X126931904Y-118943390D01*
X86921905Y-123374819D02*
X87493333Y-123374819D01*
X87207619Y-124374819D02*
X87207619Y-123374819D01*
X87826667Y-124374819D02*
X87826667Y-123374819D01*
X87826667Y-123374819D02*
X88207619Y-123374819D01*
X88207619Y-123374819D02*
X88302857Y-123422438D01*
X88302857Y-123422438D02*
X88350476Y-123470057D01*
X88350476Y-123470057D02*
X88398095Y-123565295D01*
X88398095Y-123565295D02*
X88398095Y-123708152D01*
X88398095Y-123708152D02*
X88350476Y-123803390D01*
X88350476Y-123803390D02*
X88302857Y-123851009D01*
X88302857Y-123851009D02*
X88207619Y-123898628D01*
X88207619Y-123898628D02*
X87826667Y-123898628D01*
X88731429Y-123374819D02*
X89350476Y-123374819D01*
X89350476Y-123374819D02*
X89017143Y-123755771D01*
X89017143Y-123755771D02*
X89160000Y-123755771D01*
X89160000Y-123755771D02*
X89255238Y-123803390D01*
X89255238Y-123803390D02*
X89302857Y-123851009D01*
X89302857Y-123851009D02*
X89350476Y-123946247D01*
X89350476Y-123946247D02*
X89350476Y-124184342D01*
X89350476Y-124184342D02*
X89302857Y-124279580D01*
X89302857Y-124279580D02*
X89255238Y-124327200D01*
X89255238Y-124327200D02*
X89160000Y-124374819D01*
X89160000Y-124374819D02*
X88874286Y-124374819D01*
X88874286Y-124374819D02*
X88779048Y-124327200D01*
X88779048Y-124327200D02*
X88731429Y-124279580D01*
X90207619Y-123374819D02*
X90017143Y-123374819D01*
X90017143Y-123374819D02*
X89921905Y-123422438D01*
X89921905Y-123422438D02*
X89874286Y-123470057D01*
X89874286Y-123470057D02*
X89779048Y-123612914D01*
X89779048Y-123612914D02*
X89731429Y-123803390D01*
X89731429Y-123803390D02*
X89731429Y-124184342D01*
X89731429Y-124184342D02*
X89779048Y-124279580D01*
X89779048Y-124279580D02*
X89826667Y-124327200D01*
X89826667Y-124327200D02*
X89921905Y-124374819D01*
X89921905Y-124374819D02*
X90112381Y-124374819D01*
X90112381Y-124374819D02*
X90207619Y-124327200D01*
X90207619Y-124327200D02*
X90255238Y-124279580D01*
X90255238Y-124279580D02*
X90302857Y-124184342D01*
X90302857Y-124184342D02*
X90302857Y-123946247D01*
X90302857Y-123946247D02*
X90255238Y-123851009D01*
X90255238Y-123851009D02*
X90207619Y-123803390D01*
X90207619Y-123803390D02*
X90112381Y-123755771D01*
X90112381Y-123755771D02*
X89921905Y-123755771D01*
X89921905Y-123755771D02*
X89826667Y-123803390D01*
X89826667Y-123803390D02*
X89779048Y-123851009D01*
X89779048Y-123851009D02*
X89731429Y-123946247D01*
X106059580Y-109442857D02*
X106107200Y-109490476D01*
X106107200Y-109490476D02*
X106154819Y-109633333D01*
X106154819Y-109633333D02*
X106154819Y-109728571D01*
X106154819Y-109728571D02*
X106107200Y-109871428D01*
X106107200Y-109871428D02*
X106011961Y-109966666D01*
X106011961Y-109966666D02*
X105916723Y-110014285D01*
X105916723Y-110014285D02*
X105726247Y-110061904D01*
X105726247Y-110061904D02*
X105583390Y-110061904D01*
X105583390Y-110061904D02*
X105392914Y-110014285D01*
X105392914Y-110014285D02*
X105297676Y-109966666D01*
X105297676Y-109966666D02*
X105202438Y-109871428D01*
X105202438Y-109871428D02*
X105154819Y-109728571D01*
X105154819Y-109728571D02*
X105154819Y-109633333D01*
X105154819Y-109633333D02*
X105202438Y-109490476D01*
X105202438Y-109490476D02*
X105250057Y-109442857D01*
X105488152Y-108585714D02*
X106154819Y-108585714D01*
X105107200Y-108823809D02*
X105821485Y-109061904D01*
X105821485Y-109061904D02*
X105821485Y-108442857D01*
X105154819Y-108157142D02*
X105154819Y-107538095D01*
X105154819Y-107538095D02*
X105535771Y-107871428D01*
X105535771Y-107871428D02*
X105535771Y-107728571D01*
X105535771Y-107728571D02*
X105583390Y-107633333D01*
X105583390Y-107633333D02*
X105631009Y-107585714D01*
X105631009Y-107585714D02*
X105726247Y-107538095D01*
X105726247Y-107538095D02*
X105964342Y-107538095D01*
X105964342Y-107538095D02*
X106059580Y-107585714D01*
X106059580Y-107585714D02*
X106107200Y-107633333D01*
X106107200Y-107633333D02*
X106154819Y-107728571D01*
X106154819Y-107728571D02*
X106154819Y-108014285D01*
X106154819Y-108014285D02*
X106107200Y-108109523D01*
X106107200Y-108109523D02*
X106059580Y-108157142D01*
X120721905Y-107724819D02*
X121293333Y-107724819D01*
X121007619Y-108724819D02*
X121007619Y-107724819D01*
X121626667Y-108724819D02*
X121626667Y-107724819D01*
X121626667Y-107724819D02*
X122007619Y-107724819D01*
X122007619Y-107724819D02*
X122102857Y-107772438D01*
X122102857Y-107772438D02*
X122150476Y-107820057D01*
X122150476Y-107820057D02*
X122198095Y-107915295D01*
X122198095Y-107915295D02*
X122198095Y-108058152D01*
X122198095Y-108058152D02*
X122150476Y-108153390D01*
X122150476Y-108153390D02*
X122102857Y-108201009D01*
X122102857Y-108201009D02*
X122007619Y-108248628D01*
X122007619Y-108248628D02*
X121626667Y-108248628D01*
X123150476Y-108724819D02*
X122579048Y-108724819D01*
X122864762Y-108724819D02*
X122864762Y-107724819D01*
X122864762Y-107724819D02*
X122769524Y-107867676D01*
X122769524Y-107867676D02*
X122674286Y-107962914D01*
X122674286Y-107962914D02*
X122579048Y-108010533D01*
X124055238Y-107724819D02*
X123579048Y-107724819D01*
X123579048Y-107724819D02*
X123531429Y-108201009D01*
X123531429Y-108201009D02*
X123579048Y-108153390D01*
X123579048Y-108153390D02*
X123674286Y-108105771D01*
X123674286Y-108105771D02*
X123912381Y-108105771D01*
X123912381Y-108105771D02*
X124007619Y-108153390D01*
X124007619Y-108153390D02*
X124055238Y-108201009D01*
X124055238Y-108201009D02*
X124102857Y-108296247D01*
X124102857Y-108296247D02*
X124102857Y-108534342D01*
X124102857Y-108534342D02*
X124055238Y-108629580D01*
X124055238Y-108629580D02*
X124007619Y-108677200D01*
X124007619Y-108677200D02*
X123912381Y-108724819D01*
X123912381Y-108724819D02*
X123674286Y-108724819D01*
X123674286Y-108724819D02*
X123579048Y-108677200D01*
X123579048Y-108677200D02*
X123531429Y-108629580D01*
X119546905Y-123406819D02*
X120118333Y-123406819D01*
X119832619Y-124406819D02*
X119832619Y-123406819D01*
X120451667Y-124406819D02*
X120451667Y-123406819D01*
X120451667Y-123406819D02*
X120832619Y-123406819D01*
X120832619Y-123406819D02*
X120927857Y-123454438D01*
X120927857Y-123454438D02*
X120975476Y-123502057D01*
X120975476Y-123502057D02*
X121023095Y-123597295D01*
X121023095Y-123597295D02*
X121023095Y-123740152D01*
X121023095Y-123740152D02*
X120975476Y-123835390D01*
X120975476Y-123835390D02*
X120927857Y-123883009D01*
X120927857Y-123883009D02*
X120832619Y-123930628D01*
X120832619Y-123930628D02*
X120451667Y-123930628D01*
X121404048Y-123502057D02*
X121451667Y-123454438D01*
X121451667Y-123454438D02*
X121546905Y-123406819D01*
X121546905Y-123406819D02*
X121785000Y-123406819D01*
X121785000Y-123406819D02*
X121880238Y-123454438D01*
X121880238Y-123454438D02*
X121927857Y-123502057D01*
X121927857Y-123502057D02*
X121975476Y-123597295D01*
X121975476Y-123597295D02*
X121975476Y-123692533D01*
X121975476Y-123692533D02*
X121927857Y-123835390D01*
X121927857Y-123835390D02*
X121356429Y-124406819D01*
X121356429Y-124406819D02*
X121975476Y-124406819D01*
X122356429Y-123502057D02*
X122404048Y-123454438D01*
X122404048Y-123454438D02*
X122499286Y-123406819D01*
X122499286Y-123406819D02*
X122737381Y-123406819D01*
X122737381Y-123406819D02*
X122832619Y-123454438D01*
X122832619Y-123454438D02*
X122880238Y-123502057D01*
X122880238Y-123502057D02*
X122927857Y-123597295D01*
X122927857Y-123597295D02*
X122927857Y-123692533D01*
X122927857Y-123692533D02*
X122880238Y-123835390D01*
X122880238Y-123835390D02*
X122308810Y-124406819D01*
X122308810Y-124406819D02*
X122927857Y-124406819D01*
X105148142Y-141678819D02*
X104814809Y-141202628D01*
X104576714Y-141678819D02*
X104576714Y-140678819D01*
X104576714Y-140678819D02*
X104957666Y-140678819D01*
X104957666Y-140678819D02*
X105052904Y-140726438D01*
X105052904Y-140726438D02*
X105100523Y-140774057D01*
X105100523Y-140774057D02*
X105148142Y-140869295D01*
X105148142Y-140869295D02*
X105148142Y-141012152D01*
X105148142Y-141012152D02*
X105100523Y-141107390D01*
X105100523Y-141107390D02*
X105052904Y-141155009D01*
X105052904Y-141155009D02*
X104957666Y-141202628D01*
X104957666Y-141202628D02*
X104576714Y-141202628D01*
X105529095Y-140774057D02*
X105576714Y-140726438D01*
X105576714Y-140726438D02*
X105671952Y-140678819D01*
X105671952Y-140678819D02*
X105910047Y-140678819D01*
X105910047Y-140678819D02*
X106005285Y-140726438D01*
X106005285Y-140726438D02*
X106052904Y-140774057D01*
X106052904Y-140774057D02*
X106100523Y-140869295D01*
X106100523Y-140869295D02*
X106100523Y-140964533D01*
X106100523Y-140964533D02*
X106052904Y-141107390D01*
X106052904Y-141107390D02*
X105481476Y-141678819D01*
X105481476Y-141678819D02*
X106100523Y-141678819D01*
X107005285Y-140678819D02*
X106529095Y-140678819D01*
X106529095Y-140678819D02*
X106481476Y-141155009D01*
X106481476Y-141155009D02*
X106529095Y-141107390D01*
X106529095Y-141107390D02*
X106624333Y-141059771D01*
X106624333Y-141059771D02*
X106862428Y-141059771D01*
X106862428Y-141059771D02*
X106957666Y-141107390D01*
X106957666Y-141107390D02*
X107005285Y-141155009D01*
X107005285Y-141155009D02*
X107052904Y-141250247D01*
X107052904Y-141250247D02*
X107052904Y-141488342D01*
X107052904Y-141488342D02*
X107005285Y-141583580D01*
X107005285Y-141583580D02*
X106957666Y-141631200D01*
X106957666Y-141631200D02*
X106862428Y-141678819D01*
X106862428Y-141678819D02*
X106624333Y-141678819D01*
X106624333Y-141678819D02*
X106529095Y-141631200D01*
X106529095Y-141631200D02*
X106481476Y-141583580D01*
X91049819Y-131198094D02*
X91859342Y-131198094D01*
X91859342Y-131198094D02*
X91954580Y-131150475D01*
X91954580Y-131150475D02*
X92002200Y-131102856D01*
X92002200Y-131102856D02*
X92049819Y-131007618D01*
X92049819Y-131007618D02*
X92049819Y-130817142D01*
X92049819Y-130817142D02*
X92002200Y-130721904D01*
X92002200Y-130721904D02*
X91954580Y-130674285D01*
X91954580Y-130674285D02*
X91859342Y-130626666D01*
X91859342Y-130626666D02*
X91049819Y-130626666D01*
X92049819Y-129626666D02*
X92049819Y-130198094D01*
X92049819Y-129912380D02*
X91049819Y-129912380D01*
X91049819Y-129912380D02*
X91192676Y-130007618D01*
X91192676Y-130007618D02*
X91287914Y-130102856D01*
X91287914Y-130102856D02*
X91335533Y-130198094D01*
X91049819Y-129007618D02*
X91049819Y-128912380D01*
X91049819Y-128912380D02*
X91097438Y-128817142D01*
X91097438Y-128817142D02*
X91145057Y-128769523D01*
X91145057Y-128769523D02*
X91240295Y-128721904D01*
X91240295Y-128721904D02*
X91430771Y-128674285D01*
X91430771Y-128674285D02*
X91668866Y-128674285D01*
X91668866Y-128674285D02*
X91859342Y-128721904D01*
X91859342Y-128721904D02*
X91954580Y-128769523D01*
X91954580Y-128769523D02*
X92002200Y-128817142D01*
X92002200Y-128817142D02*
X92049819Y-128912380D01*
X92049819Y-128912380D02*
X92049819Y-129007618D01*
X92049819Y-129007618D02*
X92002200Y-129102856D01*
X92002200Y-129102856D02*
X91954580Y-129150475D01*
X91954580Y-129150475D02*
X91859342Y-129198094D01*
X91859342Y-129198094D02*
X91668866Y-129245713D01*
X91668866Y-129245713D02*
X91430771Y-129245713D01*
X91430771Y-129245713D02*
X91240295Y-129198094D01*
X91240295Y-129198094D02*
X91145057Y-129150475D01*
X91145057Y-129150475D02*
X91097438Y-129102856D01*
X91097438Y-129102856D02*
X91049819Y-129007618D01*
X109093095Y-127283819D02*
X109093095Y-128093342D01*
X109093095Y-128093342D02*
X109140714Y-128188580D01*
X109140714Y-128188580D02*
X109188333Y-128236200D01*
X109188333Y-128236200D02*
X109283571Y-128283819D01*
X109283571Y-128283819D02*
X109474047Y-128283819D01*
X109474047Y-128283819D02*
X109569285Y-128236200D01*
X109569285Y-128236200D02*
X109616904Y-128188580D01*
X109616904Y-128188580D02*
X109664523Y-128093342D01*
X109664523Y-128093342D02*
X109664523Y-127283819D01*
X110616904Y-127283819D02*
X110140714Y-127283819D01*
X110140714Y-127283819D02*
X110093095Y-127760009D01*
X110093095Y-127760009D02*
X110140714Y-127712390D01*
X110140714Y-127712390D02*
X110235952Y-127664771D01*
X110235952Y-127664771D02*
X110474047Y-127664771D01*
X110474047Y-127664771D02*
X110569285Y-127712390D01*
X110569285Y-127712390D02*
X110616904Y-127760009D01*
X110616904Y-127760009D02*
X110664523Y-127855247D01*
X110664523Y-127855247D02*
X110664523Y-128093342D01*
X110664523Y-128093342D02*
X110616904Y-128188580D01*
X110616904Y-128188580D02*
X110569285Y-128236200D01*
X110569285Y-128236200D02*
X110474047Y-128283819D01*
X110474047Y-128283819D02*
X110235952Y-128283819D01*
X110235952Y-128283819D02*
X110140714Y-128236200D01*
X110140714Y-128236200D02*
X110093095Y-128188580D01*
X123168580Y-97416857D02*
X123216200Y-97464476D01*
X123216200Y-97464476D02*
X123263819Y-97607333D01*
X123263819Y-97607333D02*
X123263819Y-97702571D01*
X123263819Y-97702571D02*
X123216200Y-97845428D01*
X123216200Y-97845428D02*
X123120961Y-97940666D01*
X123120961Y-97940666D02*
X123025723Y-97988285D01*
X123025723Y-97988285D02*
X122835247Y-98035904D01*
X122835247Y-98035904D02*
X122692390Y-98035904D01*
X122692390Y-98035904D02*
X122501914Y-97988285D01*
X122501914Y-97988285D02*
X122406676Y-97940666D01*
X122406676Y-97940666D02*
X122311438Y-97845428D01*
X122311438Y-97845428D02*
X122263819Y-97702571D01*
X122263819Y-97702571D02*
X122263819Y-97607333D01*
X122263819Y-97607333D02*
X122311438Y-97464476D01*
X122311438Y-97464476D02*
X122359057Y-97416857D01*
X122597152Y-96559714D02*
X123263819Y-96559714D01*
X122216200Y-96797809D02*
X122930485Y-97035904D01*
X122930485Y-97035904D02*
X122930485Y-96416857D01*
X123263819Y-95988285D02*
X123263819Y-95797809D01*
X123263819Y-95797809D02*
X123216200Y-95702571D01*
X123216200Y-95702571D02*
X123168580Y-95654952D01*
X123168580Y-95654952D02*
X123025723Y-95559714D01*
X123025723Y-95559714D02*
X122835247Y-95512095D01*
X122835247Y-95512095D02*
X122454295Y-95512095D01*
X122454295Y-95512095D02*
X122359057Y-95559714D01*
X122359057Y-95559714D02*
X122311438Y-95607333D01*
X122311438Y-95607333D02*
X122263819Y-95702571D01*
X122263819Y-95702571D02*
X122263819Y-95893047D01*
X122263819Y-95893047D02*
X122311438Y-95988285D01*
X122311438Y-95988285D02*
X122359057Y-96035904D01*
X122359057Y-96035904D02*
X122454295Y-96083523D01*
X122454295Y-96083523D02*
X122692390Y-96083523D01*
X122692390Y-96083523D02*
X122787628Y-96035904D01*
X122787628Y-96035904D02*
X122835247Y-95988285D01*
X122835247Y-95988285D02*
X122882866Y-95893047D01*
X122882866Y-95893047D02*
X122882866Y-95702571D01*
X122882866Y-95702571D02*
X122835247Y-95607333D01*
X122835247Y-95607333D02*
X122787628Y-95559714D01*
X122787628Y-95559714D02*
X122692390Y-95512095D01*
X103704580Y-107862857D02*
X103752200Y-107910476D01*
X103752200Y-107910476D02*
X103799819Y-108053333D01*
X103799819Y-108053333D02*
X103799819Y-108148571D01*
X103799819Y-108148571D02*
X103752200Y-108291428D01*
X103752200Y-108291428D02*
X103656961Y-108386666D01*
X103656961Y-108386666D02*
X103561723Y-108434285D01*
X103561723Y-108434285D02*
X103371247Y-108481904D01*
X103371247Y-108481904D02*
X103228390Y-108481904D01*
X103228390Y-108481904D02*
X103037914Y-108434285D01*
X103037914Y-108434285D02*
X102942676Y-108386666D01*
X102942676Y-108386666D02*
X102847438Y-108291428D01*
X102847438Y-108291428D02*
X102799819Y-108148571D01*
X102799819Y-108148571D02*
X102799819Y-108053333D01*
X102799819Y-108053333D02*
X102847438Y-107910476D01*
X102847438Y-107910476D02*
X102895057Y-107862857D01*
X102799819Y-107529523D02*
X102799819Y-106910476D01*
X102799819Y-106910476D02*
X103180771Y-107243809D01*
X103180771Y-107243809D02*
X103180771Y-107100952D01*
X103180771Y-107100952D02*
X103228390Y-107005714D01*
X103228390Y-107005714D02*
X103276009Y-106958095D01*
X103276009Y-106958095D02*
X103371247Y-106910476D01*
X103371247Y-106910476D02*
X103609342Y-106910476D01*
X103609342Y-106910476D02*
X103704580Y-106958095D01*
X103704580Y-106958095D02*
X103752200Y-107005714D01*
X103752200Y-107005714D02*
X103799819Y-107100952D01*
X103799819Y-107100952D02*
X103799819Y-107386666D01*
X103799819Y-107386666D02*
X103752200Y-107481904D01*
X103752200Y-107481904D02*
X103704580Y-107529523D01*
X103228390Y-106339047D02*
X103180771Y-106434285D01*
X103180771Y-106434285D02*
X103133152Y-106481904D01*
X103133152Y-106481904D02*
X103037914Y-106529523D01*
X103037914Y-106529523D02*
X102990295Y-106529523D01*
X102990295Y-106529523D02*
X102895057Y-106481904D01*
X102895057Y-106481904D02*
X102847438Y-106434285D01*
X102847438Y-106434285D02*
X102799819Y-106339047D01*
X102799819Y-106339047D02*
X102799819Y-106148571D01*
X102799819Y-106148571D02*
X102847438Y-106053333D01*
X102847438Y-106053333D02*
X102895057Y-106005714D01*
X102895057Y-106005714D02*
X102990295Y-105958095D01*
X102990295Y-105958095D02*
X103037914Y-105958095D01*
X103037914Y-105958095D02*
X103133152Y-106005714D01*
X103133152Y-106005714D02*
X103180771Y-106053333D01*
X103180771Y-106053333D02*
X103228390Y-106148571D01*
X103228390Y-106148571D02*
X103228390Y-106339047D01*
X103228390Y-106339047D02*
X103276009Y-106434285D01*
X103276009Y-106434285D02*
X103323628Y-106481904D01*
X103323628Y-106481904D02*
X103418866Y-106529523D01*
X103418866Y-106529523D02*
X103609342Y-106529523D01*
X103609342Y-106529523D02*
X103704580Y-106481904D01*
X103704580Y-106481904D02*
X103752200Y-106434285D01*
X103752200Y-106434285D02*
X103799819Y-106339047D01*
X103799819Y-106339047D02*
X103799819Y-106148571D01*
X103799819Y-106148571D02*
X103752200Y-106053333D01*
X103752200Y-106053333D02*
X103704580Y-106005714D01*
X103704580Y-106005714D02*
X103609342Y-105958095D01*
X103609342Y-105958095D02*
X103418866Y-105958095D01*
X103418866Y-105958095D02*
X103323628Y-106005714D01*
X103323628Y-106005714D02*
X103276009Y-106053333D01*
X103276009Y-106053333D02*
X103228390Y-106148571D01*
X119037142Y-112244819D02*
X118703809Y-111768628D01*
X118465714Y-112244819D02*
X118465714Y-111244819D01*
X118465714Y-111244819D02*
X118846666Y-111244819D01*
X118846666Y-111244819D02*
X118941904Y-111292438D01*
X118941904Y-111292438D02*
X118989523Y-111340057D01*
X118989523Y-111340057D02*
X119037142Y-111435295D01*
X119037142Y-111435295D02*
X119037142Y-111578152D01*
X119037142Y-111578152D02*
X118989523Y-111673390D01*
X118989523Y-111673390D02*
X118941904Y-111721009D01*
X118941904Y-111721009D02*
X118846666Y-111768628D01*
X118846666Y-111768628D02*
X118465714Y-111768628D01*
X119989523Y-112244819D02*
X119418095Y-112244819D01*
X119703809Y-112244819D02*
X119703809Y-111244819D01*
X119703809Y-111244819D02*
X119608571Y-111387676D01*
X119608571Y-111387676D02*
X119513333Y-111482914D01*
X119513333Y-111482914D02*
X119418095Y-111530533D01*
X120322857Y-111244819D02*
X120989523Y-111244819D01*
X120989523Y-111244819D02*
X120560952Y-112244819D01*
X124021905Y-113494819D02*
X124593333Y-113494819D01*
X124307619Y-114494819D02*
X124307619Y-113494819D01*
X124926667Y-114494819D02*
X124926667Y-113494819D01*
X124926667Y-113494819D02*
X125307619Y-113494819D01*
X125307619Y-113494819D02*
X125402857Y-113542438D01*
X125402857Y-113542438D02*
X125450476Y-113590057D01*
X125450476Y-113590057D02*
X125498095Y-113685295D01*
X125498095Y-113685295D02*
X125498095Y-113828152D01*
X125498095Y-113828152D02*
X125450476Y-113923390D01*
X125450476Y-113923390D02*
X125402857Y-113971009D01*
X125402857Y-113971009D02*
X125307619Y-114018628D01*
X125307619Y-114018628D02*
X124926667Y-114018628D01*
X126450476Y-114494819D02*
X125879048Y-114494819D01*
X126164762Y-114494819D02*
X126164762Y-113494819D01*
X126164762Y-113494819D02*
X126069524Y-113637676D01*
X126069524Y-113637676D02*
X125974286Y-113732914D01*
X125974286Y-113732914D02*
X125879048Y-113780533D01*
X127307619Y-113494819D02*
X127117143Y-113494819D01*
X127117143Y-113494819D02*
X127021905Y-113542438D01*
X127021905Y-113542438D02*
X126974286Y-113590057D01*
X126974286Y-113590057D02*
X126879048Y-113732914D01*
X126879048Y-113732914D02*
X126831429Y-113923390D01*
X126831429Y-113923390D02*
X126831429Y-114304342D01*
X126831429Y-114304342D02*
X126879048Y-114399580D01*
X126879048Y-114399580D02*
X126926667Y-114447200D01*
X126926667Y-114447200D02*
X127021905Y-114494819D01*
X127021905Y-114494819D02*
X127212381Y-114494819D01*
X127212381Y-114494819D02*
X127307619Y-114447200D01*
X127307619Y-114447200D02*
X127355238Y-114399580D01*
X127355238Y-114399580D02*
X127402857Y-114304342D01*
X127402857Y-114304342D02*
X127402857Y-114066247D01*
X127402857Y-114066247D02*
X127355238Y-113971009D01*
X127355238Y-113971009D02*
X127307619Y-113923390D01*
X127307619Y-113923390D02*
X127212381Y-113875771D01*
X127212381Y-113875771D02*
X127021905Y-113875771D01*
X127021905Y-113875771D02*
X126926667Y-113923390D01*
X126926667Y-113923390D02*
X126879048Y-113971009D01*
X126879048Y-113971009D02*
X126831429Y-114066247D01*
X100816580Y-141358857D02*
X100864200Y-141406476D01*
X100864200Y-141406476D02*
X100911819Y-141549333D01*
X100911819Y-141549333D02*
X100911819Y-141644571D01*
X100911819Y-141644571D02*
X100864200Y-141787428D01*
X100864200Y-141787428D02*
X100768961Y-141882666D01*
X100768961Y-141882666D02*
X100673723Y-141930285D01*
X100673723Y-141930285D02*
X100483247Y-141977904D01*
X100483247Y-141977904D02*
X100340390Y-141977904D01*
X100340390Y-141977904D02*
X100149914Y-141930285D01*
X100149914Y-141930285D02*
X100054676Y-141882666D01*
X100054676Y-141882666D02*
X99959438Y-141787428D01*
X99959438Y-141787428D02*
X99911819Y-141644571D01*
X99911819Y-141644571D02*
X99911819Y-141549333D01*
X99911819Y-141549333D02*
X99959438Y-141406476D01*
X99959438Y-141406476D02*
X100007057Y-141358857D01*
X99911819Y-140454095D02*
X99911819Y-140930285D01*
X99911819Y-140930285D02*
X100388009Y-140977904D01*
X100388009Y-140977904D02*
X100340390Y-140930285D01*
X100340390Y-140930285D02*
X100292771Y-140835047D01*
X100292771Y-140835047D02*
X100292771Y-140596952D01*
X100292771Y-140596952D02*
X100340390Y-140501714D01*
X100340390Y-140501714D02*
X100388009Y-140454095D01*
X100388009Y-140454095D02*
X100483247Y-140406476D01*
X100483247Y-140406476D02*
X100721342Y-140406476D01*
X100721342Y-140406476D02*
X100816580Y-140454095D01*
X100816580Y-140454095D02*
X100864200Y-140501714D01*
X100864200Y-140501714D02*
X100911819Y-140596952D01*
X100911819Y-140596952D02*
X100911819Y-140835047D01*
X100911819Y-140835047D02*
X100864200Y-140930285D01*
X100864200Y-140930285D02*
X100816580Y-140977904D01*
X99911819Y-140073142D02*
X99911819Y-139454095D01*
X99911819Y-139454095D02*
X100292771Y-139787428D01*
X100292771Y-139787428D02*
X100292771Y-139644571D01*
X100292771Y-139644571D02*
X100340390Y-139549333D01*
X100340390Y-139549333D02*
X100388009Y-139501714D01*
X100388009Y-139501714D02*
X100483247Y-139454095D01*
X100483247Y-139454095D02*
X100721342Y-139454095D01*
X100721342Y-139454095D02*
X100816580Y-139501714D01*
X100816580Y-139501714D02*
X100864200Y-139549333D01*
X100864200Y-139549333D02*
X100911819Y-139644571D01*
X100911819Y-139644571D02*
X100911819Y-139930285D01*
X100911819Y-139930285D02*
X100864200Y-140025523D01*
X100864200Y-140025523D02*
X100816580Y-140073142D01*
X94437142Y-110329580D02*
X94389523Y-110377200D01*
X94389523Y-110377200D02*
X94246666Y-110424819D01*
X94246666Y-110424819D02*
X94151428Y-110424819D01*
X94151428Y-110424819D02*
X94008571Y-110377200D01*
X94008571Y-110377200D02*
X93913333Y-110281961D01*
X93913333Y-110281961D02*
X93865714Y-110186723D01*
X93865714Y-110186723D02*
X93818095Y-109996247D01*
X93818095Y-109996247D02*
X93818095Y-109853390D01*
X93818095Y-109853390D02*
X93865714Y-109662914D01*
X93865714Y-109662914D02*
X93913333Y-109567676D01*
X93913333Y-109567676D02*
X94008571Y-109472438D01*
X94008571Y-109472438D02*
X94151428Y-109424819D01*
X94151428Y-109424819D02*
X94246666Y-109424819D01*
X94246666Y-109424819D02*
X94389523Y-109472438D01*
X94389523Y-109472438D02*
X94437142Y-109520057D01*
X95294285Y-109758152D02*
X95294285Y-110424819D01*
X95056190Y-109377200D02*
X94818095Y-110091485D01*
X94818095Y-110091485D02*
X95437142Y-110091485D01*
X95960952Y-109853390D02*
X95865714Y-109805771D01*
X95865714Y-109805771D02*
X95818095Y-109758152D01*
X95818095Y-109758152D02*
X95770476Y-109662914D01*
X95770476Y-109662914D02*
X95770476Y-109615295D01*
X95770476Y-109615295D02*
X95818095Y-109520057D01*
X95818095Y-109520057D02*
X95865714Y-109472438D01*
X95865714Y-109472438D02*
X95960952Y-109424819D01*
X95960952Y-109424819D02*
X96151428Y-109424819D01*
X96151428Y-109424819D02*
X96246666Y-109472438D01*
X96246666Y-109472438D02*
X96294285Y-109520057D01*
X96294285Y-109520057D02*
X96341904Y-109615295D01*
X96341904Y-109615295D02*
X96341904Y-109662914D01*
X96341904Y-109662914D02*
X96294285Y-109758152D01*
X96294285Y-109758152D02*
X96246666Y-109805771D01*
X96246666Y-109805771D02*
X96151428Y-109853390D01*
X96151428Y-109853390D02*
X95960952Y-109853390D01*
X95960952Y-109853390D02*
X95865714Y-109901009D01*
X95865714Y-109901009D02*
X95818095Y-109948628D01*
X95818095Y-109948628D02*
X95770476Y-110043866D01*
X95770476Y-110043866D02*
X95770476Y-110234342D01*
X95770476Y-110234342D02*
X95818095Y-110329580D01*
X95818095Y-110329580D02*
X95865714Y-110377200D01*
X95865714Y-110377200D02*
X95960952Y-110424819D01*
X95960952Y-110424819D02*
X96151428Y-110424819D01*
X96151428Y-110424819D02*
X96246666Y-110377200D01*
X96246666Y-110377200D02*
X96294285Y-110329580D01*
X96294285Y-110329580D02*
X96341904Y-110234342D01*
X96341904Y-110234342D02*
X96341904Y-110043866D01*
X96341904Y-110043866D02*
X96294285Y-109948628D01*
X96294285Y-109948628D02*
X96246666Y-109901009D01*
X96246666Y-109901009D02*
X96151428Y-109853390D01*
X115637142Y-110349580D02*
X115589523Y-110397200D01*
X115589523Y-110397200D02*
X115446666Y-110444819D01*
X115446666Y-110444819D02*
X115351428Y-110444819D01*
X115351428Y-110444819D02*
X115208571Y-110397200D01*
X115208571Y-110397200D02*
X115113333Y-110301961D01*
X115113333Y-110301961D02*
X115065714Y-110206723D01*
X115065714Y-110206723D02*
X115018095Y-110016247D01*
X115018095Y-110016247D02*
X115018095Y-109873390D01*
X115018095Y-109873390D02*
X115065714Y-109682914D01*
X115065714Y-109682914D02*
X115113333Y-109587676D01*
X115113333Y-109587676D02*
X115208571Y-109492438D01*
X115208571Y-109492438D02*
X115351428Y-109444819D01*
X115351428Y-109444819D02*
X115446666Y-109444819D01*
X115446666Y-109444819D02*
X115589523Y-109492438D01*
X115589523Y-109492438D02*
X115637142Y-109540057D01*
X116018095Y-109540057D02*
X116065714Y-109492438D01*
X116065714Y-109492438D02*
X116160952Y-109444819D01*
X116160952Y-109444819D02*
X116399047Y-109444819D01*
X116399047Y-109444819D02*
X116494285Y-109492438D01*
X116494285Y-109492438D02*
X116541904Y-109540057D01*
X116541904Y-109540057D02*
X116589523Y-109635295D01*
X116589523Y-109635295D02*
X116589523Y-109730533D01*
X116589523Y-109730533D02*
X116541904Y-109873390D01*
X116541904Y-109873390D02*
X115970476Y-110444819D01*
X115970476Y-110444819D02*
X116589523Y-110444819D01*
X117160952Y-109873390D02*
X117065714Y-109825771D01*
X117065714Y-109825771D02*
X117018095Y-109778152D01*
X117018095Y-109778152D02*
X116970476Y-109682914D01*
X116970476Y-109682914D02*
X116970476Y-109635295D01*
X116970476Y-109635295D02*
X117018095Y-109540057D01*
X117018095Y-109540057D02*
X117065714Y-109492438D01*
X117065714Y-109492438D02*
X117160952Y-109444819D01*
X117160952Y-109444819D02*
X117351428Y-109444819D01*
X117351428Y-109444819D02*
X117446666Y-109492438D01*
X117446666Y-109492438D02*
X117494285Y-109540057D01*
X117494285Y-109540057D02*
X117541904Y-109635295D01*
X117541904Y-109635295D02*
X117541904Y-109682914D01*
X117541904Y-109682914D02*
X117494285Y-109778152D01*
X117494285Y-109778152D02*
X117446666Y-109825771D01*
X117446666Y-109825771D02*
X117351428Y-109873390D01*
X117351428Y-109873390D02*
X117160952Y-109873390D01*
X117160952Y-109873390D02*
X117065714Y-109921009D01*
X117065714Y-109921009D02*
X117018095Y-109968628D01*
X117018095Y-109968628D02*
X116970476Y-110063866D01*
X116970476Y-110063866D02*
X116970476Y-110254342D01*
X116970476Y-110254342D02*
X117018095Y-110349580D01*
X117018095Y-110349580D02*
X117065714Y-110397200D01*
X117065714Y-110397200D02*
X117160952Y-110444819D01*
X117160952Y-110444819D02*
X117351428Y-110444819D01*
X117351428Y-110444819D02*
X117446666Y-110397200D01*
X117446666Y-110397200D02*
X117494285Y-110349580D01*
X117494285Y-110349580D02*
X117541904Y-110254342D01*
X117541904Y-110254342D02*
X117541904Y-110063866D01*
X117541904Y-110063866D02*
X117494285Y-109968628D01*
X117494285Y-109968628D02*
X117446666Y-109921009D01*
X117446666Y-109921009D02*
X117351428Y-109873390D01*
X116205095Y-95974819D02*
X116205095Y-96784342D01*
X116205095Y-96784342D02*
X116252714Y-96879580D01*
X116252714Y-96879580D02*
X116300333Y-96927200D01*
X116300333Y-96927200D02*
X116395571Y-96974819D01*
X116395571Y-96974819D02*
X116586047Y-96974819D01*
X116586047Y-96974819D02*
X116681285Y-96927200D01*
X116681285Y-96927200D02*
X116728904Y-96879580D01*
X116728904Y-96879580D02*
X116776523Y-96784342D01*
X116776523Y-96784342D02*
X116776523Y-95974819D01*
X117300333Y-96974819D02*
X117490809Y-96974819D01*
X117490809Y-96974819D02*
X117586047Y-96927200D01*
X117586047Y-96927200D02*
X117633666Y-96879580D01*
X117633666Y-96879580D02*
X117728904Y-96736723D01*
X117728904Y-96736723D02*
X117776523Y-96546247D01*
X117776523Y-96546247D02*
X117776523Y-96165295D01*
X117776523Y-96165295D02*
X117728904Y-96070057D01*
X117728904Y-96070057D02*
X117681285Y-96022438D01*
X117681285Y-96022438D02*
X117586047Y-95974819D01*
X117586047Y-95974819D02*
X117395571Y-95974819D01*
X117395571Y-95974819D02*
X117300333Y-96022438D01*
X117300333Y-96022438D02*
X117252714Y-96070057D01*
X117252714Y-96070057D02*
X117205095Y-96165295D01*
X117205095Y-96165295D02*
X117205095Y-96403390D01*
X117205095Y-96403390D02*
X117252714Y-96498628D01*
X117252714Y-96498628D02*
X117300333Y-96546247D01*
X117300333Y-96546247D02*
X117395571Y-96593866D01*
X117395571Y-96593866D02*
X117586047Y-96593866D01*
X117586047Y-96593866D02*
X117681285Y-96546247D01*
X117681285Y-96546247D02*
X117728904Y-96498628D01*
X117728904Y-96498628D02*
X117776523Y-96403390D01*
X93416142Y-137410219D02*
X93082809Y-136934028D01*
X92844714Y-137410219D02*
X92844714Y-136410219D01*
X92844714Y-136410219D02*
X93225666Y-136410219D01*
X93225666Y-136410219D02*
X93320904Y-136457838D01*
X93320904Y-136457838D02*
X93368523Y-136505457D01*
X93368523Y-136505457D02*
X93416142Y-136600695D01*
X93416142Y-136600695D02*
X93416142Y-136743552D01*
X93416142Y-136743552D02*
X93368523Y-136838790D01*
X93368523Y-136838790D02*
X93320904Y-136886409D01*
X93320904Y-136886409D02*
X93225666Y-136934028D01*
X93225666Y-136934028D02*
X92844714Y-136934028D01*
X93797095Y-136505457D02*
X93844714Y-136457838D01*
X93844714Y-136457838D02*
X93939952Y-136410219D01*
X93939952Y-136410219D02*
X94178047Y-136410219D01*
X94178047Y-136410219D02*
X94273285Y-136457838D01*
X94273285Y-136457838D02*
X94320904Y-136505457D01*
X94320904Y-136505457D02*
X94368523Y-136600695D01*
X94368523Y-136600695D02*
X94368523Y-136695933D01*
X94368523Y-136695933D02*
X94320904Y-136838790D01*
X94320904Y-136838790D02*
X93749476Y-137410219D01*
X93749476Y-137410219D02*
X94368523Y-137410219D01*
X95225666Y-136743552D02*
X95225666Y-137410219D01*
X94987571Y-136362600D02*
X94749476Y-137076885D01*
X94749476Y-137076885D02*
X95368523Y-137076885D01*
X113217142Y-106679580D02*
X113169523Y-106727200D01*
X113169523Y-106727200D02*
X113026666Y-106774819D01*
X113026666Y-106774819D02*
X112931428Y-106774819D01*
X112931428Y-106774819D02*
X112788571Y-106727200D01*
X112788571Y-106727200D02*
X112693333Y-106631961D01*
X112693333Y-106631961D02*
X112645714Y-106536723D01*
X112645714Y-106536723D02*
X112598095Y-106346247D01*
X112598095Y-106346247D02*
X112598095Y-106203390D01*
X112598095Y-106203390D02*
X112645714Y-106012914D01*
X112645714Y-106012914D02*
X112693333Y-105917676D01*
X112693333Y-105917676D02*
X112788571Y-105822438D01*
X112788571Y-105822438D02*
X112931428Y-105774819D01*
X112931428Y-105774819D02*
X113026666Y-105774819D01*
X113026666Y-105774819D02*
X113169523Y-105822438D01*
X113169523Y-105822438D02*
X113217142Y-105870057D01*
X113550476Y-105774819D02*
X114169523Y-105774819D01*
X114169523Y-105774819D02*
X113836190Y-106155771D01*
X113836190Y-106155771D02*
X113979047Y-106155771D01*
X113979047Y-106155771D02*
X114074285Y-106203390D01*
X114074285Y-106203390D02*
X114121904Y-106251009D01*
X114121904Y-106251009D02*
X114169523Y-106346247D01*
X114169523Y-106346247D02*
X114169523Y-106584342D01*
X114169523Y-106584342D02*
X114121904Y-106679580D01*
X114121904Y-106679580D02*
X114074285Y-106727200D01*
X114074285Y-106727200D02*
X113979047Y-106774819D01*
X113979047Y-106774819D02*
X113693333Y-106774819D01*
X113693333Y-106774819D02*
X113598095Y-106727200D01*
X113598095Y-106727200D02*
X113550476Y-106679580D01*
X115026666Y-106108152D02*
X115026666Y-106774819D01*
X114788571Y-105727200D02*
X114550476Y-106441485D01*
X114550476Y-106441485D02*
X115169523Y-106441485D01*
X95104819Y-122752857D02*
X94628628Y-123086190D01*
X95104819Y-123324285D02*
X94104819Y-123324285D01*
X94104819Y-123324285D02*
X94104819Y-122943333D01*
X94104819Y-122943333D02*
X94152438Y-122848095D01*
X94152438Y-122848095D02*
X94200057Y-122800476D01*
X94200057Y-122800476D02*
X94295295Y-122752857D01*
X94295295Y-122752857D02*
X94438152Y-122752857D01*
X94438152Y-122752857D02*
X94533390Y-122800476D01*
X94533390Y-122800476D02*
X94581009Y-122848095D01*
X94581009Y-122848095D02*
X94628628Y-122943333D01*
X94628628Y-122943333D02*
X94628628Y-123324285D01*
X94200057Y-122371904D02*
X94152438Y-122324285D01*
X94152438Y-122324285D02*
X94104819Y-122229047D01*
X94104819Y-122229047D02*
X94104819Y-121990952D01*
X94104819Y-121990952D02*
X94152438Y-121895714D01*
X94152438Y-121895714D02*
X94200057Y-121848095D01*
X94200057Y-121848095D02*
X94295295Y-121800476D01*
X94295295Y-121800476D02*
X94390533Y-121800476D01*
X94390533Y-121800476D02*
X94533390Y-121848095D01*
X94533390Y-121848095D02*
X95104819Y-122419523D01*
X95104819Y-122419523D02*
X95104819Y-121800476D01*
X94200057Y-121419523D02*
X94152438Y-121371904D01*
X94152438Y-121371904D02*
X94104819Y-121276666D01*
X94104819Y-121276666D02*
X94104819Y-121038571D01*
X94104819Y-121038571D02*
X94152438Y-120943333D01*
X94152438Y-120943333D02*
X94200057Y-120895714D01*
X94200057Y-120895714D02*
X94295295Y-120848095D01*
X94295295Y-120848095D02*
X94390533Y-120848095D01*
X94390533Y-120848095D02*
X94533390Y-120895714D01*
X94533390Y-120895714D02*
X95104819Y-121467142D01*
X95104819Y-121467142D02*
X95104819Y-120848095D01*
D11*
X109508704Y-133356285D02*
X109546800Y-133394381D01*
X109546800Y-133394381D02*
X109584895Y-133508666D01*
X109584895Y-133508666D02*
X109584895Y-133584857D01*
X109584895Y-133584857D02*
X109546800Y-133699143D01*
X109546800Y-133699143D02*
X109470609Y-133775333D01*
X109470609Y-133775333D02*
X109394419Y-133813428D01*
X109394419Y-133813428D02*
X109242038Y-133851524D01*
X109242038Y-133851524D02*
X109127752Y-133851524D01*
X109127752Y-133851524D02*
X108975371Y-133813428D01*
X108975371Y-133813428D02*
X108899180Y-133775333D01*
X108899180Y-133775333D02*
X108822990Y-133699143D01*
X108822990Y-133699143D02*
X108784895Y-133584857D01*
X108784895Y-133584857D02*
X108784895Y-133508666D01*
X108784895Y-133508666D02*
X108822990Y-133394381D01*
X108822990Y-133394381D02*
X108861085Y-133356285D01*
X108861085Y-133051524D02*
X108822990Y-133013428D01*
X108822990Y-133013428D02*
X108784895Y-132937238D01*
X108784895Y-132937238D02*
X108784895Y-132746762D01*
X108784895Y-132746762D02*
X108822990Y-132670571D01*
X108822990Y-132670571D02*
X108861085Y-132632476D01*
X108861085Y-132632476D02*
X108937276Y-132594381D01*
X108937276Y-132594381D02*
X109013466Y-132594381D01*
X109013466Y-132594381D02*
X109127752Y-132632476D01*
X109127752Y-132632476D02*
X109584895Y-133089619D01*
X109584895Y-133089619D02*
X109584895Y-132594381D01*
X108784895Y-131908666D02*
X108784895Y-132061047D01*
X108784895Y-132061047D02*
X108822990Y-132137238D01*
X108822990Y-132137238D02*
X108861085Y-132175333D01*
X108861085Y-132175333D02*
X108975371Y-132251523D01*
X108975371Y-132251523D02*
X109127752Y-132289619D01*
X109127752Y-132289619D02*
X109432514Y-132289619D01*
X109432514Y-132289619D02*
X109508704Y-132251523D01*
X109508704Y-132251523D02*
X109546800Y-132213428D01*
X109546800Y-132213428D02*
X109584895Y-132137238D01*
X109584895Y-132137238D02*
X109584895Y-131984857D01*
X109584895Y-131984857D02*
X109546800Y-131908666D01*
X109546800Y-131908666D02*
X109508704Y-131870571D01*
X109508704Y-131870571D02*
X109432514Y-131832476D01*
X109432514Y-131832476D02*
X109242038Y-131832476D01*
X109242038Y-131832476D02*
X109165847Y-131870571D01*
X109165847Y-131870571D02*
X109127752Y-131908666D01*
X109127752Y-131908666D02*
X109089657Y-131984857D01*
X109089657Y-131984857D02*
X109089657Y-132137238D01*
X109089657Y-132137238D02*
X109127752Y-132213428D01*
X109127752Y-132213428D02*
X109165847Y-132251523D01*
X109165847Y-132251523D02*
X109242038Y-132289619D01*
D10*
X123407142Y-104619580D02*
X123359523Y-104667200D01*
X123359523Y-104667200D02*
X123216666Y-104714819D01*
X123216666Y-104714819D02*
X123121428Y-104714819D01*
X123121428Y-104714819D02*
X122978571Y-104667200D01*
X122978571Y-104667200D02*
X122883333Y-104571961D01*
X122883333Y-104571961D02*
X122835714Y-104476723D01*
X122835714Y-104476723D02*
X122788095Y-104286247D01*
X122788095Y-104286247D02*
X122788095Y-104143390D01*
X122788095Y-104143390D02*
X122835714Y-103952914D01*
X122835714Y-103952914D02*
X122883333Y-103857676D01*
X122883333Y-103857676D02*
X122978571Y-103762438D01*
X122978571Y-103762438D02*
X123121428Y-103714819D01*
X123121428Y-103714819D02*
X123216666Y-103714819D01*
X123216666Y-103714819D02*
X123359523Y-103762438D01*
X123359523Y-103762438D02*
X123407142Y-103810057D01*
X124264285Y-104048152D02*
X124264285Y-104714819D01*
X124026190Y-103667200D02*
X123788095Y-104381485D01*
X123788095Y-104381485D02*
X124407142Y-104381485D01*
X124692857Y-103714819D02*
X125359523Y-103714819D01*
X125359523Y-103714819D02*
X124930952Y-104714819D01*
X108487142Y-122769580D02*
X108439523Y-122817200D01*
X108439523Y-122817200D02*
X108296666Y-122864819D01*
X108296666Y-122864819D02*
X108201428Y-122864819D01*
X108201428Y-122864819D02*
X108058571Y-122817200D01*
X108058571Y-122817200D02*
X107963333Y-122721961D01*
X107963333Y-122721961D02*
X107915714Y-122626723D01*
X107915714Y-122626723D02*
X107868095Y-122436247D01*
X107868095Y-122436247D02*
X107868095Y-122293390D01*
X107868095Y-122293390D02*
X107915714Y-122102914D01*
X107915714Y-122102914D02*
X107963333Y-122007676D01*
X107963333Y-122007676D02*
X108058571Y-121912438D01*
X108058571Y-121912438D02*
X108201428Y-121864819D01*
X108201428Y-121864819D02*
X108296666Y-121864819D01*
X108296666Y-121864819D02*
X108439523Y-121912438D01*
X108439523Y-121912438D02*
X108487142Y-121960057D01*
X108820476Y-121864819D02*
X109439523Y-121864819D01*
X109439523Y-121864819D02*
X109106190Y-122245771D01*
X109106190Y-122245771D02*
X109249047Y-122245771D01*
X109249047Y-122245771D02*
X109344285Y-122293390D01*
X109344285Y-122293390D02*
X109391904Y-122341009D01*
X109391904Y-122341009D02*
X109439523Y-122436247D01*
X109439523Y-122436247D02*
X109439523Y-122674342D01*
X109439523Y-122674342D02*
X109391904Y-122769580D01*
X109391904Y-122769580D02*
X109344285Y-122817200D01*
X109344285Y-122817200D02*
X109249047Y-122864819D01*
X109249047Y-122864819D02*
X108963333Y-122864819D01*
X108963333Y-122864819D02*
X108868095Y-122817200D01*
X108868095Y-122817200D02*
X108820476Y-122769580D01*
X109772857Y-121864819D02*
X110391904Y-121864819D01*
X110391904Y-121864819D02*
X110058571Y-122245771D01*
X110058571Y-122245771D02*
X110201428Y-122245771D01*
X110201428Y-122245771D02*
X110296666Y-122293390D01*
X110296666Y-122293390D02*
X110344285Y-122341009D01*
X110344285Y-122341009D02*
X110391904Y-122436247D01*
X110391904Y-122436247D02*
X110391904Y-122674342D01*
X110391904Y-122674342D02*
X110344285Y-122769580D01*
X110344285Y-122769580D02*
X110296666Y-122817200D01*
X110296666Y-122817200D02*
X110201428Y-122864819D01*
X110201428Y-122864819D02*
X109915714Y-122864819D01*
X109915714Y-122864819D02*
X109820476Y-122817200D01*
X109820476Y-122817200D02*
X109772857Y-122769580D01*
X109844580Y-107862857D02*
X109892200Y-107910476D01*
X109892200Y-107910476D02*
X109939819Y-108053333D01*
X109939819Y-108053333D02*
X109939819Y-108148571D01*
X109939819Y-108148571D02*
X109892200Y-108291428D01*
X109892200Y-108291428D02*
X109796961Y-108386666D01*
X109796961Y-108386666D02*
X109701723Y-108434285D01*
X109701723Y-108434285D02*
X109511247Y-108481904D01*
X109511247Y-108481904D02*
X109368390Y-108481904D01*
X109368390Y-108481904D02*
X109177914Y-108434285D01*
X109177914Y-108434285D02*
X109082676Y-108386666D01*
X109082676Y-108386666D02*
X108987438Y-108291428D01*
X108987438Y-108291428D02*
X108939819Y-108148571D01*
X108939819Y-108148571D02*
X108939819Y-108053333D01*
X108939819Y-108053333D02*
X108987438Y-107910476D01*
X108987438Y-107910476D02*
X109035057Y-107862857D01*
X108939819Y-107529523D02*
X108939819Y-106910476D01*
X108939819Y-106910476D02*
X109320771Y-107243809D01*
X109320771Y-107243809D02*
X109320771Y-107100952D01*
X109320771Y-107100952D02*
X109368390Y-107005714D01*
X109368390Y-107005714D02*
X109416009Y-106958095D01*
X109416009Y-106958095D02*
X109511247Y-106910476D01*
X109511247Y-106910476D02*
X109749342Y-106910476D01*
X109749342Y-106910476D02*
X109844580Y-106958095D01*
X109844580Y-106958095D02*
X109892200Y-107005714D01*
X109892200Y-107005714D02*
X109939819Y-107100952D01*
X109939819Y-107100952D02*
X109939819Y-107386666D01*
X109939819Y-107386666D02*
X109892200Y-107481904D01*
X109892200Y-107481904D02*
X109844580Y-107529523D01*
X108939819Y-106577142D02*
X108939819Y-105910476D01*
X108939819Y-105910476D02*
X109939819Y-106339047D01*
X125027142Y-116674819D02*
X124693809Y-116198628D01*
X124455714Y-116674819D02*
X124455714Y-115674819D01*
X124455714Y-115674819D02*
X124836666Y-115674819D01*
X124836666Y-115674819D02*
X124931904Y-115722438D01*
X124931904Y-115722438D02*
X124979523Y-115770057D01*
X124979523Y-115770057D02*
X125027142Y-115865295D01*
X125027142Y-115865295D02*
X125027142Y-116008152D01*
X125027142Y-116008152D02*
X124979523Y-116103390D01*
X124979523Y-116103390D02*
X124931904Y-116151009D01*
X124931904Y-116151009D02*
X124836666Y-116198628D01*
X124836666Y-116198628D02*
X124455714Y-116198628D01*
X125979523Y-116674819D02*
X125408095Y-116674819D01*
X125693809Y-116674819D02*
X125693809Y-115674819D01*
X125693809Y-115674819D02*
X125598571Y-115817676D01*
X125598571Y-115817676D02*
X125503333Y-115912914D01*
X125503333Y-115912914D02*
X125408095Y-115960533D01*
X126550952Y-116103390D02*
X126455714Y-116055771D01*
X126455714Y-116055771D02*
X126408095Y-116008152D01*
X126408095Y-116008152D02*
X126360476Y-115912914D01*
X126360476Y-115912914D02*
X126360476Y-115865295D01*
X126360476Y-115865295D02*
X126408095Y-115770057D01*
X126408095Y-115770057D02*
X126455714Y-115722438D01*
X126455714Y-115722438D02*
X126550952Y-115674819D01*
X126550952Y-115674819D02*
X126741428Y-115674819D01*
X126741428Y-115674819D02*
X126836666Y-115722438D01*
X126836666Y-115722438D02*
X126884285Y-115770057D01*
X126884285Y-115770057D02*
X126931904Y-115865295D01*
X126931904Y-115865295D02*
X126931904Y-115912914D01*
X126931904Y-115912914D02*
X126884285Y-116008152D01*
X126884285Y-116008152D02*
X126836666Y-116055771D01*
X126836666Y-116055771D02*
X126741428Y-116103390D01*
X126741428Y-116103390D02*
X126550952Y-116103390D01*
X126550952Y-116103390D02*
X126455714Y-116151009D01*
X126455714Y-116151009D02*
X126408095Y-116198628D01*
X126408095Y-116198628D02*
X126360476Y-116293866D01*
X126360476Y-116293866D02*
X126360476Y-116484342D01*
X126360476Y-116484342D02*
X126408095Y-116579580D01*
X126408095Y-116579580D02*
X126455714Y-116627200D01*
X126455714Y-116627200D02*
X126550952Y-116674819D01*
X126550952Y-116674819D02*
X126741428Y-116674819D01*
X126741428Y-116674819D02*
X126836666Y-116627200D01*
X126836666Y-116627200D02*
X126884285Y-116579580D01*
X126884285Y-116579580D02*
X126931904Y-116484342D01*
X126931904Y-116484342D02*
X126931904Y-116293866D01*
X126931904Y-116293866D02*
X126884285Y-116198628D01*
X126884285Y-116198628D02*
X126836666Y-116151009D01*
X126836666Y-116151009D02*
X126741428Y-116103390D01*
X111962142Y-103579580D02*
X111914523Y-103627200D01*
X111914523Y-103627200D02*
X111771666Y-103674819D01*
X111771666Y-103674819D02*
X111676428Y-103674819D01*
X111676428Y-103674819D02*
X111533571Y-103627200D01*
X111533571Y-103627200D02*
X111438333Y-103531961D01*
X111438333Y-103531961D02*
X111390714Y-103436723D01*
X111390714Y-103436723D02*
X111343095Y-103246247D01*
X111343095Y-103246247D02*
X111343095Y-103103390D01*
X111343095Y-103103390D02*
X111390714Y-102912914D01*
X111390714Y-102912914D02*
X111438333Y-102817676D01*
X111438333Y-102817676D02*
X111533571Y-102722438D01*
X111533571Y-102722438D02*
X111676428Y-102674819D01*
X111676428Y-102674819D02*
X111771666Y-102674819D01*
X111771666Y-102674819D02*
X111914523Y-102722438D01*
X111914523Y-102722438D02*
X111962142Y-102770057D01*
X112295476Y-102674819D02*
X112914523Y-102674819D01*
X112914523Y-102674819D02*
X112581190Y-103055771D01*
X112581190Y-103055771D02*
X112724047Y-103055771D01*
X112724047Y-103055771D02*
X112819285Y-103103390D01*
X112819285Y-103103390D02*
X112866904Y-103151009D01*
X112866904Y-103151009D02*
X112914523Y-103246247D01*
X112914523Y-103246247D02*
X112914523Y-103484342D01*
X112914523Y-103484342D02*
X112866904Y-103579580D01*
X112866904Y-103579580D02*
X112819285Y-103627200D01*
X112819285Y-103627200D02*
X112724047Y-103674819D01*
X112724047Y-103674819D02*
X112438333Y-103674819D01*
X112438333Y-103674819D02*
X112343095Y-103627200D01*
X112343095Y-103627200D02*
X112295476Y-103579580D01*
X113771666Y-102674819D02*
X113581190Y-102674819D01*
X113581190Y-102674819D02*
X113485952Y-102722438D01*
X113485952Y-102722438D02*
X113438333Y-102770057D01*
X113438333Y-102770057D02*
X113343095Y-102912914D01*
X113343095Y-102912914D02*
X113295476Y-103103390D01*
X113295476Y-103103390D02*
X113295476Y-103484342D01*
X113295476Y-103484342D02*
X113343095Y-103579580D01*
X113343095Y-103579580D02*
X113390714Y-103627200D01*
X113390714Y-103627200D02*
X113485952Y-103674819D01*
X113485952Y-103674819D02*
X113676428Y-103674819D01*
X113676428Y-103674819D02*
X113771666Y-103627200D01*
X113771666Y-103627200D02*
X113819285Y-103579580D01*
X113819285Y-103579580D02*
X113866904Y-103484342D01*
X113866904Y-103484342D02*
X113866904Y-103246247D01*
X113866904Y-103246247D02*
X113819285Y-103151009D01*
X113819285Y-103151009D02*
X113771666Y-103103390D01*
X113771666Y-103103390D02*
X113676428Y-103055771D01*
X113676428Y-103055771D02*
X113485952Y-103055771D01*
X113485952Y-103055771D02*
X113390714Y-103103390D01*
X113390714Y-103103390D02*
X113343095Y-103151009D01*
X113343095Y-103151009D02*
X113295476Y-103246247D01*
X104560905Y-133947819D02*
X105132333Y-133947819D01*
X104846619Y-134947819D02*
X104846619Y-133947819D01*
X105465667Y-134947819D02*
X105465667Y-133947819D01*
X105465667Y-133947819D02*
X105846619Y-133947819D01*
X105846619Y-133947819D02*
X105941857Y-133995438D01*
X105941857Y-133995438D02*
X105989476Y-134043057D01*
X105989476Y-134043057D02*
X106037095Y-134138295D01*
X106037095Y-134138295D02*
X106037095Y-134281152D01*
X106037095Y-134281152D02*
X105989476Y-134376390D01*
X105989476Y-134376390D02*
X105941857Y-134424009D01*
X105941857Y-134424009D02*
X105846619Y-134471628D01*
X105846619Y-134471628D02*
X105465667Y-134471628D01*
X106418048Y-134043057D02*
X106465667Y-133995438D01*
X106465667Y-133995438D02*
X106560905Y-133947819D01*
X106560905Y-133947819D02*
X106799000Y-133947819D01*
X106799000Y-133947819D02*
X106894238Y-133995438D01*
X106894238Y-133995438D02*
X106941857Y-134043057D01*
X106941857Y-134043057D02*
X106989476Y-134138295D01*
X106989476Y-134138295D02*
X106989476Y-134233533D01*
X106989476Y-134233533D02*
X106941857Y-134376390D01*
X106941857Y-134376390D02*
X106370429Y-134947819D01*
X106370429Y-134947819D02*
X106989476Y-134947819D01*
X107608524Y-133947819D02*
X107703762Y-133947819D01*
X107703762Y-133947819D02*
X107799000Y-133995438D01*
X107799000Y-133995438D02*
X107846619Y-134043057D01*
X107846619Y-134043057D02*
X107894238Y-134138295D01*
X107894238Y-134138295D02*
X107941857Y-134328771D01*
X107941857Y-134328771D02*
X107941857Y-134566866D01*
X107941857Y-134566866D02*
X107894238Y-134757342D01*
X107894238Y-134757342D02*
X107846619Y-134852580D01*
X107846619Y-134852580D02*
X107799000Y-134900200D01*
X107799000Y-134900200D02*
X107703762Y-134947819D01*
X107703762Y-134947819D02*
X107608524Y-134947819D01*
X107608524Y-134947819D02*
X107513286Y-134900200D01*
X107513286Y-134900200D02*
X107465667Y-134852580D01*
X107465667Y-134852580D02*
X107418048Y-134757342D01*
X107418048Y-134757342D02*
X107370429Y-134566866D01*
X107370429Y-134566866D02*
X107370429Y-134328771D01*
X107370429Y-134328771D02*
X107418048Y-134138295D01*
X107418048Y-134138295D02*
X107465667Y-134043057D01*
X107465667Y-134043057D02*
X107513286Y-133995438D01*
X107513286Y-133995438D02*
X107608524Y-133947819D01*
X118614819Y-117558094D02*
X118614819Y-116986666D01*
X119614819Y-117272380D02*
X118614819Y-117272380D01*
X119614819Y-116653332D02*
X118614819Y-116653332D01*
X118614819Y-116653332D02*
X118614819Y-116272380D01*
X118614819Y-116272380D02*
X118662438Y-116177142D01*
X118662438Y-116177142D02*
X118710057Y-116129523D01*
X118710057Y-116129523D02*
X118805295Y-116081904D01*
X118805295Y-116081904D02*
X118948152Y-116081904D01*
X118948152Y-116081904D02*
X119043390Y-116129523D01*
X119043390Y-116129523D02*
X119091009Y-116177142D01*
X119091009Y-116177142D02*
X119138628Y-116272380D01*
X119138628Y-116272380D02*
X119138628Y-116653332D01*
X119614819Y-115129523D02*
X119614819Y-115700951D01*
X119614819Y-115415237D02*
X118614819Y-115415237D01*
X118614819Y-115415237D02*
X118757676Y-115510475D01*
X118757676Y-115510475D02*
X118852914Y-115605713D01*
X118852914Y-115605713D02*
X118900533Y-115700951D01*
X118614819Y-114796189D02*
X118614819Y-114129523D01*
X118614819Y-114129523D02*
X119614819Y-114558094D01*
X90957142Y-126399580D02*
X90909523Y-126447200D01*
X90909523Y-126447200D02*
X90766666Y-126494819D01*
X90766666Y-126494819D02*
X90671428Y-126494819D01*
X90671428Y-126494819D02*
X90528571Y-126447200D01*
X90528571Y-126447200D02*
X90433333Y-126351961D01*
X90433333Y-126351961D02*
X90385714Y-126256723D01*
X90385714Y-126256723D02*
X90338095Y-126066247D01*
X90338095Y-126066247D02*
X90338095Y-125923390D01*
X90338095Y-125923390D02*
X90385714Y-125732914D01*
X90385714Y-125732914D02*
X90433333Y-125637676D01*
X90433333Y-125637676D02*
X90528571Y-125542438D01*
X90528571Y-125542438D02*
X90671428Y-125494819D01*
X90671428Y-125494819D02*
X90766666Y-125494819D01*
X90766666Y-125494819D02*
X90909523Y-125542438D01*
X90909523Y-125542438D02*
X90957142Y-125590057D01*
X91861904Y-125494819D02*
X91385714Y-125494819D01*
X91385714Y-125494819D02*
X91338095Y-125971009D01*
X91338095Y-125971009D02*
X91385714Y-125923390D01*
X91385714Y-125923390D02*
X91480952Y-125875771D01*
X91480952Y-125875771D02*
X91719047Y-125875771D01*
X91719047Y-125875771D02*
X91814285Y-125923390D01*
X91814285Y-125923390D02*
X91861904Y-125971009D01*
X91861904Y-125971009D02*
X91909523Y-126066247D01*
X91909523Y-126066247D02*
X91909523Y-126304342D01*
X91909523Y-126304342D02*
X91861904Y-126399580D01*
X91861904Y-126399580D02*
X91814285Y-126447200D01*
X91814285Y-126447200D02*
X91719047Y-126494819D01*
X91719047Y-126494819D02*
X91480952Y-126494819D01*
X91480952Y-126494819D02*
X91385714Y-126447200D01*
X91385714Y-126447200D02*
X91338095Y-126399580D01*
X92528571Y-125494819D02*
X92623809Y-125494819D01*
X92623809Y-125494819D02*
X92719047Y-125542438D01*
X92719047Y-125542438D02*
X92766666Y-125590057D01*
X92766666Y-125590057D02*
X92814285Y-125685295D01*
X92814285Y-125685295D02*
X92861904Y-125875771D01*
X92861904Y-125875771D02*
X92861904Y-126113866D01*
X92861904Y-126113866D02*
X92814285Y-126304342D01*
X92814285Y-126304342D02*
X92766666Y-126399580D01*
X92766666Y-126399580D02*
X92719047Y-126447200D01*
X92719047Y-126447200D02*
X92623809Y-126494819D01*
X92623809Y-126494819D02*
X92528571Y-126494819D01*
X92528571Y-126494819D02*
X92433333Y-126447200D01*
X92433333Y-126447200D02*
X92385714Y-126399580D01*
X92385714Y-126399580D02*
X92338095Y-126304342D01*
X92338095Y-126304342D02*
X92290476Y-126113866D01*
X92290476Y-126113866D02*
X92290476Y-125875771D01*
X92290476Y-125875771D02*
X92338095Y-125685295D01*
X92338095Y-125685295D02*
X92385714Y-125590057D01*
X92385714Y-125590057D02*
X92433333Y-125542438D01*
X92433333Y-125542438D02*
X92528571Y-125494819D01*
X114557142Y-108459580D02*
X114509523Y-108507200D01*
X114509523Y-108507200D02*
X114366666Y-108554819D01*
X114366666Y-108554819D02*
X114271428Y-108554819D01*
X114271428Y-108554819D02*
X114128571Y-108507200D01*
X114128571Y-108507200D02*
X114033333Y-108411961D01*
X114033333Y-108411961D02*
X113985714Y-108316723D01*
X113985714Y-108316723D02*
X113938095Y-108126247D01*
X113938095Y-108126247D02*
X113938095Y-107983390D01*
X113938095Y-107983390D02*
X113985714Y-107792914D01*
X113985714Y-107792914D02*
X114033333Y-107697676D01*
X114033333Y-107697676D02*
X114128571Y-107602438D01*
X114128571Y-107602438D02*
X114271428Y-107554819D01*
X114271428Y-107554819D02*
X114366666Y-107554819D01*
X114366666Y-107554819D02*
X114509523Y-107602438D01*
X114509523Y-107602438D02*
X114557142Y-107650057D01*
X114890476Y-107554819D02*
X115509523Y-107554819D01*
X115509523Y-107554819D02*
X115176190Y-107935771D01*
X115176190Y-107935771D02*
X115319047Y-107935771D01*
X115319047Y-107935771D02*
X115414285Y-107983390D01*
X115414285Y-107983390D02*
X115461904Y-108031009D01*
X115461904Y-108031009D02*
X115509523Y-108126247D01*
X115509523Y-108126247D02*
X115509523Y-108364342D01*
X115509523Y-108364342D02*
X115461904Y-108459580D01*
X115461904Y-108459580D02*
X115414285Y-108507200D01*
X115414285Y-108507200D02*
X115319047Y-108554819D01*
X115319047Y-108554819D02*
X115033333Y-108554819D01*
X115033333Y-108554819D02*
X114938095Y-108507200D01*
X114938095Y-108507200D02*
X114890476Y-108459580D01*
X115890476Y-107650057D02*
X115938095Y-107602438D01*
X115938095Y-107602438D02*
X116033333Y-107554819D01*
X116033333Y-107554819D02*
X116271428Y-107554819D01*
X116271428Y-107554819D02*
X116366666Y-107602438D01*
X116366666Y-107602438D02*
X116414285Y-107650057D01*
X116414285Y-107650057D02*
X116461904Y-107745295D01*
X116461904Y-107745295D02*
X116461904Y-107840533D01*
X116461904Y-107840533D02*
X116414285Y-107983390D01*
X116414285Y-107983390D02*
X115842857Y-108554819D01*
X115842857Y-108554819D02*
X116461904Y-108554819D01*
D11*
X94735714Y-142147704D02*
X94697618Y-142185800D01*
X94697618Y-142185800D02*
X94583333Y-142223895D01*
X94583333Y-142223895D02*
X94507142Y-142223895D01*
X94507142Y-142223895D02*
X94392856Y-142185800D01*
X94392856Y-142185800D02*
X94316666Y-142109609D01*
X94316666Y-142109609D02*
X94278571Y-142033419D01*
X94278571Y-142033419D02*
X94240475Y-141881038D01*
X94240475Y-141881038D02*
X94240475Y-141766752D01*
X94240475Y-141766752D02*
X94278571Y-141614371D01*
X94278571Y-141614371D02*
X94316666Y-141538180D01*
X94316666Y-141538180D02*
X94392856Y-141461990D01*
X94392856Y-141461990D02*
X94507142Y-141423895D01*
X94507142Y-141423895D02*
X94583333Y-141423895D01*
X94583333Y-141423895D02*
X94697618Y-141461990D01*
X94697618Y-141461990D02*
X94735714Y-141500085D01*
X95459523Y-141423895D02*
X95078571Y-141423895D01*
X95078571Y-141423895D02*
X95040475Y-141804847D01*
X95040475Y-141804847D02*
X95078571Y-141766752D01*
X95078571Y-141766752D02*
X95154761Y-141728657D01*
X95154761Y-141728657D02*
X95345237Y-141728657D01*
X95345237Y-141728657D02*
X95421428Y-141766752D01*
X95421428Y-141766752D02*
X95459523Y-141804847D01*
X95459523Y-141804847D02*
X95497618Y-141881038D01*
X95497618Y-141881038D02*
X95497618Y-142071514D01*
X95497618Y-142071514D02*
X95459523Y-142147704D01*
X95459523Y-142147704D02*
X95421428Y-142185800D01*
X95421428Y-142185800D02*
X95345237Y-142223895D01*
X95345237Y-142223895D02*
X95154761Y-142223895D01*
X95154761Y-142223895D02*
X95078571Y-142185800D01*
X95078571Y-142185800D02*
X95040475Y-142147704D01*
X95802380Y-141500085D02*
X95840476Y-141461990D01*
X95840476Y-141461990D02*
X95916666Y-141423895D01*
X95916666Y-141423895D02*
X96107142Y-141423895D01*
X96107142Y-141423895D02*
X96183333Y-141461990D01*
X96183333Y-141461990D02*
X96221428Y-141500085D01*
X96221428Y-141500085D02*
X96259523Y-141576276D01*
X96259523Y-141576276D02*
X96259523Y-141652466D01*
X96259523Y-141652466D02*
X96221428Y-141766752D01*
X96221428Y-141766752D02*
X95764285Y-142223895D01*
X95764285Y-142223895D02*
X96259523Y-142223895D01*
D10*
X115879580Y-130690857D02*
X115927200Y-130738476D01*
X115927200Y-130738476D02*
X115974819Y-130881333D01*
X115974819Y-130881333D02*
X115974819Y-130976571D01*
X115974819Y-130976571D02*
X115927200Y-131119428D01*
X115927200Y-131119428D02*
X115831961Y-131214666D01*
X115831961Y-131214666D02*
X115736723Y-131262285D01*
X115736723Y-131262285D02*
X115546247Y-131309904D01*
X115546247Y-131309904D02*
X115403390Y-131309904D01*
X115403390Y-131309904D02*
X115212914Y-131262285D01*
X115212914Y-131262285D02*
X115117676Y-131214666D01*
X115117676Y-131214666D02*
X115022438Y-131119428D01*
X115022438Y-131119428D02*
X114974819Y-130976571D01*
X114974819Y-130976571D02*
X114974819Y-130881333D01*
X114974819Y-130881333D02*
X115022438Y-130738476D01*
X115022438Y-130738476D02*
X115070057Y-130690857D01*
X114974819Y-130357523D02*
X114974819Y-129738476D01*
X114974819Y-129738476D02*
X115355771Y-130071809D01*
X115355771Y-130071809D02*
X115355771Y-129928952D01*
X115355771Y-129928952D02*
X115403390Y-129833714D01*
X115403390Y-129833714D02*
X115451009Y-129786095D01*
X115451009Y-129786095D02*
X115546247Y-129738476D01*
X115546247Y-129738476D02*
X115784342Y-129738476D01*
X115784342Y-129738476D02*
X115879580Y-129786095D01*
X115879580Y-129786095D02*
X115927200Y-129833714D01*
X115927200Y-129833714D02*
X115974819Y-129928952D01*
X115974819Y-129928952D02*
X115974819Y-130214666D01*
X115974819Y-130214666D02*
X115927200Y-130309904D01*
X115927200Y-130309904D02*
X115879580Y-130357523D01*
X114974819Y-129119428D02*
X114974819Y-129024190D01*
X114974819Y-129024190D02*
X115022438Y-128928952D01*
X115022438Y-128928952D02*
X115070057Y-128881333D01*
X115070057Y-128881333D02*
X115165295Y-128833714D01*
X115165295Y-128833714D02*
X115355771Y-128786095D01*
X115355771Y-128786095D02*
X115593866Y-128786095D01*
X115593866Y-128786095D02*
X115784342Y-128833714D01*
X115784342Y-128833714D02*
X115879580Y-128881333D01*
X115879580Y-128881333D02*
X115927200Y-128928952D01*
X115927200Y-128928952D02*
X115974819Y-129024190D01*
X115974819Y-129024190D02*
X115974819Y-129119428D01*
X115974819Y-129119428D02*
X115927200Y-129214666D01*
X115927200Y-129214666D02*
X115879580Y-129262285D01*
X115879580Y-129262285D02*
X115784342Y-129309904D01*
X115784342Y-129309904D02*
X115593866Y-129357523D01*
X115593866Y-129357523D02*
X115355771Y-129357523D01*
X115355771Y-129357523D02*
X115165295Y-129309904D01*
X115165295Y-129309904D02*
X115070057Y-129262285D01*
X115070057Y-129262285D02*
X115022438Y-129214666D01*
X115022438Y-129214666D02*
X114974819Y-129119428D01*
X96717142Y-106639580D02*
X96669523Y-106687200D01*
X96669523Y-106687200D02*
X96526666Y-106734819D01*
X96526666Y-106734819D02*
X96431428Y-106734819D01*
X96431428Y-106734819D02*
X96288571Y-106687200D01*
X96288571Y-106687200D02*
X96193333Y-106591961D01*
X96193333Y-106591961D02*
X96145714Y-106496723D01*
X96145714Y-106496723D02*
X96098095Y-106306247D01*
X96098095Y-106306247D02*
X96098095Y-106163390D01*
X96098095Y-106163390D02*
X96145714Y-105972914D01*
X96145714Y-105972914D02*
X96193333Y-105877676D01*
X96193333Y-105877676D02*
X96288571Y-105782438D01*
X96288571Y-105782438D02*
X96431428Y-105734819D01*
X96431428Y-105734819D02*
X96526666Y-105734819D01*
X96526666Y-105734819D02*
X96669523Y-105782438D01*
X96669523Y-105782438D02*
X96717142Y-105830057D01*
X97574285Y-106068152D02*
X97574285Y-106734819D01*
X97336190Y-105687200D02*
X97098095Y-106401485D01*
X97098095Y-106401485D02*
X97717142Y-106401485D01*
X98526666Y-106068152D02*
X98526666Y-106734819D01*
X98288571Y-105687200D02*
X98050476Y-106401485D01*
X98050476Y-106401485D02*
X98669523Y-106401485D01*
X125001819Y-71255094D02*
X124001819Y-71255094D01*
X124001819Y-71255094D02*
X124001819Y-71016999D01*
X124001819Y-71016999D02*
X124049438Y-70874142D01*
X124049438Y-70874142D02*
X124144676Y-70778904D01*
X124144676Y-70778904D02*
X124239914Y-70731285D01*
X124239914Y-70731285D02*
X124430390Y-70683666D01*
X124430390Y-70683666D02*
X124573247Y-70683666D01*
X124573247Y-70683666D02*
X124763723Y-70731285D01*
X124763723Y-70731285D02*
X124858961Y-70778904D01*
X124858961Y-70778904D02*
X124954200Y-70874142D01*
X124954200Y-70874142D02*
X125001819Y-71016999D01*
X125001819Y-71016999D02*
X125001819Y-71255094D01*
X124097057Y-70302713D02*
X124049438Y-70255094D01*
X124049438Y-70255094D02*
X124001819Y-70159856D01*
X124001819Y-70159856D02*
X124001819Y-69921761D01*
X124001819Y-69921761D02*
X124049438Y-69826523D01*
X124049438Y-69826523D02*
X124097057Y-69778904D01*
X124097057Y-69778904D02*
X124192295Y-69731285D01*
X124192295Y-69731285D02*
X124287533Y-69731285D01*
X124287533Y-69731285D02*
X124430390Y-69778904D01*
X124430390Y-69778904D02*
X125001819Y-70350332D01*
X125001819Y-70350332D02*
X125001819Y-69731285D01*
X107389580Y-130817857D02*
X107437200Y-130865476D01*
X107437200Y-130865476D02*
X107484819Y-131008333D01*
X107484819Y-131008333D02*
X107484819Y-131103571D01*
X107484819Y-131103571D02*
X107437200Y-131246428D01*
X107437200Y-131246428D02*
X107341961Y-131341666D01*
X107341961Y-131341666D02*
X107246723Y-131389285D01*
X107246723Y-131389285D02*
X107056247Y-131436904D01*
X107056247Y-131436904D02*
X106913390Y-131436904D01*
X106913390Y-131436904D02*
X106722914Y-131389285D01*
X106722914Y-131389285D02*
X106627676Y-131341666D01*
X106627676Y-131341666D02*
X106532438Y-131246428D01*
X106532438Y-131246428D02*
X106484819Y-131103571D01*
X106484819Y-131103571D02*
X106484819Y-131008333D01*
X106484819Y-131008333D02*
X106532438Y-130865476D01*
X106532438Y-130865476D02*
X106580057Y-130817857D01*
X106484819Y-130484523D02*
X106484819Y-129865476D01*
X106484819Y-129865476D02*
X106865771Y-130198809D01*
X106865771Y-130198809D02*
X106865771Y-130055952D01*
X106865771Y-130055952D02*
X106913390Y-129960714D01*
X106913390Y-129960714D02*
X106961009Y-129913095D01*
X106961009Y-129913095D02*
X107056247Y-129865476D01*
X107056247Y-129865476D02*
X107294342Y-129865476D01*
X107294342Y-129865476D02*
X107389580Y-129913095D01*
X107389580Y-129913095D02*
X107437200Y-129960714D01*
X107437200Y-129960714D02*
X107484819Y-130055952D01*
X107484819Y-130055952D02*
X107484819Y-130341666D01*
X107484819Y-130341666D02*
X107437200Y-130436904D01*
X107437200Y-130436904D02*
X107389580Y-130484523D01*
X107484819Y-128913095D02*
X107484819Y-129484523D01*
X107484819Y-129198809D02*
X106484819Y-129198809D01*
X106484819Y-129198809D02*
X106627676Y-129294047D01*
X106627676Y-129294047D02*
X106722914Y-129389285D01*
X106722914Y-129389285D02*
X106770533Y-129484523D01*
D12*
X97636000Y-51842936D02*
X97636000Y-52297064D01*
X96166000Y-51842936D02*
X96166000Y-52297064D01*
X95096000Y-51842936D02*
X95096000Y-52297064D01*
X93626000Y-51842936D02*
X93626000Y-52297064D01*
X96821164Y-127402000D02*
X97036836Y-127402000D01*
X96821164Y-128122000D02*
X97036836Y-128122000D01*
X97636064Y-126973000D02*
X97181936Y-126973000D01*
X97636064Y-125503000D02*
X97181936Y-125503000D01*
X118644936Y-127100000D02*
X119099064Y-127100000D01*
X118644936Y-125630000D02*
X119099064Y-125630000D01*
X102843064Y-139419000D02*
X102388936Y-139419000D01*
X102843064Y-137949000D02*
X102388936Y-137949000D01*
X125195000Y-100737936D02*
X125195000Y-101192064D01*
X123725000Y-100737936D02*
X123725000Y-101192064D01*
X111098064Y-135482000D02*
X110643936Y-135482000D01*
X111098064Y-134012000D02*
X110643936Y-134012000D01*
X85063000Y-75411064D02*
X85063000Y-74956936D01*
X83593000Y-75411064D02*
X83593000Y-74956936D01*
X112622000Y-67971936D02*
X112622000Y-68426064D01*
X111152000Y-67971936D02*
X111152000Y-68426064D01*
X121653641Y-103330000D02*
X121346359Y-103330000D01*
X121653641Y-104090000D02*
X121346359Y-104090000D01*
X98247252Y-138467000D02*
X96824748Y-138467000D01*
X98247252Y-141187000D02*
X96824748Y-141187000D01*
X116774000Y-132715000D02*
G75*
G02*
X114874000Y-132715000I-950000J0D01*
G01*
X114874000Y-132715000D02*
G75*
G02*
X116774000Y-132715000I950000J0D01*
G01*
X101197836Y-102794000D02*
X100982164Y-102794000D01*
X101197836Y-103514000D02*
X100982164Y-103514000D01*
X123810000Y-121970000D02*
G75*
G02*
X121910000Y-121970000I-950000J0D01*
G01*
X121910000Y-121970000D02*
G75*
G02*
X123810000Y-121970000I950000J0D01*
G01*
X121770000Y-119010000D02*
G75*
G02*
X119870000Y-119010000I-950000J0D01*
G01*
X119870000Y-119010000D02*
G75*
G02*
X121770000Y-119010000I950000J0D01*
G01*
X100295438Y-122437836D02*
X100295438Y-122222164D01*
X101015438Y-122437836D02*
X101015438Y-122222164D01*
X107712400Y-104732164D02*
X107712400Y-104947836D01*
X108432400Y-104732164D02*
X108432400Y-104947836D01*
X94140000Y-124206359D02*
X94140000Y-124513641D01*
X94900000Y-124206359D02*
X94900000Y-124513641D01*
X98788836Y-107664000D02*
X98573164Y-107664000D01*
X98788836Y-108384000D02*
X98573164Y-108384000D01*
X101750000Y-104732164D02*
X101750000Y-104947836D01*
X102470000Y-104732164D02*
X102470000Y-104947836D01*
X102530000Y-128910000D02*
X100730000Y-128910000D01*
X102530000Y-128910000D02*
X103330000Y-128910000D01*
X102530000Y-132030000D02*
X101730000Y-132030000D01*
X102530000Y-132030000D02*
X103330000Y-132030000D01*
X111940000Y-96640000D02*
G75*
G02*
X110040000Y-96640000I-950000J0D01*
G01*
X110040000Y-96640000D02*
G75*
G02*
X111940000Y-96640000I950000J0D01*
G01*
X97230000Y-123890000D02*
G75*
G02*
X95330000Y-123890000I-950000J0D01*
G01*
X95330000Y-123890000D02*
G75*
G02*
X97230000Y-123890000I950000J0D01*
G01*
X104455000Y-93853000D02*
G75*
G02*
X102555000Y-93853000I-950000J0D01*
G01*
X102555000Y-93853000D02*
G75*
G02*
X104455000Y-93853000I950000J0D01*
G01*
X99165438Y-122447836D02*
X99165438Y-122232164D01*
X99885438Y-122447836D02*
X99885438Y-122232164D01*
X111780000Y-122417836D02*
X111780000Y-122202164D01*
X112500000Y-122417836D02*
X112500000Y-122202164D01*
X113480000Y-126820000D02*
X115980000Y-126820000D01*
X115980000Y-123620000D01*
X113480000Y-123620000D01*
X113480000Y-126820000D01*
D13*
X116896590Y-126980000D02*
G75*
G02*
X116583410Y-126980000I-156590J0D01*
G01*
X116583410Y-126980000D02*
G75*
G02*
X116896590Y-126980000I156590J0D01*
G01*
D12*
X102312164Y-132480000D02*
X102527836Y-132480000D01*
X102312164Y-133200000D02*
X102527836Y-133200000D01*
X108265000Y-93853000D02*
G75*
G02*
X106365000Y-93853000I-950000J0D01*
G01*
X106365000Y-93853000D02*
G75*
G02*
X108265000Y-93853000I950000J0D01*
G01*
X114897836Y-127650000D02*
X114682164Y-127650000D01*
X114897836Y-128370000D02*
X114682164Y-128370000D01*
X111940000Y-99610000D02*
G75*
G02*
X110040000Y-99610000I-950000J0D01*
G01*
X110040000Y-99610000D02*
G75*
G02*
X111940000Y-99610000I950000J0D01*
G01*
X123363641Y-118600000D02*
X123056359Y-118600000D01*
X123363641Y-119360000D02*
X123056359Y-119360000D01*
X92600000Y-123880000D02*
G75*
G02*
X90700000Y-123880000I-950000J0D01*
G01*
X90700000Y-123880000D02*
G75*
G02*
X92600000Y-123880000I950000J0D01*
G01*
X104760000Y-104138748D02*
X104760000Y-105561252D01*
X106580000Y-104138748D02*
X106580000Y-105561252D01*
X120500000Y-108280000D02*
G75*
G02*
X118600000Y-108280000I-950000J0D01*
G01*
X118600000Y-108280000D02*
G75*
G02*
X120500000Y-108280000I950000J0D01*
G01*
X119470000Y-122760000D02*
G75*
G02*
X117570000Y-122760000I-950000J0D01*
G01*
X117570000Y-122760000D02*
G75*
G02*
X119470000Y-122760000I950000J0D01*
G01*
X103404641Y-141604000D02*
X103097359Y-141604000D01*
X103404641Y-140844000D02*
X103097359Y-140844000D01*
D10*
X92395000Y-128490000D02*
X95395000Y-128490000D01*
X92395000Y-131490000D02*
X92395000Y-128490000D01*
X95395000Y-128490000D02*
X95395000Y-131490000D01*
X95395000Y-131490000D02*
X92395000Y-131490000D01*
D14*
X95402082Y-126985835D02*
G75*
G02*
X95147918Y-126985835I-127082J0D01*
G01*
X95147918Y-126985835D02*
G75*
G02*
X95402082Y-126985835I127082J0D01*
G01*
D12*
X110981000Y-128669000D02*
X109181000Y-128669000D01*
X110981000Y-128669000D02*
X111781000Y-128669000D01*
X110981000Y-131789000D02*
X110181000Y-131789000D01*
X110981000Y-131789000D02*
X111781000Y-131789000D01*
X122449000Y-99079164D02*
X122449000Y-99294836D01*
X123169000Y-99079164D02*
X123169000Y-99294836D01*
X102880000Y-104732164D02*
X102880000Y-104947836D01*
X103600000Y-104732164D02*
X103600000Y-104947836D01*
X120000000Y-113106359D02*
X120000000Y-113413641D01*
X120760000Y-113106359D02*
X120760000Y-113413641D01*
X123810000Y-113980000D02*
G75*
G02*
X121910000Y-113980000I-950000J0D01*
G01*
X121910000Y-113980000D02*
G75*
G02*
X123810000Y-113980000I950000J0D01*
G01*
X101960000Y-140823836D02*
X101960000Y-140608164D01*
X101240000Y-140823836D02*
X101240000Y-140608164D01*
X97717836Y-109565000D02*
X97502164Y-109565000D01*
X97717836Y-110285000D02*
X97502164Y-110285000D01*
X114037836Y-109500000D02*
X113822164Y-109500000D01*
X114037836Y-110220000D02*
X113822164Y-110220000D01*
X114430000Y-97855000D02*
X114100000Y-98095000D01*
X114100000Y-97615000D01*
X114430000Y-97855000D01*
G36*
X114430000Y-97855000D02*
G01*
X114100000Y-98095000D01*
X114100000Y-97615000D01*
X114430000Y-97855000D01*
G37*
X118290000Y-102865000D02*
X120490000Y-102865000D01*
X118290000Y-102865000D02*
X116090000Y-102865000D01*
X118290000Y-97395000D02*
X120490000Y-97395000D01*
X118290000Y-97395000D02*
X116090000Y-97395000D01*
X93916359Y-135330000D02*
X94223641Y-135330000D01*
X93916359Y-136090000D02*
X94223641Y-136090000D01*
X111637836Y-105906000D02*
X111422164Y-105906000D01*
X111637836Y-106626000D02*
X111422164Y-106626000D01*
X93000000Y-124513641D02*
X93000000Y-124206359D01*
X93760000Y-124513641D02*
X93760000Y-124206359D01*
X110853164Y-132379000D02*
X111068836Y-132379000D01*
X110853164Y-133099000D02*
X111068836Y-133099000D01*
X123897836Y-103470000D02*
X123682164Y-103470000D01*
X123897836Y-102750000D02*
X123682164Y-102750000D01*
X110640000Y-122417836D02*
X110640000Y-122202164D01*
X111360000Y-122417836D02*
X111360000Y-122202164D01*
X108830000Y-104732164D02*
X108830000Y-104947836D01*
X109550000Y-104732164D02*
X109550000Y-104947836D01*
X123363641Y-115840000D02*
X123056359Y-115840000D01*
X123363641Y-116600000D02*
X123056359Y-116600000D01*
X110322836Y-102786000D02*
X110107164Y-102786000D01*
X110322836Y-103506000D02*
X110107164Y-103506000D01*
X108265000Y-132715000D02*
G75*
G02*
X106365000Y-132715000I-950000J0D01*
G01*
X106365000Y-132715000D02*
G75*
G02*
X108265000Y-132715000I950000J0D01*
G01*
X121850000Y-116060000D02*
G75*
G02*
X119950000Y-116060000I-950000J0D01*
G01*
X119950000Y-116060000D02*
G75*
G02*
X121850000Y-116060000I950000J0D01*
G01*
X94067836Y-125580000D02*
X93852164Y-125580000D01*
X94067836Y-126300000D02*
X93852164Y-126300000D01*
X112937836Y-107666000D02*
X112722164Y-107666000D01*
X112937836Y-108386000D02*
X112722164Y-108386000D01*
X97770836Y-141626000D02*
X97555164Y-141626000D01*
X97770836Y-142346000D02*
X97555164Y-142346000D01*
X113880000Y-129912164D02*
X113880000Y-130127836D01*
X114600000Y-129912164D02*
X114600000Y-130127836D01*
X100068836Y-105924000D02*
X99853164Y-105924000D01*
X100068836Y-106644000D02*
X99853164Y-106644000D01*
X120397000Y-67007000D02*
X120397000Y-72517000D01*
X123697000Y-67007000D02*
X120397000Y-67007000D01*
X123697000Y-67007000D02*
X123697000Y-72517000D01*
X105390000Y-130362164D02*
X105390000Y-130577836D01*
X106110000Y-130362164D02*
X106110000Y-130577836D01*
%LPC*%
D15*
X96901000Y-51157500D03*
X96901000Y-52982500D03*
X94361000Y-51157500D03*
X94361000Y-52982500D03*
D16*
X96449000Y-127762000D03*
X97409000Y-127762000D03*
D17*
X98321500Y-126238000D03*
X96496500Y-126238000D03*
D18*
X119784500Y-126365000D03*
X117959500Y-126365000D03*
D17*
X103528500Y-138684000D03*
X101703500Y-138684000D03*
D15*
X124460000Y-100052500D03*
X124460000Y-101877500D03*
D17*
X111783500Y-134747000D03*
X109958500Y-134747000D03*
D19*
X84328000Y-74271500D03*
X84328000Y-76096500D03*
D15*
X111887000Y-67286500D03*
X111887000Y-69111500D03*
D20*
X122010000Y-103710000D03*
X120990000Y-103710000D03*
D21*
X99011000Y-139827000D03*
X96061000Y-139827000D03*
D22*
X115824000Y-132715000D03*
D23*
X125270000Y-50310000D03*
X132260000Y-139060000D03*
X78850000Y-139070000D03*
D24*
X101570000Y-103154000D03*
X100610000Y-103154000D03*
D22*
X122860000Y-121970000D03*
X120820000Y-119010000D03*
D25*
X100655438Y-122810000D03*
X100655438Y-121850000D03*
D26*
X108072400Y-104360000D03*
X108072400Y-105320000D03*
D27*
X94520000Y-123850000D03*
X94520000Y-124870000D03*
D24*
X99161000Y-108024000D03*
X98201000Y-108024000D03*
D28*
X84764000Y-95943000D03*
D26*
X102110000Y-104360000D03*
X102110000Y-105320000D03*
D29*
X101392500Y-129520000D03*
X101392500Y-130470000D03*
X101392500Y-131420000D03*
X103667500Y-131420000D03*
X103667500Y-129520000D03*
D22*
X110990000Y-96640000D03*
X96280000Y-123890000D03*
X103505000Y-93853000D03*
D28*
X126130000Y-137350000D03*
D25*
X99525438Y-122820000D03*
X99525438Y-121860000D03*
X112140000Y-122790000D03*
X112140000Y-121830000D03*
D30*
X115680000Y-126370000D03*
X115680000Y-124070000D03*
X113780000Y-124070000D03*
X113780000Y-126370000D03*
D16*
X101940000Y-132840000D03*
X102900000Y-132840000D03*
D31*
X130250000Y-51120990D03*
X130909010Y-49530000D03*
X130909010Y-52711980D03*
X132500000Y-48870990D03*
D32*
X132500000Y-51120990D03*
D31*
X132500000Y-53370990D03*
X134090990Y-49530000D03*
X134090990Y-52711980D03*
X134750000Y-51120990D03*
D22*
X107315000Y-93853000D03*
D24*
X115270000Y-128010000D03*
X114310000Y-128010000D03*
D23*
X78750000Y-55900000D03*
D22*
X110990000Y-99610000D03*
D20*
X123720000Y-118980000D03*
X122700000Y-118980000D03*
D22*
X91650000Y-123880000D03*
D33*
X105670000Y-103375000D03*
X105670000Y-106325000D03*
D22*
X119550000Y-108280000D03*
X118520000Y-122760000D03*
D20*
X103761000Y-141224000D03*
X102741000Y-141224000D03*
D34*
X94870000Y-127840000D03*
X94220000Y-127840000D03*
X93570000Y-127840000D03*
X92920000Y-127840000D03*
X92920000Y-132140000D03*
X93570000Y-132140000D03*
X94220000Y-132140000D03*
X94870000Y-132140000D03*
D29*
X109843500Y-129279000D03*
X109843500Y-130229000D03*
X109843500Y-131179000D03*
X112118500Y-131179000D03*
X112118500Y-129279000D03*
D31*
X130250000Y-143728000D03*
X130909010Y-142137010D03*
X130909010Y-145318990D03*
X132500000Y-141478000D03*
D32*
X132500000Y-143728000D03*
D31*
X132500000Y-145978000D03*
X134090990Y-142137010D03*
X134090990Y-145318990D03*
X134750000Y-143728000D03*
D26*
X122809000Y-98707000D03*
X122809000Y-99667000D03*
X103240000Y-104360000D03*
X103240000Y-105320000D03*
D27*
X120380000Y-112750000D03*
X120380000Y-113770000D03*
D22*
X122860000Y-113980000D03*
D31*
X76250000Y-143855000D03*
X76909010Y-142264010D03*
X76909010Y-145445990D03*
X78500000Y-141605000D03*
D32*
X78500000Y-143855000D03*
D31*
X78500000Y-146105000D03*
X80090990Y-142264010D03*
X80090990Y-145445990D03*
X80750000Y-143855000D03*
D25*
X101600000Y-141196000D03*
X101600000Y-140236000D03*
D35*
X84710000Y-137360000D03*
D24*
X98090000Y-109925000D03*
X97130000Y-109925000D03*
X114410000Y-109860000D03*
X113450000Y-109860000D03*
D36*
X121152500Y-97855000D03*
X121152500Y-98505000D03*
X121152500Y-99155000D03*
X121152500Y-99805000D03*
X121152500Y-100455000D03*
X121152500Y-101105000D03*
X121152500Y-101755000D03*
X121152500Y-102405000D03*
X115427500Y-102405000D03*
X115427500Y-101755000D03*
X115427500Y-101105000D03*
X115427500Y-100455000D03*
X115427500Y-99805000D03*
X115427500Y-99155000D03*
X115427500Y-98505000D03*
X115427500Y-97855000D03*
D37*
X93560000Y-135710000D03*
X94580000Y-135710000D03*
D24*
X112010000Y-106266000D03*
X111050000Y-106266000D03*
D38*
X93380000Y-124870000D03*
X93380000Y-123850000D03*
D16*
X110481000Y-132739000D03*
X111441000Y-132739000D03*
D24*
X123310000Y-103110000D03*
X124270000Y-103110000D03*
D25*
X111000000Y-122790000D03*
X111000000Y-121830000D03*
D31*
X76250000Y-51054000D03*
X76909010Y-49463010D03*
X76909010Y-52644990D03*
X78500000Y-48804000D03*
D32*
X78500000Y-51054000D03*
D31*
X78500000Y-53304000D03*
X80090990Y-49463010D03*
X80090990Y-52644990D03*
X80750000Y-51054000D03*
D26*
X109190000Y-104360000D03*
X109190000Y-105320000D03*
D20*
X123720000Y-116220000D03*
X122700000Y-116220000D03*
D24*
X110695000Y-103146000D03*
X109735000Y-103146000D03*
D22*
X107315000Y-132715000D03*
D35*
X126060000Y-95869000D03*
D22*
X120900000Y-116060000D03*
D24*
X94440000Y-125940000D03*
X93480000Y-125940000D03*
X113310000Y-108026000D03*
X112350000Y-108026000D03*
X98143000Y-141986000D03*
X97183000Y-141986000D03*
D26*
X114240000Y-129540000D03*
X114240000Y-130500000D03*
D24*
X100441000Y-106284000D03*
X99481000Y-106284000D03*
D39*
X122047000Y-68517000D03*
X122047000Y-72517000D03*
D26*
X105750000Y-129990000D03*
X105750000Y-130950000D03*
D40*
X104002400Y-143240851D03*
X101462400Y-143240851D03*
X98922400Y-143240851D03*
X96382400Y-143240851D03*
D41*
X101462400Y-145400852D03*
D42*
X84250000Y-71942000D03*
X86790000Y-71942000D03*
X89330000Y-71942000D03*
X91870000Y-71942000D03*
X94410000Y-71942000D03*
X96950000Y-71942000D03*
X99490000Y-71942000D03*
X102030000Y-71942000D03*
X104570000Y-71942000D03*
X107110000Y-71942000D03*
X109650000Y-71942000D03*
X112190000Y-71942000D03*
X112190000Y-49022000D03*
X109650000Y-49022000D03*
X107110000Y-49022000D03*
X104570000Y-49022000D03*
X102030000Y-49022000D03*
X99490000Y-49022000D03*
X96950000Y-49022000D03*
X94410000Y-49022000D03*
X91870000Y-49022000D03*
X89330000Y-49022000D03*
X86790000Y-49022000D03*
X84250000Y-49022000D03*
D43*
X126310000Y-83439000D03*
D44*
X130810000Y-83439000D03*
D45*
X111890000Y-80137000D03*
X110490000Y-80137000D03*
X109090000Y-80137000D03*
X112890000Y-81417000D03*
X111890000Y-81417000D03*
X110490000Y-81417000D03*
X109090000Y-81417000D03*
X108090000Y-81417000D03*
X111890000Y-82697000D03*
X110490000Y-82697000D03*
X109090000Y-82697000D03*
%LPD*%
M02*
