%TF.GenerationSoftware,KiCad,Pcbnew,8.0.4*%
%TF.CreationDate,2025-03-09T16:09:41+01:00*%
%TF.ProjectId,nerdaxe-gamma_v2.2,6e657264-6178-4652-9d67-616d6d615f76,rev?*%
%TF.SameCoordinates,Original*%
%TF.FileFunction,Drillmap*%
%TF.FilePolarity,Positive*%
%FSLAX45Y45*%
G04 Gerber Fmt 4.5, Leading zero omitted, Abs format (unit mm)*
G04 Created by KiCad (PCBNEW 8.0.4) date 2025-03-09 16:09:41*
%MOMM*%
%LPD*%
G01*
G04 APERTURE LIST*
%ADD10C,0.100000*%
%ADD11C,0.200000*%
%ADD12C,0.106680*%
%ADD13C,0.300000*%
G04 APERTURE END LIST*
D10*
X7759700Y-4749800D02*
X13335000Y-4749800D01*
X13589000Y-14474400D02*
G75*
G02*
X13335000Y-14728400I-254000J0D01*
G01*
X13335000Y-4749800D02*
G75*
G02*
X13588989Y-5006200I0J-254000D01*
G01*
X7505700Y-5003800D02*
G75*
G02*
X7759700Y-4749800I254000J0D01*
G01*
X13335000Y-14728400D02*
X7761505Y-14728400D01*
X13589000Y-5006200D02*
X13589000Y-14474400D01*
X7761505Y-14728400D02*
G75*
G02*
X7507510Y-14474400I5J254000D01*
G01*
X7507505Y-14474400D02*
X7505700Y-5003800D01*
D11*
D10*
X8417800Y-7757400D02*
X8447800Y-7787400D01*
X8447800Y-7757400D02*
X8417800Y-7787400D01*
X8646400Y-7884400D02*
X8676400Y-7914400D01*
X8676400Y-7884400D02*
X8646400Y-7914400D01*
X9014700Y-5407900D02*
X9044700Y-5437900D01*
X9044700Y-5407900D02*
X9014700Y-5437900D01*
X9129000Y-5661900D02*
X9159000Y-5691900D01*
X9159000Y-5661900D02*
X9129000Y-5691900D01*
X9203000Y-11981000D02*
X9233000Y-12011000D01*
X9233000Y-11981000D02*
X9203000Y-12011000D01*
X9279000Y-11978000D02*
X9309000Y-12008000D01*
X9309000Y-11978000D02*
X9279000Y-12008000D01*
X9407000Y-13331000D02*
X9437000Y-13361000D01*
X9437000Y-13331000D02*
X9407000Y-13361000D01*
X9433800Y-13408900D02*
X9463800Y-13438900D01*
X9463800Y-13408900D02*
X9433800Y-13438900D01*
X9451000Y-7816700D02*
X9481000Y-7846700D01*
X9481000Y-7816700D02*
X9451000Y-7846700D01*
X9648500Y-8823000D02*
X9678500Y-8853000D01*
X9678500Y-8823000D02*
X9648500Y-8853000D01*
X9814800Y-12761200D02*
X9844800Y-12791200D01*
X9844800Y-12761200D02*
X9814800Y-12791200D01*
X9852900Y-7503400D02*
X9882900Y-7533400D01*
X9882900Y-7503400D02*
X9852900Y-7533400D01*
X10068800Y-7427200D02*
X10098800Y-7457200D01*
X10098800Y-7427200D02*
X10068800Y-7457200D01*
X10110000Y-7741700D02*
X10140000Y-7771700D01*
X10140000Y-7741700D02*
X10110000Y-7771700D01*
X10221200Y-13980400D02*
X10251200Y-14010400D01*
X10251200Y-13980400D02*
X10221200Y-14010400D01*
X10414000Y-8469700D02*
X10444000Y-8499700D01*
X10444000Y-8469700D02*
X10414000Y-8499700D01*
X10627600Y-14463000D02*
X10657600Y-14493000D01*
X10657600Y-14463000D02*
X10627600Y-14493000D01*
X11059000Y-8522700D02*
X11089000Y-8552700D01*
X11089000Y-8522700D02*
X11059000Y-8552700D01*
X11135000Y-7778700D02*
X11165000Y-7808700D01*
X11165000Y-7778700D02*
X11135000Y-7808700D01*
X11173700Y-13624800D02*
X11203700Y-13654800D01*
X11203700Y-13624800D02*
X11173700Y-13654800D01*
X11223000Y-8665700D02*
X11253000Y-8695700D01*
X11253000Y-8665700D02*
X11223000Y-8695700D01*
X11362000Y-9962000D02*
X11392000Y-9992000D01*
X11392000Y-9962000D02*
X11362000Y-9992000D01*
X11365000Y-9880000D02*
X11395000Y-9910000D01*
X11395000Y-9880000D02*
X11365000Y-9910000D01*
X11368000Y-10035000D02*
X11398000Y-10065000D01*
X11398000Y-10035000D02*
X11368000Y-10065000D01*
X11415000Y-8633700D02*
X11445000Y-8663700D01*
X11445000Y-8633700D02*
X11415000Y-8663700D01*
X11436500Y-8151700D02*
X11466500Y-8181700D01*
X11466500Y-8151700D02*
X11436500Y-8181700D01*
X11478500Y-8417800D02*
X11508500Y-8447800D01*
X11508500Y-8417800D02*
X11478500Y-8447800D01*
X11529300Y-8494000D02*
X11559300Y-8524000D01*
X11559300Y-8494000D02*
X11529300Y-8524000D01*
X11733300Y-8214600D02*
X11763300Y-8244600D01*
X11763300Y-8214600D02*
X11733300Y-8244600D01*
X11745200Y-7808200D02*
X11775200Y-7838200D01*
X11775200Y-7808200D02*
X11745200Y-7838200D01*
X11745200Y-7935200D02*
X11775200Y-7965200D01*
X11775200Y-7935200D02*
X11745200Y-7965200D01*
X11745200Y-8062200D02*
X11775200Y-8092200D01*
X11775200Y-8062200D02*
X11745200Y-8092200D01*
X11817000Y-10822000D02*
X11847000Y-10852000D01*
X11847000Y-10822000D02*
X11817000Y-10852000D01*
X11859000Y-11351000D02*
X11889000Y-11381000D01*
X11889000Y-11351000D02*
X11859000Y-11381000D01*
X11872200Y-9370300D02*
X11902200Y-9400300D01*
X11902200Y-9370300D02*
X11872200Y-9400300D01*
X11927000Y-11464000D02*
X11957000Y-11494000D01*
X11957000Y-11464000D02*
X11927000Y-11494000D01*
X11927000Y-11787000D02*
X11957000Y-11817000D01*
X11957000Y-11787000D02*
X11927000Y-11817000D01*
X11928000Y-11610000D02*
X11958000Y-11640000D01*
X11958000Y-11610000D02*
X11928000Y-11640000D01*
X11961100Y-8595600D02*
X11991100Y-8625600D01*
X11991100Y-8595600D02*
X11961100Y-8625600D01*
X11999200Y-8240000D02*
X12029200Y-8270000D01*
X12029200Y-8240000D02*
X11999200Y-8270000D01*
X12037300Y-8392400D02*
X12067300Y-8422400D01*
X12067300Y-8392400D02*
X12037300Y-8422400D01*
X12050000Y-9548100D02*
X12080000Y-9578100D01*
X12080000Y-9548100D02*
X12050000Y-9578100D01*
X12177000Y-7439900D02*
X12207000Y-7469900D01*
X12207000Y-7439900D02*
X12177000Y-7469900D01*
X12265900Y-10018000D02*
X12295900Y-10048000D01*
X12295900Y-10018000D02*
X12265900Y-10048000D01*
X12304000Y-7439900D02*
X12334000Y-7469900D01*
X12334000Y-7439900D02*
X12304000Y-7469900D01*
X12439000Y-12167000D02*
X12469000Y-12197000D01*
X12469000Y-12167000D02*
X12439000Y-12197000D01*
X12723100Y-7058900D02*
X12753100Y-7088900D01*
X12753100Y-7058900D02*
X12723100Y-7088900D01*
X12723100Y-7185900D02*
X12753100Y-7215900D01*
X12753100Y-7185900D02*
X12723100Y-7215900D01*
X12723100Y-7325600D02*
X12753100Y-7355600D01*
X12753100Y-7325600D02*
X12723100Y-7355600D01*
X12723100Y-7452600D02*
X12753100Y-7482600D01*
X12753100Y-7452600D02*
X12723100Y-7482600D01*
X12723100Y-7579600D02*
X12753100Y-7609600D01*
X12753100Y-7579600D02*
X12723100Y-7609600D01*
X10824000Y-8141700D02*
G75*
G02*
X10794000Y-8141700I-15000J0D01*
G01*
X10794000Y-8141700D02*
G75*
G02*
X10824000Y-8141700I15000J0D01*
G01*
X10924000Y-8013700D02*
G75*
G02*
X10894000Y-8013700I-15000J0D01*
G01*
X10894000Y-8013700D02*
G75*
G02*
X10924000Y-8013700I15000J0D01*
G01*
X10924000Y-8141700D02*
G75*
G02*
X10894000Y-8141700I-15000J0D01*
G01*
X10894000Y-8141700D02*
G75*
G02*
X10924000Y-8141700I15000J0D01*
G01*
X10924000Y-8269700D02*
G75*
G02*
X10894000Y-8269700I-15000J0D01*
G01*
X10894000Y-8269700D02*
G75*
G02*
X10924000Y-8269700I15000J0D01*
G01*
X11064000Y-8013700D02*
G75*
G02*
X11034000Y-8013700I-15000J0D01*
G01*
X11034000Y-8013700D02*
G75*
G02*
X11064000Y-8013700I15000J0D01*
G01*
X11064000Y-8141700D02*
G75*
G02*
X11034000Y-8141700I-15000J0D01*
G01*
X11034000Y-8141700D02*
G75*
G02*
X11064000Y-8141700I15000J0D01*
G01*
X11064000Y-8269700D02*
G75*
G02*
X11034000Y-8269700I-15000J0D01*
G01*
X11034000Y-8269700D02*
G75*
G02*
X11064000Y-8269700I15000J0D01*
G01*
X11204000Y-8013700D02*
G75*
G02*
X11174000Y-8013700I-15000J0D01*
G01*
X11174000Y-8013700D02*
G75*
G02*
X11204000Y-8013700I15000J0D01*
G01*
X11204000Y-8141700D02*
G75*
G02*
X11174000Y-8141700I-15000J0D01*
G01*
X11174000Y-8141700D02*
G75*
G02*
X11204000Y-8141700I15000J0D01*
G01*
X11204000Y-8269700D02*
G75*
G02*
X11174000Y-8269700I-15000J0D01*
G01*
X11174000Y-8269700D02*
G75*
G02*
X11204000Y-8269700I15000J0D01*
G01*
X11304000Y-8141700D02*
G75*
G02*
X11274000Y-8141700I-15000J0D01*
G01*
X11274000Y-8141700D02*
G75*
G02*
X11304000Y-8141700I15000J0D01*
G01*
X9191000Y-7814700D02*
X9191000Y-7854700D01*
X9171000Y-7834700D02*
X9211000Y-7834700D01*
X9268000Y-13317000D02*
X9268000Y-13357000D01*
X9248000Y-13337000D02*
X9288000Y-13337000D01*
X9555000Y-13577000D02*
X9555000Y-13617000D01*
X9535000Y-13597000D02*
X9575000Y-13597000D01*
X9660000Y-10872000D02*
X9660000Y-10912000D01*
X9640000Y-10892000D02*
X9680000Y-10892000D01*
X9805000Y-11406000D02*
X9805000Y-11446000D01*
X9785000Y-11426000D02*
X9825000Y-11426000D01*
X9814000Y-11086000D02*
X9814000Y-11126000D01*
X9794000Y-11106000D02*
X9834000Y-11106000D01*
X9844000Y-12129000D02*
X9844000Y-12169000D01*
X9824000Y-12149000D02*
X9864000Y-12149000D01*
X9918000Y-12351000D02*
X9918000Y-12391000D01*
X9898000Y-12371000D02*
X9938000Y-12371000D01*
X9936000Y-10901000D02*
X9936000Y-10941000D01*
X9916000Y-10921000D02*
X9956000Y-10921000D01*
X9937000Y-11904000D02*
X9937000Y-11944000D01*
X9917000Y-11924000D02*
X9957000Y-11924000D01*
X9951000Y-8022700D02*
X9951000Y-8062700D01*
X9931000Y-8042700D02*
X9971000Y-8042700D01*
X9956800Y-12603800D02*
X9956800Y-12643800D01*
X9936800Y-12623800D02*
X9976800Y-12623800D01*
X10055380Y-10725740D02*
X10055380Y-10765740D01*
X10035380Y-10745740D02*
X10075380Y-10745740D01*
X10077000Y-12350000D02*
X10077000Y-12390000D01*
X10057000Y-12370000D02*
X10097000Y-12370000D01*
X10150000Y-8022700D02*
X10150000Y-8062700D01*
X10130000Y-8042700D02*
X10170000Y-8042700D01*
X10248900Y-9759000D02*
X10248900Y-9799000D01*
X10228900Y-9779000D02*
X10268900Y-9779000D01*
X10248900Y-9886000D02*
X10248900Y-9926000D01*
X10228900Y-9906000D02*
X10268900Y-9906000D01*
X10248900Y-10013000D02*
X10248900Y-10053000D01*
X10228900Y-10033000D02*
X10268900Y-10033000D01*
X10248900Y-10140000D02*
X10248900Y-10180000D01*
X10228900Y-10160000D02*
X10268900Y-10160000D01*
X10248900Y-10267000D02*
X10248900Y-10307000D01*
X10228900Y-10287000D02*
X10268900Y-10287000D01*
X10358000Y-8024700D02*
X10358000Y-8064700D01*
X10338000Y-8044700D02*
X10378000Y-8044700D01*
X10375900Y-9759000D02*
X10375900Y-9799000D01*
X10355900Y-9779000D02*
X10395900Y-9779000D01*
X10375900Y-9886000D02*
X10375900Y-9926000D01*
X10355900Y-9906000D02*
X10395900Y-9906000D01*
X10375900Y-10013000D02*
X10375900Y-10053000D01*
X10355900Y-10033000D02*
X10395900Y-10033000D01*
X10375900Y-10140000D02*
X10375900Y-10180000D01*
X10355900Y-10160000D02*
X10395900Y-10160000D01*
X10375900Y-10267000D02*
X10375900Y-10307000D01*
X10355900Y-10287000D02*
X10395900Y-10287000D01*
X10449000Y-11554600D02*
X10449000Y-11594600D01*
X10429000Y-11574600D02*
X10469000Y-11574600D01*
X10449000Y-11664000D02*
X10449000Y-11704000D01*
X10429000Y-11684000D02*
X10469000Y-11684000D01*
X10449000Y-11756000D02*
X10449000Y-11796000D01*
X10429000Y-11776000D02*
X10469000Y-11776000D01*
X10449000Y-11850000D02*
X10449000Y-11890000D01*
X10429000Y-11870000D02*
X10469000Y-11870000D01*
X10449000Y-11971000D02*
X10449000Y-12011000D01*
X10429000Y-11991000D02*
X10469000Y-11991000D01*
X10464000Y-13027000D02*
X10464000Y-13067000D01*
X10444000Y-13047000D02*
X10484000Y-13047000D01*
X10464800Y-7396800D02*
X10464800Y-7436800D01*
X10444800Y-7416800D02*
X10484800Y-7416800D01*
X10502900Y-9759000D02*
X10502900Y-9799000D01*
X10482900Y-9779000D02*
X10522900Y-9779000D01*
X10502900Y-9886000D02*
X10502900Y-9926000D01*
X10482900Y-9906000D02*
X10522900Y-9906000D01*
X10502900Y-10013000D02*
X10502900Y-10053000D01*
X10482900Y-10033000D02*
X10522900Y-10033000D01*
X10502900Y-10140000D02*
X10502900Y-10180000D01*
X10482900Y-10160000D02*
X10522900Y-10160000D01*
X10553700Y-7523800D02*
X10553700Y-7563800D01*
X10533700Y-7543800D02*
X10573700Y-7543800D01*
X10554000Y-13235000D02*
X10554000Y-13275000D01*
X10534000Y-13255000D02*
X10574000Y-13255000D01*
X10561000Y-7854700D02*
X10561000Y-7894700D01*
X10541000Y-7874700D02*
X10581000Y-7874700D01*
X10561000Y-8025700D02*
X10561000Y-8065700D01*
X10541000Y-8045700D02*
X10581000Y-8045700D01*
X10561000Y-11663000D02*
X10561000Y-11703000D01*
X10541000Y-11683000D02*
X10581000Y-11683000D01*
X10562000Y-8185700D02*
X10562000Y-8225700D01*
X10542000Y-8205700D02*
X10582000Y-8205700D01*
X10563000Y-11850000D02*
X10563000Y-11890000D01*
X10543000Y-11870000D02*
X10583000Y-11870000D01*
X10566400Y-7663500D02*
X10566400Y-7703500D01*
X10546400Y-7683500D02*
X10586400Y-7683500D01*
X10629900Y-9759000D02*
X10629900Y-9799000D01*
X10609900Y-9779000D02*
X10649900Y-9779000D01*
X10629900Y-9886000D02*
X10629900Y-9926000D01*
X10609900Y-9906000D02*
X10649900Y-9906000D01*
X10629900Y-10013000D02*
X10629900Y-10053000D01*
X10609900Y-10033000D02*
X10649900Y-10033000D01*
X10629900Y-10140000D02*
X10629900Y-10180000D01*
X10609900Y-10160000D02*
X10649900Y-10160000D01*
X10674000Y-11556600D02*
X10674000Y-11596600D01*
X10654000Y-11576600D02*
X10694000Y-11576600D01*
X10674000Y-11666000D02*
X10674000Y-11706000D01*
X10654000Y-11686000D02*
X10694000Y-11686000D01*
X10674000Y-11758000D02*
X10674000Y-11798000D01*
X10654000Y-11778000D02*
X10694000Y-11778000D01*
X10674000Y-11852000D02*
X10674000Y-11892000D01*
X10654000Y-11872000D02*
X10694000Y-11872000D01*
X10674000Y-11973000D02*
X10674000Y-12013000D01*
X10654000Y-11993000D02*
X10694000Y-11993000D01*
X10756900Y-9759000D02*
X10756900Y-9799000D01*
X10736900Y-9779000D02*
X10776900Y-9779000D01*
X10756900Y-9886000D02*
X10756900Y-9926000D01*
X10736900Y-9906000D02*
X10776900Y-9906000D01*
X10756900Y-10013000D02*
X10756900Y-10053000D01*
X10736900Y-10033000D02*
X10776900Y-10033000D01*
X10756900Y-10140000D02*
X10756900Y-10180000D01*
X10736900Y-10160000D02*
X10776900Y-10160000D01*
X10756900Y-10267000D02*
X10756900Y-10307000D01*
X10736900Y-10287000D02*
X10776900Y-10287000D01*
X10883900Y-9759000D02*
X10883900Y-9799000D01*
X10863900Y-9779000D02*
X10903900Y-9779000D01*
X10883900Y-9886000D02*
X10883900Y-9926000D01*
X10863900Y-9906000D02*
X10903900Y-9906000D01*
X10883900Y-10013000D02*
X10883900Y-10053000D01*
X10863900Y-10033000D02*
X10903900Y-10033000D01*
X10883900Y-10140000D02*
X10883900Y-10180000D01*
X10863900Y-10160000D02*
X10903900Y-10160000D01*
X10883900Y-10267000D02*
X10883900Y-10307000D01*
X10863900Y-10287000D02*
X10903900Y-10287000D01*
X11095000Y-12479000D02*
X11095000Y-12519000D01*
X11075000Y-12499000D02*
X11115000Y-12499000D01*
X11097000Y-12350000D02*
X11097000Y-12390000D01*
X11077000Y-12370000D02*
X11117000Y-12370000D01*
X11103000Y-10767000D02*
X11103000Y-10807000D01*
X11083000Y-10787000D02*
X11123000Y-10787000D01*
X11218000Y-11906000D02*
X11218000Y-11946000D01*
X11198000Y-11926000D02*
X11238000Y-11926000D01*
X11218000Y-12060000D02*
X11218000Y-12100000D01*
X11198000Y-12080000D02*
X11238000Y-12080000D01*
X11228000Y-9353700D02*
X11228000Y-9393700D01*
X11208000Y-9373700D02*
X11248000Y-9373700D01*
X11239000Y-10915000D02*
X11239000Y-10955000D01*
X11219000Y-10935000D02*
X11259000Y-10935000D01*
X11298000Y-11407000D02*
X11298000Y-11447000D01*
X11278000Y-11427000D02*
X11318000Y-11427000D01*
X11318000Y-13002000D02*
X11318000Y-13042000D01*
X11298000Y-13022000D02*
X11338000Y-13022000D01*
X11347000Y-11109000D02*
X11347000Y-11149000D01*
X11327000Y-11129000D02*
X11367000Y-11129000D01*
X11358000Y-13245000D02*
X11358000Y-13285000D01*
X11338000Y-13265000D02*
X11378000Y-13265000D01*
X11526000Y-10884000D02*
X11526000Y-10924000D01*
X11506000Y-10904000D02*
X11546000Y-10904000D01*
X11605000Y-12781000D02*
X11605000Y-12821000D01*
X11585000Y-12801000D02*
X11625000Y-12801000D01*
X11677000Y-12388000D02*
X11677000Y-12428000D01*
X11657000Y-12408000D02*
X11697000Y-12408000D01*
X11699000Y-9800000D02*
X11699000Y-9840000D01*
X11679000Y-9820000D02*
X11719000Y-9820000D01*
X11709000Y-10016000D02*
X11709000Y-10056000D01*
X11689000Y-10036000D02*
X11729000Y-10036000D01*
X11928000Y-10330500D02*
X11928000Y-10370500D01*
X11908000Y-10350500D02*
X11948000Y-10350500D01*
X12158000Y-11220000D02*
X12158000Y-11260000D01*
X12138000Y-11240000D02*
X12178000Y-11240000D01*
X12255500Y-10254300D02*
X12255500Y-10294300D01*
X12235500Y-10274300D02*
X12275500Y-10274300D01*
X12331700Y-10152700D02*
X12331700Y-10192700D01*
X12311700Y-10172700D02*
X12351700Y-10172700D01*
X12371000Y-12003000D02*
X12371000Y-12043000D01*
X12351000Y-12023000D02*
X12391000Y-12023000D01*
X12375000Y-11733000D02*
X12375000Y-11773000D01*
X12355000Y-11753000D02*
X12395000Y-11753000D01*
X12649200Y-6952300D02*
X12649200Y-6992300D01*
X12629200Y-6972300D02*
X12669200Y-6972300D01*
X12649200Y-7041200D02*
X12649200Y-7081200D01*
X12629200Y-7061200D02*
X12669200Y-7061200D01*
X12661900Y-7320600D02*
X12661900Y-7360600D01*
X12641900Y-7340600D02*
X12681900Y-7340600D01*
X12661900Y-7612700D02*
X12661900Y-7652700D01*
X12641900Y-7632700D02*
X12681900Y-7632700D01*
X12738100Y-6952300D02*
X12738100Y-6992300D01*
X12718100Y-6972300D02*
X12758100Y-6972300D01*
X12814300Y-7320600D02*
X12814300Y-7360600D01*
X12794300Y-7340600D02*
X12834300Y-7340600D01*
X12814300Y-7612700D02*
X12814300Y-7652700D01*
X12794300Y-7632700D02*
X12834300Y-7632700D01*
X12827000Y-6952300D02*
X12827000Y-6992300D01*
X12807000Y-6972300D02*
X12847000Y-6972300D01*
X12827000Y-7041200D02*
X12827000Y-7081200D01*
X12807000Y-7061200D02*
X12847000Y-7061200D01*
X12915900Y-7612700D02*
X12915900Y-7652700D01*
X12895900Y-7632700D02*
X12935900Y-7632700D01*
X7642678Y-5123078D02*
X7642678Y-5087722D01*
X7607322Y-5087722D01*
X7607322Y-5123078D01*
X7642678Y-5123078D01*
X7642678Y-14403178D02*
X7642678Y-14367822D01*
X7607322Y-14367822D01*
X7607322Y-14403178D01*
X7642678Y-14403178D01*
X7708579Y-4963979D02*
X7708579Y-4928623D01*
X7673223Y-4928623D01*
X7673223Y-4963979D01*
X7708579Y-4963979D01*
X7708579Y-5282177D02*
X7708579Y-5246821D01*
X7673223Y-5246821D01*
X7673223Y-5282177D01*
X7708579Y-5282177D01*
X7708579Y-14244079D02*
X7708579Y-14208723D01*
X7673223Y-14208723D01*
X7673223Y-14244079D01*
X7708579Y-14244079D01*
X7708579Y-14562277D02*
X7708579Y-14526921D01*
X7673223Y-14526921D01*
X7673223Y-14562277D01*
X7708579Y-14562277D01*
X7867678Y-4898078D02*
X7867678Y-4862722D01*
X7832322Y-4862722D01*
X7832322Y-4898078D01*
X7867678Y-4898078D01*
X7867678Y-5348078D02*
X7867678Y-5312722D01*
X7832322Y-5312722D01*
X7832322Y-5348078D01*
X7867678Y-5348078D01*
X7867678Y-14178178D02*
X7867678Y-14142822D01*
X7832322Y-14142822D01*
X7832322Y-14178178D01*
X7867678Y-14178178D01*
X7867678Y-14628178D02*
X7867678Y-14592822D01*
X7832322Y-14592822D01*
X7832322Y-14628178D01*
X7867678Y-14628178D01*
X8026777Y-4963979D02*
X8026777Y-4928623D01*
X7991421Y-4928623D01*
X7991421Y-4963979D01*
X8026777Y-4963979D01*
X8026777Y-5282177D02*
X8026777Y-5246821D01*
X7991421Y-5246821D01*
X7991421Y-5282177D01*
X8026777Y-5282177D01*
X8026777Y-14244079D02*
X8026777Y-14208723D01*
X7991421Y-14208723D01*
X7991421Y-14244079D01*
X8026777Y-14244079D01*
X8026777Y-14562277D02*
X8026777Y-14526921D01*
X7991421Y-14526921D01*
X7991421Y-14562277D01*
X8026777Y-14562277D01*
X8092678Y-5123078D02*
X8092678Y-5087722D01*
X8057322Y-5087722D01*
X8057322Y-5123078D01*
X8092678Y-5123078D01*
X8092678Y-14403178D02*
X8092678Y-14367822D01*
X8057322Y-14367822D01*
X8057322Y-14403178D01*
X8092678Y-14403178D01*
X13042678Y-5129777D02*
X13042678Y-5094421D01*
X13007322Y-5094421D01*
X13007322Y-5129777D01*
X13042678Y-5129777D01*
X13042678Y-14390478D02*
X13042678Y-14355122D01*
X13007322Y-14355122D01*
X13007322Y-14390478D01*
X13042678Y-14390478D01*
X13108579Y-4970678D02*
X13108579Y-4935322D01*
X13073223Y-4935322D01*
X13073223Y-4970678D01*
X13108579Y-4970678D01*
X13108579Y-5288876D02*
X13108579Y-5253520D01*
X13073223Y-5253520D01*
X13073223Y-5288876D01*
X13108579Y-5288876D01*
X13108579Y-14231379D02*
X13108579Y-14196023D01*
X13073223Y-14196023D01*
X13073223Y-14231379D01*
X13108579Y-14231379D01*
X13108579Y-14549577D02*
X13108579Y-14514221D01*
X13073223Y-14514221D01*
X13073223Y-14549577D01*
X13108579Y-14549577D01*
X13267678Y-4904777D02*
X13267678Y-4869421D01*
X13232322Y-4869421D01*
X13232322Y-4904777D01*
X13267678Y-4904777D01*
X13267678Y-5354777D02*
X13267678Y-5319421D01*
X13232322Y-5319421D01*
X13232322Y-5354777D01*
X13267678Y-5354777D01*
X13267678Y-14165478D02*
X13267678Y-14130122D01*
X13232322Y-14130122D01*
X13232322Y-14165478D01*
X13267678Y-14165478D01*
X13267678Y-14615478D02*
X13267678Y-14580122D01*
X13232322Y-14580122D01*
X13232322Y-14615478D01*
X13267678Y-14615478D01*
X13426777Y-4970678D02*
X13426777Y-4935322D01*
X13391421Y-4935322D01*
X13391421Y-4970678D01*
X13426777Y-4970678D01*
X13426777Y-5288876D02*
X13426777Y-5253520D01*
X13391421Y-5253520D01*
X13391421Y-5288876D01*
X13426777Y-5288876D01*
X13426777Y-14231379D02*
X13426777Y-14196023D01*
X13391421Y-14196023D01*
X13391421Y-14231379D01*
X13426777Y-14231379D01*
X13426777Y-14549577D02*
X13426777Y-14514221D01*
X13391421Y-14514221D01*
X13391421Y-14549577D01*
X13426777Y-14549577D01*
X13492678Y-5129777D02*
X13492678Y-5094421D01*
X13457322Y-5094421D01*
X13457322Y-5129777D01*
X13492678Y-5129777D01*
X13492678Y-14390478D02*
X13492678Y-14355122D01*
X13457322Y-14355122D01*
X13457322Y-14390478D01*
X13492678Y-14390478D01*
X9220200Y-8602500D02*
X9250200Y-8572500D01*
X9220200Y-8542500D01*
X9190200Y-8572500D01*
X9220200Y-8602500D01*
X9220200Y-8881900D02*
X9250200Y-8851900D01*
X9220200Y-8821900D01*
X9190200Y-8851900D01*
X9220200Y-8881900D01*
X9220200Y-9135900D02*
X9250200Y-9105900D01*
X9220200Y-9075900D01*
X9190200Y-9105900D01*
X9220200Y-9135900D01*
X9220200Y-9389900D02*
X9250200Y-9359900D01*
X9220200Y-9329900D01*
X9190200Y-9359900D01*
X9220200Y-9389900D01*
X9221000Y-8335800D02*
X9251000Y-8305800D01*
X9221000Y-8275800D01*
X9191000Y-8305800D01*
X9221000Y-8335800D01*
X10629900Y-13911100D02*
X10659900Y-13881100D01*
X10629900Y-13851100D01*
X10599900Y-13881100D01*
X10629900Y-13911100D01*
X11366500Y-6770500D02*
X11396500Y-6740500D01*
X11366500Y-6710500D01*
X11336500Y-6740500D01*
X11366500Y-6770500D01*
X11366500Y-6910200D02*
X11396500Y-6880200D01*
X11366500Y-6850200D01*
X11336500Y-6880200D01*
X11366500Y-6910200D01*
X11500533Y-6770500D02*
X11530533Y-6740500D01*
X11500533Y-6710500D01*
X11470533Y-6740500D01*
X11500533Y-6770500D01*
X11504533Y-6910500D02*
X11534533Y-6880500D01*
X11504533Y-6850500D01*
X11474533Y-6880500D01*
X11504533Y-6910500D01*
X11633200Y-6770500D02*
X11663200Y-6740500D01*
X11633200Y-6710500D01*
X11603200Y-6740500D01*
X11633200Y-6770500D01*
X11637200Y-6910500D02*
X11667200Y-6880500D01*
X11637200Y-6850500D01*
X11607200Y-6880500D01*
X11637200Y-6910500D01*
X11772900Y-6770500D02*
X11802900Y-6740500D01*
X11772900Y-6710500D01*
X11742900Y-6740500D01*
X11772900Y-6770500D01*
X11772900Y-6910200D02*
X11802900Y-6880200D01*
X11772900Y-6850200D01*
X11742900Y-6880200D01*
X11772900Y-6910200D01*
X11912600Y-6770500D02*
X11942600Y-6740500D01*
X11912600Y-6710500D01*
X11882600Y-6740500D01*
X11912600Y-6770500D01*
X11912600Y-6910200D02*
X11942600Y-6880200D01*
X11912600Y-6850200D01*
X11882600Y-6880200D01*
X11912600Y-6910200D01*
X8375000Y-4852200D02*
X8475000Y-4952200D01*
X8475000Y-4852200D02*
X8375000Y-4952200D01*
X8475000Y-4902200D02*
G75*
G02*
X8375000Y-4902200I-50000J0D01*
G01*
X8375000Y-4902200D02*
G75*
G02*
X8475000Y-4902200I50000J0D01*
G01*
X8375000Y-7144200D02*
X8475000Y-7244200D01*
X8475000Y-7144200D02*
X8375000Y-7244200D01*
X8475000Y-7194200D02*
G75*
G02*
X8375000Y-7194200I-50000J0D01*
G01*
X8375000Y-7194200D02*
G75*
G02*
X8475000Y-7194200I50000J0D01*
G01*
X8629000Y-4852200D02*
X8729000Y-4952200D01*
X8729000Y-4852200D02*
X8629000Y-4952200D01*
X8729000Y-4902200D02*
G75*
G02*
X8629000Y-4902200I-50000J0D01*
G01*
X8629000Y-4902200D02*
G75*
G02*
X8729000Y-4902200I50000J0D01*
G01*
X8629000Y-7144200D02*
X8729000Y-7244200D01*
X8729000Y-7144200D02*
X8629000Y-7244200D01*
X8729000Y-7194200D02*
G75*
G02*
X8629000Y-7194200I-50000J0D01*
G01*
X8629000Y-7194200D02*
G75*
G02*
X8729000Y-7194200I50000J0D01*
G01*
X8883000Y-4852200D02*
X8983000Y-4952200D01*
X8983000Y-4852200D02*
X8883000Y-4952200D01*
X8983000Y-4902200D02*
G75*
G02*
X8883000Y-4902200I-50000J0D01*
G01*
X8883000Y-4902200D02*
G75*
G02*
X8983000Y-4902200I50000J0D01*
G01*
X8883000Y-7144200D02*
X8983000Y-7244200D01*
X8983000Y-7144200D02*
X8883000Y-7244200D01*
X8983000Y-7194200D02*
G75*
G02*
X8883000Y-7194200I-50000J0D01*
G01*
X8883000Y-7194200D02*
G75*
G02*
X8983000Y-7194200I50000J0D01*
G01*
X9137000Y-4852200D02*
X9237000Y-4952200D01*
X9237000Y-4852200D02*
X9137000Y-4952200D01*
X9237000Y-4902200D02*
G75*
G02*
X9137000Y-4902200I-50000J0D01*
G01*
X9137000Y-4902200D02*
G75*
G02*
X9237000Y-4902200I50000J0D01*
G01*
X9137000Y-7144200D02*
X9237000Y-7244200D01*
X9237000Y-7144200D02*
X9137000Y-7244200D01*
X9237000Y-7194200D02*
G75*
G02*
X9137000Y-7194200I-50000J0D01*
G01*
X9137000Y-7194200D02*
G75*
G02*
X9237000Y-7194200I50000J0D01*
G01*
X9391000Y-4852200D02*
X9491000Y-4952200D01*
X9491000Y-4852200D02*
X9391000Y-4952200D01*
X9491000Y-4902200D02*
G75*
G02*
X9391000Y-4902200I-50000J0D01*
G01*
X9391000Y-4902200D02*
G75*
G02*
X9491000Y-4902200I50000J0D01*
G01*
X9391000Y-7144200D02*
X9491000Y-7244200D01*
X9491000Y-7144200D02*
X9391000Y-7244200D01*
X9491000Y-7194200D02*
G75*
G02*
X9391000Y-7194200I-50000J0D01*
G01*
X9391000Y-7194200D02*
G75*
G02*
X9491000Y-7194200I50000J0D01*
G01*
X9645000Y-4852200D02*
X9745000Y-4952200D01*
X9745000Y-4852200D02*
X9645000Y-4952200D01*
X9745000Y-4902200D02*
G75*
G02*
X9645000Y-4902200I-50000J0D01*
G01*
X9645000Y-4902200D02*
G75*
G02*
X9745000Y-4902200I50000J0D01*
G01*
X9645000Y-7144200D02*
X9745000Y-7244200D01*
X9745000Y-7144200D02*
X9645000Y-7244200D01*
X9745000Y-7194200D02*
G75*
G02*
X9645000Y-7194200I-50000J0D01*
G01*
X9645000Y-7194200D02*
G75*
G02*
X9745000Y-7194200I50000J0D01*
G01*
X9899000Y-4852200D02*
X9999000Y-4952200D01*
X9999000Y-4852200D02*
X9899000Y-4952200D01*
X9999000Y-4902200D02*
G75*
G02*
X9899000Y-4902200I-50000J0D01*
G01*
X9899000Y-4902200D02*
G75*
G02*
X9999000Y-4902200I50000J0D01*
G01*
X9899000Y-7144200D02*
X9999000Y-7244200D01*
X9999000Y-7144200D02*
X9899000Y-7244200D01*
X9999000Y-7194200D02*
G75*
G02*
X9899000Y-7194200I-50000J0D01*
G01*
X9899000Y-7194200D02*
G75*
G02*
X9999000Y-7194200I50000J0D01*
G01*
X10153000Y-4852200D02*
X10253000Y-4952200D01*
X10253000Y-4852200D02*
X10153000Y-4952200D01*
X10253000Y-4902200D02*
G75*
G02*
X10153000Y-4902200I-50000J0D01*
G01*
X10153000Y-4902200D02*
G75*
G02*
X10253000Y-4902200I50000J0D01*
G01*
X10153000Y-7144200D02*
X10253000Y-7244200D01*
X10253000Y-7144200D02*
X10153000Y-7244200D01*
X10253000Y-7194200D02*
G75*
G02*
X10153000Y-7194200I-50000J0D01*
G01*
X10153000Y-7194200D02*
G75*
G02*
X10253000Y-7194200I50000J0D01*
G01*
X10407000Y-4852200D02*
X10507000Y-4952200D01*
X10507000Y-4852200D02*
X10407000Y-4952200D01*
X10507000Y-4902200D02*
G75*
G02*
X10407000Y-4902200I-50000J0D01*
G01*
X10407000Y-4902200D02*
G75*
G02*
X10507000Y-4902200I50000J0D01*
G01*
X10407000Y-7144200D02*
X10507000Y-7244200D01*
X10507000Y-7144200D02*
X10407000Y-7244200D01*
X10507000Y-7194200D02*
G75*
G02*
X10407000Y-7194200I-50000J0D01*
G01*
X10407000Y-7194200D02*
G75*
G02*
X10507000Y-7194200I50000J0D01*
G01*
X10661000Y-4852200D02*
X10761000Y-4952200D01*
X10761000Y-4852200D02*
X10661000Y-4952200D01*
X10761000Y-4902200D02*
G75*
G02*
X10661000Y-4902200I-50000J0D01*
G01*
X10661000Y-4902200D02*
G75*
G02*
X10761000Y-4902200I50000J0D01*
G01*
X10661000Y-7144200D02*
X10761000Y-7244200D01*
X10761000Y-7144200D02*
X10661000Y-7244200D01*
X10761000Y-7194200D02*
G75*
G02*
X10661000Y-7194200I-50000J0D01*
G01*
X10661000Y-7194200D02*
G75*
G02*
X10761000Y-7194200I50000J0D01*
G01*
X10915000Y-4852200D02*
X11015000Y-4952200D01*
X11015000Y-4852200D02*
X10915000Y-4952200D01*
X11015000Y-4902200D02*
G75*
G02*
X10915000Y-4902200I-50000J0D01*
G01*
X10915000Y-4902200D02*
G75*
G02*
X11015000Y-4902200I50000J0D01*
G01*
X10915000Y-7144200D02*
X11015000Y-7244200D01*
X11015000Y-7144200D02*
X10915000Y-7244200D01*
X11015000Y-7194200D02*
G75*
G02*
X10915000Y-7194200I-50000J0D01*
G01*
X10915000Y-7194200D02*
G75*
G02*
X11015000Y-7194200I50000J0D01*
G01*
X11169000Y-4852200D02*
X11269000Y-4952200D01*
X11269000Y-4852200D02*
X11169000Y-4952200D01*
X11269000Y-4902200D02*
G75*
G02*
X11169000Y-4902200I-50000J0D01*
G01*
X11169000Y-4902200D02*
G75*
G02*
X11269000Y-4902200I50000J0D01*
G01*
X11169000Y-7144200D02*
X11269000Y-7244200D01*
X11269000Y-7144200D02*
X11169000Y-7244200D01*
X11269000Y-7194200D02*
G75*
G02*
X11169000Y-7194200I-50000J0D01*
G01*
X11169000Y-7194200D02*
G75*
G02*
X11269000Y-7194200I50000J0D01*
G01*
D12*
X9584900Y-14270745D02*
X9691580Y-14377425D01*
X9691580Y-14270745D02*
X9584900Y-14377425D01*
X9638240Y-14270745D02*
X9638240Y-14377425D01*
X9584900Y-14324085D02*
X9691580Y-14324085D01*
X9838900Y-14270745D02*
X9945580Y-14377425D01*
X9945580Y-14270745D02*
X9838900Y-14377425D01*
X9892240Y-14270745D02*
X9892240Y-14377425D01*
X9838900Y-14324085D02*
X9945580Y-14324085D01*
X10092900Y-14270745D02*
X10199580Y-14377425D01*
X10199580Y-14270745D02*
X10092900Y-14377425D01*
X10146240Y-14270745D02*
X10146240Y-14377425D01*
X10092900Y-14324085D02*
X10199580Y-14324085D01*
X10346900Y-14270745D02*
X10453580Y-14377425D01*
X10453580Y-14270745D02*
X10346900Y-14377425D01*
X10400240Y-14270745D02*
X10400240Y-14377425D01*
X10346900Y-14324085D02*
X10453580Y-14324085D01*
D13*
X7700000Y-4955400D02*
X8000000Y-5255400D01*
X8000000Y-4955400D02*
X7700000Y-5255400D01*
X7956067Y-5211467D02*
X7956067Y-4999333D01*
X7743933Y-4999333D01*
X7743933Y-5211467D01*
X7956067Y-5211467D01*
X7700000Y-14235500D02*
X8000000Y-14535500D01*
X8000000Y-14235500D02*
X7700000Y-14535500D01*
X7956067Y-14491567D02*
X7956067Y-14279433D01*
X7743933Y-14279433D01*
X7743933Y-14491567D01*
X7956067Y-14491567D01*
X13100000Y-4962099D02*
X13400000Y-5262099D01*
X13400000Y-4962099D02*
X13100000Y-5262099D01*
X13356067Y-5218166D02*
X13356067Y-5006032D01*
X13143933Y-5006032D01*
X13143933Y-5218166D01*
X13356067Y-5218166D01*
X13100000Y-14222800D02*
X13400000Y-14522800D01*
X13400000Y-14222800D02*
X13100000Y-14522800D01*
X13356067Y-14478867D02*
X13356067Y-14266733D01*
X13143933Y-14266733D01*
X13143933Y-14478867D01*
X13356067Y-14478867D01*
D11*
X7761477Y-15044884D02*
X7761477Y-14844884D01*
X7761477Y-14844884D02*
X7809096Y-14844884D01*
X7809096Y-14844884D02*
X7837667Y-14854408D01*
X7837667Y-14854408D02*
X7856715Y-14873455D01*
X7856715Y-14873455D02*
X7866239Y-14892503D01*
X7866239Y-14892503D02*
X7875762Y-14930598D01*
X7875762Y-14930598D02*
X7875762Y-14959169D01*
X7875762Y-14959169D02*
X7866239Y-14997265D01*
X7866239Y-14997265D02*
X7856715Y-15016312D01*
X7856715Y-15016312D02*
X7837667Y-15035360D01*
X7837667Y-15035360D02*
X7809096Y-15044884D01*
X7809096Y-15044884D02*
X7761477Y-15044884D01*
X7961477Y-15044884D02*
X7961477Y-14911550D01*
X7961477Y-14949646D02*
X7971001Y-14930598D01*
X7971001Y-14930598D02*
X7980524Y-14921074D01*
X7980524Y-14921074D02*
X7999572Y-14911550D01*
X7999572Y-14911550D02*
X8018620Y-14911550D01*
X8085286Y-15044884D02*
X8085286Y-14911550D01*
X8085286Y-14844884D02*
X8075762Y-14854408D01*
X8075762Y-14854408D02*
X8085286Y-14863931D01*
X8085286Y-14863931D02*
X8094810Y-14854408D01*
X8094810Y-14854408D02*
X8085286Y-14844884D01*
X8085286Y-14844884D02*
X8085286Y-14863931D01*
X8209096Y-15044884D02*
X8190048Y-15035360D01*
X8190048Y-15035360D02*
X8180524Y-15016312D01*
X8180524Y-15016312D02*
X8180524Y-14844884D01*
X8313858Y-15044884D02*
X8294810Y-15035360D01*
X8294810Y-15035360D02*
X8285286Y-15016312D01*
X8285286Y-15016312D02*
X8285286Y-14844884D01*
X8542429Y-15044884D02*
X8542429Y-14844884D01*
X8542429Y-14844884D02*
X8609096Y-14987741D01*
X8609096Y-14987741D02*
X8675763Y-14844884D01*
X8675763Y-14844884D02*
X8675763Y-15044884D01*
X8856715Y-15044884D02*
X8856715Y-14940122D01*
X8856715Y-14940122D02*
X8847191Y-14921074D01*
X8847191Y-14921074D02*
X8828144Y-14911550D01*
X8828144Y-14911550D02*
X8790048Y-14911550D01*
X8790048Y-14911550D02*
X8771001Y-14921074D01*
X8856715Y-15035360D02*
X8837667Y-15044884D01*
X8837667Y-15044884D02*
X8790048Y-15044884D01*
X8790048Y-15044884D02*
X8771001Y-15035360D01*
X8771001Y-15035360D02*
X8761477Y-15016312D01*
X8761477Y-15016312D02*
X8761477Y-14997265D01*
X8761477Y-14997265D02*
X8771001Y-14978217D01*
X8771001Y-14978217D02*
X8790048Y-14968693D01*
X8790048Y-14968693D02*
X8837667Y-14968693D01*
X8837667Y-14968693D02*
X8856715Y-14959169D01*
X8951953Y-14911550D02*
X8951953Y-15111550D01*
X8951953Y-14921074D02*
X8971001Y-14911550D01*
X8971001Y-14911550D02*
X9009096Y-14911550D01*
X9009096Y-14911550D02*
X9028144Y-14921074D01*
X9028144Y-14921074D02*
X9037667Y-14930598D01*
X9037667Y-14930598D02*
X9047191Y-14949646D01*
X9047191Y-14949646D02*
X9047191Y-15006788D01*
X9047191Y-15006788D02*
X9037667Y-15025836D01*
X9037667Y-15025836D02*
X9028144Y-15035360D01*
X9028144Y-15035360D02*
X9009096Y-15044884D01*
X9009096Y-15044884D02*
X8971001Y-15044884D01*
X8971001Y-15044884D02*
X8951953Y-15035360D01*
X9132905Y-15025836D02*
X9142429Y-15035360D01*
X9142429Y-15035360D02*
X9132905Y-15044884D01*
X9132905Y-15044884D02*
X9123382Y-15035360D01*
X9123382Y-15035360D02*
X9132905Y-15025836D01*
X9132905Y-15025836D02*
X9132905Y-15044884D01*
X9132905Y-14921074D02*
X9142429Y-14930598D01*
X9142429Y-14930598D02*
X9132905Y-14940122D01*
X9132905Y-14940122D02*
X9123382Y-14930598D01*
X9123382Y-14930598D02*
X9132905Y-14921074D01*
X9132905Y-14921074D02*
X9132905Y-14940122D01*
D10*
X7470700Y-15358400D02*
X7500700Y-15388400D01*
X7500700Y-15358400D02*
X7470700Y-15388400D01*
D11*
X7799572Y-15264884D02*
X7818620Y-15264884D01*
X7818620Y-15264884D02*
X7837667Y-15274408D01*
X7837667Y-15274408D02*
X7847191Y-15283931D01*
X7847191Y-15283931D02*
X7856715Y-15302979D01*
X7856715Y-15302979D02*
X7866239Y-15341074D01*
X7866239Y-15341074D02*
X7866239Y-15388693D01*
X7866239Y-15388693D02*
X7856715Y-15426788D01*
X7856715Y-15426788D02*
X7847191Y-15445836D01*
X7847191Y-15445836D02*
X7837667Y-15455360D01*
X7837667Y-15455360D02*
X7818620Y-15464884D01*
X7818620Y-15464884D02*
X7799572Y-15464884D01*
X7799572Y-15464884D02*
X7780524Y-15455360D01*
X7780524Y-15455360D02*
X7771001Y-15445836D01*
X7771001Y-15445836D02*
X7761477Y-15426788D01*
X7761477Y-15426788D02*
X7751953Y-15388693D01*
X7751953Y-15388693D02*
X7751953Y-15341074D01*
X7751953Y-15341074D02*
X7761477Y-15302979D01*
X7761477Y-15302979D02*
X7771001Y-15283931D01*
X7771001Y-15283931D02*
X7780524Y-15274408D01*
X7780524Y-15274408D02*
X7799572Y-15264884D01*
X7951953Y-15445836D02*
X7961477Y-15455360D01*
X7961477Y-15455360D02*
X7951953Y-15464884D01*
X7951953Y-15464884D02*
X7942429Y-15455360D01*
X7942429Y-15455360D02*
X7951953Y-15445836D01*
X7951953Y-15445836D02*
X7951953Y-15464884D01*
X8028143Y-15264884D02*
X8151953Y-15264884D01*
X8151953Y-15264884D02*
X8085286Y-15341074D01*
X8085286Y-15341074D02*
X8113858Y-15341074D01*
X8113858Y-15341074D02*
X8132905Y-15350598D01*
X8132905Y-15350598D02*
X8142429Y-15360122D01*
X8142429Y-15360122D02*
X8151953Y-15379169D01*
X8151953Y-15379169D02*
X8151953Y-15426788D01*
X8151953Y-15426788D02*
X8142429Y-15445836D01*
X8142429Y-15445836D02*
X8132905Y-15455360D01*
X8132905Y-15455360D02*
X8113858Y-15464884D01*
X8113858Y-15464884D02*
X8056715Y-15464884D01*
X8056715Y-15464884D02*
X8037667Y-15455360D01*
X8037667Y-15455360D02*
X8028143Y-15445836D01*
X8275762Y-15264884D02*
X8294810Y-15264884D01*
X8294810Y-15264884D02*
X8313858Y-15274408D01*
X8313858Y-15274408D02*
X8323382Y-15283931D01*
X8323382Y-15283931D02*
X8332905Y-15302979D01*
X8332905Y-15302979D02*
X8342429Y-15341074D01*
X8342429Y-15341074D02*
X8342429Y-15388693D01*
X8342429Y-15388693D02*
X8332905Y-15426788D01*
X8332905Y-15426788D02*
X8323382Y-15445836D01*
X8323382Y-15445836D02*
X8313858Y-15455360D01*
X8313858Y-15455360D02*
X8294810Y-15464884D01*
X8294810Y-15464884D02*
X8275762Y-15464884D01*
X8275762Y-15464884D02*
X8256715Y-15455360D01*
X8256715Y-15455360D02*
X8247191Y-15445836D01*
X8247191Y-15445836D02*
X8237667Y-15426788D01*
X8237667Y-15426788D02*
X8228143Y-15388693D01*
X8228143Y-15388693D02*
X8228143Y-15341074D01*
X8228143Y-15341074D02*
X8237667Y-15302979D01*
X8237667Y-15302979D02*
X8247191Y-15283931D01*
X8247191Y-15283931D02*
X8256715Y-15274408D01*
X8256715Y-15274408D02*
X8275762Y-15264884D01*
X8466239Y-15264884D02*
X8485286Y-15264884D01*
X8485286Y-15264884D02*
X8504334Y-15274408D01*
X8504334Y-15274408D02*
X8513858Y-15283931D01*
X8513858Y-15283931D02*
X8523382Y-15302979D01*
X8523382Y-15302979D02*
X8532905Y-15341074D01*
X8532905Y-15341074D02*
X8532905Y-15388693D01*
X8532905Y-15388693D02*
X8523382Y-15426788D01*
X8523382Y-15426788D02*
X8513858Y-15445836D01*
X8513858Y-15445836D02*
X8504334Y-15455360D01*
X8504334Y-15455360D02*
X8485286Y-15464884D01*
X8485286Y-15464884D02*
X8466239Y-15464884D01*
X8466239Y-15464884D02*
X8447191Y-15455360D01*
X8447191Y-15455360D02*
X8437667Y-15445836D01*
X8437667Y-15445836D02*
X8428144Y-15426788D01*
X8428144Y-15426788D02*
X8418620Y-15388693D01*
X8418620Y-15388693D02*
X8418620Y-15341074D01*
X8418620Y-15341074D02*
X8428144Y-15302979D01*
X8428144Y-15302979D02*
X8437667Y-15283931D01*
X8437667Y-15283931D02*
X8447191Y-15274408D01*
X8447191Y-15274408D02*
X8466239Y-15264884D01*
X8618620Y-15464884D02*
X8618620Y-15331550D01*
X8618620Y-15350598D02*
X8628144Y-15341074D01*
X8628144Y-15341074D02*
X8647191Y-15331550D01*
X8647191Y-15331550D02*
X8675763Y-15331550D01*
X8675763Y-15331550D02*
X8694810Y-15341074D01*
X8694810Y-15341074D02*
X8704334Y-15360122D01*
X8704334Y-15360122D02*
X8704334Y-15464884D01*
X8704334Y-15360122D02*
X8713858Y-15341074D01*
X8713858Y-15341074D02*
X8732905Y-15331550D01*
X8732905Y-15331550D02*
X8761477Y-15331550D01*
X8761477Y-15331550D02*
X8780525Y-15341074D01*
X8780525Y-15341074D02*
X8790048Y-15360122D01*
X8790048Y-15360122D02*
X8790048Y-15464884D01*
X8885286Y-15464884D02*
X8885286Y-15331550D01*
X8885286Y-15350598D02*
X8894810Y-15341074D01*
X8894810Y-15341074D02*
X8913858Y-15331550D01*
X8913858Y-15331550D02*
X8942429Y-15331550D01*
X8942429Y-15331550D02*
X8961477Y-15341074D01*
X8961477Y-15341074D02*
X8971001Y-15360122D01*
X8971001Y-15360122D02*
X8971001Y-15464884D01*
X8971001Y-15360122D02*
X8980525Y-15341074D01*
X8980525Y-15341074D02*
X8999572Y-15331550D01*
X8999572Y-15331550D02*
X9028144Y-15331550D01*
X9028144Y-15331550D02*
X9047191Y-15341074D01*
X9047191Y-15341074D02*
X9056715Y-15360122D01*
X9056715Y-15360122D02*
X9056715Y-15464884D01*
X9447191Y-15255360D02*
X9275763Y-15512503D01*
X9704334Y-15264884D02*
X9723382Y-15264884D01*
X9723382Y-15264884D02*
X9742429Y-15274408D01*
X9742429Y-15274408D02*
X9751953Y-15283931D01*
X9751953Y-15283931D02*
X9761477Y-15302979D01*
X9761477Y-15302979D02*
X9771001Y-15341074D01*
X9771001Y-15341074D02*
X9771001Y-15388693D01*
X9771001Y-15388693D02*
X9761477Y-15426788D01*
X9761477Y-15426788D02*
X9751953Y-15445836D01*
X9751953Y-15445836D02*
X9742429Y-15455360D01*
X9742429Y-15455360D02*
X9723382Y-15464884D01*
X9723382Y-15464884D02*
X9704334Y-15464884D01*
X9704334Y-15464884D02*
X9685287Y-15455360D01*
X9685287Y-15455360D02*
X9675763Y-15445836D01*
X9675763Y-15445836D02*
X9666239Y-15426788D01*
X9666239Y-15426788D02*
X9656715Y-15388693D01*
X9656715Y-15388693D02*
X9656715Y-15341074D01*
X9656715Y-15341074D02*
X9666239Y-15302979D01*
X9666239Y-15302979D02*
X9675763Y-15283931D01*
X9675763Y-15283931D02*
X9685287Y-15274408D01*
X9685287Y-15274408D02*
X9704334Y-15264884D01*
X9856715Y-15445836D02*
X9866239Y-15455360D01*
X9866239Y-15455360D02*
X9856715Y-15464884D01*
X9856715Y-15464884D02*
X9847191Y-15455360D01*
X9847191Y-15455360D02*
X9856715Y-15445836D01*
X9856715Y-15445836D02*
X9856715Y-15464884D01*
X9990048Y-15264884D02*
X10009096Y-15264884D01*
X10009096Y-15264884D02*
X10028144Y-15274408D01*
X10028144Y-15274408D02*
X10037668Y-15283931D01*
X10037668Y-15283931D02*
X10047191Y-15302979D01*
X10047191Y-15302979D02*
X10056715Y-15341074D01*
X10056715Y-15341074D02*
X10056715Y-15388693D01*
X10056715Y-15388693D02*
X10047191Y-15426788D01*
X10047191Y-15426788D02*
X10037668Y-15445836D01*
X10037668Y-15445836D02*
X10028144Y-15455360D01*
X10028144Y-15455360D02*
X10009096Y-15464884D01*
X10009096Y-15464884D02*
X9990048Y-15464884D01*
X9990048Y-15464884D02*
X9971001Y-15455360D01*
X9971001Y-15455360D02*
X9961477Y-15445836D01*
X9961477Y-15445836D02*
X9951953Y-15426788D01*
X9951953Y-15426788D02*
X9942429Y-15388693D01*
X9942429Y-15388693D02*
X9942429Y-15341074D01*
X9942429Y-15341074D02*
X9951953Y-15302979D01*
X9951953Y-15302979D02*
X9961477Y-15283931D01*
X9961477Y-15283931D02*
X9971001Y-15274408D01*
X9971001Y-15274408D02*
X9990048Y-15264884D01*
X10247191Y-15464884D02*
X10132906Y-15464884D01*
X10190048Y-15464884D02*
X10190048Y-15264884D01*
X10190048Y-15264884D02*
X10171001Y-15293455D01*
X10171001Y-15293455D02*
X10151953Y-15312503D01*
X10151953Y-15312503D02*
X10132906Y-15322027D01*
X10437668Y-15464884D02*
X10323382Y-15464884D01*
X10380525Y-15464884D02*
X10380525Y-15264884D01*
X10380525Y-15264884D02*
X10361477Y-15293455D01*
X10361477Y-15293455D02*
X10342429Y-15312503D01*
X10342429Y-15312503D02*
X10323382Y-15322027D01*
X10551953Y-15350598D02*
X10532906Y-15341074D01*
X10532906Y-15341074D02*
X10523382Y-15331550D01*
X10523382Y-15331550D02*
X10513858Y-15312503D01*
X10513858Y-15312503D02*
X10513858Y-15302979D01*
X10513858Y-15302979D02*
X10523382Y-15283931D01*
X10523382Y-15283931D02*
X10532906Y-15274408D01*
X10532906Y-15274408D02*
X10551953Y-15264884D01*
X10551953Y-15264884D02*
X10590049Y-15264884D01*
X10590049Y-15264884D02*
X10609096Y-15274408D01*
X10609096Y-15274408D02*
X10618620Y-15283931D01*
X10618620Y-15283931D02*
X10628144Y-15302979D01*
X10628144Y-15302979D02*
X10628144Y-15312503D01*
X10628144Y-15312503D02*
X10618620Y-15331550D01*
X10618620Y-15331550D02*
X10609096Y-15341074D01*
X10609096Y-15341074D02*
X10590049Y-15350598D01*
X10590049Y-15350598D02*
X10551953Y-15350598D01*
X10551953Y-15350598D02*
X10532906Y-15360122D01*
X10532906Y-15360122D02*
X10523382Y-15369646D01*
X10523382Y-15369646D02*
X10513858Y-15388693D01*
X10513858Y-15388693D02*
X10513858Y-15426788D01*
X10513858Y-15426788D02*
X10523382Y-15445836D01*
X10523382Y-15445836D02*
X10532906Y-15455360D01*
X10532906Y-15455360D02*
X10551953Y-15464884D01*
X10551953Y-15464884D02*
X10590049Y-15464884D01*
X10590049Y-15464884D02*
X10609096Y-15455360D01*
X10609096Y-15455360D02*
X10618620Y-15445836D01*
X10618620Y-15445836D02*
X10628144Y-15426788D01*
X10628144Y-15426788D02*
X10628144Y-15388693D01*
X10628144Y-15388693D02*
X10618620Y-15369646D01*
X10618620Y-15369646D02*
X10609096Y-15360122D01*
X10609096Y-15360122D02*
X10590049Y-15350598D01*
X10704334Y-15264884D02*
X10704334Y-15302979D01*
X10780525Y-15264884D02*
X10780525Y-15302979D01*
X11075763Y-15541074D02*
X11066239Y-15531550D01*
X11066239Y-15531550D02*
X11047191Y-15502979D01*
X11047191Y-15502979D02*
X11037668Y-15483931D01*
X11037668Y-15483931D02*
X11028144Y-15455360D01*
X11028144Y-15455360D02*
X11018620Y-15407741D01*
X11018620Y-15407741D02*
X11018620Y-15369646D01*
X11018620Y-15369646D02*
X11028144Y-15322027D01*
X11028144Y-15322027D02*
X11037668Y-15293455D01*
X11037668Y-15293455D02*
X11047191Y-15274408D01*
X11047191Y-15274408D02*
X11066239Y-15245836D01*
X11066239Y-15245836D02*
X11075763Y-15236312D01*
X11247191Y-15264884D02*
X11151953Y-15264884D01*
X11151953Y-15264884D02*
X11142430Y-15360122D01*
X11142430Y-15360122D02*
X11151953Y-15350598D01*
X11151953Y-15350598D02*
X11171001Y-15341074D01*
X11171001Y-15341074D02*
X11218620Y-15341074D01*
X11218620Y-15341074D02*
X11237668Y-15350598D01*
X11237668Y-15350598D02*
X11247191Y-15360122D01*
X11247191Y-15360122D02*
X11256715Y-15379169D01*
X11256715Y-15379169D02*
X11256715Y-15426788D01*
X11256715Y-15426788D02*
X11247191Y-15445836D01*
X11247191Y-15445836D02*
X11237668Y-15455360D01*
X11237668Y-15455360D02*
X11218620Y-15464884D01*
X11218620Y-15464884D02*
X11171001Y-15464884D01*
X11171001Y-15464884D02*
X11151953Y-15455360D01*
X11151953Y-15455360D02*
X11142430Y-15445836D01*
X11447191Y-15464884D02*
X11332906Y-15464884D01*
X11390048Y-15464884D02*
X11390048Y-15264884D01*
X11390048Y-15264884D02*
X11371001Y-15293455D01*
X11371001Y-15293455D02*
X11351953Y-15312503D01*
X11351953Y-15312503D02*
X11332906Y-15322027D01*
X11685287Y-15464884D02*
X11685287Y-15264884D01*
X11771001Y-15464884D02*
X11771001Y-15360122D01*
X11771001Y-15360122D02*
X11761477Y-15341074D01*
X11761477Y-15341074D02*
X11742430Y-15331550D01*
X11742430Y-15331550D02*
X11713858Y-15331550D01*
X11713858Y-15331550D02*
X11694810Y-15341074D01*
X11694810Y-15341074D02*
X11685287Y-15350598D01*
X11894810Y-15464884D02*
X11875763Y-15455360D01*
X11875763Y-15455360D02*
X11866239Y-15445836D01*
X11866239Y-15445836D02*
X11856715Y-15426788D01*
X11856715Y-15426788D02*
X11856715Y-15369646D01*
X11856715Y-15369646D02*
X11866239Y-15350598D01*
X11866239Y-15350598D02*
X11875763Y-15341074D01*
X11875763Y-15341074D02*
X11894810Y-15331550D01*
X11894810Y-15331550D02*
X11923382Y-15331550D01*
X11923382Y-15331550D02*
X11942430Y-15341074D01*
X11942430Y-15341074D02*
X11951953Y-15350598D01*
X11951953Y-15350598D02*
X11961477Y-15369646D01*
X11961477Y-15369646D02*
X11961477Y-15426788D01*
X11961477Y-15426788D02*
X11951953Y-15445836D01*
X11951953Y-15445836D02*
X11942430Y-15455360D01*
X11942430Y-15455360D02*
X11923382Y-15464884D01*
X11923382Y-15464884D02*
X11894810Y-15464884D01*
X12075763Y-15464884D02*
X12056715Y-15455360D01*
X12056715Y-15455360D02*
X12047191Y-15436312D01*
X12047191Y-15436312D02*
X12047191Y-15264884D01*
X12228144Y-15455360D02*
X12209096Y-15464884D01*
X12209096Y-15464884D02*
X12171001Y-15464884D01*
X12171001Y-15464884D02*
X12151953Y-15455360D01*
X12151953Y-15455360D02*
X12142430Y-15436312D01*
X12142430Y-15436312D02*
X12142430Y-15360122D01*
X12142430Y-15360122D02*
X12151953Y-15341074D01*
X12151953Y-15341074D02*
X12171001Y-15331550D01*
X12171001Y-15331550D02*
X12209096Y-15331550D01*
X12209096Y-15331550D02*
X12228144Y-15341074D01*
X12228144Y-15341074D02*
X12237668Y-15360122D01*
X12237668Y-15360122D02*
X12237668Y-15379169D01*
X12237668Y-15379169D02*
X12142430Y-15398217D01*
X12313858Y-15455360D02*
X12332906Y-15464884D01*
X12332906Y-15464884D02*
X12371001Y-15464884D01*
X12371001Y-15464884D02*
X12390049Y-15455360D01*
X12390049Y-15455360D02*
X12399572Y-15436312D01*
X12399572Y-15436312D02*
X12399572Y-15426788D01*
X12399572Y-15426788D02*
X12390049Y-15407741D01*
X12390049Y-15407741D02*
X12371001Y-15398217D01*
X12371001Y-15398217D02*
X12342430Y-15398217D01*
X12342430Y-15398217D02*
X12323382Y-15388693D01*
X12323382Y-15388693D02*
X12313858Y-15369646D01*
X12313858Y-15369646D02*
X12313858Y-15360122D01*
X12313858Y-15360122D02*
X12323382Y-15341074D01*
X12323382Y-15341074D02*
X12342430Y-15331550D01*
X12342430Y-15331550D02*
X12371001Y-15331550D01*
X12371001Y-15331550D02*
X12390049Y-15341074D01*
X12466239Y-15541074D02*
X12475763Y-15531550D01*
X12475763Y-15531550D02*
X12494811Y-15502979D01*
X12494811Y-15502979D02*
X12504334Y-15483931D01*
X12504334Y-15483931D02*
X12513858Y-15455360D01*
X12513858Y-15455360D02*
X12523382Y-15407741D01*
X12523382Y-15407741D02*
X12523382Y-15369646D01*
X12523382Y-15369646D02*
X12513858Y-15322027D01*
X12513858Y-15322027D02*
X12504334Y-15293455D01*
X12504334Y-15293455D02*
X12494811Y-15274408D01*
X12494811Y-15274408D02*
X12475763Y-15245836D01*
X12475763Y-15245836D02*
X12466239Y-15236312D01*
D10*
X7500700Y-15637400D02*
G75*
G02*
X7470700Y-15637400I-15000J0D01*
G01*
X7470700Y-15637400D02*
G75*
G02*
X7500700Y-15637400I15000J0D01*
G01*
D11*
X7799572Y-15528884D02*
X7818620Y-15528884D01*
X7818620Y-15528884D02*
X7837667Y-15538408D01*
X7837667Y-15538408D02*
X7847191Y-15547931D01*
X7847191Y-15547931D02*
X7856715Y-15566979D01*
X7856715Y-15566979D02*
X7866239Y-15605074D01*
X7866239Y-15605074D02*
X7866239Y-15652693D01*
X7866239Y-15652693D02*
X7856715Y-15690788D01*
X7856715Y-15690788D02*
X7847191Y-15709836D01*
X7847191Y-15709836D02*
X7837667Y-15719360D01*
X7837667Y-15719360D02*
X7818620Y-15728884D01*
X7818620Y-15728884D02*
X7799572Y-15728884D01*
X7799572Y-15728884D02*
X7780524Y-15719360D01*
X7780524Y-15719360D02*
X7771001Y-15709836D01*
X7771001Y-15709836D02*
X7761477Y-15690788D01*
X7761477Y-15690788D02*
X7751953Y-15652693D01*
X7751953Y-15652693D02*
X7751953Y-15605074D01*
X7751953Y-15605074D02*
X7761477Y-15566979D01*
X7761477Y-15566979D02*
X7771001Y-15547931D01*
X7771001Y-15547931D02*
X7780524Y-15538408D01*
X7780524Y-15538408D02*
X7799572Y-15528884D01*
X7951953Y-15709836D02*
X7961477Y-15719360D01*
X7961477Y-15719360D02*
X7951953Y-15728884D01*
X7951953Y-15728884D02*
X7942429Y-15719360D01*
X7942429Y-15719360D02*
X7951953Y-15709836D01*
X7951953Y-15709836D02*
X7951953Y-15728884D01*
X8028143Y-15528884D02*
X8151953Y-15528884D01*
X8151953Y-15528884D02*
X8085286Y-15605074D01*
X8085286Y-15605074D02*
X8113858Y-15605074D01*
X8113858Y-15605074D02*
X8132905Y-15614598D01*
X8132905Y-15614598D02*
X8142429Y-15624122D01*
X8142429Y-15624122D02*
X8151953Y-15643169D01*
X8151953Y-15643169D02*
X8151953Y-15690788D01*
X8151953Y-15690788D02*
X8142429Y-15709836D01*
X8142429Y-15709836D02*
X8132905Y-15719360D01*
X8132905Y-15719360D02*
X8113858Y-15728884D01*
X8113858Y-15728884D02*
X8056715Y-15728884D01*
X8056715Y-15728884D02*
X8037667Y-15719360D01*
X8037667Y-15719360D02*
X8028143Y-15709836D01*
X8275762Y-15528884D02*
X8294810Y-15528884D01*
X8294810Y-15528884D02*
X8313858Y-15538408D01*
X8313858Y-15538408D02*
X8323382Y-15547931D01*
X8323382Y-15547931D02*
X8332905Y-15566979D01*
X8332905Y-15566979D02*
X8342429Y-15605074D01*
X8342429Y-15605074D02*
X8342429Y-15652693D01*
X8342429Y-15652693D02*
X8332905Y-15690788D01*
X8332905Y-15690788D02*
X8323382Y-15709836D01*
X8323382Y-15709836D02*
X8313858Y-15719360D01*
X8313858Y-15719360D02*
X8294810Y-15728884D01*
X8294810Y-15728884D02*
X8275762Y-15728884D01*
X8275762Y-15728884D02*
X8256715Y-15719360D01*
X8256715Y-15719360D02*
X8247191Y-15709836D01*
X8247191Y-15709836D02*
X8237667Y-15690788D01*
X8237667Y-15690788D02*
X8228143Y-15652693D01*
X8228143Y-15652693D02*
X8228143Y-15605074D01*
X8228143Y-15605074D02*
X8237667Y-15566979D01*
X8237667Y-15566979D02*
X8247191Y-15547931D01*
X8247191Y-15547931D02*
X8256715Y-15538408D01*
X8256715Y-15538408D02*
X8275762Y-15528884D01*
X8466239Y-15528884D02*
X8485286Y-15528884D01*
X8485286Y-15528884D02*
X8504334Y-15538408D01*
X8504334Y-15538408D02*
X8513858Y-15547931D01*
X8513858Y-15547931D02*
X8523382Y-15566979D01*
X8523382Y-15566979D02*
X8532905Y-15605074D01*
X8532905Y-15605074D02*
X8532905Y-15652693D01*
X8532905Y-15652693D02*
X8523382Y-15690788D01*
X8523382Y-15690788D02*
X8513858Y-15709836D01*
X8513858Y-15709836D02*
X8504334Y-15719360D01*
X8504334Y-15719360D02*
X8485286Y-15728884D01*
X8485286Y-15728884D02*
X8466239Y-15728884D01*
X8466239Y-15728884D02*
X8447191Y-15719360D01*
X8447191Y-15719360D02*
X8437667Y-15709836D01*
X8437667Y-15709836D02*
X8428144Y-15690788D01*
X8428144Y-15690788D02*
X8418620Y-15652693D01*
X8418620Y-15652693D02*
X8418620Y-15605074D01*
X8418620Y-15605074D02*
X8428144Y-15566979D01*
X8428144Y-15566979D02*
X8437667Y-15547931D01*
X8437667Y-15547931D02*
X8447191Y-15538408D01*
X8447191Y-15538408D02*
X8466239Y-15528884D01*
X8618620Y-15728884D02*
X8618620Y-15595550D01*
X8618620Y-15614598D02*
X8628144Y-15605074D01*
X8628144Y-15605074D02*
X8647191Y-15595550D01*
X8647191Y-15595550D02*
X8675763Y-15595550D01*
X8675763Y-15595550D02*
X8694810Y-15605074D01*
X8694810Y-15605074D02*
X8704334Y-15624122D01*
X8704334Y-15624122D02*
X8704334Y-15728884D01*
X8704334Y-15624122D02*
X8713858Y-15605074D01*
X8713858Y-15605074D02*
X8732905Y-15595550D01*
X8732905Y-15595550D02*
X8761477Y-15595550D01*
X8761477Y-15595550D02*
X8780525Y-15605074D01*
X8780525Y-15605074D02*
X8790048Y-15624122D01*
X8790048Y-15624122D02*
X8790048Y-15728884D01*
X8885286Y-15728884D02*
X8885286Y-15595550D01*
X8885286Y-15614598D02*
X8894810Y-15605074D01*
X8894810Y-15605074D02*
X8913858Y-15595550D01*
X8913858Y-15595550D02*
X8942429Y-15595550D01*
X8942429Y-15595550D02*
X8961477Y-15605074D01*
X8961477Y-15605074D02*
X8971001Y-15624122D01*
X8971001Y-15624122D02*
X8971001Y-15728884D01*
X8971001Y-15624122D02*
X8980525Y-15605074D01*
X8980525Y-15605074D02*
X8999572Y-15595550D01*
X8999572Y-15595550D02*
X9028144Y-15595550D01*
X9028144Y-15595550D02*
X9047191Y-15605074D01*
X9047191Y-15605074D02*
X9056715Y-15624122D01*
X9056715Y-15624122D02*
X9056715Y-15728884D01*
X9447191Y-15519360D02*
X9275763Y-15776503D01*
X9704334Y-15528884D02*
X9723382Y-15528884D01*
X9723382Y-15528884D02*
X9742429Y-15538408D01*
X9742429Y-15538408D02*
X9751953Y-15547931D01*
X9751953Y-15547931D02*
X9761477Y-15566979D01*
X9761477Y-15566979D02*
X9771001Y-15605074D01*
X9771001Y-15605074D02*
X9771001Y-15652693D01*
X9771001Y-15652693D02*
X9761477Y-15690788D01*
X9761477Y-15690788D02*
X9751953Y-15709836D01*
X9751953Y-15709836D02*
X9742429Y-15719360D01*
X9742429Y-15719360D02*
X9723382Y-15728884D01*
X9723382Y-15728884D02*
X9704334Y-15728884D01*
X9704334Y-15728884D02*
X9685287Y-15719360D01*
X9685287Y-15719360D02*
X9675763Y-15709836D01*
X9675763Y-15709836D02*
X9666239Y-15690788D01*
X9666239Y-15690788D02*
X9656715Y-15652693D01*
X9656715Y-15652693D02*
X9656715Y-15605074D01*
X9656715Y-15605074D02*
X9666239Y-15566979D01*
X9666239Y-15566979D02*
X9675763Y-15547931D01*
X9675763Y-15547931D02*
X9685287Y-15538408D01*
X9685287Y-15538408D02*
X9704334Y-15528884D01*
X9856715Y-15709836D02*
X9866239Y-15719360D01*
X9866239Y-15719360D02*
X9856715Y-15728884D01*
X9856715Y-15728884D02*
X9847191Y-15719360D01*
X9847191Y-15719360D02*
X9856715Y-15709836D01*
X9856715Y-15709836D02*
X9856715Y-15728884D01*
X9990048Y-15528884D02*
X10009096Y-15528884D01*
X10009096Y-15528884D02*
X10028144Y-15538408D01*
X10028144Y-15538408D02*
X10037668Y-15547931D01*
X10037668Y-15547931D02*
X10047191Y-15566979D01*
X10047191Y-15566979D02*
X10056715Y-15605074D01*
X10056715Y-15605074D02*
X10056715Y-15652693D01*
X10056715Y-15652693D02*
X10047191Y-15690788D01*
X10047191Y-15690788D02*
X10037668Y-15709836D01*
X10037668Y-15709836D02*
X10028144Y-15719360D01*
X10028144Y-15719360D02*
X10009096Y-15728884D01*
X10009096Y-15728884D02*
X9990048Y-15728884D01*
X9990048Y-15728884D02*
X9971001Y-15719360D01*
X9971001Y-15719360D02*
X9961477Y-15709836D01*
X9961477Y-15709836D02*
X9951953Y-15690788D01*
X9951953Y-15690788D02*
X9942429Y-15652693D01*
X9942429Y-15652693D02*
X9942429Y-15605074D01*
X9942429Y-15605074D02*
X9951953Y-15566979D01*
X9951953Y-15566979D02*
X9961477Y-15547931D01*
X9961477Y-15547931D02*
X9971001Y-15538408D01*
X9971001Y-15538408D02*
X9990048Y-15528884D01*
X10247191Y-15728884D02*
X10132906Y-15728884D01*
X10190048Y-15728884D02*
X10190048Y-15528884D01*
X10190048Y-15528884D02*
X10171001Y-15557455D01*
X10171001Y-15557455D02*
X10151953Y-15576503D01*
X10151953Y-15576503D02*
X10132906Y-15586027D01*
X10437668Y-15728884D02*
X10323382Y-15728884D01*
X10380525Y-15728884D02*
X10380525Y-15528884D01*
X10380525Y-15528884D02*
X10361477Y-15557455D01*
X10361477Y-15557455D02*
X10342429Y-15576503D01*
X10342429Y-15576503D02*
X10323382Y-15586027D01*
X10551953Y-15614598D02*
X10532906Y-15605074D01*
X10532906Y-15605074D02*
X10523382Y-15595550D01*
X10523382Y-15595550D02*
X10513858Y-15576503D01*
X10513858Y-15576503D02*
X10513858Y-15566979D01*
X10513858Y-15566979D02*
X10523382Y-15547931D01*
X10523382Y-15547931D02*
X10532906Y-15538408D01*
X10532906Y-15538408D02*
X10551953Y-15528884D01*
X10551953Y-15528884D02*
X10590049Y-15528884D01*
X10590049Y-15528884D02*
X10609096Y-15538408D01*
X10609096Y-15538408D02*
X10618620Y-15547931D01*
X10618620Y-15547931D02*
X10628144Y-15566979D01*
X10628144Y-15566979D02*
X10628144Y-15576503D01*
X10628144Y-15576503D02*
X10618620Y-15595550D01*
X10618620Y-15595550D02*
X10609096Y-15605074D01*
X10609096Y-15605074D02*
X10590049Y-15614598D01*
X10590049Y-15614598D02*
X10551953Y-15614598D01*
X10551953Y-15614598D02*
X10532906Y-15624122D01*
X10532906Y-15624122D02*
X10523382Y-15633646D01*
X10523382Y-15633646D02*
X10513858Y-15652693D01*
X10513858Y-15652693D02*
X10513858Y-15690788D01*
X10513858Y-15690788D02*
X10523382Y-15709836D01*
X10523382Y-15709836D02*
X10532906Y-15719360D01*
X10532906Y-15719360D02*
X10551953Y-15728884D01*
X10551953Y-15728884D02*
X10590049Y-15728884D01*
X10590049Y-15728884D02*
X10609096Y-15719360D01*
X10609096Y-15719360D02*
X10618620Y-15709836D01*
X10618620Y-15709836D02*
X10628144Y-15690788D01*
X10628144Y-15690788D02*
X10628144Y-15652693D01*
X10628144Y-15652693D02*
X10618620Y-15633646D01*
X10618620Y-15633646D02*
X10609096Y-15624122D01*
X10609096Y-15624122D02*
X10590049Y-15614598D01*
X10704334Y-15528884D02*
X10704334Y-15566979D01*
X10780525Y-15528884D02*
X10780525Y-15566979D01*
X11075763Y-15805074D02*
X11066239Y-15795550D01*
X11066239Y-15795550D02*
X11047191Y-15766979D01*
X11047191Y-15766979D02*
X11037668Y-15747931D01*
X11037668Y-15747931D02*
X11028144Y-15719360D01*
X11028144Y-15719360D02*
X11018620Y-15671741D01*
X11018620Y-15671741D02*
X11018620Y-15633646D01*
X11018620Y-15633646D02*
X11028144Y-15586027D01*
X11028144Y-15586027D02*
X11037668Y-15557455D01*
X11037668Y-15557455D02*
X11047191Y-15538408D01*
X11047191Y-15538408D02*
X11066239Y-15509836D01*
X11066239Y-15509836D02*
X11075763Y-15500312D01*
X11256715Y-15728884D02*
X11142430Y-15728884D01*
X11199572Y-15728884D02*
X11199572Y-15528884D01*
X11199572Y-15528884D02*
X11180525Y-15557455D01*
X11180525Y-15557455D02*
X11161477Y-15576503D01*
X11161477Y-15576503D02*
X11142430Y-15586027D01*
X11447191Y-15728884D02*
X11332906Y-15728884D01*
X11390048Y-15728884D02*
X11390048Y-15528884D01*
X11390048Y-15528884D02*
X11371001Y-15557455D01*
X11371001Y-15557455D02*
X11351953Y-15576503D01*
X11351953Y-15576503D02*
X11332906Y-15586027D01*
X11685287Y-15728884D02*
X11685287Y-15528884D01*
X11771001Y-15728884D02*
X11771001Y-15624122D01*
X11771001Y-15624122D02*
X11761477Y-15605074D01*
X11761477Y-15605074D02*
X11742430Y-15595550D01*
X11742430Y-15595550D02*
X11713858Y-15595550D01*
X11713858Y-15595550D02*
X11694810Y-15605074D01*
X11694810Y-15605074D02*
X11685287Y-15614598D01*
X11894810Y-15728884D02*
X11875763Y-15719360D01*
X11875763Y-15719360D02*
X11866239Y-15709836D01*
X11866239Y-15709836D02*
X11856715Y-15690788D01*
X11856715Y-15690788D02*
X11856715Y-15633646D01*
X11856715Y-15633646D02*
X11866239Y-15614598D01*
X11866239Y-15614598D02*
X11875763Y-15605074D01*
X11875763Y-15605074D02*
X11894810Y-15595550D01*
X11894810Y-15595550D02*
X11923382Y-15595550D01*
X11923382Y-15595550D02*
X11942430Y-15605074D01*
X11942430Y-15605074D02*
X11951953Y-15614598D01*
X11951953Y-15614598D02*
X11961477Y-15633646D01*
X11961477Y-15633646D02*
X11961477Y-15690788D01*
X11961477Y-15690788D02*
X11951953Y-15709836D01*
X11951953Y-15709836D02*
X11942430Y-15719360D01*
X11942430Y-15719360D02*
X11923382Y-15728884D01*
X11923382Y-15728884D02*
X11894810Y-15728884D01*
X12075763Y-15728884D02*
X12056715Y-15719360D01*
X12056715Y-15719360D02*
X12047191Y-15700312D01*
X12047191Y-15700312D02*
X12047191Y-15528884D01*
X12228144Y-15719360D02*
X12209096Y-15728884D01*
X12209096Y-15728884D02*
X12171001Y-15728884D01*
X12171001Y-15728884D02*
X12151953Y-15719360D01*
X12151953Y-15719360D02*
X12142430Y-15700312D01*
X12142430Y-15700312D02*
X12142430Y-15624122D01*
X12142430Y-15624122D02*
X12151953Y-15605074D01*
X12151953Y-15605074D02*
X12171001Y-15595550D01*
X12171001Y-15595550D02*
X12209096Y-15595550D01*
X12209096Y-15595550D02*
X12228144Y-15605074D01*
X12228144Y-15605074D02*
X12237668Y-15624122D01*
X12237668Y-15624122D02*
X12237668Y-15643169D01*
X12237668Y-15643169D02*
X12142430Y-15662217D01*
X12313858Y-15719360D02*
X12332906Y-15728884D01*
X12332906Y-15728884D02*
X12371001Y-15728884D01*
X12371001Y-15728884D02*
X12390049Y-15719360D01*
X12390049Y-15719360D02*
X12399572Y-15700312D01*
X12399572Y-15700312D02*
X12399572Y-15690788D01*
X12399572Y-15690788D02*
X12390049Y-15671741D01*
X12390049Y-15671741D02*
X12371001Y-15662217D01*
X12371001Y-15662217D02*
X12342430Y-15662217D01*
X12342430Y-15662217D02*
X12323382Y-15652693D01*
X12323382Y-15652693D02*
X12313858Y-15633646D01*
X12313858Y-15633646D02*
X12313858Y-15624122D01*
X12313858Y-15624122D02*
X12323382Y-15605074D01*
X12323382Y-15605074D02*
X12342430Y-15595550D01*
X12342430Y-15595550D02*
X12371001Y-15595550D01*
X12371001Y-15595550D02*
X12390049Y-15605074D01*
X12466239Y-15805074D02*
X12475763Y-15795550D01*
X12475763Y-15795550D02*
X12494811Y-15766979D01*
X12494811Y-15766979D02*
X12504334Y-15747931D01*
X12504334Y-15747931D02*
X12513858Y-15719360D01*
X12513858Y-15719360D02*
X12523382Y-15671741D01*
X12523382Y-15671741D02*
X12523382Y-15633646D01*
X12523382Y-15633646D02*
X12513858Y-15586027D01*
X12513858Y-15586027D02*
X12504334Y-15557455D01*
X12504334Y-15557455D02*
X12494811Y-15538408D01*
X12494811Y-15538408D02*
X12475763Y-15509836D01*
X12475763Y-15509836D02*
X12466239Y-15500312D01*
D10*
X7480700Y-15881400D02*
X7480700Y-15921400D01*
X7460700Y-15901400D02*
X7500700Y-15901400D01*
D11*
X7799572Y-15792884D02*
X7818620Y-15792884D01*
X7818620Y-15792884D02*
X7837667Y-15802408D01*
X7837667Y-15802408D02*
X7847191Y-15811931D01*
X7847191Y-15811931D02*
X7856715Y-15830979D01*
X7856715Y-15830979D02*
X7866239Y-15869074D01*
X7866239Y-15869074D02*
X7866239Y-15916693D01*
X7866239Y-15916693D02*
X7856715Y-15954788D01*
X7856715Y-15954788D02*
X7847191Y-15973836D01*
X7847191Y-15973836D02*
X7837667Y-15983360D01*
X7837667Y-15983360D02*
X7818620Y-15992884D01*
X7818620Y-15992884D02*
X7799572Y-15992884D01*
X7799572Y-15992884D02*
X7780524Y-15983360D01*
X7780524Y-15983360D02*
X7771001Y-15973836D01*
X7771001Y-15973836D02*
X7761477Y-15954788D01*
X7761477Y-15954788D02*
X7751953Y-15916693D01*
X7751953Y-15916693D02*
X7751953Y-15869074D01*
X7751953Y-15869074D02*
X7761477Y-15830979D01*
X7761477Y-15830979D02*
X7771001Y-15811931D01*
X7771001Y-15811931D02*
X7780524Y-15802408D01*
X7780524Y-15802408D02*
X7799572Y-15792884D01*
X7951953Y-15973836D02*
X7961477Y-15983360D01*
X7961477Y-15983360D02*
X7951953Y-15992884D01*
X7951953Y-15992884D02*
X7942429Y-15983360D01*
X7942429Y-15983360D02*
X7951953Y-15973836D01*
X7951953Y-15973836D02*
X7951953Y-15992884D01*
X8132905Y-15859550D02*
X8132905Y-15992884D01*
X8085286Y-15783360D02*
X8037667Y-15926217D01*
X8037667Y-15926217D02*
X8161477Y-15926217D01*
X8275762Y-15792884D02*
X8294810Y-15792884D01*
X8294810Y-15792884D02*
X8313858Y-15802408D01*
X8313858Y-15802408D02*
X8323382Y-15811931D01*
X8323382Y-15811931D02*
X8332905Y-15830979D01*
X8332905Y-15830979D02*
X8342429Y-15869074D01*
X8342429Y-15869074D02*
X8342429Y-15916693D01*
X8342429Y-15916693D02*
X8332905Y-15954788D01*
X8332905Y-15954788D02*
X8323382Y-15973836D01*
X8323382Y-15973836D02*
X8313858Y-15983360D01*
X8313858Y-15983360D02*
X8294810Y-15992884D01*
X8294810Y-15992884D02*
X8275762Y-15992884D01*
X8275762Y-15992884D02*
X8256715Y-15983360D01*
X8256715Y-15983360D02*
X8247191Y-15973836D01*
X8247191Y-15973836D02*
X8237667Y-15954788D01*
X8237667Y-15954788D02*
X8228143Y-15916693D01*
X8228143Y-15916693D02*
X8228143Y-15869074D01*
X8228143Y-15869074D02*
X8237667Y-15830979D01*
X8237667Y-15830979D02*
X8247191Y-15811931D01*
X8247191Y-15811931D02*
X8256715Y-15802408D01*
X8256715Y-15802408D02*
X8275762Y-15792884D01*
X8466239Y-15792884D02*
X8485286Y-15792884D01*
X8485286Y-15792884D02*
X8504334Y-15802408D01*
X8504334Y-15802408D02*
X8513858Y-15811931D01*
X8513858Y-15811931D02*
X8523382Y-15830979D01*
X8523382Y-15830979D02*
X8532905Y-15869074D01*
X8532905Y-15869074D02*
X8532905Y-15916693D01*
X8532905Y-15916693D02*
X8523382Y-15954788D01*
X8523382Y-15954788D02*
X8513858Y-15973836D01*
X8513858Y-15973836D02*
X8504334Y-15983360D01*
X8504334Y-15983360D02*
X8485286Y-15992884D01*
X8485286Y-15992884D02*
X8466239Y-15992884D01*
X8466239Y-15992884D02*
X8447191Y-15983360D01*
X8447191Y-15983360D02*
X8437667Y-15973836D01*
X8437667Y-15973836D02*
X8428144Y-15954788D01*
X8428144Y-15954788D02*
X8418620Y-15916693D01*
X8418620Y-15916693D02*
X8418620Y-15869074D01*
X8418620Y-15869074D02*
X8428144Y-15830979D01*
X8428144Y-15830979D02*
X8437667Y-15811931D01*
X8437667Y-15811931D02*
X8447191Y-15802408D01*
X8447191Y-15802408D02*
X8466239Y-15792884D01*
X8618620Y-15992884D02*
X8618620Y-15859550D01*
X8618620Y-15878598D02*
X8628144Y-15869074D01*
X8628144Y-15869074D02*
X8647191Y-15859550D01*
X8647191Y-15859550D02*
X8675763Y-15859550D01*
X8675763Y-15859550D02*
X8694810Y-15869074D01*
X8694810Y-15869074D02*
X8704334Y-15888122D01*
X8704334Y-15888122D02*
X8704334Y-15992884D01*
X8704334Y-15888122D02*
X8713858Y-15869074D01*
X8713858Y-15869074D02*
X8732905Y-15859550D01*
X8732905Y-15859550D02*
X8761477Y-15859550D01*
X8761477Y-15859550D02*
X8780525Y-15869074D01*
X8780525Y-15869074D02*
X8790048Y-15888122D01*
X8790048Y-15888122D02*
X8790048Y-15992884D01*
X8885286Y-15992884D02*
X8885286Y-15859550D01*
X8885286Y-15878598D02*
X8894810Y-15869074D01*
X8894810Y-15869074D02*
X8913858Y-15859550D01*
X8913858Y-15859550D02*
X8942429Y-15859550D01*
X8942429Y-15859550D02*
X8961477Y-15869074D01*
X8961477Y-15869074D02*
X8971001Y-15888122D01*
X8971001Y-15888122D02*
X8971001Y-15992884D01*
X8971001Y-15888122D02*
X8980525Y-15869074D01*
X8980525Y-15869074D02*
X8999572Y-15859550D01*
X8999572Y-15859550D02*
X9028144Y-15859550D01*
X9028144Y-15859550D02*
X9047191Y-15869074D01*
X9047191Y-15869074D02*
X9056715Y-15888122D01*
X9056715Y-15888122D02*
X9056715Y-15992884D01*
X9447191Y-15783360D02*
X9275763Y-16040503D01*
X9704334Y-15792884D02*
X9723382Y-15792884D01*
X9723382Y-15792884D02*
X9742429Y-15802408D01*
X9742429Y-15802408D02*
X9751953Y-15811931D01*
X9751953Y-15811931D02*
X9761477Y-15830979D01*
X9761477Y-15830979D02*
X9771001Y-15869074D01*
X9771001Y-15869074D02*
X9771001Y-15916693D01*
X9771001Y-15916693D02*
X9761477Y-15954788D01*
X9761477Y-15954788D02*
X9751953Y-15973836D01*
X9751953Y-15973836D02*
X9742429Y-15983360D01*
X9742429Y-15983360D02*
X9723382Y-15992884D01*
X9723382Y-15992884D02*
X9704334Y-15992884D01*
X9704334Y-15992884D02*
X9685287Y-15983360D01*
X9685287Y-15983360D02*
X9675763Y-15973836D01*
X9675763Y-15973836D02*
X9666239Y-15954788D01*
X9666239Y-15954788D02*
X9656715Y-15916693D01*
X9656715Y-15916693D02*
X9656715Y-15869074D01*
X9656715Y-15869074D02*
X9666239Y-15830979D01*
X9666239Y-15830979D02*
X9675763Y-15811931D01*
X9675763Y-15811931D02*
X9685287Y-15802408D01*
X9685287Y-15802408D02*
X9704334Y-15792884D01*
X9856715Y-15973836D02*
X9866239Y-15983360D01*
X9866239Y-15983360D02*
X9856715Y-15992884D01*
X9856715Y-15992884D02*
X9847191Y-15983360D01*
X9847191Y-15983360D02*
X9856715Y-15973836D01*
X9856715Y-15973836D02*
X9856715Y-15992884D01*
X9990048Y-15792884D02*
X10009096Y-15792884D01*
X10009096Y-15792884D02*
X10028144Y-15802408D01*
X10028144Y-15802408D02*
X10037668Y-15811931D01*
X10037668Y-15811931D02*
X10047191Y-15830979D01*
X10047191Y-15830979D02*
X10056715Y-15869074D01*
X10056715Y-15869074D02*
X10056715Y-15916693D01*
X10056715Y-15916693D02*
X10047191Y-15954788D01*
X10047191Y-15954788D02*
X10037668Y-15973836D01*
X10037668Y-15973836D02*
X10028144Y-15983360D01*
X10028144Y-15983360D02*
X10009096Y-15992884D01*
X10009096Y-15992884D02*
X9990048Y-15992884D01*
X9990048Y-15992884D02*
X9971001Y-15983360D01*
X9971001Y-15983360D02*
X9961477Y-15973836D01*
X9961477Y-15973836D02*
X9951953Y-15954788D01*
X9951953Y-15954788D02*
X9942429Y-15916693D01*
X9942429Y-15916693D02*
X9942429Y-15869074D01*
X9942429Y-15869074D02*
X9951953Y-15830979D01*
X9951953Y-15830979D02*
X9961477Y-15811931D01*
X9961477Y-15811931D02*
X9971001Y-15802408D01*
X9971001Y-15802408D02*
X9990048Y-15792884D01*
X10247191Y-15992884D02*
X10132906Y-15992884D01*
X10190048Y-15992884D02*
X10190048Y-15792884D01*
X10190048Y-15792884D02*
X10171001Y-15821455D01*
X10171001Y-15821455D02*
X10151953Y-15840503D01*
X10151953Y-15840503D02*
X10132906Y-15850027D01*
X10428144Y-15792884D02*
X10332906Y-15792884D01*
X10332906Y-15792884D02*
X10323382Y-15888122D01*
X10323382Y-15888122D02*
X10332906Y-15878598D01*
X10332906Y-15878598D02*
X10351953Y-15869074D01*
X10351953Y-15869074D02*
X10399572Y-15869074D01*
X10399572Y-15869074D02*
X10418620Y-15878598D01*
X10418620Y-15878598D02*
X10428144Y-15888122D01*
X10428144Y-15888122D02*
X10437668Y-15907169D01*
X10437668Y-15907169D02*
X10437668Y-15954788D01*
X10437668Y-15954788D02*
X10428144Y-15973836D01*
X10428144Y-15973836D02*
X10418620Y-15983360D01*
X10418620Y-15983360D02*
X10399572Y-15992884D01*
X10399572Y-15992884D02*
X10351953Y-15992884D01*
X10351953Y-15992884D02*
X10332906Y-15983360D01*
X10332906Y-15983360D02*
X10323382Y-15973836D01*
X10504334Y-15792884D02*
X10637668Y-15792884D01*
X10637668Y-15792884D02*
X10551953Y-15992884D01*
X10704334Y-15792884D02*
X10704334Y-15830979D01*
X10780525Y-15792884D02*
X10780525Y-15830979D01*
X11075763Y-16069074D02*
X11066239Y-16059550D01*
X11066239Y-16059550D02*
X11047191Y-16030979D01*
X11047191Y-16030979D02*
X11037668Y-16011931D01*
X11037668Y-16011931D02*
X11028144Y-15983360D01*
X11028144Y-15983360D02*
X11018620Y-15935741D01*
X11018620Y-15935741D02*
X11018620Y-15897646D01*
X11018620Y-15897646D02*
X11028144Y-15850027D01*
X11028144Y-15850027D02*
X11037668Y-15821455D01*
X11037668Y-15821455D02*
X11047191Y-15802408D01*
X11047191Y-15802408D02*
X11066239Y-15773836D01*
X11066239Y-15773836D02*
X11075763Y-15764312D01*
X11161477Y-15992884D02*
X11199572Y-15992884D01*
X11199572Y-15992884D02*
X11218620Y-15983360D01*
X11218620Y-15983360D02*
X11228144Y-15973836D01*
X11228144Y-15973836D02*
X11247191Y-15945265D01*
X11247191Y-15945265D02*
X11256715Y-15907169D01*
X11256715Y-15907169D02*
X11256715Y-15830979D01*
X11256715Y-15830979D02*
X11247191Y-15811931D01*
X11247191Y-15811931D02*
X11237668Y-15802408D01*
X11237668Y-15802408D02*
X11218620Y-15792884D01*
X11218620Y-15792884D02*
X11180525Y-15792884D01*
X11180525Y-15792884D02*
X11161477Y-15802408D01*
X11161477Y-15802408D02*
X11151953Y-15811931D01*
X11151953Y-15811931D02*
X11142430Y-15830979D01*
X11142430Y-15830979D02*
X11142430Y-15878598D01*
X11142430Y-15878598D02*
X11151953Y-15897646D01*
X11151953Y-15897646D02*
X11161477Y-15907169D01*
X11161477Y-15907169D02*
X11180525Y-15916693D01*
X11180525Y-15916693D02*
X11218620Y-15916693D01*
X11218620Y-15916693D02*
X11237668Y-15907169D01*
X11237668Y-15907169D02*
X11247191Y-15897646D01*
X11247191Y-15897646D02*
X11256715Y-15878598D01*
X11428144Y-15792884D02*
X11390048Y-15792884D01*
X11390048Y-15792884D02*
X11371001Y-15802408D01*
X11371001Y-15802408D02*
X11361477Y-15811931D01*
X11361477Y-15811931D02*
X11342429Y-15840503D01*
X11342429Y-15840503D02*
X11332906Y-15878598D01*
X11332906Y-15878598D02*
X11332906Y-15954788D01*
X11332906Y-15954788D02*
X11342429Y-15973836D01*
X11342429Y-15973836D02*
X11351953Y-15983360D01*
X11351953Y-15983360D02*
X11371001Y-15992884D01*
X11371001Y-15992884D02*
X11409096Y-15992884D01*
X11409096Y-15992884D02*
X11428144Y-15983360D01*
X11428144Y-15983360D02*
X11437668Y-15973836D01*
X11437668Y-15973836D02*
X11447191Y-15954788D01*
X11447191Y-15954788D02*
X11447191Y-15907169D01*
X11447191Y-15907169D02*
X11437668Y-15888122D01*
X11437668Y-15888122D02*
X11428144Y-15878598D01*
X11428144Y-15878598D02*
X11409096Y-15869074D01*
X11409096Y-15869074D02*
X11371001Y-15869074D01*
X11371001Y-15869074D02*
X11351953Y-15878598D01*
X11351953Y-15878598D02*
X11342429Y-15888122D01*
X11342429Y-15888122D02*
X11332906Y-15907169D01*
X11685287Y-15992884D02*
X11685287Y-15792884D01*
X11771001Y-15992884D02*
X11771001Y-15888122D01*
X11771001Y-15888122D02*
X11761477Y-15869074D01*
X11761477Y-15869074D02*
X11742430Y-15859550D01*
X11742430Y-15859550D02*
X11713858Y-15859550D01*
X11713858Y-15859550D02*
X11694810Y-15869074D01*
X11694810Y-15869074D02*
X11685287Y-15878598D01*
X11894810Y-15992884D02*
X11875763Y-15983360D01*
X11875763Y-15983360D02*
X11866239Y-15973836D01*
X11866239Y-15973836D02*
X11856715Y-15954788D01*
X11856715Y-15954788D02*
X11856715Y-15897646D01*
X11856715Y-15897646D02*
X11866239Y-15878598D01*
X11866239Y-15878598D02*
X11875763Y-15869074D01*
X11875763Y-15869074D02*
X11894810Y-15859550D01*
X11894810Y-15859550D02*
X11923382Y-15859550D01*
X11923382Y-15859550D02*
X11942430Y-15869074D01*
X11942430Y-15869074D02*
X11951953Y-15878598D01*
X11951953Y-15878598D02*
X11961477Y-15897646D01*
X11961477Y-15897646D02*
X11961477Y-15954788D01*
X11961477Y-15954788D02*
X11951953Y-15973836D01*
X11951953Y-15973836D02*
X11942430Y-15983360D01*
X11942430Y-15983360D02*
X11923382Y-15992884D01*
X11923382Y-15992884D02*
X11894810Y-15992884D01*
X12075763Y-15992884D02*
X12056715Y-15983360D01*
X12056715Y-15983360D02*
X12047191Y-15964312D01*
X12047191Y-15964312D02*
X12047191Y-15792884D01*
X12228144Y-15983360D02*
X12209096Y-15992884D01*
X12209096Y-15992884D02*
X12171001Y-15992884D01*
X12171001Y-15992884D02*
X12151953Y-15983360D01*
X12151953Y-15983360D02*
X12142430Y-15964312D01*
X12142430Y-15964312D02*
X12142430Y-15888122D01*
X12142430Y-15888122D02*
X12151953Y-15869074D01*
X12151953Y-15869074D02*
X12171001Y-15859550D01*
X12171001Y-15859550D02*
X12209096Y-15859550D01*
X12209096Y-15859550D02*
X12228144Y-15869074D01*
X12228144Y-15869074D02*
X12237668Y-15888122D01*
X12237668Y-15888122D02*
X12237668Y-15907169D01*
X12237668Y-15907169D02*
X12142430Y-15926217D01*
X12313858Y-15983360D02*
X12332906Y-15992884D01*
X12332906Y-15992884D02*
X12371001Y-15992884D01*
X12371001Y-15992884D02*
X12390049Y-15983360D01*
X12390049Y-15983360D02*
X12399572Y-15964312D01*
X12399572Y-15964312D02*
X12399572Y-15954788D01*
X12399572Y-15954788D02*
X12390049Y-15935741D01*
X12390049Y-15935741D02*
X12371001Y-15926217D01*
X12371001Y-15926217D02*
X12342430Y-15926217D01*
X12342430Y-15926217D02*
X12323382Y-15916693D01*
X12323382Y-15916693D02*
X12313858Y-15897646D01*
X12313858Y-15897646D02*
X12313858Y-15888122D01*
X12313858Y-15888122D02*
X12323382Y-15869074D01*
X12323382Y-15869074D02*
X12342430Y-15859550D01*
X12342430Y-15859550D02*
X12371001Y-15859550D01*
X12371001Y-15859550D02*
X12390049Y-15869074D01*
X12466239Y-16069074D02*
X12475763Y-16059550D01*
X12475763Y-16059550D02*
X12494811Y-16030979D01*
X12494811Y-16030979D02*
X12504334Y-16011931D01*
X12504334Y-16011931D02*
X12513858Y-15983360D01*
X12513858Y-15983360D02*
X12523382Y-15935741D01*
X12523382Y-15935741D02*
X12523382Y-15897646D01*
X12523382Y-15897646D02*
X12513858Y-15850027D01*
X12513858Y-15850027D02*
X12504334Y-15821455D01*
X12504334Y-15821455D02*
X12494811Y-15802408D01*
X12494811Y-15802408D02*
X12475763Y-15773836D01*
X12475763Y-15773836D02*
X12466239Y-15764312D01*
D10*
X7493378Y-16183078D02*
X7493378Y-16147722D01*
X7458022Y-16147722D01*
X7458022Y-16183078D01*
X7493378Y-16183078D01*
D11*
X7799572Y-16056884D02*
X7818620Y-16056884D01*
X7818620Y-16056884D02*
X7837667Y-16066408D01*
X7837667Y-16066408D02*
X7847191Y-16075931D01*
X7847191Y-16075931D02*
X7856715Y-16094979D01*
X7856715Y-16094979D02*
X7866239Y-16133074D01*
X7866239Y-16133074D02*
X7866239Y-16180693D01*
X7866239Y-16180693D02*
X7856715Y-16218788D01*
X7856715Y-16218788D02*
X7847191Y-16237836D01*
X7847191Y-16237836D02*
X7837667Y-16247360D01*
X7837667Y-16247360D02*
X7818620Y-16256884D01*
X7818620Y-16256884D02*
X7799572Y-16256884D01*
X7799572Y-16256884D02*
X7780524Y-16247360D01*
X7780524Y-16247360D02*
X7771001Y-16237836D01*
X7771001Y-16237836D02*
X7761477Y-16218788D01*
X7761477Y-16218788D02*
X7751953Y-16180693D01*
X7751953Y-16180693D02*
X7751953Y-16133074D01*
X7751953Y-16133074D02*
X7761477Y-16094979D01*
X7761477Y-16094979D02*
X7771001Y-16075931D01*
X7771001Y-16075931D02*
X7780524Y-16066408D01*
X7780524Y-16066408D02*
X7799572Y-16056884D01*
X7951953Y-16237836D02*
X7961477Y-16247360D01*
X7961477Y-16247360D02*
X7951953Y-16256884D01*
X7951953Y-16256884D02*
X7942429Y-16247360D01*
X7942429Y-16247360D02*
X7951953Y-16237836D01*
X7951953Y-16237836D02*
X7951953Y-16256884D01*
X8142429Y-16056884D02*
X8047191Y-16056884D01*
X8047191Y-16056884D02*
X8037667Y-16152122D01*
X8037667Y-16152122D02*
X8047191Y-16142598D01*
X8047191Y-16142598D02*
X8066239Y-16133074D01*
X8066239Y-16133074D02*
X8113858Y-16133074D01*
X8113858Y-16133074D02*
X8132905Y-16142598D01*
X8132905Y-16142598D02*
X8142429Y-16152122D01*
X8142429Y-16152122D02*
X8151953Y-16171169D01*
X8151953Y-16171169D02*
X8151953Y-16218788D01*
X8151953Y-16218788D02*
X8142429Y-16237836D01*
X8142429Y-16237836D02*
X8132905Y-16247360D01*
X8132905Y-16247360D02*
X8113858Y-16256884D01*
X8113858Y-16256884D02*
X8066239Y-16256884D01*
X8066239Y-16256884D02*
X8047191Y-16247360D01*
X8047191Y-16247360D02*
X8037667Y-16237836D01*
X8275762Y-16056884D02*
X8294810Y-16056884D01*
X8294810Y-16056884D02*
X8313858Y-16066408D01*
X8313858Y-16066408D02*
X8323382Y-16075931D01*
X8323382Y-16075931D02*
X8332905Y-16094979D01*
X8332905Y-16094979D02*
X8342429Y-16133074D01*
X8342429Y-16133074D02*
X8342429Y-16180693D01*
X8342429Y-16180693D02*
X8332905Y-16218788D01*
X8332905Y-16218788D02*
X8323382Y-16237836D01*
X8323382Y-16237836D02*
X8313858Y-16247360D01*
X8313858Y-16247360D02*
X8294810Y-16256884D01*
X8294810Y-16256884D02*
X8275762Y-16256884D01*
X8275762Y-16256884D02*
X8256715Y-16247360D01*
X8256715Y-16247360D02*
X8247191Y-16237836D01*
X8247191Y-16237836D02*
X8237667Y-16218788D01*
X8237667Y-16218788D02*
X8228143Y-16180693D01*
X8228143Y-16180693D02*
X8228143Y-16133074D01*
X8228143Y-16133074D02*
X8237667Y-16094979D01*
X8237667Y-16094979D02*
X8247191Y-16075931D01*
X8247191Y-16075931D02*
X8256715Y-16066408D01*
X8256715Y-16066408D02*
X8275762Y-16056884D01*
X8466239Y-16056884D02*
X8485286Y-16056884D01*
X8485286Y-16056884D02*
X8504334Y-16066408D01*
X8504334Y-16066408D02*
X8513858Y-16075931D01*
X8513858Y-16075931D02*
X8523382Y-16094979D01*
X8523382Y-16094979D02*
X8532905Y-16133074D01*
X8532905Y-16133074D02*
X8532905Y-16180693D01*
X8532905Y-16180693D02*
X8523382Y-16218788D01*
X8523382Y-16218788D02*
X8513858Y-16237836D01*
X8513858Y-16237836D02*
X8504334Y-16247360D01*
X8504334Y-16247360D02*
X8485286Y-16256884D01*
X8485286Y-16256884D02*
X8466239Y-16256884D01*
X8466239Y-16256884D02*
X8447191Y-16247360D01*
X8447191Y-16247360D02*
X8437667Y-16237836D01*
X8437667Y-16237836D02*
X8428144Y-16218788D01*
X8428144Y-16218788D02*
X8418620Y-16180693D01*
X8418620Y-16180693D02*
X8418620Y-16133074D01*
X8418620Y-16133074D02*
X8428144Y-16094979D01*
X8428144Y-16094979D02*
X8437667Y-16075931D01*
X8437667Y-16075931D02*
X8447191Y-16066408D01*
X8447191Y-16066408D02*
X8466239Y-16056884D01*
X8618620Y-16256884D02*
X8618620Y-16123550D01*
X8618620Y-16142598D02*
X8628144Y-16133074D01*
X8628144Y-16133074D02*
X8647191Y-16123550D01*
X8647191Y-16123550D02*
X8675763Y-16123550D01*
X8675763Y-16123550D02*
X8694810Y-16133074D01*
X8694810Y-16133074D02*
X8704334Y-16152122D01*
X8704334Y-16152122D02*
X8704334Y-16256884D01*
X8704334Y-16152122D02*
X8713858Y-16133074D01*
X8713858Y-16133074D02*
X8732905Y-16123550D01*
X8732905Y-16123550D02*
X8761477Y-16123550D01*
X8761477Y-16123550D02*
X8780525Y-16133074D01*
X8780525Y-16133074D02*
X8790048Y-16152122D01*
X8790048Y-16152122D02*
X8790048Y-16256884D01*
X8885286Y-16256884D02*
X8885286Y-16123550D01*
X8885286Y-16142598D02*
X8894810Y-16133074D01*
X8894810Y-16133074D02*
X8913858Y-16123550D01*
X8913858Y-16123550D02*
X8942429Y-16123550D01*
X8942429Y-16123550D02*
X8961477Y-16133074D01*
X8961477Y-16133074D02*
X8971001Y-16152122D01*
X8971001Y-16152122D02*
X8971001Y-16256884D01*
X8971001Y-16152122D02*
X8980525Y-16133074D01*
X8980525Y-16133074D02*
X8999572Y-16123550D01*
X8999572Y-16123550D02*
X9028144Y-16123550D01*
X9028144Y-16123550D02*
X9047191Y-16133074D01*
X9047191Y-16133074D02*
X9056715Y-16152122D01*
X9056715Y-16152122D02*
X9056715Y-16256884D01*
X9447191Y-16047360D02*
X9275763Y-16304503D01*
X9704334Y-16056884D02*
X9723382Y-16056884D01*
X9723382Y-16056884D02*
X9742429Y-16066408D01*
X9742429Y-16066408D02*
X9751953Y-16075931D01*
X9751953Y-16075931D02*
X9761477Y-16094979D01*
X9761477Y-16094979D02*
X9771001Y-16133074D01*
X9771001Y-16133074D02*
X9771001Y-16180693D01*
X9771001Y-16180693D02*
X9761477Y-16218788D01*
X9761477Y-16218788D02*
X9751953Y-16237836D01*
X9751953Y-16237836D02*
X9742429Y-16247360D01*
X9742429Y-16247360D02*
X9723382Y-16256884D01*
X9723382Y-16256884D02*
X9704334Y-16256884D01*
X9704334Y-16256884D02*
X9685287Y-16247360D01*
X9685287Y-16247360D02*
X9675763Y-16237836D01*
X9675763Y-16237836D02*
X9666239Y-16218788D01*
X9666239Y-16218788D02*
X9656715Y-16180693D01*
X9656715Y-16180693D02*
X9656715Y-16133074D01*
X9656715Y-16133074D02*
X9666239Y-16094979D01*
X9666239Y-16094979D02*
X9675763Y-16075931D01*
X9675763Y-16075931D02*
X9685287Y-16066408D01*
X9685287Y-16066408D02*
X9704334Y-16056884D01*
X9856715Y-16237836D02*
X9866239Y-16247360D01*
X9866239Y-16247360D02*
X9856715Y-16256884D01*
X9856715Y-16256884D02*
X9847191Y-16247360D01*
X9847191Y-16247360D02*
X9856715Y-16237836D01*
X9856715Y-16237836D02*
X9856715Y-16256884D01*
X9990048Y-16056884D02*
X10009096Y-16056884D01*
X10009096Y-16056884D02*
X10028144Y-16066408D01*
X10028144Y-16066408D02*
X10037668Y-16075931D01*
X10037668Y-16075931D02*
X10047191Y-16094979D01*
X10047191Y-16094979D02*
X10056715Y-16133074D01*
X10056715Y-16133074D02*
X10056715Y-16180693D01*
X10056715Y-16180693D02*
X10047191Y-16218788D01*
X10047191Y-16218788D02*
X10037668Y-16237836D01*
X10037668Y-16237836D02*
X10028144Y-16247360D01*
X10028144Y-16247360D02*
X10009096Y-16256884D01*
X10009096Y-16256884D02*
X9990048Y-16256884D01*
X9990048Y-16256884D02*
X9971001Y-16247360D01*
X9971001Y-16247360D02*
X9961477Y-16237836D01*
X9961477Y-16237836D02*
X9951953Y-16218788D01*
X9951953Y-16218788D02*
X9942429Y-16180693D01*
X9942429Y-16180693D02*
X9942429Y-16133074D01*
X9942429Y-16133074D02*
X9951953Y-16094979D01*
X9951953Y-16094979D02*
X9961477Y-16075931D01*
X9961477Y-16075931D02*
X9971001Y-16066408D01*
X9971001Y-16066408D02*
X9990048Y-16056884D01*
X10247191Y-16256884D02*
X10132906Y-16256884D01*
X10190048Y-16256884D02*
X10190048Y-16056884D01*
X10190048Y-16056884D02*
X10171001Y-16085455D01*
X10171001Y-16085455D02*
X10151953Y-16104503D01*
X10151953Y-16104503D02*
X10132906Y-16114027D01*
X10342429Y-16256884D02*
X10380525Y-16256884D01*
X10380525Y-16256884D02*
X10399572Y-16247360D01*
X10399572Y-16247360D02*
X10409096Y-16237836D01*
X10409096Y-16237836D02*
X10428144Y-16209265D01*
X10428144Y-16209265D02*
X10437668Y-16171169D01*
X10437668Y-16171169D02*
X10437668Y-16094979D01*
X10437668Y-16094979D02*
X10428144Y-16075931D01*
X10428144Y-16075931D02*
X10418620Y-16066408D01*
X10418620Y-16066408D02*
X10399572Y-16056884D01*
X10399572Y-16056884D02*
X10361477Y-16056884D01*
X10361477Y-16056884D02*
X10342429Y-16066408D01*
X10342429Y-16066408D02*
X10332906Y-16075931D01*
X10332906Y-16075931D02*
X10323382Y-16094979D01*
X10323382Y-16094979D02*
X10323382Y-16142598D01*
X10323382Y-16142598D02*
X10332906Y-16161646D01*
X10332906Y-16161646D02*
X10342429Y-16171169D01*
X10342429Y-16171169D02*
X10361477Y-16180693D01*
X10361477Y-16180693D02*
X10399572Y-16180693D01*
X10399572Y-16180693D02*
X10418620Y-16171169D01*
X10418620Y-16171169D02*
X10428144Y-16161646D01*
X10428144Y-16161646D02*
X10437668Y-16142598D01*
X10504334Y-16056884D02*
X10637668Y-16056884D01*
X10637668Y-16056884D02*
X10551953Y-16256884D01*
X10704334Y-16056884D02*
X10704334Y-16094979D01*
X10780525Y-16056884D02*
X10780525Y-16094979D01*
X11075763Y-16333074D02*
X11066239Y-16323550D01*
X11066239Y-16323550D02*
X11047191Y-16294979D01*
X11047191Y-16294979D02*
X11037668Y-16275931D01*
X11037668Y-16275931D02*
X11028144Y-16247360D01*
X11028144Y-16247360D02*
X11018620Y-16199741D01*
X11018620Y-16199741D02*
X11018620Y-16161646D01*
X11018620Y-16161646D02*
X11028144Y-16114027D01*
X11028144Y-16114027D02*
X11037668Y-16085455D01*
X11037668Y-16085455D02*
X11047191Y-16066408D01*
X11047191Y-16066408D02*
X11066239Y-16037836D01*
X11066239Y-16037836D02*
X11075763Y-16028312D01*
X11132906Y-16056884D02*
X11256715Y-16056884D01*
X11256715Y-16056884D02*
X11190048Y-16133074D01*
X11190048Y-16133074D02*
X11218620Y-16133074D01*
X11218620Y-16133074D02*
X11237668Y-16142598D01*
X11237668Y-16142598D02*
X11247191Y-16152122D01*
X11247191Y-16152122D02*
X11256715Y-16171169D01*
X11256715Y-16171169D02*
X11256715Y-16218788D01*
X11256715Y-16218788D02*
X11247191Y-16237836D01*
X11247191Y-16237836D02*
X11237668Y-16247360D01*
X11237668Y-16247360D02*
X11218620Y-16256884D01*
X11218620Y-16256884D02*
X11161477Y-16256884D01*
X11161477Y-16256884D02*
X11142430Y-16247360D01*
X11142430Y-16247360D02*
X11132906Y-16237836D01*
X11332906Y-16075931D02*
X11342429Y-16066408D01*
X11342429Y-16066408D02*
X11361477Y-16056884D01*
X11361477Y-16056884D02*
X11409096Y-16056884D01*
X11409096Y-16056884D02*
X11428144Y-16066408D01*
X11428144Y-16066408D02*
X11437668Y-16075931D01*
X11437668Y-16075931D02*
X11447191Y-16094979D01*
X11447191Y-16094979D02*
X11447191Y-16114027D01*
X11447191Y-16114027D02*
X11437668Y-16142598D01*
X11437668Y-16142598D02*
X11323382Y-16256884D01*
X11323382Y-16256884D02*
X11447191Y-16256884D01*
X11685287Y-16256884D02*
X11685287Y-16056884D01*
X11771001Y-16256884D02*
X11771001Y-16152122D01*
X11771001Y-16152122D02*
X11761477Y-16133074D01*
X11761477Y-16133074D02*
X11742430Y-16123550D01*
X11742430Y-16123550D02*
X11713858Y-16123550D01*
X11713858Y-16123550D02*
X11694810Y-16133074D01*
X11694810Y-16133074D02*
X11685287Y-16142598D01*
X11894810Y-16256884D02*
X11875763Y-16247360D01*
X11875763Y-16247360D02*
X11866239Y-16237836D01*
X11866239Y-16237836D02*
X11856715Y-16218788D01*
X11856715Y-16218788D02*
X11856715Y-16161646D01*
X11856715Y-16161646D02*
X11866239Y-16142598D01*
X11866239Y-16142598D02*
X11875763Y-16133074D01*
X11875763Y-16133074D02*
X11894810Y-16123550D01*
X11894810Y-16123550D02*
X11923382Y-16123550D01*
X11923382Y-16123550D02*
X11942430Y-16133074D01*
X11942430Y-16133074D02*
X11951953Y-16142598D01*
X11951953Y-16142598D02*
X11961477Y-16161646D01*
X11961477Y-16161646D02*
X11961477Y-16218788D01*
X11961477Y-16218788D02*
X11951953Y-16237836D01*
X11951953Y-16237836D02*
X11942430Y-16247360D01*
X11942430Y-16247360D02*
X11923382Y-16256884D01*
X11923382Y-16256884D02*
X11894810Y-16256884D01*
X12075763Y-16256884D02*
X12056715Y-16247360D01*
X12056715Y-16247360D02*
X12047191Y-16228312D01*
X12047191Y-16228312D02*
X12047191Y-16056884D01*
X12228144Y-16247360D02*
X12209096Y-16256884D01*
X12209096Y-16256884D02*
X12171001Y-16256884D01*
X12171001Y-16256884D02*
X12151953Y-16247360D01*
X12151953Y-16247360D02*
X12142430Y-16228312D01*
X12142430Y-16228312D02*
X12142430Y-16152122D01*
X12142430Y-16152122D02*
X12151953Y-16133074D01*
X12151953Y-16133074D02*
X12171001Y-16123550D01*
X12171001Y-16123550D02*
X12209096Y-16123550D01*
X12209096Y-16123550D02*
X12228144Y-16133074D01*
X12228144Y-16133074D02*
X12237668Y-16152122D01*
X12237668Y-16152122D02*
X12237668Y-16171169D01*
X12237668Y-16171169D02*
X12142430Y-16190217D01*
X12313858Y-16247360D02*
X12332906Y-16256884D01*
X12332906Y-16256884D02*
X12371001Y-16256884D01*
X12371001Y-16256884D02*
X12390049Y-16247360D01*
X12390049Y-16247360D02*
X12399572Y-16228312D01*
X12399572Y-16228312D02*
X12399572Y-16218788D01*
X12399572Y-16218788D02*
X12390049Y-16199741D01*
X12390049Y-16199741D02*
X12371001Y-16190217D01*
X12371001Y-16190217D02*
X12342430Y-16190217D01*
X12342430Y-16190217D02*
X12323382Y-16180693D01*
X12323382Y-16180693D02*
X12313858Y-16161646D01*
X12313858Y-16161646D02*
X12313858Y-16152122D01*
X12313858Y-16152122D02*
X12323382Y-16133074D01*
X12323382Y-16133074D02*
X12342430Y-16123550D01*
X12342430Y-16123550D02*
X12371001Y-16123550D01*
X12371001Y-16123550D02*
X12390049Y-16133074D01*
X12466239Y-16333074D02*
X12475763Y-16323550D01*
X12475763Y-16323550D02*
X12494811Y-16294979D01*
X12494811Y-16294979D02*
X12504334Y-16275931D01*
X12504334Y-16275931D02*
X12513858Y-16247360D01*
X12513858Y-16247360D02*
X12523382Y-16199741D01*
X12523382Y-16199741D02*
X12523382Y-16161646D01*
X12523382Y-16161646D02*
X12513858Y-16114027D01*
X12513858Y-16114027D02*
X12504334Y-16085455D01*
X12504334Y-16085455D02*
X12494811Y-16066408D01*
X12494811Y-16066408D02*
X12475763Y-16037836D01*
X12475763Y-16037836D02*
X12466239Y-16028312D01*
D10*
X7470700Y-16459400D02*
X7500700Y-16429400D01*
X7470700Y-16399400D01*
X7440700Y-16429400D01*
X7470700Y-16459400D01*
D11*
X7799572Y-16320884D02*
X7818620Y-16320884D01*
X7818620Y-16320884D02*
X7837667Y-16330408D01*
X7837667Y-16330408D02*
X7847191Y-16339931D01*
X7847191Y-16339931D02*
X7856715Y-16358979D01*
X7856715Y-16358979D02*
X7866239Y-16397074D01*
X7866239Y-16397074D02*
X7866239Y-16444693D01*
X7866239Y-16444693D02*
X7856715Y-16482788D01*
X7856715Y-16482788D02*
X7847191Y-16501836D01*
X7847191Y-16501836D02*
X7837667Y-16511360D01*
X7837667Y-16511360D02*
X7818620Y-16520884D01*
X7818620Y-16520884D02*
X7799572Y-16520884D01*
X7799572Y-16520884D02*
X7780524Y-16511360D01*
X7780524Y-16511360D02*
X7771001Y-16501836D01*
X7771001Y-16501836D02*
X7761477Y-16482788D01*
X7761477Y-16482788D02*
X7751953Y-16444693D01*
X7751953Y-16444693D02*
X7751953Y-16397074D01*
X7751953Y-16397074D02*
X7761477Y-16358979D01*
X7761477Y-16358979D02*
X7771001Y-16339931D01*
X7771001Y-16339931D02*
X7780524Y-16330408D01*
X7780524Y-16330408D02*
X7799572Y-16320884D01*
X7951953Y-16501836D02*
X7961477Y-16511360D01*
X7961477Y-16511360D02*
X7951953Y-16520884D01*
X7951953Y-16520884D02*
X7942429Y-16511360D01*
X7942429Y-16511360D02*
X7951953Y-16501836D01*
X7951953Y-16501836D02*
X7951953Y-16520884D01*
X8132905Y-16320884D02*
X8094810Y-16320884D01*
X8094810Y-16320884D02*
X8075762Y-16330408D01*
X8075762Y-16330408D02*
X8066239Y-16339931D01*
X8066239Y-16339931D02*
X8047191Y-16368503D01*
X8047191Y-16368503D02*
X8037667Y-16406598D01*
X8037667Y-16406598D02*
X8037667Y-16482788D01*
X8037667Y-16482788D02*
X8047191Y-16501836D01*
X8047191Y-16501836D02*
X8056715Y-16511360D01*
X8056715Y-16511360D02*
X8075762Y-16520884D01*
X8075762Y-16520884D02*
X8113858Y-16520884D01*
X8113858Y-16520884D02*
X8132905Y-16511360D01*
X8132905Y-16511360D02*
X8142429Y-16501836D01*
X8142429Y-16501836D02*
X8151953Y-16482788D01*
X8151953Y-16482788D02*
X8151953Y-16435169D01*
X8151953Y-16435169D02*
X8142429Y-16416122D01*
X8142429Y-16416122D02*
X8132905Y-16406598D01*
X8132905Y-16406598D02*
X8113858Y-16397074D01*
X8113858Y-16397074D02*
X8075762Y-16397074D01*
X8075762Y-16397074D02*
X8056715Y-16406598D01*
X8056715Y-16406598D02*
X8047191Y-16416122D01*
X8047191Y-16416122D02*
X8037667Y-16435169D01*
X8275762Y-16320884D02*
X8294810Y-16320884D01*
X8294810Y-16320884D02*
X8313858Y-16330408D01*
X8313858Y-16330408D02*
X8323382Y-16339931D01*
X8323382Y-16339931D02*
X8332905Y-16358979D01*
X8332905Y-16358979D02*
X8342429Y-16397074D01*
X8342429Y-16397074D02*
X8342429Y-16444693D01*
X8342429Y-16444693D02*
X8332905Y-16482788D01*
X8332905Y-16482788D02*
X8323382Y-16501836D01*
X8323382Y-16501836D02*
X8313858Y-16511360D01*
X8313858Y-16511360D02*
X8294810Y-16520884D01*
X8294810Y-16520884D02*
X8275762Y-16520884D01*
X8275762Y-16520884D02*
X8256715Y-16511360D01*
X8256715Y-16511360D02*
X8247191Y-16501836D01*
X8247191Y-16501836D02*
X8237667Y-16482788D01*
X8237667Y-16482788D02*
X8228143Y-16444693D01*
X8228143Y-16444693D02*
X8228143Y-16397074D01*
X8228143Y-16397074D02*
X8237667Y-16358979D01*
X8237667Y-16358979D02*
X8247191Y-16339931D01*
X8247191Y-16339931D02*
X8256715Y-16330408D01*
X8256715Y-16330408D02*
X8275762Y-16320884D01*
X8466239Y-16320884D02*
X8485286Y-16320884D01*
X8485286Y-16320884D02*
X8504334Y-16330408D01*
X8504334Y-16330408D02*
X8513858Y-16339931D01*
X8513858Y-16339931D02*
X8523382Y-16358979D01*
X8523382Y-16358979D02*
X8532905Y-16397074D01*
X8532905Y-16397074D02*
X8532905Y-16444693D01*
X8532905Y-16444693D02*
X8523382Y-16482788D01*
X8523382Y-16482788D02*
X8513858Y-16501836D01*
X8513858Y-16501836D02*
X8504334Y-16511360D01*
X8504334Y-16511360D02*
X8485286Y-16520884D01*
X8485286Y-16520884D02*
X8466239Y-16520884D01*
X8466239Y-16520884D02*
X8447191Y-16511360D01*
X8447191Y-16511360D02*
X8437667Y-16501836D01*
X8437667Y-16501836D02*
X8428144Y-16482788D01*
X8428144Y-16482788D02*
X8418620Y-16444693D01*
X8418620Y-16444693D02*
X8418620Y-16397074D01*
X8418620Y-16397074D02*
X8428144Y-16358979D01*
X8428144Y-16358979D02*
X8437667Y-16339931D01*
X8437667Y-16339931D02*
X8447191Y-16330408D01*
X8447191Y-16330408D02*
X8466239Y-16320884D01*
X8618620Y-16520884D02*
X8618620Y-16387550D01*
X8618620Y-16406598D02*
X8628144Y-16397074D01*
X8628144Y-16397074D02*
X8647191Y-16387550D01*
X8647191Y-16387550D02*
X8675763Y-16387550D01*
X8675763Y-16387550D02*
X8694810Y-16397074D01*
X8694810Y-16397074D02*
X8704334Y-16416122D01*
X8704334Y-16416122D02*
X8704334Y-16520884D01*
X8704334Y-16416122D02*
X8713858Y-16397074D01*
X8713858Y-16397074D02*
X8732905Y-16387550D01*
X8732905Y-16387550D02*
X8761477Y-16387550D01*
X8761477Y-16387550D02*
X8780525Y-16397074D01*
X8780525Y-16397074D02*
X8790048Y-16416122D01*
X8790048Y-16416122D02*
X8790048Y-16520884D01*
X8885286Y-16520884D02*
X8885286Y-16387550D01*
X8885286Y-16406598D02*
X8894810Y-16397074D01*
X8894810Y-16397074D02*
X8913858Y-16387550D01*
X8913858Y-16387550D02*
X8942429Y-16387550D01*
X8942429Y-16387550D02*
X8961477Y-16397074D01*
X8961477Y-16397074D02*
X8971001Y-16416122D01*
X8971001Y-16416122D02*
X8971001Y-16520884D01*
X8971001Y-16416122D02*
X8980525Y-16397074D01*
X8980525Y-16397074D02*
X8999572Y-16387550D01*
X8999572Y-16387550D02*
X9028144Y-16387550D01*
X9028144Y-16387550D02*
X9047191Y-16397074D01*
X9047191Y-16397074D02*
X9056715Y-16416122D01*
X9056715Y-16416122D02*
X9056715Y-16520884D01*
X9447191Y-16311360D02*
X9275763Y-16568503D01*
X9704334Y-16320884D02*
X9723382Y-16320884D01*
X9723382Y-16320884D02*
X9742429Y-16330408D01*
X9742429Y-16330408D02*
X9751953Y-16339931D01*
X9751953Y-16339931D02*
X9761477Y-16358979D01*
X9761477Y-16358979D02*
X9771001Y-16397074D01*
X9771001Y-16397074D02*
X9771001Y-16444693D01*
X9771001Y-16444693D02*
X9761477Y-16482788D01*
X9761477Y-16482788D02*
X9751953Y-16501836D01*
X9751953Y-16501836D02*
X9742429Y-16511360D01*
X9742429Y-16511360D02*
X9723382Y-16520884D01*
X9723382Y-16520884D02*
X9704334Y-16520884D01*
X9704334Y-16520884D02*
X9685287Y-16511360D01*
X9685287Y-16511360D02*
X9675763Y-16501836D01*
X9675763Y-16501836D02*
X9666239Y-16482788D01*
X9666239Y-16482788D02*
X9656715Y-16444693D01*
X9656715Y-16444693D02*
X9656715Y-16397074D01*
X9656715Y-16397074D02*
X9666239Y-16358979D01*
X9666239Y-16358979D02*
X9675763Y-16339931D01*
X9675763Y-16339931D02*
X9685287Y-16330408D01*
X9685287Y-16330408D02*
X9704334Y-16320884D01*
X9856715Y-16501836D02*
X9866239Y-16511360D01*
X9866239Y-16511360D02*
X9856715Y-16520884D01*
X9856715Y-16520884D02*
X9847191Y-16511360D01*
X9847191Y-16511360D02*
X9856715Y-16501836D01*
X9856715Y-16501836D02*
X9856715Y-16520884D01*
X9990048Y-16320884D02*
X10009096Y-16320884D01*
X10009096Y-16320884D02*
X10028144Y-16330408D01*
X10028144Y-16330408D02*
X10037668Y-16339931D01*
X10037668Y-16339931D02*
X10047191Y-16358979D01*
X10047191Y-16358979D02*
X10056715Y-16397074D01*
X10056715Y-16397074D02*
X10056715Y-16444693D01*
X10056715Y-16444693D02*
X10047191Y-16482788D01*
X10047191Y-16482788D02*
X10037668Y-16501836D01*
X10037668Y-16501836D02*
X10028144Y-16511360D01*
X10028144Y-16511360D02*
X10009096Y-16520884D01*
X10009096Y-16520884D02*
X9990048Y-16520884D01*
X9990048Y-16520884D02*
X9971001Y-16511360D01*
X9971001Y-16511360D02*
X9961477Y-16501836D01*
X9961477Y-16501836D02*
X9951953Y-16482788D01*
X9951953Y-16482788D02*
X9942429Y-16444693D01*
X9942429Y-16444693D02*
X9942429Y-16397074D01*
X9942429Y-16397074D02*
X9951953Y-16358979D01*
X9951953Y-16358979D02*
X9961477Y-16339931D01*
X9961477Y-16339931D02*
X9971001Y-16330408D01*
X9971001Y-16330408D02*
X9990048Y-16320884D01*
X10132906Y-16339931D02*
X10142429Y-16330408D01*
X10142429Y-16330408D02*
X10161477Y-16320884D01*
X10161477Y-16320884D02*
X10209096Y-16320884D01*
X10209096Y-16320884D02*
X10228144Y-16330408D01*
X10228144Y-16330408D02*
X10237668Y-16339931D01*
X10237668Y-16339931D02*
X10247191Y-16358979D01*
X10247191Y-16358979D02*
X10247191Y-16378027D01*
X10247191Y-16378027D02*
X10237668Y-16406598D01*
X10237668Y-16406598D02*
X10123382Y-16520884D01*
X10123382Y-16520884D02*
X10247191Y-16520884D01*
X10313858Y-16320884D02*
X10437668Y-16320884D01*
X10437668Y-16320884D02*
X10371001Y-16397074D01*
X10371001Y-16397074D02*
X10399572Y-16397074D01*
X10399572Y-16397074D02*
X10418620Y-16406598D01*
X10418620Y-16406598D02*
X10428144Y-16416122D01*
X10428144Y-16416122D02*
X10437668Y-16435169D01*
X10437668Y-16435169D02*
X10437668Y-16482788D01*
X10437668Y-16482788D02*
X10428144Y-16501836D01*
X10428144Y-16501836D02*
X10418620Y-16511360D01*
X10418620Y-16511360D02*
X10399572Y-16520884D01*
X10399572Y-16520884D02*
X10342429Y-16520884D01*
X10342429Y-16520884D02*
X10323382Y-16511360D01*
X10323382Y-16511360D02*
X10313858Y-16501836D01*
X10609096Y-16320884D02*
X10571001Y-16320884D01*
X10571001Y-16320884D02*
X10551953Y-16330408D01*
X10551953Y-16330408D02*
X10542429Y-16339931D01*
X10542429Y-16339931D02*
X10523382Y-16368503D01*
X10523382Y-16368503D02*
X10513858Y-16406598D01*
X10513858Y-16406598D02*
X10513858Y-16482788D01*
X10513858Y-16482788D02*
X10523382Y-16501836D01*
X10523382Y-16501836D02*
X10532906Y-16511360D01*
X10532906Y-16511360D02*
X10551953Y-16520884D01*
X10551953Y-16520884D02*
X10590049Y-16520884D01*
X10590049Y-16520884D02*
X10609096Y-16511360D01*
X10609096Y-16511360D02*
X10618620Y-16501836D01*
X10618620Y-16501836D02*
X10628144Y-16482788D01*
X10628144Y-16482788D02*
X10628144Y-16435169D01*
X10628144Y-16435169D02*
X10618620Y-16416122D01*
X10618620Y-16416122D02*
X10609096Y-16406598D01*
X10609096Y-16406598D02*
X10590049Y-16397074D01*
X10590049Y-16397074D02*
X10551953Y-16397074D01*
X10551953Y-16397074D02*
X10532906Y-16406598D01*
X10532906Y-16406598D02*
X10523382Y-16416122D01*
X10523382Y-16416122D02*
X10513858Y-16435169D01*
X10704334Y-16320884D02*
X10704334Y-16358979D01*
X10780525Y-16320884D02*
X10780525Y-16358979D01*
X11075763Y-16597074D02*
X11066239Y-16587550D01*
X11066239Y-16587550D02*
X11047191Y-16558979D01*
X11047191Y-16558979D02*
X11037668Y-16539931D01*
X11037668Y-16539931D02*
X11028144Y-16511360D01*
X11028144Y-16511360D02*
X11018620Y-16463741D01*
X11018620Y-16463741D02*
X11018620Y-16425646D01*
X11018620Y-16425646D02*
X11028144Y-16378027D01*
X11028144Y-16378027D02*
X11037668Y-16349455D01*
X11037668Y-16349455D02*
X11047191Y-16330408D01*
X11047191Y-16330408D02*
X11066239Y-16301836D01*
X11066239Y-16301836D02*
X11075763Y-16292312D01*
X11256715Y-16520884D02*
X11142430Y-16520884D01*
X11199572Y-16520884D02*
X11199572Y-16320884D01*
X11199572Y-16320884D02*
X11180525Y-16349455D01*
X11180525Y-16349455D02*
X11161477Y-16368503D01*
X11161477Y-16368503D02*
X11142430Y-16378027D01*
X11428144Y-16320884D02*
X11390048Y-16320884D01*
X11390048Y-16320884D02*
X11371001Y-16330408D01*
X11371001Y-16330408D02*
X11361477Y-16339931D01*
X11361477Y-16339931D02*
X11342429Y-16368503D01*
X11342429Y-16368503D02*
X11332906Y-16406598D01*
X11332906Y-16406598D02*
X11332906Y-16482788D01*
X11332906Y-16482788D02*
X11342429Y-16501836D01*
X11342429Y-16501836D02*
X11351953Y-16511360D01*
X11351953Y-16511360D02*
X11371001Y-16520884D01*
X11371001Y-16520884D02*
X11409096Y-16520884D01*
X11409096Y-16520884D02*
X11428144Y-16511360D01*
X11428144Y-16511360D02*
X11437668Y-16501836D01*
X11437668Y-16501836D02*
X11447191Y-16482788D01*
X11447191Y-16482788D02*
X11447191Y-16435169D01*
X11447191Y-16435169D02*
X11437668Y-16416122D01*
X11437668Y-16416122D02*
X11428144Y-16406598D01*
X11428144Y-16406598D02*
X11409096Y-16397074D01*
X11409096Y-16397074D02*
X11371001Y-16397074D01*
X11371001Y-16397074D02*
X11351953Y-16406598D01*
X11351953Y-16406598D02*
X11342429Y-16416122D01*
X11342429Y-16416122D02*
X11332906Y-16435169D01*
X11685287Y-16520884D02*
X11685287Y-16320884D01*
X11771001Y-16520884D02*
X11771001Y-16416122D01*
X11771001Y-16416122D02*
X11761477Y-16397074D01*
X11761477Y-16397074D02*
X11742430Y-16387550D01*
X11742430Y-16387550D02*
X11713858Y-16387550D01*
X11713858Y-16387550D02*
X11694810Y-16397074D01*
X11694810Y-16397074D02*
X11685287Y-16406598D01*
X11894810Y-16520884D02*
X11875763Y-16511360D01*
X11875763Y-16511360D02*
X11866239Y-16501836D01*
X11866239Y-16501836D02*
X11856715Y-16482788D01*
X11856715Y-16482788D02*
X11856715Y-16425646D01*
X11856715Y-16425646D02*
X11866239Y-16406598D01*
X11866239Y-16406598D02*
X11875763Y-16397074D01*
X11875763Y-16397074D02*
X11894810Y-16387550D01*
X11894810Y-16387550D02*
X11923382Y-16387550D01*
X11923382Y-16387550D02*
X11942430Y-16397074D01*
X11942430Y-16397074D02*
X11951953Y-16406598D01*
X11951953Y-16406598D02*
X11961477Y-16425646D01*
X11961477Y-16425646D02*
X11961477Y-16482788D01*
X11961477Y-16482788D02*
X11951953Y-16501836D01*
X11951953Y-16501836D02*
X11942430Y-16511360D01*
X11942430Y-16511360D02*
X11923382Y-16520884D01*
X11923382Y-16520884D02*
X11894810Y-16520884D01*
X12075763Y-16520884D02*
X12056715Y-16511360D01*
X12056715Y-16511360D02*
X12047191Y-16492312D01*
X12047191Y-16492312D02*
X12047191Y-16320884D01*
X12228144Y-16511360D02*
X12209096Y-16520884D01*
X12209096Y-16520884D02*
X12171001Y-16520884D01*
X12171001Y-16520884D02*
X12151953Y-16511360D01*
X12151953Y-16511360D02*
X12142430Y-16492312D01*
X12142430Y-16492312D02*
X12142430Y-16416122D01*
X12142430Y-16416122D02*
X12151953Y-16397074D01*
X12151953Y-16397074D02*
X12171001Y-16387550D01*
X12171001Y-16387550D02*
X12209096Y-16387550D01*
X12209096Y-16387550D02*
X12228144Y-16397074D01*
X12228144Y-16397074D02*
X12237668Y-16416122D01*
X12237668Y-16416122D02*
X12237668Y-16435169D01*
X12237668Y-16435169D02*
X12142430Y-16454217D01*
X12313858Y-16511360D02*
X12332906Y-16520884D01*
X12332906Y-16520884D02*
X12371001Y-16520884D01*
X12371001Y-16520884D02*
X12390049Y-16511360D01*
X12390049Y-16511360D02*
X12399572Y-16492312D01*
X12399572Y-16492312D02*
X12399572Y-16482788D01*
X12399572Y-16482788D02*
X12390049Y-16463741D01*
X12390049Y-16463741D02*
X12371001Y-16454217D01*
X12371001Y-16454217D02*
X12342430Y-16454217D01*
X12342430Y-16454217D02*
X12323382Y-16444693D01*
X12323382Y-16444693D02*
X12313858Y-16425646D01*
X12313858Y-16425646D02*
X12313858Y-16416122D01*
X12313858Y-16416122D02*
X12323382Y-16397074D01*
X12323382Y-16397074D02*
X12342430Y-16387550D01*
X12342430Y-16387550D02*
X12371001Y-16387550D01*
X12371001Y-16387550D02*
X12390049Y-16397074D01*
X12466239Y-16597074D02*
X12475763Y-16587550D01*
X12475763Y-16587550D02*
X12494811Y-16558979D01*
X12494811Y-16558979D02*
X12504334Y-16539931D01*
X12504334Y-16539931D02*
X12513858Y-16511360D01*
X12513858Y-16511360D02*
X12523382Y-16463741D01*
X12523382Y-16463741D02*
X12523382Y-16425646D01*
X12523382Y-16425646D02*
X12513858Y-16378027D01*
X12513858Y-16378027D02*
X12504334Y-16349455D01*
X12504334Y-16349455D02*
X12494811Y-16330408D01*
X12494811Y-16330408D02*
X12475763Y-16301836D01*
X12475763Y-16301836D02*
X12466239Y-16292312D01*
D10*
X7400700Y-16643400D02*
X7500700Y-16743400D01*
X7500700Y-16643400D02*
X7400700Y-16743400D01*
X7500700Y-16693400D02*
G75*
G02*
X7400700Y-16693400I-50000J0D01*
G01*
X7400700Y-16693400D02*
G75*
G02*
X7500700Y-16693400I50000J0D01*
G01*
D11*
X7866239Y-16784884D02*
X7751953Y-16784884D01*
X7809096Y-16784884D02*
X7809096Y-16584884D01*
X7809096Y-16584884D02*
X7790048Y-16613455D01*
X7790048Y-16613455D02*
X7771001Y-16632503D01*
X7771001Y-16632503D02*
X7751953Y-16642027D01*
X7951953Y-16765836D02*
X7961477Y-16775360D01*
X7961477Y-16775360D02*
X7951953Y-16784884D01*
X7951953Y-16784884D02*
X7942429Y-16775360D01*
X7942429Y-16775360D02*
X7951953Y-16765836D01*
X7951953Y-16765836D02*
X7951953Y-16784884D01*
X8085286Y-16584884D02*
X8104334Y-16584884D01*
X8104334Y-16584884D02*
X8123382Y-16594408D01*
X8123382Y-16594408D02*
X8132905Y-16603931D01*
X8132905Y-16603931D02*
X8142429Y-16622979D01*
X8142429Y-16622979D02*
X8151953Y-16661074D01*
X8151953Y-16661074D02*
X8151953Y-16708693D01*
X8151953Y-16708693D02*
X8142429Y-16746788D01*
X8142429Y-16746788D02*
X8132905Y-16765836D01*
X8132905Y-16765836D02*
X8123382Y-16775360D01*
X8123382Y-16775360D02*
X8104334Y-16784884D01*
X8104334Y-16784884D02*
X8085286Y-16784884D01*
X8085286Y-16784884D02*
X8066239Y-16775360D01*
X8066239Y-16775360D02*
X8056715Y-16765836D01*
X8056715Y-16765836D02*
X8047191Y-16746788D01*
X8047191Y-16746788D02*
X8037667Y-16708693D01*
X8037667Y-16708693D02*
X8037667Y-16661074D01*
X8037667Y-16661074D02*
X8047191Y-16622979D01*
X8047191Y-16622979D02*
X8056715Y-16603931D01*
X8056715Y-16603931D02*
X8066239Y-16594408D01*
X8066239Y-16594408D02*
X8085286Y-16584884D01*
X8275762Y-16584884D02*
X8294810Y-16584884D01*
X8294810Y-16584884D02*
X8313858Y-16594408D01*
X8313858Y-16594408D02*
X8323382Y-16603931D01*
X8323382Y-16603931D02*
X8332905Y-16622979D01*
X8332905Y-16622979D02*
X8342429Y-16661074D01*
X8342429Y-16661074D02*
X8342429Y-16708693D01*
X8342429Y-16708693D02*
X8332905Y-16746788D01*
X8332905Y-16746788D02*
X8323382Y-16765836D01*
X8323382Y-16765836D02*
X8313858Y-16775360D01*
X8313858Y-16775360D02*
X8294810Y-16784884D01*
X8294810Y-16784884D02*
X8275762Y-16784884D01*
X8275762Y-16784884D02*
X8256715Y-16775360D01*
X8256715Y-16775360D02*
X8247191Y-16765836D01*
X8247191Y-16765836D02*
X8237667Y-16746788D01*
X8237667Y-16746788D02*
X8228143Y-16708693D01*
X8228143Y-16708693D02*
X8228143Y-16661074D01*
X8228143Y-16661074D02*
X8237667Y-16622979D01*
X8237667Y-16622979D02*
X8247191Y-16603931D01*
X8247191Y-16603931D02*
X8256715Y-16594408D01*
X8256715Y-16594408D02*
X8275762Y-16584884D01*
X8466239Y-16584884D02*
X8485286Y-16584884D01*
X8485286Y-16584884D02*
X8504334Y-16594408D01*
X8504334Y-16594408D02*
X8513858Y-16603931D01*
X8513858Y-16603931D02*
X8523382Y-16622979D01*
X8523382Y-16622979D02*
X8532905Y-16661074D01*
X8532905Y-16661074D02*
X8532905Y-16708693D01*
X8532905Y-16708693D02*
X8523382Y-16746788D01*
X8523382Y-16746788D02*
X8513858Y-16765836D01*
X8513858Y-16765836D02*
X8504334Y-16775360D01*
X8504334Y-16775360D02*
X8485286Y-16784884D01*
X8485286Y-16784884D02*
X8466239Y-16784884D01*
X8466239Y-16784884D02*
X8447191Y-16775360D01*
X8447191Y-16775360D02*
X8437667Y-16765836D01*
X8437667Y-16765836D02*
X8428144Y-16746788D01*
X8428144Y-16746788D02*
X8418620Y-16708693D01*
X8418620Y-16708693D02*
X8418620Y-16661074D01*
X8418620Y-16661074D02*
X8428144Y-16622979D01*
X8428144Y-16622979D02*
X8437667Y-16603931D01*
X8437667Y-16603931D02*
X8447191Y-16594408D01*
X8447191Y-16594408D02*
X8466239Y-16584884D01*
X8618620Y-16784884D02*
X8618620Y-16651550D01*
X8618620Y-16670598D02*
X8628144Y-16661074D01*
X8628144Y-16661074D02*
X8647191Y-16651550D01*
X8647191Y-16651550D02*
X8675763Y-16651550D01*
X8675763Y-16651550D02*
X8694810Y-16661074D01*
X8694810Y-16661074D02*
X8704334Y-16680122D01*
X8704334Y-16680122D02*
X8704334Y-16784884D01*
X8704334Y-16680122D02*
X8713858Y-16661074D01*
X8713858Y-16661074D02*
X8732905Y-16651550D01*
X8732905Y-16651550D02*
X8761477Y-16651550D01*
X8761477Y-16651550D02*
X8780525Y-16661074D01*
X8780525Y-16661074D02*
X8790048Y-16680122D01*
X8790048Y-16680122D02*
X8790048Y-16784884D01*
X8885286Y-16784884D02*
X8885286Y-16651550D01*
X8885286Y-16670598D02*
X8894810Y-16661074D01*
X8894810Y-16661074D02*
X8913858Y-16651550D01*
X8913858Y-16651550D02*
X8942429Y-16651550D01*
X8942429Y-16651550D02*
X8961477Y-16661074D01*
X8961477Y-16661074D02*
X8971001Y-16680122D01*
X8971001Y-16680122D02*
X8971001Y-16784884D01*
X8971001Y-16680122D02*
X8980525Y-16661074D01*
X8980525Y-16661074D02*
X8999572Y-16651550D01*
X8999572Y-16651550D02*
X9028144Y-16651550D01*
X9028144Y-16651550D02*
X9047191Y-16661074D01*
X9047191Y-16661074D02*
X9056715Y-16680122D01*
X9056715Y-16680122D02*
X9056715Y-16784884D01*
X9447191Y-16575360D02*
X9275763Y-16832503D01*
X9704334Y-16584884D02*
X9723382Y-16584884D01*
X9723382Y-16584884D02*
X9742429Y-16594408D01*
X9742429Y-16594408D02*
X9751953Y-16603931D01*
X9751953Y-16603931D02*
X9761477Y-16622979D01*
X9761477Y-16622979D02*
X9771001Y-16661074D01*
X9771001Y-16661074D02*
X9771001Y-16708693D01*
X9771001Y-16708693D02*
X9761477Y-16746788D01*
X9761477Y-16746788D02*
X9751953Y-16765836D01*
X9751953Y-16765836D02*
X9742429Y-16775360D01*
X9742429Y-16775360D02*
X9723382Y-16784884D01*
X9723382Y-16784884D02*
X9704334Y-16784884D01*
X9704334Y-16784884D02*
X9685287Y-16775360D01*
X9685287Y-16775360D02*
X9675763Y-16765836D01*
X9675763Y-16765836D02*
X9666239Y-16746788D01*
X9666239Y-16746788D02*
X9656715Y-16708693D01*
X9656715Y-16708693D02*
X9656715Y-16661074D01*
X9656715Y-16661074D02*
X9666239Y-16622979D01*
X9666239Y-16622979D02*
X9675763Y-16603931D01*
X9675763Y-16603931D02*
X9685287Y-16594408D01*
X9685287Y-16594408D02*
X9704334Y-16584884D01*
X9856715Y-16765836D02*
X9866239Y-16775360D01*
X9866239Y-16775360D02*
X9856715Y-16784884D01*
X9856715Y-16784884D02*
X9847191Y-16775360D01*
X9847191Y-16775360D02*
X9856715Y-16765836D01*
X9856715Y-16765836D02*
X9856715Y-16784884D01*
X9990048Y-16584884D02*
X10009096Y-16584884D01*
X10009096Y-16584884D02*
X10028144Y-16594408D01*
X10028144Y-16594408D02*
X10037668Y-16603931D01*
X10037668Y-16603931D02*
X10047191Y-16622979D01*
X10047191Y-16622979D02*
X10056715Y-16661074D01*
X10056715Y-16661074D02*
X10056715Y-16708693D01*
X10056715Y-16708693D02*
X10047191Y-16746788D01*
X10047191Y-16746788D02*
X10037668Y-16765836D01*
X10037668Y-16765836D02*
X10028144Y-16775360D01*
X10028144Y-16775360D02*
X10009096Y-16784884D01*
X10009096Y-16784884D02*
X9990048Y-16784884D01*
X9990048Y-16784884D02*
X9971001Y-16775360D01*
X9971001Y-16775360D02*
X9961477Y-16765836D01*
X9961477Y-16765836D02*
X9951953Y-16746788D01*
X9951953Y-16746788D02*
X9942429Y-16708693D01*
X9942429Y-16708693D02*
X9942429Y-16661074D01*
X9942429Y-16661074D02*
X9951953Y-16622979D01*
X9951953Y-16622979D02*
X9961477Y-16603931D01*
X9961477Y-16603931D02*
X9971001Y-16594408D01*
X9971001Y-16594408D02*
X9990048Y-16584884D01*
X10123382Y-16584884D02*
X10247191Y-16584884D01*
X10247191Y-16584884D02*
X10180525Y-16661074D01*
X10180525Y-16661074D02*
X10209096Y-16661074D01*
X10209096Y-16661074D02*
X10228144Y-16670598D01*
X10228144Y-16670598D02*
X10237668Y-16680122D01*
X10237668Y-16680122D02*
X10247191Y-16699169D01*
X10247191Y-16699169D02*
X10247191Y-16746788D01*
X10247191Y-16746788D02*
X10237668Y-16765836D01*
X10237668Y-16765836D02*
X10228144Y-16775360D01*
X10228144Y-16775360D02*
X10209096Y-16784884D01*
X10209096Y-16784884D02*
X10151953Y-16784884D01*
X10151953Y-16784884D02*
X10132906Y-16775360D01*
X10132906Y-16775360D02*
X10123382Y-16765836D01*
X10342429Y-16784884D02*
X10380525Y-16784884D01*
X10380525Y-16784884D02*
X10399572Y-16775360D01*
X10399572Y-16775360D02*
X10409096Y-16765836D01*
X10409096Y-16765836D02*
X10428144Y-16737265D01*
X10428144Y-16737265D02*
X10437668Y-16699169D01*
X10437668Y-16699169D02*
X10437668Y-16622979D01*
X10437668Y-16622979D02*
X10428144Y-16603931D01*
X10428144Y-16603931D02*
X10418620Y-16594408D01*
X10418620Y-16594408D02*
X10399572Y-16584884D01*
X10399572Y-16584884D02*
X10361477Y-16584884D01*
X10361477Y-16584884D02*
X10342429Y-16594408D01*
X10342429Y-16594408D02*
X10332906Y-16603931D01*
X10332906Y-16603931D02*
X10323382Y-16622979D01*
X10323382Y-16622979D02*
X10323382Y-16670598D01*
X10323382Y-16670598D02*
X10332906Y-16689646D01*
X10332906Y-16689646D02*
X10342429Y-16699169D01*
X10342429Y-16699169D02*
X10361477Y-16708693D01*
X10361477Y-16708693D02*
X10399572Y-16708693D01*
X10399572Y-16708693D02*
X10418620Y-16699169D01*
X10418620Y-16699169D02*
X10428144Y-16689646D01*
X10428144Y-16689646D02*
X10437668Y-16670598D01*
X10609096Y-16651550D02*
X10609096Y-16784884D01*
X10561477Y-16575360D02*
X10513858Y-16718217D01*
X10513858Y-16718217D02*
X10637668Y-16718217D01*
X10704334Y-16584884D02*
X10704334Y-16622979D01*
X10780525Y-16584884D02*
X10780525Y-16622979D01*
X11075763Y-16861074D02*
X11066239Y-16851550D01*
X11066239Y-16851550D02*
X11047191Y-16822979D01*
X11047191Y-16822979D02*
X11037668Y-16803931D01*
X11037668Y-16803931D02*
X11028144Y-16775360D01*
X11028144Y-16775360D02*
X11018620Y-16727741D01*
X11018620Y-16727741D02*
X11018620Y-16689646D01*
X11018620Y-16689646D02*
X11028144Y-16642027D01*
X11028144Y-16642027D02*
X11037668Y-16613455D01*
X11037668Y-16613455D02*
X11047191Y-16594408D01*
X11047191Y-16594408D02*
X11066239Y-16565836D01*
X11066239Y-16565836D02*
X11075763Y-16556312D01*
X11142430Y-16603931D02*
X11151953Y-16594408D01*
X11151953Y-16594408D02*
X11171001Y-16584884D01*
X11171001Y-16584884D02*
X11218620Y-16584884D01*
X11218620Y-16584884D02*
X11237668Y-16594408D01*
X11237668Y-16594408D02*
X11247191Y-16603931D01*
X11247191Y-16603931D02*
X11256715Y-16622979D01*
X11256715Y-16622979D02*
X11256715Y-16642027D01*
X11256715Y-16642027D02*
X11247191Y-16670598D01*
X11247191Y-16670598D02*
X11132906Y-16784884D01*
X11132906Y-16784884D02*
X11256715Y-16784884D01*
X11428144Y-16651550D02*
X11428144Y-16784884D01*
X11380525Y-16575360D02*
X11332906Y-16718217D01*
X11332906Y-16718217D02*
X11456715Y-16718217D01*
X11685287Y-16784884D02*
X11685287Y-16584884D01*
X11771001Y-16784884D02*
X11771001Y-16680122D01*
X11771001Y-16680122D02*
X11761477Y-16661074D01*
X11761477Y-16661074D02*
X11742430Y-16651550D01*
X11742430Y-16651550D02*
X11713858Y-16651550D01*
X11713858Y-16651550D02*
X11694810Y-16661074D01*
X11694810Y-16661074D02*
X11685287Y-16670598D01*
X11894810Y-16784884D02*
X11875763Y-16775360D01*
X11875763Y-16775360D02*
X11866239Y-16765836D01*
X11866239Y-16765836D02*
X11856715Y-16746788D01*
X11856715Y-16746788D02*
X11856715Y-16689646D01*
X11856715Y-16689646D02*
X11866239Y-16670598D01*
X11866239Y-16670598D02*
X11875763Y-16661074D01*
X11875763Y-16661074D02*
X11894810Y-16651550D01*
X11894810Y-16651550D02*
X11923382Y-16651550D01*
X11923382Y-16651550D02*
X11942430Y-16661074D01*
X11942430Y-16661074D02*
X11951953Y-16670598D01*
X11951953Y-16670598D02*
X11961477Y-16689646D01*
X11961477Y-16689646D02*
X11961477Y-16746788D01*
X11961477Y-16746788D02*
X11951953Y-16765836D01*
X11951953Y-16765836D02*
X11942430Y-16775360D01*
X11942430Y-16775360D02*
X11923382Y-16784884D01*
X11923382Y-16784884D02*
X11894810Y-16784884D01*
X12075763Y-16784884D02*
X12056715Y-16775360D01*
X12056715Y-16775360D02*
X12047191Y-16756312D01*
X12047191Y-16756312D02*
X12047191Y-16584884D01*
X12228144Y-16775360D02*
X12209096Y-16784884D01*
X12209096Y-16784884D02*
X12171001Y-16784884D01*
X12171001Y-16784884D02*
X12151953Y-16775360D01*
X12151953Y-16775360D02*
X12142430Y-16756312D01*
X12142430Y-16756312D02*
X12142430Y-16680122D01*
X12142430Y-16680122D02*
X12151953Y-16661074D01*
X12151953Y-16661074D02*
X12171001Y-16651550D01*
X12171001Y-16651550D02*
X12209096Y-16651550D01*
X12209096Y-16651550D02*
X12228144Y-16661074D01*
X12228144Y-16661074D02*
X12237668Y-16680122D01*
X12237668Y-16680122D02*
X12237668Y-16699169D01*
X12237668Y-16699169D02*
X12142430Y-16718217D01*
X12313858Y-16775360D02*
X12332906Y-16784884D01*
X12332906Y-16784884D02*
X12371001Y-16784884D01*
X12371001Y-16784884D02*
X12390049Y-16775360D01*
X12390049Y-16775360D02*
X12399572Y-16756312D01*
X12399572Y-16756312D02*
X12399572Y-16746788D01*
X12399572Y-16746788D02*
X12390049Y-16727741D01*
X12390049Y-16727741D02*
X12371001Y-16718217D01*
X12371001Y-16718217D02*
X12342430Y-16718217D01*
X12342430Y-16718217D02*
X12323382Y-16708693D01*
X12323382Y-16708693D02*
X12313858Y-16689646D01*
X12313858Y-16689646D02*
X12313858Y-16680122D01*
X12313858Y-16680122D02*
X12323382Y-16661074D01*
X12323382Y-16661074D02*
X12342430Y-16651550D01*
X12342430Y-16651550D02*
X12371001Y-16651550D01*
X12371001Y-16651550D02*
X12390049Y-16661074D01*
X12466239Y-16861074D02*
X12475763Y-16851550D01*
X12475763Y-16851550D02*
X12494811Y-16822979D01*
X12494811Y-16822979D02*
X12504334Y-16803931D01*
X12504334Y-16803931D02*
X12513858Y-16775360D01*
X12513858Y-16775360D02*
X12523382Y-16727741D01*
X12523382Y-16727741D02*
X12523382Y-16689646D01*
X12523382Y-16689646D02*
X12513858Y-16642027D01*
X12513858Y-16642027D02*
X12504334Y-16613455D01*
X12504334Y-16613455D02*
X12494811Y-16594408D01*
X12494811Y-16594408D02*
X12475763Y-16565836D01*
X12475763Y-16565836D02*
X12466239Y-16556312D01*
D12*
X7394020Y-16904060D02*
X7500700Y-17010740D01*
X7500700Y-16904060D02*
X7394020Y-17010740D01*
X7447360Y-16904060D02*
X7447360Y-17010740D01*
X7394020Y-16957400D02*
X7500700Y-16957400D01*
D11*
X7866239Y-17048884D02*
X7751953Y-17048884D01*
X7809096Y-17048884D02*
X7809096Y-16848884D01*
X7809096Y-16848884D02*
X7790048Y-16877455D01*
X7790048Y-16877455D02*
X7771001Y-16896503D01*
X7771001Y-16896503D02*
X7751953Y-16906027D01*
X7951953Y-17029836D02*
X7961477Y-17039360D01*
X7961477Y-17039360D02*
X7951953Y-17048884D01*
X7951953Y-17048884D02*
X7942429Y-17039360D01*
X7942429Y-17039360D02*
X7951953Y-17029836D01*
X7951953Y-17029836D02*
X7951953Y-17048884D01*
X8085286Y-16848884D02*
X8104334Y-16848884D01*
X8104334Y-16848884D02*
X8123382Y-16858408D01*
X8123382Y-16858408D02*
X8132905Y-16867931D01*
X8132905Y-16867931D02*
X8142429Y-16886979D01*
X8142429Y-16886979D02*
X8151953Y-16925074D01*
X8151953Y-16925074D02*
X8151953Y-16972693D01*
X8151953Y-16972693D02*
X8142429Y-17010789D01*
X8142429Y-17010789D02*
X8132905Y-17029836D01*
X8132905Y-17029836D02*
X8123382Y-17039360D01*
X8123382Y-17039360D02*
X8104334Y-17048884D01*
X8104334Y-17048884D02*
X8085286Y-17048884D01*
X8085286Y-17048884D02*
X8066239Y-17039360D01*
X8066239Y-17039360D02*
X8056715Y-17029836D01*
X8056715Y-17029836D02*
X8047191Y-17010789D01*
X8047191Y-17010789D02*
X8037667Y-16972693D01*
X8037667Y-16972693D02*
X8037667Y-16925074D01*
X8037667Y-16925074D02*
X8047191Y-16886979D01*
X8047191Y-16886979D02*
X8056715Y-16867931D01*
X8056715Y-16867931D02*
X8066239Y-16858408D01*
X8066239Y-16858408D02*
X8085286Y-16848884D01*
X8323382Y-16848884D02*
X8285286Y-16848884D01*
X8285286Y-16848884D02*
X8266239Y-16858408D01*
X8266239Y-16858408D02*
X8256715Y-16867931D01*
X8256715Y-16867931D02*
X8237667Y-16896503D01*
X8237667Y-16896503D02*
X8228143Y-16934598D01*
X8228143Y-16934598D02*
X8228143Y-17010789D01*
X8228143Y-17010789D02*
X8237667Y-17029836D01*
X8237667Y-17029836D02*
X8247191Y-17039360D01*
X8247191Y-17039360D02*
X8266239Y-17048884D01*
X8266239Y-17048884D02*
X8304334Y-17048884D01*
X8304334Y-17048884D02*
X8323382Y-17039360D01*
X8323382Y-17039360D02*
X8332905Y-17029836D01*
X8332905Y-17029836D02*
X8342429Y-17010789D01*
X8342429Y-17010789D02*
X8342429Y-16963170D01*
X8342429Y-16963170D02*
X8332905Y-16944122D01*
X8332905Y-16944122D02*
X8323382Y-16934598D01*
X8323382Y-16934598D02*
X8304334Y-16925074D01*
X8304334Y-16925074D02*
X8266239Y-16925074D01*
X8266239Y-16925074D02*
X8247191Y-16934598D01*
X8247191Y-16934598D02*
X8237667Y-16944122D01*
X8237667Y-16944122D02*
X8228143Y-16963170D01*
X8409096Y-16848884D02*
X8542429Y-16848884D01*
X8542429Y-16848884D02*
X8456715Y-17048884D01*
X8618620Y-17048884D02*
X8618620Y-16915550D01*
X8618620Y-16934598D02*
X8628144Y-16925074D01*
X8628144Y-16925074D02*
X8647191Y-16915550D01*
X8647191Y-16915550D02*
X8675763Y-16915550D01*
X8675763Y-16915550D02*
X8694810Y-16925074D01*
X8694810Y-16925074D02*
X8704334Y-16944122D01*
X8704334Y-16944122D02*
X8704334Y-17048884D01*
X8704334Y-16944122D02*
X8713858Y-16925074D01*
X8713858Y-16925074D02*
X8732905Y-16915550D01*
X8732905Y-16915550D02*
X8761477Y-16915550D01*
X8761477Y-16915550D02*
X8780525Y-16925074D01*
X8780525Y-16925074D02*
X8790048Y-16944122D01*
X8790048Y-16944122D02*
X8790048Y-17048884D01*
X8885286Y-17048884D02*
X8885286Y-16915550D01*
X8885286Y-16934598D02*
X8894810Y-16925074D01*
X8894810Y-16925074D02*
X8913858Y-16915550D01*
X8913858Y-16915550D02*
X8942429Y-16915550D01*
X8942429Y-16915550D02*
X8961477Y-16925074D01*
X8961477Y-16925074D02*
X8971001Y-16944122D01*
X8971001Y-16944122D02*
X8971001Y-17048884D01*
X8971001Y-16944122D02*
X8980525Y-16925074D01*
X8980525Y-16925074D02*
X8999572Y-16915550D01*
X8999572Y-16915550D02*
X9028144Y-16915550D01*
X9028144Y-16915550D02*
X9047191Y-16925074D01*
X9047191Y-16925074D02*
X9056715Y-16944122D01*
X9056715Y-16944122D02*
X9056715Y-17048884D01*
X9447191Y-16839360D02*
X9275763Y-17096503D01*
X9704334Y-16848884D02*
X9723382Y-16848884D01*
X9723382Y-16848884D02*
X9742429Y-16858408D01*
X9742429Y-16858408D02*
X9751953Y-16867931D01*
X9751953Y-16867931D02*
X9761477Y-16886979D01*
X9761477Y-16886979D02*
X9771001Y-16925074D01*
X9771001Y-16925074D02*
X9771001Y-16972693D01*
X9771001Y-16972693D02*
X9761477Y-17010789D01*
X9761477Y-17010789D02*
X9751953Y-17029836D01*
X9751953Y-17029836D02*
X9742429Y-17039360D01*
X9742429Y-17039360D02*
X9723382Y-17048884D01*
X9723382Y-17048884D02*
X9704334Y-17048884D01*
X9704334Y-17048884D02*
X9685287Y-17039360D01*
X9685287Y-17039360D02*
X9675763Y-17029836D01*
X9675763Y-17029836D02*
X9666239Y-17010789D01*
X9666239Y-17010789D02*
X9656715Y-16972693D01*
X9656715Y-16972693D02*
X9656715Y-16925074D01*
X9656715Y-16925074D02*
X9666239Y-16886979D01*
X9666239Y-16886979D02*
X9675763Y-16867931D01*
X9675763Y-16867931D02*
X9685287Y-16858408D01*
X9685287Y-16858408D02*
X9704334Y-16848884D01*
X9856715Y-17029836D02*
X9866239Y-17039360D01*
X9866239Y-17039360D02*
X9856715Y-17048884D01*
X9856715Y-17048884D02*
X9847191Y-17039360D01*
X9847191Y-17039360D02*
X9856715Y-17029836D01*
X9856715Y-17029836D02*
X9856715Y-17048884D01*
X9990048Y-16848884D02*
X10009096Y-16848884D01*
X10009096Y-16848884D02*
X10028144Y-16858408D01*
X10028144Y-16858408D02*
X10037668Y-16867931D01*
X10037668Y-16867931D02*
X10047191Y-16886979D01*
X10047191Y-16886979D02*
X10056715Y-16925074D01*
X10056715Y-16925074D02*
X10056715Y-16972693D01*
X10056715Y-16972693D02*
X10047191Y-17010789D01*
X10047191Y-17010789D02*
X10037668Y-17029836D01*
X10037668Y-17029836D02*
X10028144Y-17039360D01*
X10028144Y-17039360D02*
X10009096Y-17048884D01*
X10009096Y-17048884D02*
X9990048Y-17048884D01*
X9990048Y-17048884D02*
X9971001Y-17039360D01*
X9971001Y-17039360D02*
X9961477Y-17029836D01*
X9961477Y-17029836D02*
X9951953Y-17010789D01*
X9951953Y-17010789D02*
X9942429Y-16972693D01*
X9942429Y-16972693D02*
X9942429Y-16925074D01*
X9942429Y-16925074D02*
X9951953Y-16886979D01*
X9951953Y-16886979D02*
X9961477Y-16867931D01*
X9961477Y-16867931D02*
X9971001Y-16858408D01*
X9971001Y-16858408D02*
X9990048Y-16848884D01*
X10228144Y-16915550D02*
X10228144Y-17048884D01*
X10180525Y-16839360D02*
X10132906Y-16982217D01*
X10132906Y-16982217D02*
X10256715Y-16982217D01*
X10323382Y-16867931D02*
X10332906Y-16858408D01*
X10332906Y-16858408D02*
X10351953Y-16848884D01*
X10351953Y-16848884D02*
X10399572Y-16848884D01*
X10399572Y-16848884D02*
X10418620Y-16858408D01*
X10418620Y-16858408D02*
X10428144Y-16867931D01*
X10428144Y-16867931D02*
X10437668Y-16886979D01*
X10437668Y-16886979D02*
X10437668Y-16906027D01*
X10437668Y-16906027D02*
X10428144Y-16934598D01*
X10428144Y-16934598D02*
X10313858Y-17048884D01*
X10313858Y-17048884D02*
X10437668Y-17048884D01*
X10561477Y-16848884D02*
X10580525Y-16848884D01*
X10580525Y-16848884D02*
X10599572Y-16858408D01*
X10599572Y-16858408D02*
X10609096Y-16867931D01*
X10609096Y-16867931D02*
X10618620Y-16886979D01*
X10618620Y-16886979D02*
X10628144Y-16925074D01*
X10628144Y-16925074D02*
X10628144Y-16972693D01*
X10628144Y-16972693D02*
X10618620Y-17010789D01*
X10618620Y-17010789D02*
X10609096Y-17029836D01*
X10609096Y-17029836D02*
X10599572Y-17039360D01*
X10599572Y-17039360D02*
X10580525Y-17048884D01*
X10580525Y-17048884D02*
X10561477Y-17048884D01*
X10561477Y-17048884D02*
X10542429Y-17039360D01*
X10542429Y-17039360D02*
X10532906Y-17029836D01*
X10532906Y-17029836D02*
X10523382Y-17010789D01*
X10523382Y-17010789D02*
X10513858Y-16972693D01*
X10513858Y-16972693D02*
X10513858Y-16925074D01*
X10513858Y-16925074D02*
X10523382Y-16886979D01*
X10523382Y-16886979D02*
X10532906Y-16867931D01*
X10532906Y-16867931D02*
X10542429Y-16858408D01*
X10542429Y-16858408D02*
X10561477Y-16848884D01*
X10704334Y-16848884D02*
X10704334Y-16886979D01*
X10780525Y-16848884D02*
X10780525Y-16886979D01*
X11075763Y-17125074D02*
X11066239Y-17115550D01*
X11066239Y-17115550D02*
X11047191Y-17086979D01*
X11047191Y-17086979D02*
X11037668Y-17067931D01*
X11037668Y-17067931D02*
X11028144Y-17039360D01*
X11028144Y-17039360D02*
X11018620Y-16991741D01*
X11018620Y-16991741D02*
X11018620Y-16953646D01*
X11018620Y-16953646D02*
X11028144Y-16906027D01*
X11028144Y-16906027D02*
X11037668Y-16877455D01*
X11037668Y-16877455D02*
X11047191Y-16858408D01*
X11047191Y-16858408D02*
X11066239Y-16829836D01*
X11066239Y-16829836D02*
X11075763Y-16820312D01*
X11237668Y-16915550D02*
X11237668Y-17048884D01*
X11190048Y-16839360D02*
X11142430Y-16982217D01*
X11142430Y-16982217D02*
X11266239Y-16982217D01*
X11494810Y-17048884D02*
X11494810Y-16848884D01*
X11580525Y-17048884D02*
X11580525Y-16944122D01*
X11580525Y-16944122D02*
X11571001Y-16925074D01*
X11571001Y-16925074D02*
X11551953Y-16915550D01*
X11551953Y-16915550D02*
X11523382Y-16915550D01*
X11523382Y-16915550D02*
X11504334Y-16925074D01*
X11504334Y-16925074D02*
X11494810Y-16934598D01*
X11704334Y-17048884D02*
X11685287Y-17039360D01*
X11685287Y-17039360D02*
X11675763Y-17029836D01*
X11675763Y-17029836D02*
X11666239Y-17010789D01*
X11666239Y-17010789D02*
X11666239Y-16953646D01*
X11666239Y-16953646D02*
X11675763Y-16934598D01*
X11675763Y-16934598D02*
X11685287Y-16925074D01*
X11685287Y-16925074D02*
X11704334Y-16915550D01*
X11704334Y-16915550D02*
X11732906Y-16915550D01*
X11732906Y-16915550D02*
X11751953Y-16925074D01*
X11751953Y-16925074D02*
X11761477Y-16934598D01*
X11761477Y-16934598D02*
X11771001Y-16953646D01*
X11771001Y-16953646D02*
X11771001Y-17010789D01*
X11771001Y-17010789D02*
X11761477Y-17029836D01*
X11761477Y-17029836D02*
X11751953Y-17039360D01*
X11751953Y-17039360D02*
X11732906Y-17048884D01*
X11732906Y-17048884D02*
X11704334Y-17048884D01*
X11885287Y-17048884D02*
X11866239Y-17039360D01*
X11866239Y-17039360D02*
X11856715Y-17020312D01*
X11856715Y-17020312D02*
X11856715Y-16848884D01*
X12037668Y-17039360D02*
X12018620Y-17048884D01*
X12018620Y-17048884D02*
X11980525Y-17048884D01*
X11980525Y-17048884D02*
X11961477Y-17039360D01*
X11961477Y-17039360D02*
X11951953Y-17020312D01*
X11951953Y-17020312D02*
X11951953Y-16944122D01*
X11951953Y-16944122D02*
X11961477Y-16925074D01*
X11961477Y-16925074D02*
X11980525Y-16915550D01*
X11980525Y-16915550D02*
X12018620Y-16915550D01*
X12018620Y-16915550D02*
X12037668Y-16925074D01*
X12037668Y-16925074D02*
X12047191Y-16944122D01*
X12047191Y-16944122D02*
X12047191Y-16963170D01*
X12047191Y-16963170D02*
X11951953Y-16982217D01*
X12123382Y-17039360D02*
X12142430Y-17048884D01*
X12142430Y-17048884D02*
X12180525Y-17048884D01*
X12180525Y-17048884D02*
X12199572Y-17039360D01*
X12199572Y-17039360D02*
X12209096Y-17020312D01*
X12209096Y-17020312D02*
X12209096Y-17010789D01*
X12209096Y-17010789D02*
X12199572Y-16991741D01*
X12199572Y-16991741D02*
X12180525Y-16982217D01*
X12180525Y-16982217D02*
X12151953Y-16982217D01*
X12151953Y-16982217D02*
X12132906Y-16972693D01*
X12132906Y-16972693D02*
X12123382Y-16953646D01*
X12123382Y-16953646D02*
X12123382Y-16944122D01*
X12123382Y-16944122D02*
X12132906Y-16925074D01*
X12132906Y-16925074D02*
X12151953Y-16915550D01*
X12151953Y-16915550D02*
X12180525Y-16915550D01*
X12180525Y-16915550D02*
X12199572Y-16925074D01*
X12275763Y-17125074D02*
X12285287Y-17115550D01*
X12285287Y-17115550D02*
X12304334Y-17086979D01*
X12304334Y-17086979D02*
X12313858Y-17067931D01*
X12313858Y-17067931D02*
X12323382Y-17039360D01*
X12323382Y-17039360D02*
X12332906Y-16991741D01*
X12332906Y-16991741D02*
X12332906Y-16953646D01*
X12332906Y-16953646D02*
X12323382Y-16906027D01*
X12323382Y-16906027D02*
X12313858Y-16877455D01*
X12313858Y-16877455D02*
X12304334Y-16858408D01*
X12304334Y-16858408D02*
X12285287Y-16829836D01*
X12285287Y-16829836D02*
X12275763Y-16820312D01*
X7300700Y-17121400D02*
X7500700Y-17321400D01*
X7500700Y-17121400D02*
X7300700Y-17321400D01*
X7471411Y-17292111D02*
X7471411Y-17150689D01*
X7329989Y-17150689D01*
X7329989Y-17292111D01*
X7471411Y-17292111D01*
X7742429Y-17112884D02*
X7866239Y-17112884D01*
X7866239Y-17112884D02*
X7799572Y-17189074D01*
X7799572Y-17189074D02*
X7828143Y-17189074D01*
X7828143Y-17189074D02*
X7847191Y-17198598D01*
X7847191Y-17198598D02*
X7856715Y-17208122D01*
X7856715Y-17208122D02*
X7866239Y-17227170D01*
X7866239Y-17227170D02*
X7866239Y-17274789D01*
X7866239Y-17274789D02*
X7856715Y-17293836D01*
X7856715Y-17293836D02*
X7847191Y-17303360D01*
X7847191Y-17303360D02*
X7828143Y-17312884D01*
X7828143Y-17312884D02*
X7771001Y-17312884D01*
X7771001Y-17312884D02*
X7751953Y-17303360D01*
X7751953Y-17303360D02*
X7742429Y-17293836D01*
X7951953Y-17293836D02*
X7961477Y-17303360D01*
X7961477Y-17303360D02*
X7951953Y-17312884D01*
X7951953Y-17312884D02*
X7942429Y-17303360D01*
X7942429Y-17303360D02*
X7951953Y-17293836D01*
X7951953Y-17293836D02*
X7951953Y-17312884D01*
X8085286Y-17112884D02*
X8104334Y-17112884D01*
X8104334Y-17112884D02*
X8123382Y-17122408D01*
X8123382Y-17122408D02*
X8132905Y-17131931D01*
X8132905Y-17131931D02*
X8142429Y-17150979D01*
X8142429Y-17150979D02*
X8151953Y-17189074D01*
X8151953Y-17189074D02*
X8151953Y-17236693D01*
X8151953Y-17236693D02*
X8142429Y-17274789D01*
X8142429Y-17274789D02*
X8132905Y-17293836D01*
X8132905Y-17293836D02*
X8123382Y-17303360D01*
X8123382Y-17303360D02*
X8104334Y-17312884D01*
X8104334Y-17312884D02*
X8085286Y-17312884D01*
X8085286Y-17312884D02*
X8066239Y-17303360D01*
X8066239Y-17303360D02*
X8056715Y-17293836D01*
X8056715Y-17293836D02*
X8047191Y-17274789D01*
X8047191Y-17274789D02*
X8037667Y-17236693D01*
X8037667Y-17236693D02*
X8037667Y-17189074D01*
X8037667Y-17189074D02*
X8047191Y-17150979D01*
X8047191Y-17150979D02*
X8056715Y-17131931D01*
X8056715Y-17131931D02*
X8066239Y-17122408D01*
X8066239Y-17122408D02*
X8085286Y-17112884D01*
X8275762Y-17112884D02*
X8294810Y-17112884D01*
X8294810Y-17112884D02*
X8313858Y-17122408D01*
X8313858Y-17122408D02*
X8323382Y-17131931D01*
X8323382Y-17131931D02*
X8332905Y-17150979D01*
X8332905Y-17150979D02*
X8342429Y-17189074D01*
X8342429Y-17189074D02*
X8342429Y-17236693D01*
X8342429Y-17236693D02*
X8332905Y-17274789D01*
X8332905Y-17274789D02*
X8323382Y-17293836D01*
X8323382Y-17293836D02*
X8313858Y-17303360D01*
X8313858Y-17303360D02*
X8294810Y-17312884D01*
X8294810Y-17312884D02*
X8275762Y-17312884D01*
X8275762Y-17312884D02*
X8256715Y-17303360D01*
X8256715Y-17303360D02*
X8247191Y-17293836D01*
X8247191Y-17293836D02*
X8237667Y-17274789D01*
X8237667Y-17274789D02*
X8228143Y-17236693D01*
X8228143Y-17236693D02*
X8228143Y-17189074D01*
X8228143Y-17189074D02*
X8237667Y-17150979D01*
X8237667Y-17150979D02*
X8247191Y-17131931D01*
X8247191Y-17131931D02*
X8256715Y-17122408D01*
X8256715Y-17122408D02*
X8275762Y-17112884D01*
X8466239Y-17112884D02*
X8485286Y-17112884D01*
X8485286Y-17112884D02*
X8504334Y-17122408D01*
X8504334Y-17122408D02*
X8513858Y-17131931D01*
X8513858Y-17131931D02*
X8523382Y-17150979D01*
X8523382Y-17150979D02*
X8532905Y-17189074D01*
X8532905Y-17189074D02*
X8532905Y-17236693D01*
X8532905Y-17236693D02*
X8523382Y-17274789D01*
X8523382Y-17274789D02*
X8513858Y-17293836D01*
X8513858Y-17293836D02*
X8504334Y-17303360D01*
X8504334Y-17303360D02*
X8485286Y-17312884D01*
X8485286Y-17312884D02*
X8466239Y-17312884D01*
X8466239Y-17312884D02*
X8447191Y-17303360D01*
X8447191Y-17303360D02*
X8437667Y-17293836D01*
X8437667Y-17293836D02*
X8428144Y-17274789D01*
X8428144Y-17274789D02*
X8418620Y-17236693D01*
X8418620Y-17236693D02*
X8418620Y-17189074D01*
X8418620Y-17189074D02*
X8428144Y-17150979D01*
X8428144Y-17150979D02*
X8437667Y-17131931D01*
X8437667Y-17131931D02*
X8447191Y-17122408D01*
X8447191Y-17122408D02*
X8466239Y-17112884D01*
X8618620Y-17312884D02*
X8618620Y-17179550D01*
X8618620Y-17198598D02*
X8628144Y-17189074D01*
X8628144Y-17189074D02*
X8647191Y-17179550D01*
X8647191Y-17179550D02*
X8675763Y-17179550D01*
X8675763Y-17179550D02*
X8694810Y-17189074D01*
X8694810Y-17189074D02*
X8704334Y-17208122D01*
X8704334Y-17208122D02*
X8704334Y-17312884D01*
X8704334Y-17208122D02*
X8713858Y-17189074D01*
X8713858Y-17189074D02*
X8732905Y-17179550D01*
X8732905Y-17179550D02*
X8761477Y-17179550D01*
X8761477Y-17179550D02*
X8780525Y-17189074D01*
X8780525Y-17189074D02*
X8790048Y-17208122D01*
X8790048Y-17208122D02*
X8790048Y-17312884D01*
X8885286Y-17312884D02*
X8885286Y-17179550D01*
X8885286Y-17198598D02*
X8894810Y-17189074D01*
X8894810Y-17189074D02*
X8913858Y-17179550D01*
X8913858Y-17179550D02*
X8942429Y-17179550D01*
X8942429Y-17179550D02*
X8961477Y-17189074D01*
X8961477Y-17189074D02*
X8971001Y-17208122D01*
X8971001Y-17208122D02*
X8971001Y-17312884D01*
X8971001Y-17208122D02*
X8980525Y-17189074D01*
X8980525Y-17189074D02*
X8999572Y-17179550D01*
X8999572Y-17179550D02*
X9028144Y-17179550D01*
X9028144Y-17179550D02*
X9047191Y-17189074D01*
X9047191Y-17189074D02*
X9056715Y-17208122D01*
X9056715Y-17208122D02*
X9056715Y-17312884D01*
X9447191Y-17103360D02*
X9275763Y-17360503D01*
X9704334Y-17112884D02*
X9723382Y-17112884D01*
X9723382Y-17112884D02*
X9742429Y-17122408D01*
X9742429Y-17122408D02*
X9751953Y-17131931D01*
X9751953Y-17131931D02*
X9761477Y-17150979D01*
X9761477Y-17150979D02*
X9771001Y-17189074D01*
X9771001Y-17189074D02*
X9771001Y-17236693D01*
X9771001Y-17236693D02*
X9761477Y-17274789D01*
X9761477Y-17274789D02*
X9751953Y-17293836D01*
X9751953Y-17293836D02*
X9742429Y-17303360D01*
X9742429Y-17303360D02*
X9723382Y-17312884D01*
X9723382Y-17312884D02*
X9704334Y-17312884D01*
X9704334Y-17312884D02*
X9685287Y-17303360D01*
X9685287Y-17303360D02*
X9675763Y-17293836D01*
X9675763Y-17293836D02*
X9666239Y-17274789D01*
X9666239Y-17274789D02*
X9656715Y-17236693D01*
X9656715Y-17236693D02*
X9656715Y-17189074D01*
X9656715Y-17189074D02*
X9666239Y-17150979D01*
X9666239Y-17150979D02*
X9675763Y-17131931D01*
X9675763Y-17131931D02*
X9685287Y-17122408D01*
X9685287Y-17122408D02*
X9704334Y-17112884D01*
X9856715Y-17293836D02*
X9866239Y-17303360D01*
X9866239Y-17303360D02*
X9856715Y-17312884D01*
X9856715Y-17312884D02*
X9847191Y-17303360D01*
X9847191Y-17303360D02*
X9856715Y-17293836D01*
X9856715Y-17293836D02*
X9856715Y-17312884D01*
X10056715Y-17312884D02*
X9942429Y-17312884D01*
X9999572Y-17312884D02*
X9999572Y-17112884D01*
X9999572Y-17112884D02*
X9980525Y-17141455D01*
X9980525Y-17141455D02*
X9961477Y-17160503D01*
X9961477Y-17160503D02*
X9942429Y-17170027D01*
X10247191Y-17312884D02*
X10132906Y-17312884D01*
X10190048Y-17312884D02*
X10190048Y-17112884D01*
X10190048Y-17112884D02*
X10171001Y-17141455D01*
X10171001Y-17141455D02*
X10151953Y-17160503D01*
X10151953Y-17160503D02*
X10132906Y-17170027D01*
X10361477Y-17198598D02*
X10342429Y-17189074D01*
X10342429Y-17189074D02*
X10332906Y-17179550D01*
X10332906Y-17179550D02*
X10323382Y-17160503D01*
X10323382Y-17160503D02*
X10323382Y-17150979D01*
X10323382Y-17150979D02*
X10332906Y-17131931D01*
X10332906Y-17131931D02*
X10342429Y-17122408D01*
X10342429Y-17122408D02*
X10361477Y-17112884D01*
X10361477Y-17112884D02*
X10399572Y-17112884D01*
X10399572Y-17112884D02*
X10418620Y-17122408D01*
X10418620Y-17122408D02*
X10428144Y-17131931D01*
X10428144Y-17131931D02*
X10437668Y-17150979D01*
X10437668Y-17150979D02*
X10437668Y-17160503D01*
X10437668Y-17160503D02*
X10428144Y-17179550D01*
X10428144Y-17179550D02*
X10418620Y-17189074D01*
X10418620Y-17189074D02*
X10399572Y-17198598D01*
X10399572Y-17198598D02*
X10361477Y-17198598D01*
X10361477Y-17198598D02*
X10342429Y-17208122D01*
X10342429Y-17208122D02*
X10332906Y-17217646D01*
X10332906Y-17217646D02*
X10323382Y-17236693D01*
X10323382Y-17236693D02*
X10323382Y-17274789D01*
X10323382Y-17274789D02*
X10332906Y-17293836D01*
X10332906Y-17293836D02*
X10342429Y-17303360D01*
X10342429Y-17303360D02*
X10361477Y-17312884D01*
X10361477Y-17312884D02*
X10399572Y-17312884D01*
X10399572Y-17312884D02*
X10418620Y-17303360D01*
X10418620Y-17303360D02*
X10428144Y-17293836D01*
X10428144Y-17293836D02*
X10437668Y-17274789D01*
X10437668Y-17274789D02*
X10437668Y-17236693D01*
X10437668Y-17236693D02*
X10428144Y-17217646D01*
X10428144Y-17217646D02*
X10418620Y-17208122D01*
X10418620Y-17208122D02*
X10399572Y-17198598D01*
X10628144Y-17312884D02*
X10513858Y-17312884D01*
X10571001Y-17312884D02*
X10571001Y-17112884D01*
X10571001Y-17112884D02*
X10551953Y-17141455D01*
X10551953Y-17141455D02*
X10532906Y-17160503D01*
X10532906Y-17160503D02*
X10513858Y-17170027D01*
X10704334Y-17112884D02*
X10704334Y-17150979D01*
X10780525Y-17112884D02*
X10780525Y-17150979D01*
X11075763Y-17389074D02*
X11066239Y-17379550D01*
X11066239Y-17379550D02*
X11047191Y-17350979D01*
X11047191Y-17350979D02*
X11037668Y-17331931D01*
X11037668Y-17331931D02*
X11028144Y-17303360D01*
X11028144Y-17303360D02*
X11018620Y-17255741D01*
X11018620Y-17255741D02*
X11018620Y-17217646D01*
X11018620Y-17217646D02*
X11028144Y-17170027D01*
X11028144Y-17170027D02*
X11037668Y-17141455D01*
X11037668Y-17141455D02*
X11047191Y-17122408D01*
X11047191Y-17122408D02*
X11066239Y-17093836D01*
X11066239Y-17093836D02*
X11075763Y-17084312D01*
X11237668Y-17179550D02*
X11237668Y-17312884D01*
X11190048Y-17103360D02*
X11142430Y-17246217D01*
X11142430Y-17246217D02*
X11266239Y-17246217D01*
X11494810Y-17312884D02*
X11494810Y-17112884D01*
X11580525Y-17312884D02*
X11580525Y-17208122D01*
X11580525Y-17208122D02*
X11571001Y-17189074D01*
X11571001Y-17189074D02*
X11551953Y-17179550D01*
X11551953Y-17179550D02*
X11523382Y-17179550D01*
X11523382Y-17179550D02*
X11504334Y-17189074D01*
X11504334Y-17189074D02*
X11494810Y-17198598D01*
X11704334Y-17312884D02*
X11685287Y-17303360D01*
X11685287Y-17303360D02*
X11675763Y-17293836D01*
X11675763Y-17293836D02*
X11666239Y-17274789D01*
X11666239Y-17274789D02*
X11666239Y-17217646D01*
X11666239Y-17217646D02*
X11675763Y-17198598D01*
X11675763Y-17198598D02*
X11685287Y-17189074D01*
X11685287Y-17189074D02*
X11704334Y-17179550D01*
X11704334Y-17179550D02*
X11732906Y-17179550D01*
X11732906Y-17179550D02*
X11751953Y-17189074D01*
X11751953Y-17189074D02*
X11761477Y-17198598D01*
X11761477Y-17198598D02*
X11771001Y-17217646D01*
X11771001Y-17217646D02*
X11771001Y-17274789D01*
X11771001Y-17274789D02*
X11761477Y-17293836D01*
X11761477Y-17293836D02*
X11751953Y-17303360D01*
X11751953Y-17303360D02*
X11732906Y-17312884D01*
X11732906Y-17312884D02*
X11704334Y-17312884D01*
X11885287Y-17312884D02*
X11866239Y-17303360D01*
X11866239Y-17303360D02*
X11856715Y-17284312D01*
X11856715Y-17284312D02*
X11856715Y-17112884D01*
X12037668Y-17303360D02*
X12018620Y-17312884D01*
X12018620Y-17312884D02*
X11980525Y-17312884D01*
X11980525Y-17312884D02*
X11961477Y-17303360D01*
X11961477Y-17303360D02*
X11951953Y-17284312D01*
X11951953Y-17284312D02*
X11951953Y-17208122D01*
X11951953Y-17208122D02*
X11961477Y-17189074D01*
X11961477Y-17189074D02*
X11980525Y-17179550D01*
X11980525Y-17179550D02*
X12018620Y-17179550D01*
X12018620Y-17179550D02*
X12037668Y-17189074D01*
X12037668Y-17189074D02*
X12047191Y-17208122D01*
X12047191Y-17208122D02*
X12047191Y-17227170D01*
X12047191Y-17227170D02*
X11951953Y-17246217D01*
X12123382Y-17303360D02*
X12142430Y-17312884D01*
X12142430Y-17312884D02*
X12180525Y-17312884D01*
X12180525Y-17312884D02*
X12199572Y-17303360D01*
X12199572Y-17303360D02*
X12209096Y-17284312D01*
X12209096Y-17284312D02*
X12209096Y-17274789D01*
X12209096Y-17274789D02*
X12199572Y-17255741D01*
X12199572Y-17255741D02*
X12180525Y-17246217D01*
X12180525Y-17246217D02*
X12151953Y-17246217D01*
X12151953Y-17246217D02*
X12132906Y-17236693D01*
X12132906Y-17236693D02*
X12123382Y-17217646D01*
X12123382Y-17217646D02*
X12123382Y-17208122D01*
X12123382Y-17208122D02*
X12132906Y-17189074D01*
X12132906Y-17189074D02*
X12151953Y-17179550D01*
X12151953Y-17179550D02*
X12180525Y-17179550D01*
X12180525Y-17179550D02*
X12199572Y-17189074D01*
X12275763Y-17389074D02*
X12285287Y-17379550D01*
X12285287Y-17379550D02*
X12304334Y-17350979D01*
X12304334Y-17350979D02*
X12313858Y-17331931D01*
X12313858Y-17331931D02*
X12323382Y-17303360D01*
X12323382Y-17303360D02*
X12332906Y-17255741D01*
X12332906Y-17255741D02*
X12332906Y-17217646D01*
X12332906Y-17217646D02*
X12323382Y-17170027D01*
X12323382Y-17170027D02*
X12313858Y-17141455D01*
X12313858Y-17141455D02*
X12304334Y-17122408D01*
X12304334Y-17122408D02*
X12285287Y-17093836D01*
X12285287Y-17093836D02*
X12275763Y-17084312D01*
M02*
