G04 #@! TF.GenerationSoftware,KiCad,Pcbnew,8.0.4*
G04 #@! TF.CreationDate,2025-03-09T16:09:27+01:00*
G04 #@! TF.ProjectId,nerdaxe-gamma_v2.2,6e657264-6178-4652-9d67-616d6d615f76,rev?*
G04 #@! TF.SameCoordinates,Original*
G04 #@! TF.FileFunction,Copper,L2,Inr*
G04 #@! TF.FilePolarity,Positive*
%FSLAX46Y46*%
G04 Gerber Fmt 4.6, Leading zero omitted, Abs format (unit mm)*
G04 Created by KiCad (PCBNEW 8.0.4) date 2025-03-09 16:09:27*
%MOMM*%
%LPD*%
G01*
G04 APERTURE LIST*
G04 #@! TA.AperFunction,ComponentPad*
%ADD10C,0.800000*%
G04 #@! TD*
G04 #@! TA.AperFunction,ComponentPad*
%ADD11C,6.000000*%
G04 #@! TD*
G04 #@! TA.AperFunction,ComponentPad*
%ADD12C,1.574800*%
G04 #@! TD*
G04 #@! TA.AperFunction,ComponentPad*
%ADD13C,1.700000*%
G04 #@! TD*
G04 #@! TA.AperFunction,ComponentPad*
%ADD14C,0.400000*%
G04 #@! TD*
G04 #@! TA.AperFunction,ViaPad*
%ADD15C,0.800000*%
G04 #@! TD*
G04 #@! TA.AperFunction,ViaPad*
%ADD16C,0.500000*%
G04 #@! TD*
G04 #@! TA.AperFunction,ViaPad*
%ADD17C,1.000000*%
G04 #@! TD*
G04 APERTURE END LIST*
D10*
X130250000Y-51120990D03*
X130909010Y-49530000D03*
X130909010Y-52711980D03*
X132500000Y-48870990D03*
D11*
X132500000Y-51120990D03*
D10*
X132500000Y-53370990D03*
X134090990Y-49530000D03*
X134090990Y-52711980D03*
X134750000Y-51120990D03*
X130250000Y-143728000D03*
X130909010Y-142137010D03*
X130909010Y-145318990D03*
X132500000Y-141478000D03*
D11*
X132500000Y-143728000D03*
D10*
X132500000Y-145978000D03*
X134090990Y-142137010D03*
X134090990Y-145318990D03*
X134750000Y-143728000D03*
X76250000Y-143855000D03*
X76909010Y-142264010D03*
X76909010Y-145445990D03*
X78500000Y-141605000D03*
D11*
X78500000Y-143855000D03*
D10*
X78500000Y-146105000D03*
X80090990Y-142264010D03*
X80090990Y-145445990D03*
X80750000Y-143855000D03*
X76250000Y-51054000D03*
X76909010Y-49463010D03*
X76909010Y-52644990D03*
X78500000Y-48804000D03*
D11*
X78500000Y-51054000D03*
D10*
X78500000Y-53304000D03*
X80090990Y-49463010D03*
X80090990Y-52644990D03*
X80750000Y-51054000D03*
D12*
X104002400Y-143240851D03*
X101462400Y-143240851D03*
X98922400Y-143240851D03*
X96382400Y-143240851D03*
D13*
X84250000Y-71942000D03*
X86790000Y-71942000D03*
X89330000Y-71942000D03*
X91870000Y-71942000D03*
X94410000Y-71942000D03*
X96950000Y-71942000D03*
X99490000Y-71942000D03*
X102030000Y-71942000D03*
X104570000Y-71942000D03*
X107110000Y-71942000D03*
X109650000Y-71942000D03*
X112190000Y-71942000D03*
X112190000Y-49022000D03*
X109650000Y-49022000D03*
X107110000Y-49022000D03*
X104570000Y-49022000D03*
X102030000Y-49022000D03*
X99490000Y-49022000D03*
X96950000Y-49022000D03*
X94410000Y-49022000D03*
X91870000Y-49022000D03*
X89330000Y-49022000D03*
X86790000Y-49022000D03*
X84250000Y-49022000D03*
D14*
X111890000Y-80137000D03*
X110490000Y-80137000D03*
X109090000Y-80137000D03*
X112890000Y-81417000D03*
X111890000Y-81417000D03*
X110490000Y-81417000D03*
X109090000Y-81417000D03*
X108090000Y-81417000D03*
X111890000Y-82697000D03*
X110490000Y-82697000D03*
X109090000Y-82697000D03*
D15*
X128143000Y-73406000D03*
X126619000Y-73406000D03*
D16*
X122809000Y-100330000D03*
D15*
X126492000Y-70612000D03*
X129159000Y-76327000D03*
X128143000Y-76327000D03*
X126619000Y-76327000D03*
X128270000Y-70612000D03*
D16*
X127381000Y-70739000D03*
X127381000Y-72009000D03*
X127381000Y-74676000D03*
X127381000Y-73406000D03*
X127381000Y-75946000D03*
X90297000Y-54229000D03*
X84328000Y-77724000D03*
X118872000Y-93853000D03*
X120650000Y-95631000D03*
X111887000Y-136398000D03*
X98298000Y-127762000D03*
X102362000Y-139954000D03*
D17*
X106299000Y-138811000D03*
D15*
X105610000Y-116830000D03*
X112180000Y-119260000D03*
X113580000Y-132650000D03*
X98050000Y-114260000D03*
X104490000Y-118700000D03*
D17*
X119126000Y-68802000D03*
D15*
X112180000Y-120800000D03*
D16*
X119761000Y-86106000D03*
D15*
X106740000Y-119930000D03*
D17*
X113665000Y-68802000D03*
D15*
X106740000Y-118720000D03*
X104640000Y-130470000D03*
X105540000Y-132550000D03*
D17*
X115005332Y-67405000D03*
D15*
X116770000Y-124080000D03*
X106740000Y-117780000D03*
X104490000Y-117760000D03*
X105630000Y-118700000D03*
D17*
X92202000Y-88519000D03*
D15*
X115260000Y-109040000D03*
X123750000Y-117530000D03*
D17*
X92202000Y-93599000D03*
D15*
X106740000Y-116860000D03*
X105620000Y-82057000D03*
X116050000Y-128010000D03*
D17*
X92202000Y-91059000D03*
D15*
X104490000Y-119910000D03*
D17*
X117729000Y-68802000D03*
D15*
X112980000Y-114270000D03*
X105537000Y-75438000D03*
X112280000Y-93737000D03*
X117090000Y-100360000D03*
D17*
X117729000Y-67405000D03*
D15*
X121580000Y-112400000D03*
D17*
X92210000Y-83058000D03*
X113665000Y-67405000D03*
D15*
X122555000Y-102743000D03*
X113180000Y-130220000D03*
X119280000Y-103505000D03*
X99370000Y-119240000D03*
D17*
X116372000Y-68805000D03*
X119126000Y-67405000D03*
D15*
X123710000Y-120230000D03*
X96600000Y-108920000D03*
X104490000Y-115746000D03*
X105664000Y-76835000D03*
X103580000Y-80447000D03*
X105610000Y-80457000D03*
X104648000Y-74168000D03*
X98440000Y-121490000D03*
X92680000Y-133370000D03*
D16*
X106426000Y-144780000D03*
D15*
X104490000Y-116840000D03*
X99510000Y-80427000D03*
D17*
X115045332Y-68805000D03*
X92202000Y-85725000D03*
D15*
X106740000Y-115766000D03*
X116990000Y-98200000D03*
D17*
X116332000Y-67405000D03*
D15*
X101500000Y-80427000D03*
X105610000Y-78747000D03*
X107569000Y-99060000D03*
X102489000Y-97790000D03*
X105029000Y-101600000D03*
X102489000Y-100330000D03*
D16*
X120523000Y-84074000D03*
X96635000Y-88380000D03*
D15*
X108839000Y-101600000D03*
X106299000Y-100330000D03*
X106299000Y-99060000D03*
X103759000Y-97790000D03*
D16*
X86614000Y-78994000D03*
D15*
X103759000Y-100330000D03*
D16*
X104290000Y-84847000D03*
D15*
X102489000Y-101600000D03*
X103759000Y-102870000D03*
X105029000Y-100330000D03*
X108839000Y-100330000D03*
X102489000Y-99060000D03*
X107569000Y-101600000D03*
X106299000Y-101600000D03*
X107569000Y-102870000D03*
X108839000Y-99060000D03*
X107569000Y-100330000D03*
X105029000Y-97790000D03*
X108839000Y-97790000D03*
X107569000Y-97790000D03*
X103759000Y-101600000D03*
X108839000Y-102870000D03*
X105029000Y-99060000D03*
X102489000Y-102870000D03*
X103759000Y-99060000D03*
X106299000Y-97790000D03*
D16*
X121920000Y-74549000D03*
X123190000Y-74549000D03*
D15*
X91910000Y-78347000D03*
X95550000Y-135970000D03*
X99568000Y-126238000D03*
D16*
X94488000Y-134239000D03*
X115443000Y-85090000D03*
X91440000Y-56769000D03*
X98679000Y-75184000D03*
X120142000Y-82550000D03*
X112380000Y-86807000D03*
X111500000Y-77937000D03*
X101250000Y-77567000D03*
X114300000Y-86487000D03*
X94660000Y-78317000D03*
X114935000Y-84328000D03*
X94220000Y-133460000D03*
X100838000Y-74422000D03*
D15*
X100770000Y-123700000D03*
X99180000Y-123710000D03*
D16*
X119430000Y-116250000D03*
X119420000Y-118020000D03*
X124540000Y-121820000D03*
X92180000Y-119960000D03*
X92940000Y-119930000D03*
X117483000Y-82296000D03*
X117602000Y-80772000D03*
X117602000Y-78232000D03*
X114515000Y-81667000D03*
X117602000Y-79502000D03*
X110740000Y-85377000D03*
D15*
X113470000Y-111290000D03*
X110950000Y-124990000D03*
X110970000Y-123700000D03*
X112390000Y-109350000D03*
X111030000Y-107870000D03*
X100553800Y-107457400D03*
X99360000Y-109210000D03*
X98140000Y-111060000D03*
D16*
X119420000Y-114790000D03*
X113800000Y-98950000D03*
X113770000Y-99770000D03*
X113830000Y-100500000D03*
X118320000Y-108370000D03*
X118740000Y-113660000D03*
D15*
X127381000Y-69723000D03*
X126492000Y-69723000D03*
X128270000Y-69723000D03*
X123317000Y-101727000D03*
G04 #@! TA.AperFunction,Conductor*
G36*
X130202125Y-47644894D02*
G01*
X130213769Y-47652315D01*
X130600073Y-47924483D01*
X130748497Y-48029055D01*
X130787107Y-48056257D01*
X130836512Y-48115484D01*
X130849685Y-48191479D01*
X130823095Y-48263879D01*
X130778108Y-48305734D01*
X130645357Y-48385607D01*
X130360486Y-48602162D01*
X130274630Y-48683488D01*
X130871142Y-49280000D01*
X130859282Y-49280000D01*
X130767396Y-49318060D01*
X130697070Y-49388386D01*
X130659010Y-49480272D01*
X130659010Y-49492132D01*
X130061395Y-48894517D01*
X130061394Y-48894517D01*
X129869038Y-49120976D01*
X129668214Y-49417168D01*
X129500606Y-49733312D01*
X129500600Y-49733325D01*
X129368150Y-50065751D01*
X129272418Y-50410542D01*
X129272417Y-50410547D01*
X129214526Y-50763672D01*
X129214525Y-50763681D01*
X129195153Y-51120981D01*
X129195153Y-51120998D01*
X129214525Y-51478298D01*
X129214526Y-51478307D01*
X129272417Y-51831432D01*
X129272418Y-51831437D01*
X129368150Y-52176228D01*
X129500600Y-52508654D01*
X129500606Y-52508667D01*
X129668214Y-52824811D01*
X129869035Y-53120998D01*
X130061395Y-53347461D01*
X130659010Y-52749846D01*
X130659010Y-52761708D01*
X130697070Y-52853594D01*
X130767396Y-52923920D01*
X130859282Y-52961980D01*
X130871141Y-52961980D01*
X130274630Y-53558490D01*
X130360486Y-53639818D01*
X130645360Y-53856374D01*
X130951976Y-54040859D01*
X131276752Y-54191116D01*
X131276762Y-54191121D01*
X131615857Y-54305374D01*
X131615871Y-54305378D01*
X131965319Y-54382297D01*
X131965333Y-54382300D01*
X132321078Y-54420989D01*
X132321088Y-54420990D01*
X132678912Y-54420990D01*
X132678921Y-54420989D01*
X133034666Y-54382300D01*
X133034680Y-54382297D01*
X133384128Y-54305378D01*
X133384142Y-54305374D01*
X133723237Y-54191121D01*
X133723247Y-54191116D01*
X134048023Y-54040859D01*
X134354639Y-53856374D01*
X134639513Y-53639818D01*
X134725368Y-53558490D01*
X134128858Y-52961980D01*
X134140718Y-52961980D01*
X134232604Y-52923920D01*
X134302930Y-52853594D01*
X134340990Y-52761708D01*
X134340990Y-52749848D01*
X134938603Y-53347461D01*
X135130961Y-53121003D01*
X135331785Y-52824811D01*
X135481003Y-52543356D01*
X135533536Y-52486885D01*
X135607266Y-52464246D01*
X135682439Y-52481506D01*
X135738910Y-52534039D01*
X135761549Y-52607769D01*
X135761646Y-52613341D01*
X135646574Y-142018983D01*
X135626516Y-142093457D01*
X135571908Y-142147925D01*
X135497382Y-142167791D01*
X135422908Y-142147733D01*
X135368440Y-142093125D01*
X135365931Y-142088584D01*
X135331785Y-142024178D01*
X135130964Y-141727991D01*
X134938603Y-141501527D01*
X134340990Y-142099140D01*
X134340990Y-142087282D01*
X134302930Y-141995396D01*
X134232604Y-141925070D01*
X134140718Y-141887010D01*
X134128856Y-141887010D01*
X134725368Y-141290498D01*
X134639513Y-141209171D01*
X134354639Y-140992615D01*
X134048023Y-140808130D01*
X133723247Y-140657873D01*
X133723237Y-140657868D01*
X133384142Y-140543615D01*
X133384128Y-140543611D01*
X133034680Y-140466692D01*
X133034666Y-140466689D01*
X132678921Y-140428000D01*
X132321078Y-140428000D01*
X131965333Y-140466689D01*
X131965319Y-140466692D01*
X131615871Y-140543611D01*
X131615857Y-140543615D01*
X131276762Y-140657868D01*
X131276752Y-140657873D01*
X130951976Y-140808130D01*
X130645360Y-140992615D01*
X130360486Y-141209172D01*
X130274630Y-141290498D01*
X130871142Y-141887010D01*
X130859282Y-141887010D01*
X130767396Y-141925070D01*
X130697070Y-141995396D01*
X130659010Y-142087282D01*
X130659010Y-142099142D01*
X130061395Y-141501527D01*
X130061394Y-141501527D01*
X129869038Y-141727986D01*
X129668214Y-142024178D01*
X129500606Y-142340322D01*
X129500600Y-142340335D01*
X129368150Y-142672761D01*
X129272418Y-143017552D01*
X129272417Y-143017557D01*
X129214526Y-143370682D01*
X129214525Y-143370691D01*
X129195153Y-143727991D01*
X129195153Y-143728008D01*
X129214525Y-144085308D01*
X129214526Y-144085317D01*
X129272417Y-144438442D01*
X129272418Y-144438447D01*
X129368150Y-144783238D01*
X129500600Y-145115664D01*
X129500606Y-145115677D01*
X129668214Y-145431821D01*
X129869035Y-145728008D01*
X130061395Y-145954471D01*
X130659010Y-145356856D01*
X130659010Y-145368718D01*
X130697070Y-145460604D01*
X130767396Y-145530930D01*
X130859282Y-145568990D01*
X130871141Y-145568990D01*
X130274630Y-146165500D01*
X130360486Y-146246828D01*
X130645360Y-146463384D01*
X130918680Y-146627835D01*
X130972225Y-146683349D01*
X130990839Y-146758197D01*
X130969535Y-146832324D01*
X130932801Y-146873538D01*
X130723196Y-147035031D01*
X130651998Y-147064687D01*
X130632258Y-147066000D01*
X80457016Y-147066000D01*
X80382516Y-147046038D01*
X80346651Y-147017103D01*
X80220888Y-146878441D01*
X80185626Y-146809849D01*
X80189384Y-146732813D01*
X80231156Y-146667976D01*
X80254441Y-146650670D01*
X80354641Y-146590382D01*
X80639513Y-146373828D01*
X80725368Y-146292500D01*
X80128858Y-145695990D01*
X80140718Y-145695990D01*
X80232604Y-145657930D01*
X80302930Y-145587604D01*
X80340990Y-145495718D01*
X80340990Y-145483858D01*
X80938603Y-146081471D01*
X81130961Y-145855013D01*
X81331785Y-145558821D01*
X81499393Y-145242677D01*
X81499399Y-145242664D01*
X81631849Y-144910238D01*
X81727581Y-144565447D01*
X81727582Y-144565442D01*
X81785473Y-144212317D01*
X81785474Y-144212308D01*
X81804847Y-143855008D01*
X81804847Y-143854991D01*
X81785474Y-143497691D01*
X81785473Y-143497682D01*
X81743368Y-143240846D01*
X95290341Y-143240846D01*
X95290341Y-143240855D01*
X95308934Y-143441511D01*
X95308934Y-143441514D01*
X95364084Y-143635348D01*
X95453912Y-143815745D01*
X95514775Y-143896341D01*
X95914277Y-143496838D01*
X95955574Y-143568366D01*
X96054885Y-143667677D01*
X96126410Y-143708972D01*
X95723640Y-144111742D01*
X95723640Y-144111743D01*
X95724282Y-144112328D01*
X95724297Y-144112340D01*
X95895620Y-144218418D01*
X95895631Y-144218424D01*
X96083537Y-144291218D01*
X96083544Y-144291220D01*
X96281633Y-144328250D01*
X96281641Y-144328251D01*
X96483159Y-144328251D01*
X96483166Y-144328250D01*
X96681255Y-144291220D01*
X96681262Y-144291218D01*
X96869168Y-144218424D01*
X96869179Y-144218418D01*
X97040507Y-144112336D01*
X97040509Y-144112335D01*
X97041159Y-144111742D01*
X96638389Y-143708972D01*
X96709915Y-143667677D01*
X96809226Y-143568366D01*
X96850522Y-143496840D01*
X97250022Y-143896340D01*
X97310887Y-143815744D01*
X97400716Y-143635346D01*
X97455865Y-143441514D01*
X97455865Y-143441511D01*
X97474459Y-143240855D01*
X97474459Y-143240846D01*
X97875459Y-143240846D01*
X97875459Y-143240855D01*
X97895575Y-143445097D01*
X97913367Y-143503749D01*
X97953287Y-143635348D01*
X97955153Y-143641497D01*
X97955155Y-143641502D01*
X98026110Y-143774251D01*
X98051900Y-143822500D01*
X98182101Y-143981150D01*
X98340751Y-144111351D01*
X98521753Y-144208098D01*
X98718152Y-144267675D01*
X98752193Y-144271027D01*
X98922395Y-144287792D01*
X98922400Y-144287792D01*
X98922405Y-144287792D01*
X99068291Y-144273422D01*
X99126648Y-144267675D01*
X99323047Y-144208098D01*
X99504049Y-144111351D01*
X99662699Y-143981150D01*
X99792900Y-143822500D01*
X99889647Y-143641498D01*
X99949224Y-143445099D01*
X99969341Y-143240851D01*
X99969341Y-143240846D01*
X100415459Y-143240846D01*
X100415459Y-143240855D01*
X100435575Y-143445097D01*
X100453367Y-143503749D01*
X100493287Y-143635348D01*
X100495153Y-143641497D01*
X100495155Y-143641502D01*
X100566110Y-143774251D01*
X100591900Y-143822500D01*
X100722101Y-143981150D01*
X100880751Y-144111351D01*
X101061753Y-144208098D01*
X101203443Y-144251079D01*
X101268940Y-144291808D01*
X101305298Y-144359829D01*
X101302774Y-144436916D01*
X101262045Y-144502413D01*
X101207077Y-144534151D01*
X101207167Y-144534368D01*
X101205521Y-144535049D01*
X101203453Y-144536244D01*
X101200405Y-144537168D01*
X101036947Y-144604874D01*
X100889834Y-144703172D01*
X100889829Y-144703176D01*
X100764724Y-144828281D01*
X100764720Y-144828286D01*
X100666422Y-144975399D01*
X100598717Y-145138855D01*
X100598716Y-145138859D01*
X100564200Y-145312386D01*
X100564200Y-145489317D01*
X100598716Y-145662844D01*
X100598717Y-145662848D01*
X100666422Y-145826304D01*
X100666424Y-145826307D01*
X100666425Y-145826309D01*
X100764723Y-145973421D01*
X100889831Y-146098529D01*
X101036943Y-146196827D01*
X101036945Y-146196828D01*
X101036947Y-146196829D01*
X101112201Y-146228000D01*
X101200405Y-146264535D01*
X101373935Y-146299052D01*
X101550865Y-146299052D01*
X101724395Y-146264535D01*
X101887857Y-146196827D01*
X102034969Y-146098529D01*
X102160077Y-145973421D01*
X102258375Y-145826309D01*
X102326083Y-145662847D01*
X102360600Y-145489317D01*
X102360600Y-145312387D01*
X102326083Y-145138857D01*
X102258375Y-144975395D01*
X102160077Y-144828283D01*
X102034969Y-144703175D01*
X101887857Y-144604877D01*
X101887855Y-144604876D01*
X101887852Y-144604874D01*
X101724394Y-144537168D01*
X101721350Y-144536245D01*
X101719725Y-144535234D01*
X101717633Y-144534368D01*
X101717776Y-144534022D01*
X101655855Y-144495513D01*
X101619500Y-144427491D01*
X101622027Y-144350404D01*
X101662759Y-144284909D01*
X101721356Y-144251079D01*
X101863047Y-144208098D01*
X102044049Y-144111351D01*
X102202699Y-143981150D01*
X102332900Y-143822500D01*
X102429647Y-143641498D01*
X102489224Y-143445099D01*
X102509341Y-143240851D01*
X102509341Y-143240846D01*
X102955459Y-143240846D01*
X102955459Y-143240855D01*
X102975575Y-143445097D01*
X102993367Y-143503749D01*
X103033287Y-143635348D01*
X103035153Y-143641497D01*
X103035155Y-143641502D01*
X103106110Y-143774251D01*
X103131900Y-143822500D01*
X103262101Y-143981150D01*
X103420751Y-144111351D01*
X103601753Y-144208098D01*
X103798152Y-144267675D01*
X103832193Y-144271027D01*
X104002395Y-144287792D01*
X104002400Y-144287792D01*
X104002405Y-144287792D01*
X104148291Y-144273422D01*
X104206648Y-144267675D01*
X104403047Y-144208098D01*
X104584049Y-144111351D01*
X104742699Y-143981150D01*
X104872900Y-143822500D01*
X104969647Y-143641498D01*
X105029224Y-143445099D01*
X105049341Y-143240851D01*
X105040609Y-143152200D01*
X105029224Y-143036604D01*
X105028727Y-143034966D01*
X104969647Y-142840204D01*
X104872900Y-142659202D01*
X104742699Y-142500552D01*
X104712721Y-142475950D01*
X104584050Y-142370352D01*
X104584049Y-142370351D01*
X104582221Y-142369374D01*
X104403051Y-142273606D01*
X104403049Y-142273605D01*
X104403047Y-142273604D01*
X104206648Y-142214027D01*
X104206645Y-142214026D01*
X104206646Y-142214026D01*
X104002405Y-142193910D01*
X104002395Y-142193910D01*
X103798153Y-142214026D01*
X103601753Y-142273604D01*
X103601748Y-142273606D01*
X103420757Y-142370347D01*
X103420749Y-142370352D01*
X103262102Y-142500550D01*
X103262099Y-142500553D01*
X103131901Y-142659200D01*
X103131896Y-142659208D01*
X103035155Y-142840199D01*
X103035153Y-142840204D01*
X102975575Y-143036604D01*
X102955459Y-143240846D01*
X102509341Y-143240846D01*
X102500609Y-143152200D01*
X102489224Y-143036604D01*
X102488727Y-143034966D01*
X102429647Y-142840204D01*
X102332900Y-142659202D01*
X102202699Y-142500552D01*
X102172721Y-142475950D01*
X102044050Y-142370352D01*
X102044049Y-142370351D01*
X102042221Y-142369374D01*
X101863051Y-142273606D01*
X101863049Y-142273605D01*
X101863047Y-142273604D01*
X101666648Y-142214027D01*
X101666645Y-142214026D01*
X101666646Y-142214026D01*
X101462405Y-142193910D01*
X101462395Y-142193910D01*
X101258153Y-142214026D01*
X101061753Y-142273604D01*
X101061748Y-142273606D01*
X100880757Y-142370347D01*
X100880749Y-142370352D01*
X100722102Y-142500550D01*
X100722099Y-142500553D01*
X100591901Y-142659200D01*
X100591896Y-142659208D01*
X100495155Y-142840199D01*
X100495153Y-142840204D01*
X100435575Y-143036604D01*
X100415459Y-143240846D01*
X99969341Y-143240846D01*
X99960609Y-143152200D01*
X99949224Y-143036604D01*
X99948727Y-143034966D01*
X99889647Y-142840204D01*
X99792900Y-142659202D01*
X99662699Y-142500552D01*
X99632721Y-142475950D01*
X99504050Y-142370352D01*
X99504049Y-142370351D01*
X99502221Y-142369374D01*
X99323051Y-142273606D01*
X99323049Y-142273605D01*
X99323047Y-142273604D01*
X99126648Y-142214027D01*
X99126645Y-142214026D01*
X99126646Y-142214026D01*
X98922405Y-142193910D01*
X98922395Y-142193910D01*
X98718153Y-142214026D01*
X98521753Y-142273604D01*
X98521748Y-142273606D01*
X98340757Y-142370347D01*
X98340749Y-142370352D01*
X98182102Y-142500550D01*
X98182099Y-142500553D01*
X98051901Y-142659200D01*
X98051896Y-142659208D01*
X97955155Y-142840199D01*
X97955153Y-142840204D01*
X97895575Y-143036604D01*
X97875459Y-143240846D01*
X97474459Y-143240846D01*
X97455865Y-143040190D01*
X97455865Y-143040187D01*
X97400715Y-142846353D01*
X97310887Y-142665956D01*
X97250023Y-142585359D01*
X96850521Y-142984860D01*
X96809226Y-142913336D01*
X96709915Y-142814025D01*
X96638387Y-142772728D01*
X97041159Y-142369957D01*
X97040514Y-142369369D01*
X97040511Y-142369367D01*
X96869179Y-142263283D01*
X96869168Y-142263277D01*
X96681262Y-142190483D01*
X96681255Y-142190481D01*
X96483166Y-142153451D01*
X96281633Y-142153451D01*
X96083544Y-142190481D01*
X96083537Y-142190483D01*
X95895631Y-142263277D01*
X95895628Y-142263279D01*
X95724286Y-142369369D01*
X95724280Y-142369374D01*
X95723640Y-142369957D01*
X95723640Y-142369958D01*
X96126410Y-142772728D01*
X96054885Y-142814025D01*
X95955574Y-142913336D01*
X95914277Y-142984861D01*
X95514775Y-142585359D01*
X95453910Y-142665959D01*
X95364084Y-142846353D01*
X95308934Y-143040187D01*
X95308934Y-143040190D01*
X95290341Y-143240846D01*
X81743368Y-143240846D01*
X81727582Y-143144557D01*
X81727581Y-143144552D01*
X81631849Y-142799761D01*
X81499399Y-142467335D01*
X81499393Y-142467322D01*
X81331785Y-142151178D01*
X81130964Y-141854991D01*
X80938603Y-141628527D01*
X80340990Y-142226140D01*
X80340990Y-142214282D01*
X80302930Y-142122396D01*
X80232604Y-142052070D01*
X80140718Y-142014010D01*
X80128856Y-142014010D01*
X80725368Y-141417498D01*
X80639513Y-141336171D01*
X80354639Y-141119615D01*
X80048023Y-140935130D01*
X79723247Y-140784873D01*
X79723237Y-140784868D01*
X79384142Y-140670615D01*
X79384128Y-140670611D01*
X79034680Y-140593692D01*
X79034666Y-140593689D01*
X78678921Y-140555000D01*
X78321078Y-140555000D01*
X77965333Y-140593689D01*
X77965319Y-140593692D01*
X77615871Y-140670611D01*
X77615857Y-140670615D01*
X77276762Y-140784868D01*
X77276752Y-140784873D01*
X76951976Y-140935130D01*
X76645360Y-141119615D01*
X76360486Y-141336172D01*
X76274630Y-141417498D01*
X76871142Y-142014010D01*
X76859282Y-142014010D01*
X76767396Y-142052070D01*
X76697070Y-142122396D01*
X76659010Y-142214282D01*
X76659010Y-142226142D01*
X76061395Y-141628527D01*
X76061394Y-141628527D01*
X75880124Y-141841935D01*
X75816679Y-141885792D01*
X75739806Y-141892052D01*
X75670101Y-141859036D01*
X75656195Y-141845574D01*
X75476551Y-141647505D01*
X75441287Y-141578911D01*
X75437918Y-141547623D01*
X75431809Y-137228876D01*
X82709500Y-137228876D01*
X82709500Y-137491123D01*
X82743728Y-137751107D01*
X82743728Y-137751110D01*
X82811600Y-138004415D01*
X82811600Y-138004416D01*
X82911959Y-138246701D01*
X83043078Y-138473806D01*
X83043078Y-138473807D01*
X83202715Y-138681848D01*
X83388151Y-138867284D01*
X83534981Y-138979951D01*
X83596197Y-139026924D01*
X83823303Y-139158043D01*
X84027809Y-139242752D01*
X84065583Y-139258399D01*
X84153332Y-139281910D01*
X84318884Y-139326270D01*
X84318890Y-139326270D01*
X84318891Y-139326271D01*
X84355834Y-139331134D01*
X84578877Y-139360499D01*
X84578878Y-139360500D01*
X84578880Y-139360500D01*
X84841122Y-139360500D01*
X84841122Y-139360499D01*
X85101108Y-139326271D01*
X85101110Y-139326271D01*
X85101111Y-139326270D01*
X85101116Y-139326270D01*
X85354415Y-139258399D01*
X85354416Y-139258399D01*
X85354417Y-139258398D01*
X85354419Y-139258398D01*
X85596697Y-139158043D01*
X85823803Y-139026924D01*
X86031848Y-138867284D01*
X86031849Y-138867284D01*
X86088134Y-138810999D01*
X105539726Y-138810999D01*
X105539726Y-138811000D01*
X105558762Y-138979951D01*
X105558762Y-138979953D01*
X105558763Y-138979954D01*
X105614918Y-139140437D01*
X105705376Y-139284400D01*
X105825600Y-139404624D01*
X105969563Y-139495082D01*
X106130046Y-139551237D01*
X106242682Y-139563928D01*
X106298999Y-139570274D01*
X106299000Y-139570274D01*
X106299001Y-139570274D01*
X106341238Y-139565514D01*
X106467954Y-139551237D01*
X106628437Y-139495082D01*
X106772400Y-139404624D01*
X106892624Y-139284400D01*
X106983082Y-139140437D01*
X107039237Y-138979954D01*
X107058274Y-138811000D01*
X107058004Y-138808608D01*
X107039237Y-138642048D01*
X107039237Y-138642046D01*
X106983082Y-138481563D01*
X106892624Y-138337600D01*
X106772400Y-138217376D01*
X106628437Y-138126918D01*
X106467954Y-138070763D01*
X106467953Y-138070762D01*
X106467951Y-138070762D01*
X106299001Y-138051726D01*
X106298999Y-138051726D01*
X106130048Y-138070762D01*
X105969562Y-138126918D01*
X105969559Y-138126920D01*
X105825600Y-138217376D01*
X105705376Y-138337600D01*
X105614920Y-138481559D01*
X105614918Y-138481562D01*
X105558762Y-138642048D01*
X105539726Y-138810999D01*
X86088134Y-138810999D01*
X86217284Y-138681849D01*
X86217284Y-138681848D01*
X86247826Y-138642046D01*
X86351711Y-138506661D01*
X86376921Y-138473807D01*
X86376921Y-138473806D01*
X86376924Y-138473803D01*
X86508043Y-138246697D01*
X86608398Y-138004419D01*
X86676270Y-137751116D01*
X86710500Y-137491120D01*
X86710500Y-137235262D01*
X124379500Y-137235262D01*
X124379500Y-137464737D01*
X124409450Y-137692229D01*
X124409450Y-137692232D01*
X124468840Y-137913883D01*
X124468840Y-137913884D01*
X124556658Y-138125892D01*
X124671391Y-138324615D01*
X124671391Y-138324616D01*
X124811081Y-138506661D01*
X124973339Y-138668919D01*
X125155388Y-138808611D01*
X125354112Y-138923344D01*
X125533062Y-138997467D01*
X125566115Y-139011159D01*
X125624953Y-139026924D01*
X125787762Y-139070548D01*
X125787766Y-139070548D01*
X125787768Y-139070549D01*
X125857692Y-139079754D01*
X126015263Y-139100499D01*
X126015264Y-139100500D01*
X126015266Y-139100500D01*
X126244736Y-139100500D01*
X126244736Y-139100499D01*
X126472230Y-139070549D01*
X126472232Y-139070549D01*
X126472233Y-139070548D01*
X126472238Y-139070548D01*
X126693883Y-139011159D01*
X126693884Y-139011159D01*
X126693885Y-139011158D01*
X126693887Y-139011158D01*
X126905888Y-138923344D01*
X127104612Y-138808611D01*
X127286661Y-138668919D01*
X127448919Y-138506661D01*
X127588611Y-138324612D01*
X127703344Y-138125888D01*
X127791158Y-137913887D01*
X127850548Y-137692238D01*
X127880500Y-137464734D01*
X127880500Y-137235266D01*
X127850548Y-137007762D01*
X127791158Y-136786113D01*
X127703344Y-136574112D01*
X127588611Y-136375388D01*
X127588608Y-136375384D01*
X127588608Y-136375383D01*
X127448918Y-136193338D01*
X127286661Y-136031081D01*
X127104615Y-135891391D01*
X126905892Y-135776658D01*
X126905890Y-135776657D01*
X126905888Y-135776656D01*
X126839786Y-135749275D01*
X126693884Y-135688840D01*
X126472231Y-135629450D01*
X126244737Y-135599500D01*
X126244734Y-135599500D01*
X126015266Y-135599500D01*
X126015262Y-135599500D01*
X125787770Y-135629450D01*
X125787767Y-135629450D01*
X125566116Y-135688840D01*
X125566115Y-135688840D01*
X125354107Y-135776658D01*
X125155384Y-135891391D01*
X125155383Y-135891391D01*
X124973338Y-136031081D01*
X124811081Y-136193338D01*
X124671391Y-136375383D01*
X124671391Y-136375384D01*
X124556658Y-136574107D01*
X124468840Y-136786115D01*
X124468840Y-136786116D01*
X124409450Y-137007767D01*
X124409450Y-137007770D01*
X124379500Y-137235262D01*
X86710500Y-137235262D01*
X86710500Y-137228880D01*
X86676270Y-136968884D01*
X86608398Y-136715581D01*
X86508043Y-136473303D01*
X86376924Y-136246197D01*
X86376921Y-136246193D01*
X86376921Y-136246192D01*
X86217284Y-136038151D01*
X86149133Y-135970000D01*
X94890693Y-135970000D01*
X94909851Y-136127784D01*
X94966211Y-136276392D01*
X95034539Y-136375383D01*
X95056502Y-136407201D01*
X95175471Y-136512599D01*
X95316207Y-136586463D01*
X95470529Y-136624500D01*
X95629471Y-136624500D01*
X95783793Y-136586463D01*
X95924529Y-136512599D01*
X96043498Y-136407201D01*
X96049852Y-136397996D01*
X111377312Y-136397996D01*
X111377312Y-136398003D01*
X111397956Y-136541591D01*
X111397958Y-136541596D01*
X111458222Y-136673557D01*
X111553225Y-136783196D01*
X111553226Y-136783197D01*
X111640209Y-136839097D01*
X111675268Y-136861629D01*
X111814464Y-136902500D01*
X111814466Y-136902500D01*
X111959534Y-136902500D01*
X111959536Y-136902500D01*
X112098732Y-136861629D01*
X112220775Y-136783196D01*
X112315777Y-136673558D01*
X112376042Y-136541596D01*
X112380211Y-136512599D01*
X112396688Y-136398003D01*
X112396688Y-136397996D01*
X112376043Y-136254408D01*
X112376042Y-136254406D01*
X112376042Y-136254404D01*
X112315777Y-136122442D01*
X112220775Y-136012804D01*
X112220774Y-136012803D01*
X112220773Y-136012802D01*
X112098737Y-135934374D01*
X112098732Y-135934371D01*
X111959536Y-135893500D01*
X111814464Y-135893500D01*
X111814463Y-135893500D01*
X111675267Y-135934371D01*
X111675262Y-135934374D01*
X111553226Y-136012802D01*
X111553225Y-136012803D01*
X111458222Y-136122442D01*
X111397958Y-136254403D01*
X111397956Y-136254408D01*
X111377312Y-136397996D01*
X96049852Y-136397996D01*
X96133787Y-136276395D01*
X96190149Y-136127782D01*
X96209307Y-135970000D01*
X96190149Y-135812218D01*
X96143358Y-135688842D01*
X96133788Y-135663607D01*
X96043500Y-135532802D01*
X96043498Y-135532799D01*
X95924530Y-135427402D01*
X95924529Y-135427401D01*
X95783793Y-135353537D01*
X95783790Y-135353536D01*
X95629471Y-135315500D01*
X95470529Y-135315500D01*
X95316209Y-135353536D01*
X95316207Y-135353536D01*
X95316207Y-135353537D01*
X95245839Y-135390469D01*
X95175469Y-135427402D01*
X95056501Y-135532799D01*
X95056499Y-135532802D01*
X94966211Y-135663607D01*
X94909851Y-135812215D01*
X94890693Y-135970000D01*
X86149133Y-135970000D01*
X86031848Y-135852715D01*
X85823806Y-135693078D01*
X85596701Y-135561959D01*
X85596699Y-135561958D01*
X85596697Y-135561957D01*
X85521154Y-135530666D01*
X85354416Y-135461600D01*
X85128255Y-135401002D01*
X85101116Y-135393730D01*
X85101114Y-135393729D01*
X85101108Y-135393728D01*
X84841123Y-135359500D01*
X84841120Y-135359500D01*
X84578880Y-135359500D01*
X84578876Y-135359500D01*
X84318892Y-135393728D01*
X84318889Y-135393728D01*
X84065584Y-135461600D01*
X84065583Y-135461600D01*
X83823298Y-135561959D01*
X83596193Y-135693078D01*
X83596192Y-135693078D01*
X83388151Y-135852715D01*
X83388151Y-135852716D01*
X83388149Y-135852718D01*
X83202718Y-136038149D01*
X83202716Y-136038151D01*
X83202715Y-136038151D01*
X83043078Y-136246192D01*
X83043078Y-136246193D01*
X82911959Y-136473298D01*
X82811600Y-136715583D01*
X82811600Y-136715584D01*
X82743728Y-136968889D01*
X82743728Y-136968892D01*
X82709500Y-137228876D01*
X75431809Y-137228876D01*
X75426478Y-133459996D01*
X93710312Y-133459996D01*
X93710312Y-133460003D01*
X93730956Y-133603591D01*
X93730958Y-133603596D01*
X93791222Y-133735557D01*
X93791223Y-133735558D01*
X93886225Y-133845196D01*
X93953106Y-133888178D01*
X94004985Y-133945246D01*
X94021380Y-134020612D01*
X94008085Y-134075418D01*
X93998958Y-134095403D01*
X93998956Y-134095408D01*
X93978312Y-134238996D01*
X93978312Y-134239003D01*
X93998956Y-134382591D01*
X93998958Y-134382596D01*
X94059222Y-134514557D01*
X94154225Y-134624196D01*
X94154226Y-134624197D01*
X94241209Y-134680097D01*
X94276268Y-134702629D01*
X94415464Y-134743500D01*
X94415466Y-134743500D01*
X94560534Y-134743500D01*
X94560536Y-134743500D01*
X94699732Y-134702629D01*
X94821775Y-134624196D01*
X94916777Y-134514558D01*
X94977042Y-134382596D01*
X94997688Y-134239000D01*
X94997688Y-134238996D01*
X94977043Y-134095408D01*
X94977042Y-134095406D01*
X94977042Y-134095404D01*
X94916777Y-133963442D01*
X94821775Y-133853804D01*
X94821774Y-133853803D01*
X94754894Y-133810821D01*
X94703014Y-133753749D01*
X94686620Y-133678383D01*
X94699917Y-133623577D01*
X94709041Y-133603598D01*
X94709043Y-133603591D01*
X94729688Y-133460003D01*
X94729688Y-133459996D01*
X94709043Y-133316408D01*
X94709042Y-133316406D01*
X94709042Y-133316404D01*
X94648777Y-133184442D01*
X94553775Y-133074804D01*
X94553774Y-133074803D01*
X94553773Y-133074802D01*
X94431737Y-132996374D01*
X94431732Y-132996371D01*
X94292536Y-132955500D01*
X94147464Y-132955500D01*
X94147463Y-132955500D01*
X94008267Y-132996371D01*
X94008262Y-132996374D01*
X93886226Y-133074802D01*
X93886225Y-133074803D01*
X93791222Y-133184442D01*
X93730958Y-133316403D01*
X93730956Y-133316408D01*
X93710312Y-133459996D01*
X75426478Y-133459996D01*
X75416263Y-126238000D01*
X98908693Y-126238000D01*
X98927851Y-126395784D01*
X98984211Y-126544392D01*
X98984212Y-126544394D01*
X98984213Y-126544395D01*
X99074502Y-126675201D01*
X99193471Y-126780599D01*
X99334207Y-126854463D01*
X99488529Y-126892500D01*
X99647471Y-126892500D01*
X99801793Y-126854463D01*
X99942529Y-126780599D01*
X100061498Y-126675201D01*
X100151787Y-126544395D01*
X100208149Y-126395782D01*
X100227307Y-126238000D01*
X100208149Y-126080218D01*
X100151787Y-125931605D01*
X100061498Y-125800799D01*
X99942529Y-125695401D01*
X99801793Y-125621537D01*
X99801790Y-125621536D01*
X99647471Y-125583500D01*
X99488529Y-125583500D01*
X99334209Y-125621536D01*
X99193469Y-125695402D01*
X99074501Y-125800799D01*
X99074499Y-125800802D01*
X98984211Y-125931607D01*
X98927851Y-126080215D01*
X98908693Y-126238000D01*
X75416263Y-126238000D01*
X75414498Y-124990000D01*
X110290693Y-124990000D01*
X110309851Y-125147784D01*
X110366211Y-125296392D01*
X110366212Y-125296394D01*
X110366213Y-125296395D01*
X110456502Y-125427201D01*
X110575471Y-125532599D01*
X110716207Y-125606463D01*
X110870529Y-125644500D01*
X111029471Y-125644500D01*
X111183793Y-125606463D01*
X111324529Y-125532599D01*
X111443498Y-125427201D01*
X111533787Y-125296395D01*
X111590149Y-125147782D01*
X111609307Y-124990000D01*
X111590149Y-124832218D01*
X111533787Y-124683605D01*
X111443498Y-124552799D01*
X111443495Y-124552796D01*
X111443494Y-124552795D01*
X111344831Y-124465387D01*
X111302304Y-124401042D01*
X111297647Y-124324055D01*
X111332108Y-124255054D01*
X111344827Y-124242334D01*
X111463498Y-124137201D01*
X111553787Y-124006395D01*
X111610149Y-123857782D01*
X111629307Y-123700000D01*
X111610149Y-123542218D01*
X111610148Y-123542215D01*
X111553788Y-123393607D01*
X111470402Y-123272802D01*
X111463498Y-123262799D01*
X111344529Y-123157401D01*
X111203793Y-123083537D01*
X111203790Y-123083536D01*
X111049471Y-123045500D01*
X110890529Y-123045500D01*
X110736209Y-123083536D01*
X110595469Y-123157402D01*
X110476501Y-123262799D01*
X110476499Y-123262802D01*
X110386211Y-123393607D01*
X110329851Y-123542215D01*
X110310693Y-123700000D01*
X110329851Y-123857784D01*
X110386211Y-124006392D01*
X110386212Y-124006394D01*
X110386213Y-124006395D01*
X110476501Y-124137200D01*
X110476505Y-124137204D01*
X110575168Y-124224612D01*
X110617695Y-124288957D01*
X110622352Y-124365944D01*
X110587891Y-124434945D01*
X110575169Y-124447667D01*
X110456505Y-124552794D01*
X110456499Y-124552802D01*
X110366211Y-124683607D01*
X110309851Y-124832215D01*
X110290693Y-124990000D01*
X75414498Y-124990000D01*
X75412687Y-123710000D01*
X98520693Y-123710000D01*
X98539851Y-123867784D01*
X98596211Y-124016392D01*
X98679601Y-124137204D01*
X98686502Y-124147201D01*
X98805471Y-124252599D01*
X98946207Y-124326463D01*
X99100529Y-124364500D01*
X99259471Y-124364500D01*
X99413793Y-124326463D01*
X99554529Y-124252599D01*
X99673498Y-124147201D01*
X99763787Y-124016395D01*
X99820149Y-123867782D01*
X99827694Y-123805642D01*
X99856490Y-123734095D01*
X99890228Y-123707662D01*
X99884880Y-123705510D01*
X99882393Y-123702336D01*
X100059771Y-123702336D01*
X100065117Y-123704488D01*
X100112684Y-123765202D01*
X100123520Y-123805641D01*
X100127811Y-123840982D01*
X100129851Y-123857784D01*
X100186211Y-124006392D01*
X100186212Y-124006394D01*
X100186213Y-124006395D01*
X100276502Y-124137201D01*
X100395471Y-124242599D01*
X100536207Y-124316463D01*
X100690529Y-124354500D01*
X100849471Y-124354500D01*
X101003793Y-124316463D01*
X101144529Y-124242599D01*
X101263498Y-124137201D01*
X101353787Y-124006395D01*
X101410149Y-123857782D01*
X101429307Y-123700000D01*
X101410149Y-123542218D01*
X101410148Y-123542215D01*
X101353788Y-123393607D01*
X101270402Y-123272802D01*
X101263498Y-123262799D01*
X101144529Y-123157401D01*
X101003793Y-123083537D01*
X101003790Y-123083536D01*
X100849471Y-123045500D01*
X100690529Y-123045500D01*
X100536209Y-123083536D01*
X100395469Y-123157402D01*
X100276501Y-123262799D01*
X100276499Y-123262802D01*
X100186211Y-123393607D01*
X100129851Y-123542215D01*
X100129850Y-123542221D01*
X100122305Y-123604356D01*
X100093508Y-123675906D01*
X100059771Y-123702336D01*
X99882393Y-123702336D01*
X99837314Y-123644795D01*
X99826480Y-123604359D01*
X99820149Y-123552218D01*
X99816358Y-123542221D01*
X99763788Y-123403607D01*
X99673500Y-123272802D01*
X99673498Y-123272799D01*
X99554530Y-123167402D01*
X99554529Y-123167401D01*
X99413793Y-123093537D01*
X99413790Y-123093536D01*
X99259471Y-123055500D01*
X99100529Y-123055500D01*
X98946209Y-123093536D01*
X98805469Y-123167402D01*
X98686501Y-123272799D01*
X98686499Y-123272802D01*
X98596211Y-123403607D01*
X98539851Y-123552215D01*
X98520693Y-123710000D01*
X75412687Y-123710000D01*
X75410014Y-121819996D01*
X124030312Y-121819996D01*
X124030312Y-121820003D01*
X124050956Y-121963591D01*
X124050958Y-121963596D01*
X124111222Y-122095557D01*
X124206225Y-122205196D01*
X124206226Y-122205197D01*
X124293209Y-122261097D01*
X124328268Y-122283629D01*
X124467464Y-122324500D01*
X124467466Y-122324500D01*
X124612534Y-122324500D01*
X124612536Y-122324500D01*
X124751732Y-122283629D01*
X124873775Y-122205196D01*
X124968777Y-122095558D01*
X125029042Y-121963596D01*
X125049688Y-121820000D01*
X125049688Y-121819996D01*
X125029043Y-121676408D01*
X125029042Y-121676406D01*
X125029042Y-121676404D01*
X124968777Y-121544442D01*
X124873775Y-121434804D01*
X124873774Y-121434803D01*
X124873773Y-121434802D01*
X124751737Y-121356374D01*
X124751732Y-121356371D01*
X124612536Y-121315500D01*
X124467464Y-121315500D01*
X124467463Y-121315500D01*
X124328267Y-121356371D01*
X124328262Y-121356374D01*
X124206226Y-121434802D01*
X124206225Y-121434803D01*
X124111222Y-121544442D01*
X124050958Y-121676403D01*
X124050956Y-121676408D01*
X124030312Y-121819996D01*
X75410014Y-121819996D01*
X75407383Y-119959996D01*
X91670312Y-119959996D01*
X91670312Y-119960003D01*
X91690956Y-120103591D01*
X91690958Y-120103596D01*
X91751222Y-120235557D01*
X91846225Y-120345196D01*
X91846226Y-120345197D01*
X91933209Y-120401097D01*
X91968268Y-120423629D01*
X92107464Y-120464500D01*
X92107466Y-120464500D01*
X92252534Y-120464500D01*
X92252536Y-120464500D01*
X92391732Y-120423629D01*
X92502786Y-120352257D01*
X92576249Y-120328774D01*
X92651614Y-120345168D01*
X92663883Y-120352251D01*
X92728268Y-120393629D01*
X92867464Y-120434500D01*
X92867466Y-120434500D01*
X93012534Y-120434500D01*
X93012536Y-120434500D01*
X93151732Y-120393629D01*
X93273775Y-120315196D01*
X93368777Y-120205558D01*
X93429042Y-120073596D01*
X93429043Y-120073591D01*
X93449688Y-119930003D01*
X93449688Y-119929996D01*
X93429043Y-119786408D01*
X93429042Y-119786406D01*
X93429042Y-119786404D01*
X93368777Y-119654442D01*
X93273775Y-119544804D01*
X93273774Y-119544803D01*
X93273773Y-119544802D01*
X93151737Y-119466374D01*
X93151732Y-119466371D01*
X93012536Y-119425500D01*
X92867464Y-119425500D01*
X92867463Y-119425500D01*
X92728267Y-119466371D01*
X92617215Y-119537741D01*
X92543749Y-119561225D01*
X92468383Y-119544831D01*
X92456103Y-119537740D01*
X92391737Y-119496373D01*
X92391732Y-119496371D01*
X92252536Y-119455500D01*
X92107464Y-119455500D01*
X92107463Y-119455500D01*
X91968267Y-119496371D01*
X91968262Y-119496374D01*
X91846226Y-119574802D01*
X91846225Y-119574803D01*
X91751222Y-119684442D01*
X91690958Y-119816403D01*
X91690956Y-119816408D01*
X91670312Y-119959996D01*
X75407383Y-119959996D01*
X75404639Y-118019996D01*
X118910312Y-118019996D01*
X118910312Y-118020003D01*
X118930956Y-118163591D01*
X118930958Y-118163596D01*
X118991222Y-118295557D01*
X119086225Y-118405196D01*
X119086226Y-118405197D01*
X119173209Y-118461097D01*
X119208268Y-118483629D01*
X119347464Y-118524500D01*
X119347466Y-118524500D01*
X119492534Y-118524500D01*
X119492536Y-118524500D01*
X119631732Y-118483629D01*
X119753775Y-118405196D01*
X119848777Y-118295558D01*
X119909042Y-118163596D01*
X119929688Y-118020000D01*
X119929688Y-118019996D01*
X119909043Y-117876408D01*
X119909042Y-117876406D01*
X119909042Y-117876404D01*
X119848777Y-117744442D01*
X119753775Y-117634804D01*
X119753774Y-117634803D01*
X119753773Y-117634802D01*
X119631737Y-117556374D01*
X119631732Y-117556371D01*
X119492536Y-117515500D01*
X119347464Y-117515500D01*
X119347463Y-117515500D01*
X119208267Y-117556371D01*
X119208262Y-117556374D01*
X119086226Y-117634802D01*
X119086225Y-117634803D01*
X118991222Y-117744442D01*
X118930958Y-117876403D01*
X118930956Y-117876408D01*
X118910312Y-118019996D01*
X75404639Y-118019996D01*
X75402135Y-116249996D01*
X118920312Y-116249996D01*
X118920312Y-116250003D01*
X118940956Y-116393591D01*
X118940958Y-116393596D01*
X119001222Y-116525557D01*
X119096225Y-116635196D01*
X119096226Y-116635197D01*
X119183209Y-116691097D01*
X119218268Y-116713629D01*
X119357464Y-116754500D01*
X119357466Y-116754500D01*
X119502534Y-116754500D01*
X119502536Y-116754500D01*
X119641732Y-116713629D01*
X119763775Y-116635196D01*
X119858777Y-116525558D01*
X119919042Y-116393596D01*
X119939688Y-116250000D01*
X119939688Y-116249996D01*
X119919043Y-116106408D01*
X119919042Y-116106406D01*
X119919042Y-116106404D01*
X119858777Y-115974442D01*
X119763775Y-115864804D01*
X119763774Y-115864803D01*
X119763773Y-115864802D01*
X119641737Y-115786374D01*
X119641732Y-115786371D01*
X119502536Y-115745500D01*
X119357464Y-115745500D01*
X119357463Y-115745500D01*
X119218267Y-115786371D01*
X119218262Y-115786374D01*
X119096226Y-115864802D01*
X119096225Y-115864803D01*
X119001222Y-115974442D01*
X118940958Y-116106403D01*
X118940956Y-116106408D01*
X118920312Y-116249996D01*
X75402135Y-116249996D01*
X75400070Y-114789996D01*
X118910312Y-114789996D01*
X118910312Y-114790003D01*
X118930956Y-114933591D01*
X118930958Y-114933596D01*
X118991222Y-115065557D01*
X119086225Y-115175196D01*
X119086226Y-115175197D01*
X119173209Y-115231097D01*
X119208268Y-115253629D01*
X119347464Y-115294500D01*
X119347466Y-115294500D01*
X119492534Y-115294500D01*
X119492536Y-115294500D01*
X119631732Y-115253629D01*
X119753775Y-115175196D01*
X119848777Y-115065558D01*
X119909042Y-114933596D01*
X119929688Y-114790000D01*
X119929688Y-114789996D01*
X119909043Y-114646408D01*
X119909042Y-114646406D01*
X119909042Y-114646404D01*
X119848777Y-114514442D01*
X119753775Y-114404804D01*
X119753774Y-114404803D01*
X119753773Y-114404802D01*
X119631737Y-114326374D01*
X119631732Y-114326371D01*
X119492536Y-114285500D01*
X119347464Y-114285500D01*
X119347463Y-114285500D01*
X119208267Y-114326371D01*
X119208262Y-114326374D01*
X119086226Y-114404802D01*
X119086225Y-114404803D01*
X118991222Y-114514442D01*
X118930958Y-114646403D01*
X118930956Y-114646408D01*
X118910312Y-114789996D01*
X75400070Y-114789996D01*
X75398472Y-113659996D01*
X118230312Y-113659996D01*
X118230312Y-113660003D01*
X118250956Y-113803591D01*
X118250958Y-113803596D01*
X118311222Y-113935557D01*
X118406225Y-114045196D01*
X118406226Y-114045197D01*
X118493209Y-114101097D01*
X118528268Y-114123629D01*
X118667464Y-114164500D01*
X118667466Y-114164500D01*
X118812534Y-114164500D01*
X118812536Y-114164500D01*
X118951732Y-114123629D01*
X119073775Y-114045196D01*
X119168777Y-113935558D01*
X119229042Y-113803596D01*
X119249688Y-113660000D01*
X119249688Y-113659996D01*
X119229043Y-113516408D01*
X119229042Y-113516406D01*
X119229042Y-113516404D01*
X119168777Y-113384442D01*
X119073775Y-113274804D01*
X119073774Y-113274803D01*
X119073773Y-113274802D01*
X118951737Y-113196374D01*
X118951732Y-113196371D01*
X118812536Y-113155500D01*
X118667464Y-113155500D01*
X118667463Y-113155500D01*
X118528267Y-113196371D01*
X118528262Y-113196374D01*
X118406226Y-113274802D01*
X118406225Y-113274803D01*
X118311222Y-113384442D01*
X118250958Y-113516403D01*
X118250956Y-113516408D01*
X118230312Y-113659996D01*
X75398472Y-113659996D01*
X75394795Y-111060000D01*
X97480693Y-111060000D01*
X97499851Y-111217784D01*
X97556211Y-111366392D01*
X97556212Y-111366394D01*
X97556213Y-111366395D01*
X97646502Y-111497201D01*
X97765471Y-111602599D01*
X97906207Y-111676463D01*
X98060529Y-111714500D01*
X98219471Y-111714500D01*
X98373793Y-111676463D01*
X98514529Y-111602599D01*
X98633498Y-111497201D01*
X98723787Y-111366395D01*
X98752760Y-111290000D01*
X112810693Y-111290000D01*
X112829851Y-111447784D01*
X112886211Y-111596392D01*
X112886212Y-111596394D01*
X112886213Y-111596395D01*
X112976502Y-111727201D01*
X113095471Y-111832599D01*
X113236207Y-111906463D01*
X113390529Y-111944500D01*
X113549471Y-111944500D01*
X113703793Y-111906463D01*
X113844529Y-111832599D01*
X113963498Y-111727201D01*
X114053787Y-111596395D01*
X114110149Y-111447782D01*
X114129307Y-111290000D01*
X114110149Y-111132218D01*
X114053787Y-110983605D01*
X113963498Y-110852799D01*
X113844529Y-110747401D01*
X113703793Y-110673537D01*
X113703790Y-110673536D01*
X113549471Y-110635500D01*
X113390529Y-110635500D01*
X113236209Y-110673536D01*
X113095469Y-110747402D01*
X112976501Y-110852799D01*
X112976499Y-110852802D01*
X112886211Y-110983607D01*
X112829851Y-111132215D01*
X112810693Y-111290000D01*
X98752760Y-111290000D01*
X98780149Y-111217782D01*
X98799307Y-111060000D01*
X98780149Y-110902218D01*
X98723787Y-110753605D01*
X98633498Y-110622799D01*
X98514529Y-110517401D01*
X98373793Y-110443537D01*
X98373790Y-110443536D01*
X98219471Y-110405500D01*
X98060529Y-110405500D01*
X97906209Y-110443536D01*
X97765469Y-110517402D01*
X97646501Y-110622799D01*
X97646499Y-110622802D01*
X97556211Y-110753607D01*
X97499851Y-110902215D01*
X97480693Y-111060000D01*
X75394795Y-111060000D01*
X75392178Y-109210000D01*
X98700693Y-109210000D01*
X98719851Y-109367784D01*
X98776211Y-109516392D01*
X98776212Y-109516394D01*
X98776213Y-109516395D01*
X98866502Y-109647201D01*
X98985471Y-109752599D01*
X99126207Y-109826463D01*
X99280529Y-109864500D01*
X99439471Y-109864500D01*
X99593793Y-109826463D01*
X99734529Y-109752599D01*
X99853498Y-109647201D01*
X99943787Y-109516395D01*
X100000149Y-109367782D01*
X100002308Y-109350000D01*
X111730693Y-109350000D01*
X111749851Y-109507784D01*
X111806211Y-109656392D01*
X111872616Y-109752597D01*
X111896502Y-109787201D01*
X112015471Y-109892599D01*
X112156207Y-109966463D01*
X112310529Y-110004500D01*
X112469471Y-110004500D01*
X112623793Y-109966463D01*
X112764529Y-109892599D01*
X112883498Y-109787201D01*
X112973787Y-109656395D01*
X113030149Y-109507782D01*
X113049307Y-109350000D01*
X113030149Y-109192218D01*
X112977054Y-109052218D01*
X112973788Y-109043607D01*
X112883500Y-108912802D01*
X112883498Y-108912799D01*
X112840268Y-108874500D01*
X112764529Y-108807401D01*
X112623793Y-108733537D01*
X112623790Y-108733536D01*
X112469471Y-108695500D01*
X112310529Y-108695500D01*
X112156209Y-108733536D01*
X112015469Y-108807402D01*
X111896501Y-108912799D01*
X111896499Y-108912802D01*
X111806211Y-109043607D01*
X111749851Y-109192215D01*
X111730693Y-109350000D01*
X100002308Y-109350000D01*
X100019307Y-109210000D01*
X100000149Y-109052218D01*
X99996883Y-109043607D01*
X99943788Y-108903607D01*
X99923696Y-108874499D01*
X99853498Y-108772799D01*
X99734529Y-108667401D01*
X99593793Y-108593537D01*
X99593790Y-108593536D01*
X99439471Y-108555500D01*
X99280529Y-108555500D01*
X99126209Y-108593536D01*
X98985469Y-108667402D01*
X98866501Y-108772799D01*
X98866499Y-108772802D01*
X98776211Y-108903607D01*
X98719851Y-109052215D01*
X98700693Y-109210000D01*
X75392178Y-109210000D01*
X75389699Y-107457400D01*
X99894493Y-107457400D01*
X99913651Y-107615184D01*
X99970011Y-107763792D01*
X99970012Y-107763794D01*
X99970013Y-107763795D01*
X100060302Y-107894601D01*
X100179271Y-107999999D01*
X100320007Y-108073863D01*
X100474329Y-108111900D01*
X100633271Y-108111900D01*
X100787593Y-108073863D01*
X100928329Y-107999999D01*
X101047298Y-107894601D01*
X101064279Y-107870000D01*
X110370693Y-107870000D01*
X110389851Y-108027784D01*
X110446211Y-108176392D01*
X110480734Y-108226408D01*
X110536502Y-108307201D01*
X110655471Y-108412599D01*
X110796207Y-108486463D01*
X110950529Y-108524500D01*
X111109471Y-108524500D01*
X111263793Y-108486463D01*
X111404529Y-108412599D01*
X111452618Y-108369996D01*
X117810312Y-108369996D01*
X117810312Y-108370003D01*
X117830956Y-108513591D01*
X117830958Y-108513596D01*
X117891222Y-108645557D01*
X117986225Y-108755196D01*
X117986226Y-108755197D01*
X118013620Y-108772802D01*
X118108268Y-108833629D01*
X118247464Y-108874500D01*
X118247466Y-108874500D01*
X118392534Y-108874500D01*
X118392536Y-108874500D01*
X118531732Y-108833629D01*
X118653775Y-108755196D01*
X118748777Y-108645558D01*
X118809042Y-108513596D01*
X118812943Y-108486463D01*
X118829688Y-108370003D01*
X118829688Y-108369996D01*
X118809043Y-108226408D01*
X118809042Y-108226406D01*
X118809042Y-108226404D01*
X118748777Y-108094442D01*
X118653775Y-107984804D01*
X118653774Y-107984803D01*
X118653773Y-107984802D01*
X118531737Y-107906374D01*
X118531732Y-107906371D01*
X118392536Y-107865500D01*
X118247464Y-107865500D01*
X118247463Y-107865500D01*
X118108267Y-107906371D01*
X118108262Y-107906374D01*
X117986226Y-107984802D01*
X117986225Y-107984803D01*
X117891222Y-108094442D01*
X117830958Y-108226403D01*
X117830956Y-108226408D01*
X117810312Y-108369996D01*
X111452618Y-108369996D01*
X111523498Y-108307201D01*
X111613787Y-108176395D01*
X111670149Y-108027782D01*
X111689307Y-107870000D01*
X111670149Y-107712218D01*
X111613787Y-107563605D01*
X111523498Y-107432799D01*
X111404529Y-107327401D01*
X111263793Y-107253537D01*
X111263790Y-107253536D01*
X111109471Y-107215500D01*
X110950529Y-107215500D01*
X110796209Y-107253536D01*
X110655469Y-107327402D01*
X110536501Y-107432799D01*
X110536499Y-107432802D01*
X110446211Y-107563607D01*
X110389851Y-107712215D01*
X110370693Y-107870000D01*
X101064279Y-107870000D01*
X101137587Y-107763795D01*
X101193949Y-107615182D01*
X101213107Y-107457400D01*
X101193949Y-107299618D01*
X101137587Y-107151005D01*
X101047298Y-107020199D01*
X100928329Y-106914801D01*
X100787593Y-106840937D01*
X100787590Y-106840936D01*
X100633271Y-106802900D01*
X100474329Y-106802900D01*
X100320009Y-106840936D01*
X100179269Y-106914802D01*
X100060301Y-107020199D01*
X100060299Y-107020202D01*
X99970011Y-107151007D01*
X99913651Y-107299615D01*
X99894493Y-107457400D01*
X75389699Y-107457400D01*
X75376026Y-97790000D01*
X101829693Y-97790000D01*
X101848851Y-97947784D01*
X101905211Y-98096392D01*
X101995499Y-98227197D01*
X101995505Y-98227205D01*
X102092881Y-98313473D01*
X102135407Y-98377817D01*
X102140064Y-98454805D01*
X102105602Y-98523806D01*
X102092881Y-98536527D01*
X101995505Y-98622794D01*
X101995499Y-98622802D01*
X101905211Y-98753607D01*
X101848851Y-98902215D01*
X101829693Y-99060000D01*
X101848851Y-99217784D01*
X101905211Y-99366392D01*
X101995499Y-99497197D01*
X101995505Y-99497205D01*
X102092881Y-99583473D01*
X102135407Y-99647817D01*
X102140064Y-99724805D01*
X102105602Y-99793806D01*
X102092881Y-99806527D01*
X101995505Y-99892794D01*
X101995499Y-99892802D01*
X101905211Y-100023607D01*
X101848851Y-100172215D01*
X101829693Y-100330000D01*
X101848851Y-100487784D01*
X101905211Y-100636392D01*
X101905212Y-100636394D01*
X101905213Y-100636395D01*
X101925834Y-100666270D01*
X101995499Y-100767197D01*
X101995505Y-100767205D01*
X102092881Y-100853473D01*
X102135407Y-100917817D01*
X102140064Y-100994805D01*
X102105602Y-101063806D01*
X102092881Y-101076527D01*
X101995505Y-101162794D01*
X101995499Y-101162802D01*
X101905211Y-101293607D01*
X101848851Y-101442215D01*
X101829693Y-101600000D01*
X101848851Y-101757784D01*
X101905211Y-101906392D01*
X101995499Y-102037197D01*
X101995505Y-102037205D01*
X102092881Y-102123473D01*
X102135407Y-102187817D01*
X102140064Y-102264805D01*
X102105602Y-102333806D01*
X102092881Y-102346527D01*
X101995505Y-102432794D01*
X101995499Y-102432802D01*
X101905211Y-102563607D01*
X101848851Y-102712215D01*
X101829693Y-102870000D01*
X101848851Y-103027784D01*
X101905211Y-103176392D01*
X101950406Y-103241869D01*
X101995502Y-103307201D01*
X102114471Y-103412599D01*
X102255207Y-103486463D01*
X102409529Y-103524500D01*
X102568471Y-103524500D01*
X102722793Y-103486463D01*
X102863529Y-103412599D01*
X102982498Y-103307201D01*
X103001375Y-103279853D01*
X103060124Y-103229880D01*
X103135989Y-103215977D01*
X103208641Y-103241869D01*
X103246625Y-103279853D01*
X103265502Y-103307201D01*
X103384471Y-103412599D01*
X103525207Y-103486463D01*
X103679529Y-103524500D01*
X103838471Y-103524500D01*
X103992793Y-103486463D01*
X104133529Y-103412599D01*
X104252498Y-103307201D01*
X104342787Y-103176395D01*
X104399149Y-103027782D01*
X104418307Y-102870000D01*
X104399149Y-102712218D01*
X104342787Y-102563605D01*
X104252498Y-102432799D01*
X104155116Y-102346526D01*
X104112592Y-102282183D01*
X104107935Y-102205196D01*
X104142396Y-102136194D01*
X104155111Y-102123478D01*
X104252498Y-102037201D01*
X104271375Y-102009853D01*
X104330124Y-101959880D01*
X104405989Y-101945977D01*
X104478641Y-101971869D01*
X104516625Y-102009853D01*
X104535502Y-102037201D01*
X104654471Y-102142599D01*
X104795207Y-102216463D01*
X104949529Y-102254500D01*
X105108471Y-102254500D01*
X105262793Y-102216463D01*
X105403529Y-102142599D01*
X105522498Y-102037201D01*
X105541375Y-102009853D01*
X105600124Y-101959880D01*
X105675989Y-101945977D01*
X105748641Y-101971869D01*
X105786625Y-102009853D01*
X105805502Y-102037201D01*
X105924471Y-102142599D01*
X106065207Y-102216463D01*
X106219529Y-102254500D01*
X106378471Y-102254500D01*
X106532793Y-102216463D01*
X106673529Y-102142599D01*
X106792498Y-102037201D01*
X106811375Y-102009853D01*
X106870124Y-101959880D01*
X106945989Y-101945977D01*
X107018641Y-101971869D01*
X107056625Y-102009853D01*
X107075499Y-102037197D01*
X107075505Y-102037205D01*
X107172881Y-102123473D01*
X107215407Y-102187817D01*
X107220064Y-102264805D01*
X107185602Y-102333806D01*
X107172881Y-102346527D01*
X107075505Y-102432794D01*
X107075499Y-102432802D01*
X106985211Y-102563607D01*
X106928851Y-102712215D01*
X106909693Y-102870000D01*
X106928851Y-103027784D01*
X106985211Y-103176392D01*
X107030406Y-103241869D01*
X107075502Y-103307201D01*
X107194471Y-103412599D01*
X107335207Y-103486463D01*
X107489529Y-103524500D01*
X107648471Y-103524500D01*
X107802793Y-103486463D01*
X107943529Y-103412599D01*
X108062498Y-103307201D01*
X108081375Y-103279853D01*
X108140124Y-103229880D01*
X108215989Y-103215977D01*
X108288641Y-103241869D01*
X108326625Y-103279853D01*
X108345502Y-103307201D01*
X108464471Y-103412599D01*
X108605207Y-103486463D01*
X108759529Y-103524500D01*
X108918471Y-103524500D01*
X109072793Y-103486463D01*
X109213529Y-103412599D01*
X109332498Y-103307201D01*
X109422787Y-103176395D01*
X109479149Y-103027782D01*
X109498307Y-102870000D01*
X109479149Y-102712218D01*
X109422787Y-102563605D01*
X109332498Y-102432799D01*
X109235116Y-102346526D01*
X109192592Y-102282183D01*
X109187935Y-102205196D01*
X109222396Y-102136194D01*
X109235111Y-102123478D01*
X109332498Y-102037201D01*
X109422787Y-101906395D01*
X109479149Y-101757782D01*
X109482887Y-101727000D01*
X122657693Y-101727000D01*
X122676851Y-101884784D01*
X122733211Y-102033392D01*
X122733212Y-102033394D01*
X122733213Y-102033395D01*
X122823502Y-102164201D01*
X122942471Y-102269599D01*
X123083207Y-102343463D01*
X123237529Y-102381500D01*
X123396471Y-102381500D01*
X123550793Y-102343463D01*
X123691529Y-102269599D01*
X123810498Y-102164201D01*
X123900787Y-102033395D01*
X123957149Y-101884782D01*
X123976307Y-101727000D01*
X123957149Y-101569218D01*
X123900787Y-101420605D01*
X123810498Y-101289799D01*
X123691529Y-101184401D01*
X123550793Y-101110537D01*
X123550790Y-101110536D01*
X123396471Y-101072500D01*
X123237529Y-101072500D01*
X123083209Y-101110536D01*
X122942469Y-101184402D01*
X122823501Y-101289799D01*
X122823499Y-101289802D01*
X122733211Y-101420607D01*
X122676851Y-101569215D01*
X122657693Y-101727000D01*
X109482887Y-101727000D01*
X109498307Y-101600000D01*
X109479149Y-101442218D01*
X109422787Y-101293605D01*
X109332498Y-101162799D01*
X109235116Y-101076526D01*
X109192592Y-101012183D01*
X109187935Y-100935196D01*
X109222396Y-100866194D01*
X109235111Y-100853478D01*
X109332498Y-100767201D01*
X109422787Y-100636395D01*
X109479149Y-100487782D01*
X109498307Y-100330000D01*
X109479149Y-100172218D01*
X109472693Y-100155196D01*
X109422788Y-100023607D01*
X109332500Y-99892802D01*
X109332498Y-99892799D01*
X109332492Y-99892794D01*
X109235116Y-99806526D01*
X109210973Y-99769996D01*
X113260312Y-99769996D01*
X113260312Y-99770003D01*
X113280956Y-99913591D01*
X113280958Y-99913596D01*
X113341222Y-100045558D01*
X113371305Y-100080275D01*
X113405006Y-100149651D01*
X113399503Y-100226583D01*
X113394234Y-100239745D01*
X113340957Y-100356406D01*
X113340956Y-100356408D01*
X113320312Y-100499996D01*
X113320312Y-100500003D01*
X113340956Y-100643591D01*
X113340958Y-100643596D01*
X113401222Y-100775557D01*
X113496225Y-100885196D01*
X113496226Y-100885197D01*
X113546984Y-100917817D01*
X113618268Y-100963629D01*
X113757464Y-101004500D01*
X113757466Y-101004500D01*
X113902534Y-101004500D01*
X113902536Y-101004500D01*
X114041732Y-100963629D01*
X114163775Y-100885196D01*
X114258777Y-100775558D01*
X114319042Y-100643596D01*
X114319043Y-100643591D01*
X114339688Y-100500003D01*
X114339688Y-100499996D01*
X114319043Y-100356408D01*
X114319042Y-100356406D01*
X114319042Y-100356404D01*
X114258777Y-100224442D01*
X114258777Y-100224441D01*
X114228694Y-100189724D01*
X114194994Y-100120348D01*
X114200496Y-100043416D01*
X114205762Y-100030262D01*
X114259042Y-99913596D01*
X114274436Y-99806528D01*
X114279688Y-99770003D01*
X114279688Y-99769996D01*
X114259043Y-99626408D01*
X114259042Y-99626406D01*
X114259042Y-99626404D01*
X114198777Y-99494442D01*
X114181830Y-99474884D01*
X114148130Y-99405508D01*
X114153632Y-99328577D01*
X114181829Y-99279738D01*
X114228777Y-99225558D01*
X114289042Y-99093596D01*
X114289043Y-99093591D01*
X114309688Y-98950003D01*
X114309688Y-98949996D01*
X114289043Y-98806408D01*
X114289042Y-98806406D01*
X114289042Y-98806404D01*
X114228777Y-98674442D01*
X114133775Y-98564804D01*
X114133774Y-98564803D01*
X114133773Y-98564802D01*
X114011737Y-98486374D01*
X114011732Y-98486371D01*
X113872536Y-98445500D01*
X113727464Y-98445500D01*
X113727463Y-98445500D01*
X113588267Y-98486371D01*
X113588262Y-98486374D01*
X113466226Y-98564802D01*
X113466225Y-98564803D01*
X113371222Y-98674442D01*
X113310958Y-98806403D01*
X113310956Y-98806408D01*
X113290312Y-98949996D01*
X113290312Y-98950003D01*
X113310956Y-99093591D01*
X113310958Y-99093596D01*
X113371222Y-99225558D01*
X113388169Y-99245115D01*
X113421869Y-99314491D01*
X113416367Y-99391423D01*
X113388169Y-99440263D01*
X113341222Y-99494442D01*
X113280958Y-99626403D01*
X113280956Y-99626408D01*
X113260312Y-99769996D01*
X109210973Y-99769996D01*
X109192592Y-99742183D01*
X109187935Y-99665196D01*
X109222396Y-99596194D01*
X109235111Y-99583478D01*
X109332498Y-99497201D01*
X109422787Y-99366395D01*
X109479149Y-99217782D01*
X109498307Y-99060000D01*
X109479149Y-98902218D01*
X109422787Y-98753605D01*
X109332498Y-98622799D01*
X109235116Y-98536526D01*
X109192592Y-98472183D01*
X109187935Y-98395196D01*
X109222396Y-98326194D01*
X109235111Y-98313478D01*
X109332498Y-98227201D01*
X109422787Y-98096395D01*
X109479149Y-97947782D01*
X109498307Y-97790000D01*
X109479149Y-97632218D01*
X109442628Y-97535921D01*
X109422788Y-97483607D01*
X109395464Y-97444022D01*
X109332498Y-97352799D01*
X109213529Y-97247401D01*
X109072793Y-97173537D01*
X109072790Y-97173536D01*
X108918471Y-97135500D01*
X108759529Y-97135500D01*
X108605209Y-97173536D01*
X108464469Y-97247402D01*
X108345501Y-97352799D01*
X108345500Y-97352800D01*
X108326624Y-97380148D01*
X108267874Y-97430120D01*
X108192009Y-97444022D01*
X108119357Y-97418129D01*
X108081376Y-97380148D01*
X108062499Y-97352800D01*
X108062498Y-97352799D01*
X107943530Y-97247402D01*
X107943529Y-97247401D01*
X107802793Y-97173537D01*
X107802790Y-97173536D01*
X107648471Y-97135500D01*
X107489529Y-97135500D01*
X107335209Y-97173536D01*
X107194469Y-97247402D01*
X107075501Y-97352799D01*
X107075500Y-97352800D01*
X107056624Y-97380148D01*
X106997874Y-97430120D01*
X106922009Y-97444022D01*
X106849357Y-97418129D01*
X106811376Y-97380148D01*
X106792499Y-97352800D01*
X106792498Y-97352799D01*
X106673530Y-97247402D01*
X106673529Y-97247401D01*
X106532793Y-97173537D01*
X106532790Y-97173536D01*
X106378471Y-97135500D01*
X106219529Y-97135500D01*
X106065209Y-97173536D01*
X105924469Y-97247402D01*
X105805501Y-97352799D01*
X105805500Y-97352800D01*
X105786624Y-97380148D01*
X105727874Y-97430120D01*
X105652009Y-97444022D01*
X105579357Y-97418129D01*
X105541376Y-97380148D01*
X105522499Y-97352800D01*
X105522498Y-97352799D01*
X105403530Y-97247402D01*
X105403529Y-97247401D01*
X105262793Y-97173537D01*
X105262790Y-97173536D01*
X105108471Y-97135500D01*
X104949529Y-97135500D01*
X104795209Y-97173536D01*
X104654469Y-97247402D01*
X104535501Y-97352799D01*
X104535500Y-97352800D01*
X104516624Y-97380148D01*
X104457874Y-97430120D01*
X104382009Y-97444022D01*
X104309357Y-97418129D01*
X104271376Y-97380148D01*
X104252499Y-97352800D01*
X104252498Y-97352799D01*
X104133530Y-97247402D01*
X104133529Y-97247401D01*
X103992793Y-97173537D01*
X103992790Y-97173536D01*
X103838471Y-97135500D01*
X103679529Y-97135500D01*
X103525209Y-97173536D01*
X103384469Y-97247402D01*
X103265501Y-97352799D01*
X103265500Y-97352800D01*
X103246624Y-97380148D01*
X103187874Y-97430120D01*
X103112009Y-97444022D01*
X103039357Y-97418129D01*
X103001376Y-97380148D01*
X102982499Y-97352800D01*
X102982498Y-97352799D01*
X102863530Y-97247402D01*
X102863529Y-97247401D01*
X102722793Y-97173537D01*
X102722790Y-97173536D01*
X102568471Y-97135500D01*
X102409529Y-97135500D01*
X102255209Y-97173536D01*
X102114469Y-97247402D01*
X101995501Y-97352799D01*
X101995499Y-97352802D01*
X101905211Y-97483607D01*
X101848851Y-97632215D01*
X101829693Y-97790000D01*
X75376026Y-97790000D01*
X75373251Y-95828262D01*
X83013500Y-95828262D01*
X83013500Y-96057737D01*
X83043450Y-96285229D01*
X83043450Y-96285232D01*
X83102840Y-96506883D01*
X83102840Y-96506884D01*
X83190658Y-96718892D01*
X83305391Y-96917615D01*
X83305391Y-96917616D01*
X83355414Y-96982806D01*
X83445081Y-97099661D01*
X83607339Y-97261919D01*
X83789388Y-97401611D01*
X83988112Y-97516344D01*
X84167062Y-97590467D01*
X84200115Y-97604159D01*
X84296095Y-97629876D01*
X84421762Y-97663548D01*
X84421766Y-97663548D01*
X84421768Y-97663549D01*
X84491692Y-97672754D01*
X84649263Y-97693499D01*
X84649264Y-97693500D01*
X84649266Y-97693500D01*
X84878736Y-97693500D01*
X84878736Y-97693499D01*
X85106230Y-97663549D01*
X85106232Y-97663549D01*
X85106233Y-97663548D01*
X85106238Y-97663548D01*
X85327883Y-97604159D01*
X85327884Y-97604159D01*
X85327885Y-97604158D01*
X85327887Y-97604158D01*
X85539888Y-97516344D01*
X85738612Y-97401611D01*
X85920661Y-97261919D01*
X86082919Y-97099661D01*
X86222611Y-96917612D01*
X86337344Y-96718888D01*
X86425158Y-96506887D01*
X86484548Y-96285238D01*
X86514500Y-96057734D01*
X86514500Y-95828266D01*
X86488528Y-95630996D01*
X120140312Y-95630996D01*
X120140312Y-95631003D01*
X120160956Y-95774591D01*
X120160958Y-95774596D01*
X120221222Y-95906557D01*
X120316225Y-96016196D01*
X120316226Y-96016197D01*
X120380859Y-96057734D01*
X120438268Y-96094629D01*
X120577464Y-96135500D01*
X120577466Y-96135500D01*
X120722534Y-96135500D01*
X120722536Y-96135500D01*
X120861732Y-96094629D01*
X120983775Y-96016196D01*
X121078777Y-95906558D01*
X121139042Y-95774596D01*
X121144321Y-95737880D01*
X121144322Y-95737876D01*
X124059500Y-95737876D01*
X124059500Y-96000123D01*
X124093728Y-96260107D01*
X124093728Y-96260110D01*
X124161600Y-96513415D01*
X124161600Y-96513416D01*
X124230666Y-96680154D01*
X124261957Y-96755697D01*
X124355440Y-96917616D01*
X124393078Y-96982806D01*
X124393078Y-96982807D01*
X124552715Y-97190848D01*
X124738151Y-97376284D01*
X124920676Y-97516341D01*
X124946197Y-97535924D01*
X125173303Y-97667043D01*
X125377809Y-97751752D01*
X125415583Y-97767399D01*
X125499933Y-97790000D01*
X125668884Y-97835270D01*
X125668890Y-97835270D01*
X125668891Y-97835271D01*
X125705834Y-97840134D01*
X125928877Y-97869499D01*
X125928878Y-97869500D01*
X125928880Y-97869500D01*
X126191122Y-97869500D01*
X126191122Y-97869499D01*
X126451108Y-97835271D01*
X126451110Y-97835271D01*
X126451111Y-97835270D01*
X126451116Y-97835270D01*
X126704415Y-97767399D01*
X126704416Y-97767399D01*
X126704417Y-97767398D01*
X126704419Y-97767398D01*
X126946697Y-97667043D01*
X127173803Y-97535924D01*
X127381848Y-97376284D01*
X127381849Y-97376284D01*
X127567284Y-97190849D01*
X127567284Y-97190848D01*
X127580568Y-97173537D01*
X127726924Y-96982803D01*
X127858043Y-96755697D01*
X127958398Y-96513419D01*
X128026270Y-96260116D01*
X128060500Y-96000120D01*
X128060500Y-95737880D01*
X128026270Y-95477884D01*
X127964085Y-95245804D01*
X127958399Y-95224584D01*
X127958399Y-95224583D01*
X127934701Y-95167371D01*
X127858043Y-94982303D01*
X127726924Y-94755197D01*
X127726921Y-94755193D01*
X127726921Y-94755192D01*
X127567284Y-94547151D01*
X127381848Y-94361715D01*
X127173806Y-94202078D01*
X127157216Y-94192500D01*
X127046464Y-94128557D01*
X126946701Y-94070959D01*
X126946699Y-94070958D01*
X126946697Y-94070957D01*
X126871154Y-94039666D01*
X126704416Y-93970600D01*
X126478255Y-93910002D01*
X126451116Y-93902730D01*
X126451114Y-93902729D01*
X126451108Y-93902728D01*
X126191123Y-93868500D01*
X126191120Y-93868500D01*
X125928880Y-93868500D01*
X125928876Y-93868500D01*
X125668892Y-93902728D01*
X125668889Y-93902728D01*
X125415584Y-93970600D01*
X125415583Y-93970600D01*
X125173298Y-94070959D01*
X124946193Y-94202078D01*
X124946192Y-94202078D01*
X124738151Y-94361715D01*
X124738151Y-94361716D01*
X124738149Y-94361718D01*
X124552718Y-94547149D01*
X124552716Y-94547151D01*
X124552715Y-94547151D01*
X124393078Y-94755192D01*
X124393078Y-94755193D01*
X124261959Y-94982298D01*
X124161600Y-95224583D01*
X124161600Y-95224584D01*
X124093728Y-95477889D01*
X124093728Y-95477892D01*
X124059500Y-95737876D01*
X121144322Y-95737876D01*
X121159688Y-95631003D01*
X121159688Y-95630996D01*
X121139043Y-95487408D01*
X121139042Y-95487406D01*
X121139042Y-95487404D01*
X121078777Y-95355442D01*
X120983775Y-95245804D01*
X120983774Y-95245803D01*
X120983773Y-95245802D01*
X120861737Y-95167374D01*
X120861732Y-95167371D01*
X120722536Y-95126500D01*
X120577464Y-95126500D01*
X120577463Y-95126500D01*
X120438267Y-95167371D01*
X120438262Y-95167374D01*
X120316226Y-95245802D01*
X120316225Y-95245803D01*
X120221222Y-95355442D01*
X120160958Y-95487403D01*
X120160956Y-95487408D01*
X120140312Y-95630996D01*
X86488528Y-95630996D01*
X86484548Y-95600762D01*
X86425158Y-95379113D01*
X86337344Y-95167112D01*
X86222611Y-94968388D01*
X86222608Y-94968384D01*
X86222608Y-94968383D01*
X86082918Y-94786338D01*
X85920661Y-94624081D01*
X85738615Y-94484391D01*
X85539892Y-94369658D01*
X85539890Y-94369657D01*
X85539888Y-94369656D01*
X85473786Y-94342275D01*
X85327884Y-94281840D01*
X85106231Y-94222450D01*
X84878737Y-94192500D01*
X84878734Y-94192500D01*
X84649266Y-94192500D01*
X84649262Y-94192500D01*
X84421770Y-94222450D01*
X84421767Y-94222450D01*
X84200116Y-94281840D01*
X84200115Y-94281840D01*
X83988107Y-94369658D01*
X83789384Y-94484391D01*
X83789383Y-94484391D01*
X83607338Y-94624081D01*
X83445081Y-94786338D01*
X83305391Y-94968383D01*
X83305391Y-94968384D01*
X83190658Y-95167107D01*
X83102840Y-95379115D01*
X83102840Y-95379116D01*
X83043450Y-95600767D01*
X83043450Y-95600770D01*
X83013500Y-95828262D01*
X75373251Y-95828262D01*
X75370457Y-93852996D01*
X118362312Y-93852996D01*
X118362312Y-93853003D01*
X118382956Y-93996591D01*
X118382958Y-93996596D01*
X118443222Y-94128557D01*
X118538225Y-94238196D01*
X118538226Y-94238197D01*
X118606136Y-94281840D01*
X118660268Y-94316629D01*
X118799464Y-94357500D01*
X118799466Y-94357500D01*
X118944534Y-94357500D01*
X118944536Y-94357500D01*
X119083732Y-94316629D01*
X119205775Y-94238196D01*
X119300777Y-94128558D01*
X119361042Y-93996596D01*
X119361043Y-93996591D01*
X119381688Y-93853003D01*
X119381688Y-93852996D01*
X119361043Y-93709408D01*
X119361042Y-93709406D01*
X119361042Y-93709404D01*
X119300777Y-93577442D01*
X119205775Y-93467804D01*
X119205774Y-93467803D01*
X119205773Y-93467802D01*
X119083737Y-93389374D01*
X119083732Y-93389371D01*
X118944536Y-93348500D01*
X118799464Y-93348500D01*
X118799463Y-93348500D01*
X118660267Y-93389371D01*
X118660262Y-93389374D01*
X118538226Y-93467802D01*
X118538225Y-93467803D01*
X118443222Y-93577442D01*
X118382958Y-93709403D01*
X118382956Y-93709408D01*
X118362312Y-93852996D01*
X75370457Y-93852996D01*
X75362716Y-88379996D01*
X96125312Y-88379996D01*
X96125312Y-88380003D01*
X96145956Y-88523591D01*
X96145958Y-88523596D01*
X96206222Y-88655557D01*
X96301225Y-88765196D01*
X96301226Y-88765197D01*
X96388209Y-88821097D01*
X96423268Y-88843629D01*
X96562464Y-88884500D01*
X96562466Y-88884500D01*
X96707534Y-88884500D01*
X96707536Y-88884500D01*
X96846732Y-88843629D01*
X96968775Y-88765196D01*
X97063777Y-88655558D01*
X97124042Y-88523596D01*
X97144688Y-88380000D01*
X97144688Y-88379996D01*
X97124043Y-88236408D01*
X97124042Y-88236406D01*
X97124042Y-88236404D01*
X97063777Y-88104442D01*
X96968775Y-87994804D01*
X96968774Y-87994803D01*
X96968773Y-87994802D01*
X96846737Y-87916374D01*
X96846732Y-87916371D01*
X96707536Y-87875500D01*
X96562464Y-87875500D01*
X96562463Y-87875500D01*
X96423267Y-87916371D01*
X96423262Y-87916374D01*
X96301226Y-87994802D01*
X96301225Y-87994803D01*
X96206222Y-88104442D01*
X96145958Y-88236403D01*
X96145956Y-88236408D01*
X96125312Y-88379996D01*
X75362716Y-88379996D01*
X75360491Y-86806996D01*
X111870312Y-86806996D01*
X111870312Y-86807003D01*
X111890956Y-86950591D01*
X111890958Y-86950596D01*
X111951222Y-87082557D01*
X112046225Y-87192196D01*
X112046226Y-87192197D01*
X112133209Y-87248097D01*
X112168268Y-87270629D01*
X112307464Y-87311500D01*
X112307466Y-87311500D01*
X112452534Y-87311500D01*
X112452536Y-87311500D01*
X112591732Y-87270629D01*
X112713775Y-87192196D01*
X112808777Y-87082558D01*
X112869042Y-86950596D01*
X112880314Y-86872197D01*
X112889688Y-86807003D01*
X112889688Y-86806996D01*
X112869043Y-86663408D01*
X112869042Y-86663406D01*
X112869042Y-86663404D01*
X112808777Y-86531442D01*
X112770264Y-86486996D01*
X113790312Y-86486996D01*
X113790312Y-86487003D01*
X113810956Y-86630591D01*
X113810958Y-86630596D01*
X113871222Y-86762557D01*
X113966225Y-86872196D01*
X113966226Y-86872197D01*
X114053209Y-86928097D01*
X114088268Y-86950629D01*
X114227464Y-86991500D01*
X114227466Y-86991500D01*
X114372534Y-86991500D01*
X114372536Y-86991500D01*
X114511732Y-86950629D01*
X114633775Y-86872196D01*
X114728777Y-86762558D01*
X114789042Y-86630596D01*
X114789043Y-86630591D01*
X114809688Y-86487003D01*
X114809688Y-86486996D01*
X114789043Y-86343408D01*
X114789042Y-86343406D01*
X114789042Y-86343404D01*
X114728777Y-86211442D01*
X114633775Y-86101804D01*
X114633774Y-86101803D01*
X114633773Y-86101802D01*
X114511737Y-86023374D01*
X114511732Y-86023371D01*
X114372536Y-85982500D01*
X114227464Y-85982500D01*
X114227463Y-85982500D01*
X114088267Y-86023371D01*
X114088262Y-86023374D01*
X113966226Y-86101802D01*
X113966225Y-86101803D01*
X113871222Y-86211442D01*
X113810958Y-86343403D01*
X113810956Y-86343408D01*
X113790312Y-86486996D01*
X112770264Y-86486996D01*
X112713775Y-86421804D01*
X112713774Y-86421803D01*
X112713773Y-86421802D01*
X112591737Y-86343374D01*
X112591732Y-86343371D01*
X112452536Y-86302500D01*
X112307464Y-86302500D01*
X112307463Y-86302500D01*
X112168267Y-86343371D01*
X112168262Y-86343374D01*
X112046226Y-86421802D01*
X112046225Y-86421803D01*
X111951222Y-86531442D01*
X111890958Y-86663403D01*
X111890956Y-86663408D01*
X111870312Y-86806996D01*
X75360491Y-86806996D01*
X75358469Y-85376996D01*
X110230312Y-85376996D01*
X110230312Y-85377003D01*
X110250956Y-85520591D01*
X110250958Y-85520596D01*
X110311222Y-85652557D01*
X110406225Y-85762196D01*
X110406226Y-85762197D01*
X110493209Y-85818097D01*
X110528268Y-85840629D01*
X110667464Y-85881500D01*
X110667466Y-85881500D01*
X110812534Y-85881500D01*
X110812536Y-85881500D01*
X110951732Y-85840629D01*
X111073775Y-85762196D01*
X111168777Y-85652558D01*
X111229042Y-85520596D01*
X111229043Y-85520591D01*
X111249688Y-85377003D01*
X111249688Y-85376996D01*
X111229043Y-85233408D01*
X111229042Y-85233406D01*
X111229042Y-85233404D01*
X111168777Y-85101442D01*
X111073775Y-84991804D01*
X111073774Y-84991803D01*
X111073773Y-84991802D01*
X110951737Y-84913374D01*
X110951732Y-84913371D01*
X110812536Y-84872500D01*
X110667464Y-84872500D01*
X110667463Y-84872500D01*
X110528267Y-84913371D01*
X110528262Y-84913374D01*
X110406226Y-84991802D01*
X110406225Y-84991803D01*
X110311222Y-85101442D01*
X110250958Y-85233403D01*
X110250956Y-85233408D01*
X110230312Y-85376996D01*
X75358469Y-85376996D01*
X75357719Y-84846996D01*
X103780312Y-84846996D01*
X103780312Y-84847003D01*
X103800956Y-84990591D01*
X103800958Y-84990596D01*
X103861222Y-85122557D01*
X103956225Y-85232196D01*
X103956226Y-85232197D01*
X103958403Y-85233596D01*
X104078268Y-85310629D01*
X104217464Y-85351500D01*
X104217466Y-85351500D01*
X104362534Y-85351500D01*
X104362536Y-85351500D01*
X104501732Y-85310629D01*
X104623775Y-85232196D01*
X104718777Y-85122558D01*
X104779042Y-84990596D01*
X104779043Y-84990591D01*
X104799688Y-84847003D01*
X104799688Y-84846996D01*
X104779043Y-84703408D01*
X104779042Y-84703406D01*
X104779042Y-84703404D01*
X104718777Y-84571442D01*
X104623775Y-84461804D01*
X104623774Y-84461803D01*
X104623773Y-84461802D01*
X104501737Y-84383374D01*
X104501732Y-84383371D01*
X104362536Y-84342500D01*
X104217464Y-84342500D01*
X104217463Y-84342500D01*
X104078267Y-84383371D01*
X104078262Y-84383374D01*
X103956226Y-84461802D01*
X103956225Y-84461803D01*
X103861222Y-84571442D01*
X103800958Y-84703403D01*
X103800956Y-84703408D01*
X103780312Y-84846996D01*
X75357719Y-84846996D01*
X75356985Y-84327996D01*
X114425312Y-84327996D01*
X114425312Y-84328003D01*
X114445956Y-84471591D01*
X114445958Y-84471596D01*
X114506222Y-84603557D01*
X114601225Y-84713196D01*
X114601226Y-84713197D01*
X114688209Y-84769097D01*
X114723268Y-84791629D01*
X114770022Y-84805357D01*
X114842085Y-84826517D01*
X114907943Y-84866659D01*
X114944907Y-84934353D01*
X114947591Y-84990685D01*
X114933312Y-85090002D01*
X114933312Y-85090003D01*
X114953956Y-85233591D01*
X114953958Y-85233596D01*
X115014222Y-85365557D01*
X115109225Y-85475196D01*
X115109226Y-85475197D01*
X115179860Y-85520591D01*
X115231268Y-85553629D01*
X115370464Y-85594500D01*
X115370466Y-85594500D01*
X115515534Y-85594500D01*
X115515536Y-85594500D01*
X115654732Y-85553629D01*
X115776775Y-85475196D01*
X115871777Y-85365558D01*
X115932042Y-85233596D01*
X115932243Y-85232197D01*
X115952688Y-85090003D01*
X115952688Y-85089996D01*
X115932043Y-84946408D01*
X115932042Y-84946406D01*
X115932042Y-84946404D01*
X115871777Y-84814442D01*
X115776775Y-84704804D01*
X115776774Y-84704803D01*
X115776773Y-84704802D01*
X115654737Y-84626374D01*
X115654728Y-84626369D01*
X115535913Y-84591482D01*
X115470055Y-84551339D01*
X115433092Y-84483646D01*
X115430409Y-84427313D01*
X115444688Y-84328002D01*
X115444688Y-84327996D01*
X115424043Y-84184408D01*
X115424042Y-84184406D01*
X115424042Y-84184404D01*
X115373620Y-84073996D01*
X120013312Y-84073996D01*
X120013312Y-84074003D01*
X120033956Y-84217591D01*
X120033958Y-84217596D01*
X120094222Y-84349557D01*
X120189225Y-84459196D01*
X120189226Y-84459197D01*
X120260825Y-84505211D01*
X120311268Y-84537629D01*
X120450464Y-84578500D01*
X120450466Y-84578500D01*
X120595534Y-84578500D01*
X120595536Y-84578500D01*
X120734732Y-84537629D01*
X120856775Y-84459196D01*
X120951777Y-84349558D01*
X121012042Y-84217596D01*
X121016225Y-84188502D01*
X121032688Y-84074003D01*
X121032688Y-84073996D01*
X121012043Y-83930408D01*
X121012042Y-83930406D01*
X121012042Y-83930404D01*
X120951777Y-83798442D01*
X120856775Y-83688804D01*
X120856774Y-83688803D01*
X120856773Y-83688802D01*
X120734737Y-83610374D01*
X120734732Y-83610371D01*
X120595536Y-83569500D01*
X120450464Y-83569500D01*
X120450463Y-83569500D01*
X120311267Y-83610371D01*
X120311262Y-83610374D01*
X120189226Y-83688802D01*
X120189225Y-83688803D01*
X120094222Y-83798442D01*
X120033958Y-83930403D01*
X120033956Y-83930408D01*
X120013312Y-84073996D01*
X115373620Y-84073996D01*
X115363777Y-84052442D01*
X115268775Y-83942804D01*
X115268774Y-83942803D01*
X115268773Y-83942802D01*
X115146737Y-83864374D01*
X115146732Y-83864371D01*
X115007536Y-83823500D01*
X114862464Y-83823500D01*
X114862463Y-83823500D01*
X114723267Y-83864371D01*
X114723262Y-83864374D01*
X114601226Y-83942802D01*
X114601225Y-83942803D01*
X114506222Y-84052442D01*
X114445958Y-84184403D01*
X114445956Y-84184408D01*
X114425312Y-84327996D01*
X75356985Y-84327996D01*
X75355598Y-83348454D01*
X125159500Y-83348454D01*
X125159500Y-83529546D01*
X125187829Y-83708409D01*
X125243789Y-83880639D01*
X125275463Y-83942803D01*
X125326005Y-84041995D01*
X125326005Y-84041996D01*
X125349260Y-84074003D01*
X125432447Y-84188501D01*
X125560499Y-84316553D01*
X125707006Y-84422996D01*
X125868361Y-84505211D01*
X126040591Y-84561171D01*
X126219454Y-84589500D01*
X126219458Y-84589500D01*
X126400542Y-84589500D01*
X126400546Y-84589500D01*
X126579409Y-84561171D01*
X126751639Y-84505211D01*
X126912994Y-84422996D01*
X127059501Y-84316553D01*
X127187553Y-84188501D01*
X127293996Y-84041994D01*
X127376211Y-83880639D01*
X127432171Y-83708409D01*
X127460500Y-83529546D01*
X127460500Y-83348454D01*
X127458454Y-83335534D01*
X129759500Y-83335534D01*
X129759500Y-83542465D01*
X129799869Y-83745417D01*
X129879057Y-83936596D01*
X129994022Y-84108654D01*
X130140345Y-84254977D01*
X130312403Y-84369942D01*
X130391591Y-84402742D01*
X130503580Y-84449130D01*
X130706535Y-84489500D01*
X130913465Y-84489500D01*
X131116420Y-84449130D01*
X131307598Y-84369941D01*
X131479655Y-84254977D01*
X131625977Y-84108655D01*
X131740941Y-83936598D01*
X131820130Y-83745420D01*
X131860500Y-83542465D01*
X131860500Y-83335535D01*
X131820130Y-83132580D01*
X131764120Y-82997360D01*
X131740942Y-82941403D01*
X131625977Y-82769345D01*
X131479654Y-82623022D01*
X131307596Y-82508057D01*
X131142303Y-82439591D01*
X131116420Y-82428870D01*
X131116418Y-82428869D01*
X131116417Y-82428869D01*
X130913465Y-82388500D01*
X130706535Y-82388500D01*
X130503582Y-82428869D01*
X130312403Y-82508057D01*
X130140345Y-82623022D01*
X129994022Y-82769345D01*
X129879057Y-82941403D01*
X129799869Y-83132582D01*
X129759500Y-83335534D01*
X127458454Y-83335534D01*
X127432171Y-83169591D01*
X127376211Y-82997361D01*
X127293996Y-82836006D01*
X127286404Y-82825557D01*
X127272895Y-82806963D01*
X127187553Y-82689499D01*
X127059501Y-82561447D01*
X126912994Y-82455004D01*
X126751639Y-82372789D01*
X126579409Y-82316829D01*
X126400546Y-82288500D01*
X126219454Y-82288500D01*
X126040591Y-82316829D01*
X125868360Y-82372789D01*
X125707004Y-82455005D01*
X125707003Y-82455005D01*
X125560500Y-82561446D01*
X125560497Y-82561448D01*
X125432448Y-82689497D01*
X125432446Y-82689500D01*
X125326005Y-82836003D01*
X125326005Y-82836004D01*
X125243789Y-82997360D01*
X125238503Y-83013629D01*
X125187829Y-83169591D01*
X125159500Y-83348454D01*
X75355598Y-83348454D01*
X75355306Y-83141814D01*
X108857316Y-83141814D01*
X108880157Y-83156493D01*
X108880158Y-83156494D01*
X109018104Y-83196998D01*
X109018113Y-83197000D01*
X109161887Y-83197000D01*
X109161895Y-83196998D01*
X109299838Y-83156494D01*
X109299845Y-83156491D01*
X109322682Y-83141814D01*
X110257316Y-83141814D01*
X110280157Y-83156493D01*
X110280158Y-83156494D01*
X110418104Y-83196998D01*
X110418113Y-83197000D01*
X110561887Y-83197000D01*
X110561895Y-83196998D01*
X110699838Y-83156494D01*
X110699845Y-83156491D01*
X110722682Y-83141814D01*
X111657316Y-83141814D01*
X111680157Y-83156493D01*
X111680158Y-83156494D01*
X111818104Y-83196998D01*
X111818113Y-83197000D01*
X111961887Y-83197000D01*
X111961895Y-83196998D01*
X112099838Y-83156494D01*
X112099845Y-83156491D01*
X112122682Y-83141814D01*
X111890000Y-82909132D01*
X111657316Y-83141814D01*
X110722682Y-83141814D01*
X110490000Y-82909132D01*
X110257316Y-83141814D01*
X109322682Y-83141814D01*
X109090000Y-82909132D01*
X108857316Y-83141814D01*
X75355306Y-83141814D01*
X75354677Y-82696997D01*
X108584858Y-82696997D01*
X108584858Y-82697002D01*
X108605318Y-82839310D01*
X108605320Y-82839317D01*
X108646148Y-82928717D01*
X108877867Y-82696999D01*
X108848031Y-82667163D01*
X108940000Y-82667163D01*
X108940000Y-82726837D01*
X108962836Y-82781968D01*
X109005032Y-82824164D01*
X109060163Y-82847000D01*
X109119837Y-82847000D01*
X109174968Y-82824164D01*
X109217164Y-82781968D01*
X109240000Y-82726837D01*
X109240000Y-82696999D01*
X109302132Y-82696999D01*
X109302132Y-82697000D01*
X109533849Y-82928717D01*
X109533850Y-82928717D01*
X109574679Y-82839318D01*
X109574681Y-82839311D01*
X109595142Y-82697003D01*
X109595142Y-82696997D01*
X109984858Y-82696997D01*
X109984858Y-82697002D01*
X110005318Y-82839310D01*
X110005320Y-82839317D01*
X110046148Y-82928717D01*
X110277867Y-82696999D01*
X110248031Y-82667163D01*
X110340000Y-82667163D01*
X110340000Y-82726837D01*
X110362836Y-82781968D01*
X110405032Y-82824164D01*
X110460163Y-82847000D01*
X110519837Y-82847000D01*
X110574968Y-82824164D01*
X110617164Y-82781968D01*
X110640000Y-82726837D01*
X110640000Y-82696999D01*
X110702132Y-82696999D01*
X110702132Y-82697000D01*
X110933849Y-82928717D01*
X110933850Y-82928717D01*
X110974679Y-82839318D01*
X110974681Y-82839311D01*
X110995142Y-82697003D01*
X110995142Y-82696997D01*
X111384858Y-82696997D01*
X111384858Y-82697002D01*
X111405318Y-82839310D01*
X111405320Y-82839317D01*
X111446148Y-82928717D01*
X111677867Y-82696999D01*
X111648031Y-82667163D01*
X111740000Y-82667163D01*
X111740000Y-82726837D01*
X111762836Y-82781968D01*
X111805032Y-82824164D01*
X111860163Y-82847000D01*
X111919837Y-82847000D01*
X111974968Y-82824164D01*
X112017164Y-82781968D01*
X112040000Y-82726837D01*
X112040000Y-82696999D01*
X112102132Y-82696999D01*
X112102132Y-82697000D01*
X112333849Y-82928717D01*
X112333850Y-82928717D01*
X112374679Y-82839318D01*
X112374681Y-82839311D01*
X112395142Y-82697003D01*
X112395142Y-82696997D01*
X112374680Y-82554687D01*
X112333849Y-82465281D01*
X112102132Y-82696999D01*
X112040000Y-82696999D01*
X112040000Y-82667163D01*
X112017164Y-82612032D01*
X111974968Y-82569836D01*
X111919837Y-82547000D01*
X111860163Y-82547000D01*
X111805032Y-82569836D01*
X111762836Y-82612032D01*
X111740000Y-82667163D01*
X111648031Y-82667163D01*
X111446149Y-82465281D01*
X111405319Y-82554688D01*
X111405318Y-82554689D01*
X111384858Y-82696997D01*
X110995142Y-82696997D01*
X110974680Y-82554687D01*
X110933849Y-82465281D01*
X110702132Y-82696999D01*
X110640000Y-82696999D01*
X110640000Y-82667163D01*
X110617164Y-82612032D01*
X110574968Y-82569836D01*
X110519837Y-82547000D01*
X110460163Y-82547000D01*
X110405032Y-82569836D01*
X110362836Y-82612032D01*
X110340000Y-82667163D01*
X110248031Y-82667163D01*
X110046149Y-82465281D01*
X110005319Y-82554688D01*
X110005318Y-82554689D01*
X109984858Y-82696997D01*
X109595142Y-82696997D01*
X109574680Y-82554687D01*
X109533849Y-82465281D01*
X109302132Y-82696999D01*
X109240000Y-82696999D01*
X109240000Y-82667163D01*
X109217164Y-82612032D01*
X109174968Y-82569836D01*
X109119837Y-82547000D01*
X109060163Y-82547000D01*
X109005032Y-82569836D01*
X108962836Y-82612032D01*
X108940000Y-82667163D01*
X108848031Y-82667163D01*
X108646149Y-82465281D01*
X108605319Y-82554688D01*
X108605318Y-82554689D01*
X108584858Y-82696997D01*
X75354677Y-82696997D01*
X75354048Y-82252184D01*
X108857316Y-82252184D01*
X109089999Y-82484867D01*
X109322681Y-82252184D01*
X110257316Y-82252184D01*
X110489999Y-82484867D01*
X110722681Y-82252184D01*
X111657316Y-82252184D01*
X111889999Y-82484867D01*
X112078869Y-82295996D01*
X116973312Y-82295996D01*
X116973312Y-82296003D01*
X116993956Y-82439591D01*
X116993958Y-82439596D01*
X117054222Y-82571557D01*
X117149225Y-82681196D01*
X117149226Y-82681197D01*
X117173816Y-82697000D01*
X117271268Y-82759629D01*
X117410464Y-82800500D01*
X117410466Y-82800500D01*
X117555534Y-82800500D01*
X117555536Y-82800500D01*
X117694732Y-82759629D01*
X117816775Y-82681196D01*
X117911777Y-82571558D01*
X117921624Y-82549996D01*
X119632312Y-82549996D01*
X119632312Y-82550003D01*
X119652956Y-82693591D01*
X119652958Y-82693596D01*
X119713222Y-82825557D01*
X119808225Y-82935196D01*
X119808226Y-82935197D01*
X119817883Y-82941403D01*
X119930268Y-83013629D01*
X120069464Y-83054500D01*
X120069466Y-83054500D01*
X120214534Y-83054500D01*
X120214536Y-83054500D01*
X120353732Y-83013629D01*
X120475775Y-82935196D01*
X120570777Y-82825558D01*
X120631042Y-82693596D01*
X120631631Y-82689499D01*
X120651688Y-82550003D01*
X120651688Y-82549996D01*
X120631043Y-82406408D01*
X120631042Y-82406406D01*
X120631042Y-82406404D01*
X120570777Y-82274442D01*
X120475775Y-82164804D01*
X120475774Y-82164803D01*
X120475773Y-82164802D01*
X120353737Y-82086374D01*
X120353732Y-82086371D01*
X120214536Y-82045500D01*
X120069464Y-82045500D01*
X120069463Y-82045500D01*
X119930267Y-82086371D01*
X119930262Y-82086374D01*
X119808226Y-82164802D01*
X119808225Y-82164803D01*
X119713222Y-82274442D01*
X119652958Y-82406403D01*
X119652956Y-82406408D01*
X119632312Y-82549996D01*
X117921624Y-82549996D01*
X117972042Y-82439596D01*
X117973584Y-82428870D01*
X117992688Y-82296003D01*
X117992688Y-82295996D01*
X117972043Y-82152408D01*
X117972042Y-82152406D01*
X117972042Y-82152404D01*
X117911777Y-82020442D01*
X117816775Y-81910804D01*
X117816774Y-81910803D01*
X117816773Y-81910802D01*
X117694737Y-81832374D01*
X117694732Y-81832371D01*
X117555536Y-81791500D01*
X117410464Y-81791500D01*
X117410463Y-81791500D01*
X117271267Y-81832371D01*
X117271262Y-81832374D01*
X117149226Y-81910802D01*
X117149225Y-81910803D01*
X117054222Y-82020442D01*
X116993958Y-82152403D01*
X116993956Y-82152408D01*
X116973312Y-82295996D01*
X112078869Y-82295996D01*
X112122682Y-82252183D01*
X112099844Y-82237507D01*
X112099840Y-82237505D01*
X111971985Y-82199964D01*
X111906127Y-82159822D01*
X111889960Y-82130214D01*
X111868858Y-82164835D01*
X111808015Y-82199963D01*
X111680162Y-82237504D01*
X111680159Y-82237505D01*
X111657316Y-82252184D01*
X110722681Y-82252184D01*
X110722682Y-82252183D01*
X110699844Y-82237507D01*
X110699840Y-82237505D01*
X110571985Y-82199964D01*
X110506127Y-82159822D01*
X110489960Y-82130214D01*
X110468858Y-82164835D01*
X110408015Y-82199963D01*
X110280162Y-82237504D01*
X110280159Y-82237505D01*
X110257316Y-82252184D01*
X109322681Y-82252184D01*
X109322682Y-82252183D01*
X109299844Y-82237507D01*
X109299840Y-82237505D01*
X109171985Y-82199964D01*
X109106127Y-82159822D01*
X109089960Y-82130214D01*
X109068858Y-82164835D01*
X109008015Y-82199963D01*
X108880162Y-82237504D01*
X108880159Y-82237505D01*
X108857316Y-82252184D01*
X75354048Y-82252184D01*
X75353496Y-81861814D01*
X107857316Y-81861814D01*
X107880157Y-81876493D01*
X107880158Y-81876494D01*
X108018104Y-81916998D01*
X108018113Y-81917000D01*
X108161887Y-81917000D01*
X108161895Y-81916998D01*
X108299838Y-81876494D01*
X108299845Y-81876491D01*
X108322682Y-81861814D01*
X108857316Y-81861814D01*
X108880155Y-81876492D01*
X109008013Y-81914034D01*
X109073872Y-81954177D01*
X109090039Y-81983784D01*
X109111141Y-81949164D01*
X109171985Y-81914036D01*
X109299838Y-81876494D01*
X109299845Y-81876491D01*
X109322682Y-81861814D01*
X110257316Y-81861814D01*
X110280155Y-81876492D01*
X110408013Y-81914034D01*
X110473872Y-81954177D01*
X110490039Y-81983784D01*
X110511141Y-81949164D01*
X110571985Y-81914036D01*
X110699838Y-81876494D01*
X110699845Y-81876491D01*
X110722682Y-81861814D01*
X111657316Y-81861814D01*
X111680155Y-81876492D01*
X111808013Y-81914034D01*
X111873872Y-81954177D01*
X111890039Y-81983784D01*
X111911141Y-81949164D01*
X111971985Y-81914036D01*
X112099838Y-81876494D01*
X112099845Y-81876491D01*
X112122682Y-81861814D01*
X112657316Y-81861814D01*
X112680157Y-81876493D01*
X112680158Y-81876494D01*
X112818104Y-81916998D01*
X112818113Y-81917000D01*
X112961887Y-81917000D01*
X112961895Y-81916998D01*
X113099838Y-81876494D01*
X113099845Y-81876491D01*
X113122682Y-81861814D01*
X112927864Y-81666996D01*
X114005312Y-81666996D01*
X114005312Y-81667003D01*
X114025956Y-81810591D01*
X114025958Y-81810596D01*
X114086222Y-81942557D01*
X114181225Y-82052196D01*
X114181226Y-82052197D01*
X114268209Y-82108097D01*
X114303268Y-82130629D01*
X114442464Y-82171500D01*
X114442466Y-82171500D01*
X114587534Y-82171500D01*
X114587536Y-82171500D01*
X114726732Y-82130629D01*
X114848775Y-82052196D01*
X114943777Y-81942558D01*
X115004042Y-81810596D01*
X115024688Y-81667000D01*
X115024688Y-81666996D01*
X115004043Y-81523408D01*
X115004042Y-81523406D01*
X115004042Y-81523404D01*
X114943777Y-81391442D01*
X114848775Y-81281804D01*
X114848774Y-81281803D01*
X114848773Y-81281802D01*
X114726737Y-81203374D01*
X114726732Y-81203371D01*
X114587536Y-81162500D01*
X114442464Y-81162500D01*
X114442463Y-81162500D01*
X114303267Y-81203371D01*
X114303262Y-81203374D01*
X114181226Y-81281802D01*
X114181225Y-81281803D01*
X114086222Y-81391442D01*
X114025958Y-81523403D01*
X114025956Y-81523408D01*
X114005312Y-81666996D01*
X112927864Y-81666996D01*
X112890000Y-81629132D01*
X112657316Y-81861814D01*
X112122682Y-81861814D01*
X111890000Y-81629132D01*
X111657316Y-81861814D01*
X110722682Y-81861814D01*
X110490000Y-81629132D01*
X110257316Y-81861814D01*
X109322682Y-81861814D01*
X109090000Y-81629132D01*
X108857316Y-81861814D01*
X108322682Y-81861814D01*
X108090000Y-81629132D01*
X107857316Y-81861814D01*
X75353496Y-81861814D01*
X75352867Y-81416997D01*
X107584858Y-81416997D01*
X107584858Y-81417002D01*
X107605318Y-81559310D01*
X107605320Y-81559317D01*
X107646148Y-81648717D01*
X107877867Y-81416999D01*
X107848031Y-81387163D01*
X107940000Y-81387163D01*
X107940000Y-81446837D01*
X107962836Y-81501968D01*
X108005032Y-81544164D01*
X108060163Y-81567000D01*
X108119837Y-81567000D01*
X108174968Y-81544164D01*
X108217164Y-81501968D01*
X108240000Y-81446837D01*
X108240000Y-81416999D01*
X108302132Y-81416999D01*
X108302132Y-81417000D01*
X108533849Y-81648717D01*
X108563545Y-81643360D01*
X108616456Y-81643360D01*
X108646149Y-81648717D01*
X108877867Y-81416999D01*
X108848031Y-81387163D01*
X108940000Y-81387163D01*
X108940000Y-81446837D01*
X108962836Y-81501968D01*
X109005032Y-81544164D01*
X109060163Y-81567000D01*
X109119837Y-81567000D01*
X109174968Y-81544164D01*
X109217164Y-81501968D01*
X109240000Y-81446837D01*
X109240000Y-81416999D01*
X109302132Y-81416999D01*
X109302132Y-81417000D01*
X109533849Y-81648717D01*
X109533850Y-81648717D01*
X109574679Y-81559318D01*
X109574681Y-81559311D01*
X109595142Y-81417003D01*
X109595142Y-81416997D01*
X109984858Y-81416997D01*
X109984858Y-81417002D01*
X110005318Y-81559310D01*
X110005320Y-81559317D01*
X110046148Y-81648717D01*
X110277867Y-81416999D01*
X110248031Y-81387163D01*
X110340000Y-81387163D01*
X110340000Y-81446837D01*
X110362836Y-81501968D01*
X110405032Y-81544164D01*
X110460163Y-81567000D01*
X110519837Y-81567000D01*
X110574968Y-81544164D01*
X110617164Y-81501968D01*
X110640000Y-81446837D01*
X110640000Y-81416999D01*
X110702132Y-81416999D01*
X110702132Y-81417000D01*
X110933849Y-81648717D01*
X110933850Y-81648717D01*
X110974679Y-81559318D01*
X110974681Y-81559311D01*
X110995142Y-81417003D01*
X110995142Y-81416997D01*
X111384858Y-81416997D01*
X111384858Y-81417002D01*
X111405318Y-81559310D01*
X111405320Y-81559317D01*
X111446148Y-81648717D01*
X111677867Y-81416999D01*
X111648031Y-81387163D01*
X111740000Y-81387163D01*
X111740000Y-81446837D01*
X111762836Y-81501968D01*
X111805032Y-81544164D01*
X111860163Y-81567000D01*
X111919837Y-81567000D01*
X111974968Y-81544164D01*
X112017164Y-81501968D01*
X112040000Y-81446837D01*
X112040000Y-81416999D01*
X112102132Y-81416999D01*
X112102132Y-81417000D01*
X112333849Y-81648717D01*
X112363545Y-81643360D01*
X112416456Y-81643360D01*
X112446149Y-81648717D01*
X112677867Y-81416999D01*
X112648031Y-81387163D01*
X112740000Y-81387163D01*
X112740000Y-81446837D01*
X112762836Y-81501968D01*
X112805032Y-81544164D01*
X112860163Y-81567000D01*
X112919837Y-81567000D01*
X112974968Y-81544164D01*
X113017164Y-81501968D01*
X113040000Y-81446837D01*
X113040000Y-81416999D01*
X113102132Y-81416999D01*
X113102132Y-81417000D01*
X113333849Y-81648717D01*
X113333850Y-81648717D01*
X113374679Y-81559318D01*
X113374681Y-81559311D01*
X113395142Y-81417003D01*
X113395142Y-81416997D01*
X113374680Y-81274687D01*
X113333849Y-81185281D01*
X113102132Y-81416999D01*
X113040000Y-81416999D01*
X113040000Y-81387163D01*
X113017164Y-81332032D01*
X112974968Y-81289836D01*
X112919837Y-81267000D01*
X112860163Y-81267000D01*
X112805032Y-81289836D01*
X112762836Y-81332032D01*
X112740000Y-81387163D01*
X112648031Y-81387163D01*
X112446148Y-81185280D01*
X112416453Y-81190638D01*
X112363545Y-81190638D01*
X112333850Y-81185280D01*
X112102132Y-81416999D01*
X112040000Y-81416999D01*
X112040000Y-81387163D01*
X112017164Y-81332032D01*
X111974968Y-81289836D01*
X111919837Y-81267000D01*
X111860163Y-81267000D01*
X111805032Y-81289836D01*
X111762836Y-81332032D01*
X111740000Y-81387163D01*
X111648031Y-81387163D01*
X111446149Y-81185281D01*
X111405319Y-81274688D01*
X111405318Y-81274689D01*
X111384858Y-81416997D01*
X110995142Y-81416997D01*
X110974680Y-81274687D01*
X110933849Y-81185281D01*
X110702132Y-81416999D01*
X110640000Y-81416999D01*
X110640000Y-81387163D01*
X110617164Y-81332032D01*
X110574968Y-81289836D01*
X110519837Y-81267000D01*
X110460163Y-81267000D01*
X110405032Y-81289836D01*
X110362836Y-81332032D01*
X110340000Y-81387163D01*
X110248031Y-81387163D01*
X110046149Y-81185281D01*
X110005319Y-81274688D01*
X110005318Y-81274689D01*
X109984858Y-81416997D01*
X109595142Y-81416997D01*
X109574680Y-81274687D01*
X109533849Y-81185281D01*
X109302132Y-81416999D01*
X109240000Y-81416999D01*
X109240000Y-81387163D01*
X109217164Y-81332032D01*
X109174968Y-81289836D01*
X109119837Y-81267000D01*
X109060163Y-81267000D01*
X109005032Y-81289836D01*
X108962836Y-81332032D01*
X108940000Y-81387163D01*
X108848031Y-81387163D01*
X108646148Y-81185280D01*
X108616453Y-81190638D01*
X108563545Y-81190638D01*
X108533850Y-81185280D01*
X108302132Y-81416999D01*
X108240000Y-81416999D01*
X108240000Y-81387163D01*
X108217164Y-81332032D01*
X108174968Y-81289836D01*
X108119837Y-81267000D01*
X108060163Y-81267000D01*
X108005032Y-81289836D01*
X107962836Y-81332032D01*
X107940000Y-81387163D01*
X107848031Y-81387163D01*
X107646149Y-81185281D01*
X107605319Y-81274688D01*
X107605318Y-81274689D01*
X107584858Y-81416997D01*
X75352867Y-81416997D01*
X75352238Y-80972184D01*
X107857316Y-80972184D01*
X108089999Y-81204867D01*
X108322681Y-80972184D01*
X108857316Y-80972184D01*
X109089999Y-81204867D01*
X109322681Y-80972184D01*
X110257316Y-80972184D01*
X110489999Y-81204867D01*
X110722681Y-80972184D01*
X111657316Y-80972184D01*
X111889999Y-81204867D01*
X112122681Y-80972184D01*
X112657316Y-80972184D01*
X112889999Y-81204867D01*
X113122682Y-80972183D01*
X113099844Y-80957507D01*
X113099840Y-80957505D01*
X112961895Y-80917001D01*
X112961887Y-80917000D01*
X112818110Y-80917000D01*
X112680158Y-80957506D01*
X112657316Y-80972184D01*
X112122681Y-80972184D01*
X112122682Y-80972183D01*
X112099844Y-80957507D01*
X112099840Y-80957505D01*
X111971985Y-80919964D01*
X111906127Y-80879822D01*
X111889960Y-80850214D01*
X111868858Y-80884835D01*
X111808015Y-80919963D01*
X111680162Y-80957504D01*
X111680159Y-80957505D01*
X111657316Y-80972184D01*
X110722681Y-80972184D01*
X110722682Y-80972183D01*
X110699844Y-80957507D01*
X110699840Y-80957505D01*
X110571985Y-80919964D01*
X110506127Y-80879822D01*
X110489960Y-80850214D01*
X110468858Y-80884835D01*
X110408015Y-80919963D01*
X110280162Y-80957504D01*
X110280159Y-80957505D01*
X110257316Y-80972184D01*
X109322681Y-80972184D01*
X109322682Y-80972183D01*
X109299844Y-80957507D01*
X109299840Y-80957505D01*
X109171985Y-80919964D01*
X109106127Y-80879822D01*
X109089960Y-80850214D01*
X109068858Y-80884835D01*
X109008015Y-80919963D01*
X108880162Y-80957504D01*
X108880159Y-80957505D01*
X108857316Y-80972184D01*
X108322681Y-80972184D01*
X108322682Y-80972183D01*
X108299844Y-80957507D01*
X108299840Y-80957505D01*
X108161895Y-80917001D01*
X108161887Y-80917000D01*
X108018110Y-80917000D01*
X107880158Y-80957506D01*
X107857316Y-80972184D01*
X75352238Y-80972184D01*
X75351686Y-80581814D01*
X108857316Y-80581814D01*
X108880155Y-80596492D01*
X109008013Y-80634034D01*
X109073872Y-80674177D01*
X109090039Y-80703784D01*
X109111141Y-80669164D01*
X109171985Y-80634036D01*
X109299838Y-80596494D01*
X109299845Y-80596491D01*
X109322682Y-80581814D01*
X110257316Y-80581814D01*
X110280155Y-80596492D01*
X110408013Y-80634034D01*
X110473872Y-80674177D01*
X110490039Y-80703784D01*
X110511141Y-80669164D01*
X110571985Y-80634036D01*
X110699838Y-80596494D01*
X110699845Y-80596491D01*
X110722682Y-80581814D01*
X111657316Y-80581814D01*
X111680155Y-80596492D01*
X111808013Y-80634034D01*
X111873872Y-80674177D01*
X111890039Y-80703784D01*
X111911141Y-80669164D01*
X111971985Y-80634036D01*
X112099838Y-80596494D01*
X112099845Y-80596491D01*
X112122682Y-80581814D01*
X111890000Y-80349132D01*
X111657316Y-80581814D01*
X110722682Y-80581814D01*
X110490000Y-80349132D01*
X110257316Y-80581814D01*
X109322682Y-80581814D01*
X109090000Y-80349132D01*
X108857316Y-80581814D01*
X75351686Y-80581814D01*
X75351057Y-80136997D01*
X108584858Y-80136997D01*
X108584858Y-80137002D01*
X108605318Y-80279310D01*
X108605320Y-80279317D01*
X108646148Y-80368717D01*
X108877867Y-80136999D01*
X108848031Y-80107163D01*
X108940000Y-80107163D01*
X108940000Y-80166837D01*
X108962836Y-80221968D01*
X109005032Y-80264164D01*
X109060163Y-80287000D01*
X109119837Y-80287000D01*
X109174968Y-80264164D01*
X109217164Y-80221968D01*
X109240000Y-80166837D01*
X109240000Y-80136999D01*
X109302132Y-80136999D01*
X109302132Y-80137000D01*
X109533849Y-80368717D01*
X109533850Y-80368717D01*
X109574679Y-80279318D01*
X109574681Y-80279311D01*
X109595142Y-80137003D01*
X109595142Y-80136997D01*
X109984858Y-80136997D01*
X109984858Y-80137002D01*
X110005318Y-80279310D01*
X110005320Y-80279317D01*
X110046148Y-80368717D01*
X110277867Y-80136999D01*
X110248031Y-80107163D01*
X110340000Y-80107163D01*
X110340000Y-80166837D01*
X110362836Y-80221968D01*
X110405032Y-80264164D01*
X110460163Y-80287000D01*
X110519837Y-80287000D01*
X110574968Y-80264164D01*
X110617164Y-80221968D01*
X110640000Y-80166837D01*
X110640000Y-80136999D01*
X110702132Y-80136999D01*
X110702132Y-80137000D01*
X110933849Y-80368717D01*
X110933850Y-80368717D01*
X110974679Y-80279318D01*
X110974681Y-80279311D01*
X110995142Y-80137003D01*
X110995142Y-80136997D01*
X111384858Y-80136997D01*
X111384858Y-80137002D01*
X111405318Y-80279310D01*
X111405320Y-80279317D01*
X111446148Y-80368717D01*
X111677867Y-80136999D01*
X111648031Y-80107163D01*
X111740000Y-80107163D01*
X111740000Y-80166837D01*
X111762836Y-80221968D01*
X111805032Y-80264164D01*
X111860163Y-80287000D01*
X111919837Y-80287000D01*
X111974968Y-80264164D01*
X112017164Y-80221968D01*
X112040000Y-80166837D01*
X112040000Y-80136999D01*
X112102132Y-80136999D01*
X112102132Y-80137000D01*
X112333849Y-80368717D01*
X112333850Y-80368717D01*
X112374679Y-80279318D01*
X112374681Y-80279311D01*
X112395142Y-80137003D01*
X112395142Y-80136997D01*
X112374680Y-79994687D01*
X112333849Y-79905281D01*
X112102132Y-80136999D01*
X112040000Y-80136999D01*
X112040000Y-80107163D01*
X112017164Y-80052032D01*
X111974968Y-80009836D01*
X111919837Y-79987000D01*
X111860163Y-79987000D01*
X111805032Y-80009836D01*
X111762836Y-80052032D01*
X111740000Y-80107163D01*
X111648031Y-80107163D01*
X111446149Y-79905281D01*
X111405319Y-79994688D01*
X111405318Y-79994689D01*
X111384858Y-80136997D01*
X110995142Y-80136997D01*
X110974680Y-79994687D01*
X110933849Y-79905281D01*
X110702132Y-80136999D01*
X110640000Y-80136999D01*
X110640000Y-80107163D01*
X110617164Y-80052032D01*
X110574968Y-80009836D01*
X110519837Y-79987000D01*
X110460163Y-79987000D01*
X110405032Y-80009836D01*
X110362836Y-80052032D01*
X110340000Y-80107163D01*
X110248031Y-80107163D01*
X110046149Y-79905281D01*
X110005319Y-79994688D01*
X110005318Y-79994689D01*
X109984858Y-80136997D01*
X109595142Y-80136997D01*
X109574680Y-79994687D01*
X109533849Y-79905281D01*
X109302132Y-80136999D01*
X109240000Y-80136999D01*
X109240000Y-80107163D01*
X109217164Y-80052032D01*
X109174968Y-80009836D01*
X109119837Y-79987000D01*
X109060163Y-79987000D01*
X109005032Y-80009836D01*
X108962836Y-80052032D01*
X108940000Y-80107163D01*
X108848031Y-80107163D01*
X108646149Y-79905281D01*
X108605319Y-79994688D01*
X108605318Y-79994689D01*
X108584858Y-80136997D01*
X75351057Y-80136997D01*
X75350428Y-79692184D01*
X108857316Y-79692184D01*
X109089999Y-79924867D01*
X109322681Y-79692184D01*
X110257316Y-79692184D01*
X110489999Y-79924867D01*
X110722681Y-79692184D01*
X111657316Y-79692184D01*
X111889999Y-79924867D01*
X112122682Y-79692183D01*
X112099844Y-79677507D01*
X112099840Y-79677505D01*
X111961895Y-79637001D01*
X111961887Y-79637000D01*
X111818110Y-79637000D01*
X111680158Y-79677506D01*
X111657316Y-79692184D01*
X110722681Y-79692184D01*
X110722682Y-79692183D01*
X110699844Y-79677507D01*
X110699840Y-79677505D01*
X110561895Y-79637001D01*
X110561887Y-79637000D01*
X110418110Y-79637000D01*
X110280158Y-79677506D01*
X110257316Y-79692184D01*
X109322681Y-79692184D01*
X109322682Y-79692183D01*
X109299844Y-79677507D01*
X109299840Y-79677505D01*
X109161895Y-79637001D01*
X109161887Y-79637000D01*
X109018110Y-79637000D01*
X108880158Y-79677506D01*
X108857316Y-79692184D01*
X75350428Y-79692184D01*
X75349440Y-78993996D01*
X86104312Y-78993996D01*
X86104312Y-78994003D01*
X86124956Y-79137591D01*
X86124958Y-79137596D01*
X86185222Y-79269557D01*
X86280225Y-79379196D01*
X86280226Y-79379197D01*
X86367209Y-79435097D01*
X86402268Y-79457629D01*
X86541464Y-79498500D01*
X86541466Y-79498500D01*
X86686534Y-79498500D01*
X86686536Y-79498500D01*
X86825732Y-79457629D01*
X86947775Y-79379196D01*
X87042777Y-79269558D01*
X87103042Y-79137596D01*
X87103043Y-79137591D01*
X87123688Y-78994003D01*
X87123688Y-78993996D01*
X87103043Y-78850408D01*
X87103042Y-78850406D01*
X87103042Y-78850404D01*
X87042777Y-78718442D01*
X86947775Y-78608804D01*
X86947774Y-78608803D01*
X86947773Y-78608802D01*
X86825737Y-78530374D01*
X86825732Y-78530371D01*
X86686536Y-78489500D01*
X86541464Y-78489500D01*
X86541463Y-78489500D01*
X86402267Y-78530371D01*
X86402262Y-78530374D01*
X86280226Y-78608802D01*
X86280225Y-78608803D01*
X86185222Y-78718442D01*
X86124958Y-78850403D01*
X86124956Y-78850408D01*
X86104312Y-78993996D01*
X75349440Y-78993996D01*
X75348525Y-78347000D01*
X91250693Y-78347000D01*
X91269851Y-78504784D01*
X91326211Y-78653392D01*
X91414033Y-78780625D01*
X91416502Y-78784201D01*
X91535471Y-78889599D01*
X91676207Y-78963463D01*
X91830529Y-79001500D01*
X91989471Y-79001500D01*
X92143793Y-78963463D01*
X92284529Y-78889599D01*
X92403498Y-78784201D01*
X92493787Y-78653395D01*
X92550149Y-78504782D01*
X92569307Y-78347000D01*
X92565664Y-78316996D01*
X94150312Y-78316996D01*
X94150312Y-78317003D01*
X94170956Y-78460591D01*
X94170958Y-78460596D01*
X94231222Y-78592557D01*
X94326225Y-78702196D01*
X94326226Y-78702197D01*
X94413209Y-78758097D01*
X94448268Y-78780629D01*
X94587464Y-78821500D01*
X94587466Y-78821500D01*
X94732534Y-78821500D01*
X94732536Y-78821500D01*
X94871732Y-78780629D01*
X94993775Y-78702196D01*
X95088777Y-78592558D01*
X95149042Y-78460596D01*
X95157665Y-78400625D01*
X95169688Y-78317003D01*
X95169688Y-78316996D01*
X95149043Y-78173408D01*
X95149042Y-78173406D01*
X95149042Y-78173404D01*
X95088777Y-78041442D01*
X94993775Y-77931804D01*
X94993774Y-77931803D01*
X94993773Y-77931802D01*
X94871737Y-77853374D01*
X94871732Y-77853371D01*
X94732536Y-77812500D01*
X94587464Y-77812500D01*
X94587463Y-77812500D01*
X94448267Y-77853371D01*
X94448262Y-77853374D01*
X94326226Y-77931802D01*
X94326225Y-77931803D01*
X94231222Y-78041442D01*
X94170958Y-78173403D01*
X94170956Y-78173408D01*
X94150312Y-78316996D01*
X92565664Y-78316996D01*
X92550149Y-78189218D01*
X92550148Y-78189215D01*
X92493788Y-78040607D01*
X92465453Y-77999557D01*
X92403498Y-77909799D01*
X92284529Y-77804401D01*
X92143793Y-77730537D01*
X92143790Y-77730536D01*
X91989471Y-77692500D01*
X91830529Y-77692500D01*
X91676209Y-77730536D01*
X91535469Y-77804402D01*
X91416501Y-77909799D01*
X91416499Y-77909802D01*
X91326211Y-78040607D01*
X91269851Y-78189215D01*
X91250693Y-78347000D01*
X75348525Y-78347000D01*
X75347644Y-77723996D01*
X83818312Y-77723996D01*
X83818312Y-77724003D01*
X83838956Y-77867591D01*
X83838958Y-77867596D01*
X83899222Y-77999557D01*
X83994225Y-78109196D01*
X83994226Y-78109197D01*
X84081209Y-78165097D01*
X84116268Y-78187629D01*
X84255464Y-78228500D01*
X84255466Y-78228500D01*
X84400534Y-78228500D01*
X84400536Y-78228500D01*
X84539732Y-78187629D01*
X84661775Y-78109196D01*
X84756777Y-77999558D01*
X84817042Y-77867596D01*
X84819087Y-77853374D01*
X84837688Y-77724003D01*
X84837688Y-77723996D01*
X84817043Y-77580408D01*
X84817042Y-77580406D01*
X84817042Y-77580404D01*
X84810919Y-77566996D01*
X100740312Y-77566996D01*
X100740312Y-77567003D01*
X100760956Y-77710591D01*
X100760958Y-77710596D01*
X100821222Y-77842557D01*
X100916225Y-77952196D01*
X100916226Y-77952197D01*
X100989919Y-77999557D01*
X101038268Y-78030629D01*
X101177464Y-78071500D01*
X101177466Y-78071500D01*
X101322534Y-78071500D01*
X101322536Y-78071500D01*
X101461732Y-78030629D01*
X101583775Y-77952196D01*
X101596946Y-77936996D01*
X110990312Y-77936996D01*
X110990312Y-77937003D01*
X111010956Y-78080591D01*
X111010958Y-78080596D01*
X111071222Y-78212557D01*
X111166225Y-78322196D01*
X111166226Y-78322197D01*
X111204820Y-78347000D01*
X111288268Y-78400629D01*
X111427464Y-78441500D01*
X111427466Y-78441500D01*
X111572534Y-78441500D01*
X111572536Y-78441500D01*
X111711732Y-78400629D01*
X111833775Y-78322196D01*
X111911934Y-78231996D01*
X117092312Y-78231996D01*
X117092312Y-78232003D01*
X117112956Y-78375591D01*
X117112958Y-78375596D01*
X117173222Y-78507557D01*
X117268225Y-78617196D01*
X117268226Y-78617197D01*
X117324551Y-78653395D01*
X117390268Y-78695629D01*
X117412637Y-78702197D01*
X117487012Y-78724036D01*
X117552870Y-78764178D01*
X117589834Y-78831872D01*
X117587998Y-78908978D01*
X117547856Y-78974836D01*
X117487012Y-79009964D01*
X117390273Y-79038369D01*
X117390269Y-79038370D01*
X117390268Y-79038371D01*
X117390266Y-79038371D01*
X117390262Y-79038374D01*
X117268226Y-79116802D01*
X117268225Y-79116803D01*
X117173222Y-79226442D01*
X117112958Y-79358403D01*
X117112956Y-79358408D01*
X117092312Y-79501996D01*
X117092312Y-79502003D01*
X117112956Y-79645591D01*
X117112958Y-79645596D01*
X117173222Y-79777557D01*
X117268225Y-79887196D01*
X117268226Y-79887197D01*
X117355209Y-79943097D01*
X117390268Y-79965629D01*
X117424924Y-79975805D01*
X117487012Y-79994036D01*
X117552870Y-80034178D01*
X117589834Y-80101872D01*
X117587998Y-80178978D01*
X117547856Y-80244836D01*
X117487012Y-80279964D01*
X117390273Y-80308369D01*
X117390269Y-80308370D01*
X117390268Y-80308371D01*
X117390266Y-80308371D01*
X117390262Y-80308374D01*
X117268226Y-80386802D01*
X117268225Y-80386803D01*
X117173222Y-80496442D01*
X117112958Y-80628403D01*
X117112956Y-80628408D01*
X117092312Y-80771996D01*
X117092312Y-80772003D01*
X117112956Y-80915591D01*
X117112958Y-80915596D01*
X117173222Y-81047557D01*
X117268225Y-81157196D01*
X117268226Y-81157197D01*
X117320261Y-81190638D01*
X117390268Y-81235629D01*
X117529464Y-81276500D01*
X117529466Y-81276500D01*
X117674534Y-81276500D01*
X117674536Y-81276500D01*
X117813732Y-81235629D01*
X117935775Y-81157196D01*
X118030777Y-81047558D01*
X118091042Y-80915596D01*
X118111688Y-80772000D01*
X118111688Y-80771996D01*
X118091043Y-80628408D01*
X118091042Y-80628406D01*
X118091042Y-80628404D01*
X118030777Y-80496442D01*
X117935775Y-80386804D01*
X117935774Y-80386803D01*
X117935773Y-80386802D01*
X117813737Y-80308374D01*
X117813732Y-80308371D01*
X117813725Y-80308369D01*
X117716985Y-80279964D01*
X117651129Y-80239822D01*
X117614165Y-80172128D01*
X117616000Y-80095022D01*
X117656143Y-80029164D01*
X117716985Y-79994035D01*
X117813732Y-79965629D01*
X117935775Y-79887196D01*
X118030777Y-79777558D01*
X118091042Y-79645596D01*
X118111688Y-79502000D01*
X118111688Y-79501996D01*
X118091043Y-79358408D01*
X118091042Y-79358406D01*
X118091042Y-79358404D01*
X118030777Y-79226442D01*
X117935775Y-79116804D01*
X117935774Y-79116803D01*
X117935773Y-79116802D01*
X117813737Y-79038374D01*
X117813732Y-79038371D01*
X117813725Y-79038369D01*
X117716985Y-79009964D01*
X117651129Y-78969822D01*
X117614165Y-78902128D01*
X117616000Y-78825022D01*
X117656143Y-78759164D01*
X117716985Y-78724035D01*
X117813732Y-78695629D01*
X117935775Y-78617196D01*
X118030777Y-78507558D01*
X118091042Y-78375596D01*
X118091043Y-78375591D01*
X118111688Y-78232003D01*
X118111688Y-78231996D01*
X118091043Y-78088408D01*
X118091042Y-78088406D01*
X118091042Y-78088404D01*
X118030777Y-77956442D01*
X117935775Y-77846804D01*
X117935774Y-77846803D01*
X117935773Y-77846802D01*
X117813737Y-77768374D01*
X117813732Y-77768371D01*
X117674536Y-77727500D01*
X117529464Y-77727500D01*
X117529463Y-77727500D01*
X117390267Y-77768371D01*
X117390262Y-77768374D01*
X117268226Y-77846802D01*
X117268225Y-77846803D01*
X117173222Y-77956442D01*
X117112958Y-78088403D01*
X117112956Y-78088408D01*
X117092312Y-78231996D01*
X111911934Y-78231996D01*
X111928777Y-78212558D01*
X111989042Y-78080596D01*
X111990350Y-78071499D01*
X112009688Y-77937003D01*
X112009688Y-77936996D01*
X111989043Y-77793408D01*
X111989042Y-77793406D01*
X111989042Y-77793404D01*
X111928777Y-77661442D01*
X111833775Y-77551804D01*
X111833774Y-77551803D01*
X111833773Y-77551802D01*
X111711737Y-77473374D01*
X111711732Y-77473371D01*
X111572536Y-77432500D01*
X111427464Y-77432500D01*
X111427463Y-77432500D01*
X111288267Y-77473371D01*
X111288262Y-77473374D01*
X111166226Y-77551802D01*
X111166225Y-77551803D01*
X111071222Y-77661442D01*
X111010958Y-77793403D01*
X111010956Y-77793408D01*
X110990312Y-77936996D01*
X101596946Y-77936996D01*
X101678777Y-77842558D01*
X101739042Y-77710596D01*
X101741644Y-77692500D01*
X101759688Y-77567003D01*
X101759688Y-77566996D01*
X101739043Y-77423408D01*
X101739042Y-77423406D01*
X101739042Y-77423404D01*
X101678777Y-77291442D01*
X101583775Y-77181804D01*
X101583774Y-77181803D01*
X101583773Y-77181802D01*
X101461737Y-77103374D01*
X101461732Y-77103371D01*
X101322536Y-77062500D01*
X101177464Y-77062500D01*
X101177463Y-77062500D01*
X101038267Y-77103371D01*
X101038262Y-77103374D01*
X100916226Y-77181802D01*
X100916225Y-77181803D01*
X100821222Y-77291442D01*
X100760958Y-77423403D01*
X100760956Y-77423408D01*
X100740312Y-77566996D01*
X84810919Y-77566996D01*
X84756777Y-77448442D01*
X84661775Y-77338804D01*
X84661774Y-77338803D01*
X84661773Y-77338802D01*
X84539737Y-77260374D01*
X84539732Y-77260371D01*
X84400536Y-77219500D01*
X84255464Y-77219500D01*
X84255463Y-77219500D01*
X84116267Y-77260371D01*
X84116262Y-77260374D01*
X83994226Y-77338802D01*
X83994225Y-77338803D01*
X83899222Y-77448442D01*
X83838958Y-77580403D01*
X83838956Y-77580408D01*
X83818312Y-77723996D01*
X75347644Y-77723996D01*
X75344051Y-75183996D01*
X98169312Y-75183996D01*
X98169312Y-75184003D01*
X98189956Y-75327591D01*
X98189958Y-75327596D01*
X98250222Y-75459557D01*
X98345225Y-75569196D01*
X98345226Y-75569197D01*
X98432209Y-75625097D01*
X98467268Y-75647629D01*
X98606464Y-75688500D01*
X98606466Y-75688500D01*
X98751534Y-75688500D01*
X98751536Y-75688500D01*
X98890732Y-75647629D01*
X99012775Y-75569196D01*
X99107777Y-75459558D01*
X99168042Y-75327596D01*
X99188688Y-75184000D01*
X99188688Y-75183996D01*
X99168043Y-75040408D01*
X99168042Y-75040406D01*
X99168042Y-75040404D01*
X99107777Y-74908442D01*
X99012775Y-74798804D01*
X99012774Y-74798803D01*
X99012773Y-74798802D01*
X98890737Y-74720374D01*
X98890732Y-74720371D01*
X98751536Y-74679500D01*
X98606464Y-74679500D01*
X98606463Y-74679500D01*
X98467267Y-74720371D01*
X98467262Y-74720374D01*
X98345226Y-74798802D01*
X98345225Y-74798803D01*
X98250222Y-74908442D01*
X98189958Y-75040403D01*
X98189956Y-75040408D01*
X98169312Y-75183996D01*
X75344051Y-75183996D01*
X75342973Y-74421996D01*
X100328312Y-74421996D01*
X100328312Y-74422003D01*
X100348956Y-74565591D01*
X100348958Y-74565596D01*
X100409222Y-74697557D01*
X100504225Y-74807196D01*
X100504226Y-74807197D01*
X100591209Y-74863097D01*
X100626268Y-74885629D01*
X100765464Y-74926500D01*
X100765466Y-74926500D01*
X100910534Y-74926500D01*
X100910536Y-74926500D01*
X101049732Y-74885629D01*
X101171775Y-74807196D01*
X101266777Y-74697558D01*
X101327042Y-74565596D01*
X101329429Y-74548996D01*
X121410312Y-74548996D01*
X121410312Y-74549003D01*
X121430956Y-74692591D01*
X121430958Y-74692596D01*
X121491222Y-74824557D01*
X121586225Y-74934196D01*
X121586226Y-74934197D01*
X121673209Y-74990097D01*
X121708268Y-75012629D01*
X121847464Y-75053500D01*
X121847466Y-75053500D01*
X121992534Y-75053500D01*
X121992536Y-75053500D01*
X122131732Y-75012629D01*
X122253775Y-74934196D01*
X122348777Y-74824558D01*
X122409042Y-74692596D01*
X122409043Y-74692591D01*
X122412036Y-74682400D01*
X122452179Y-74616542D01*
X122519873Y-74579579D01*
X122596979Y-74581415D01*
X122662837Y-74621558D01*
X122697964Y-74682400D01*
X122700957Y-74692594D01*
X122761222Y-74824557D01*
X122856225Y-74934196D01*
X122856226Y-74934197D01*
X122943209Y-74990097D01*
X122978268Y-75012629D01*
X123117464Y-75053500D01*
X123117466Y-75053500D01*
X123262534Y-75053500D01*
X123262536Y-75053500D01*
X123401732Y-75012629D01*
X123523775Y-74934196D01*
X123618777Y-74824558D01*
X123679042Y-74692596D01*
X123689977Y-74616542D01*
X123699688Y-74549003D01*
X123699688Y-74548996D01*
X123679043Y-74405408D01*
X123679042Y-74405406D01*
X123679042Y-74405404D01*
X123618777Y-74273442D01*
X123523775Y-74163804D01*
X123523774Y-74163803D01*
X123523773Y-74163802D01*
X123401737Y-74085374D01*
X123401732Y-74085371D01*
X123262536Y-74044500D01*
X123117464Y-74044500D01*
X123117463Y-74044500D01*
X122978267Y-74085371D01*
X122978262Y-74085374D01*
X122856226Y-74163802D01*
X122856225Y-74163803D01*
X122761222Y-74273442D01*
X122700958Y-74405402D01*
X122697964Y-74415601D01*
X122657820Y-74481458D01*
X122590125Y-74518421D01*
X122513019Y-74516584D01*
X122447162Y-74476440D01*
X122412036Y-74415601D01*
X122409041Y-74405403D01*
X122348777Y-74273442D01*
X122253775Y-74163804D01*
X122253774Y-74163803D01*
X122253773Y-74163802D01*
X122131737Y-74085374D01*
X122131732Y-74085371D01*
X121992536Y-74044500D01*
X121847464Y-74044500D01*
X121847463Y-74044500D01*
X121708267Y-74085371D01*
X121708262Y-74085374D01*
X121586226Y-74163802D01*
X121586225Y-74163803D01*
X121491222Y-74273442D01*
X121430958Y-74405403D01*
X121430956Y-74405408D01*
X121410312Y-74548996D01*
X101329429Y-74548996D01*
X101334089Y-74516584D01*
X101347688Y-74422003D01*
X101347688Y-74421996D01*
X101327043Y-74278408D01*
X101327042Y-74278406D01*
X101327042Y-74278404D01*
X101266777Y-74146442D01*
X101171775Y-74036804D01*
X101171774Y-74036803D01*
X101171773Y-74036802D01*
X101049737Y-73958374D01*
X101049732Y-73958371D01*
X100910536Y-73917500D01*
X100765464Y-73917500D01*
X100765463Y-73917500D01*
X100626267Y-73958371D01*
X100626262Y-73958374D01*
X100504226Y-74036802D01*
X100504225Y-74036803D01*
X100409222Y-74146442D01*
X100348958Y-74278403D01*
X100348956Y-74278408D01*
X100328312Y-74421996D01*
X75342973Y-74421996D01*
X75339466Y-71941995D01*
X83140768Y-71941995D01*
X83140768Y-71942004D01*
X83159654Y-72145816D01*
X83159654Y-72145818D01*
X83159655Y-72145821D01*
X83189014Y-72249007D01*
X83215671Y-72342698D01*
X83215675Y-72342710D01*
X83306909Y-72525931D01*
X83430268Y-72689285D01*
X83581537Y-72827185D01*
X83581538Y-72827186D01*
X83755571Y-72934943D01*
X83755576Y-72934946D01*
X83933093Y-73003715D01*
X83946444Y-73008888D01*
X84147653Y-73046500D01*
X84147656Y-73046500D01*
X84352344Y-73046500D01*
X84352347Y-73046500D01*
X84553556Y-73008888D01*
X84648991Y-72971916D01*
X84744423Y-72934946D01*
X84744425Y-72934944D01*
X84744427Y-72934944D01*
X84918462Y-72827186D01*
X85069732Y-72689285D01*
X85193088Y-72525935D01*
X85234883Y-72442000D01*
X85284324Y-72342710D01*
X85284324Y-72342707D01*
X85284328Y-72342701D01*
X85340345Y-72145821D01*
X85353285Y-72006178D01*
X85359232Y-71942004D01*
X85359232Y-71941995D01*
X85680768Y-71941995D01*
X85680768Y-71942004D01*
X85699654Y-72145816D01*
X85699654Y-72145818D01*
X85699655Y-72145821D01*
X85729014Y-72249007D01*
X85755671Y-72342698D01*
X85755675Y-72342710D01*
X85846909Y-72525931D01*
X85970268Y-72689285D01*
X86121537Y-72827185D01*
X86121538Y-72827186D01*
X86295571Y-72934943D01*
X86295576Y-72934946D01*
X86473093Y-73003715D01*
X86486444Y-73008888D01*
X86687653Y-73046500D01*
X86687656Y-73046500D01*
X86892344Y-73046500D01*
X86892347Y-73046500D01*
X87093556Y-73008888D01*
X87188991Y-72971916D01*
X87284423Y-72934946D01*
X87284425Y-72934944D01*
X87284427Y-72934944D01*
X87458462Y-72827186D01*
X87609732Y-72689285D01*
X87733088Y-72525935D01*
X87774883Y-72442000D01*
X87824324Y-72342710D01*
X87824324Y-72342707D01*
X87824328Y-72342701D01*
X87880345Y-72145821D01*
X87893285Y-72006178D01*
X87899232Y-71942004D01*
X87899232Y-71941995D01*
X88220768Y-71941995D01*
X88220768Y-71942004D01*
X88239654Y-72145816D01*
X88239654Y-72145818D01*
X88239655Y-72145821D01*
X88269014Y-72249007D01*
X88295671Y-72342698D01*
X88295675Y-72342710D01*
X88386909Y-72525931D01*
X88510268Y-72689285D01*
X88661537Y-72827185D01*
X88661538Y-72827186D01*
X88835571Y-72934943D01*
X88835576Y-72934946D01*
X89013093Y-73003715D01*
X89026444Y-73008888D01*
X89227653Y-73046500D01*
X89227656Y-73046500D01*
X89432344Y-73046500D01*
X89432347Y-73046500D01*
X89633556Y-73008888D01*
X89728991Y-72971916D01*
X89824423Y-72934946D01*
X89824425Y-72934944D01*
X89824427Y-72934944D01*
X89998462Y-72827186D01*
X90149732Y-72689285D01*
X90273088Y-72525935D01*
X90314883Y-72442000D01*
X90364324Y-72342710D01*
X90364324Y-72342707D01*
X90364328Y-72342701D01*
X90420345Y-72145821D01*
X90433285Y-72006178D01*
X90439232Y-71942004D01*
X90439232Y-71941995D01*
X90760768Y-71941995D01*
X90760768Y-71942004D01*
X90779654Y-72145816D01*
X90779654Y-72145818D01*
X90779655Y-72145821D01*
X90809014Y-72249007D01*
X90835671Y-72342698D01*
X90835675Y-72342710D01*
X90926909Y-72525931D01*
X91050268Y-72689285D01*
X91201537Y-72827185D01*
X91201538Y-72827186D01*
X91375571Y-72934943D01*
X91375576Y-72934946D01*
X91553093Y-73003715D01*
X91566444Y-73008888D01*
X91767653Y-73046500D01*
X91767656Y-73046500D01*
X91972344Y-73046500D01*
X91972347Y-73046500D01*
X92173556Y-73008888D01*
X92268991Y-72971916D01*
X92364423Y-72934946D01*
X92364425Y-72934944D01*
X92364427Y-72934944D01*
X92538462Y-72827186D01*
X92689732Y-72689285D01*
X92813088Y-72525935D01*
X92854883Y-72442000D01*
X92904324Y-72342710D01*
X92904324Y-72342707D01*
X92904328Y-72342701D01*
X92960345Y-72145821D01*
X92973285Y-72006178D01*
X92979232Y-71942004D01*
X92979232Y-71941995D01*
X93300768Y-71941995D01*
X93300768Y-71942004D01*
X93319654Y-72145816D01*
X93319654Y-72145818D01*
X93319655Y-72145821D01*
X93349014Y-72249007D01*
X93375671Y-72342698D01*
X93375675Y-72342710D01*
X93466909Y-72525931D01*
X93590268Y-72689285D01*
X93741537Y-72827185D01*
X93741538Y-72827186D01*
X93915571Y-72934943D01*
X93915576Y-72934946D01*
X94093093Y-73003715D01*
X94106444Y-73008888D01*
X94307653Y-73046500D01*
X94307656Y-73046500D01*
X94512344Y-73046500D01*
X94512347Y-73046500D01*
X94713556Y-73008888D01*
X94808991Y-72971916D01*
X94904423Y-72934946D01*
X94904425Y-72934944D01*
X94904427Y-72934944D01*
X95078462Y-72827186D01*
X95229732Y-72689285D01*
X95353088Y-72525935D01*
X95394883Y-72442000D01*
X95444324Y-72342710D01*
X95444324Y-72342707D01*
X95444328Y-72342701D01*
X95500345Y-72145821D01*
X95513285Y-72006178D01*
X95519232Y-71942004D01*
X95519232Y-71941995D01*
X95840768Y-71941995D01*
X95840768Y-71942004D01*
X95859654Y-72145816D01*
X95859654Y-72145818D01*
X95859655Y-72145821D01*
X95889014Y-72249007D01*
X95915671Y-72342698D01*
X95915675Y-72342710D01*
X96006909Y-72525931D01*
X96130268Y-72689285D01*
X96281537Y-72827185D01*
X96281538Y-72827186D01*
X96455571Y-72934943D01*
X96455576Y-72934946D01*
X96633093Y-73003715D01*
X96646444Y-73008888D01*
X96847653Y-73046500D01*
X96847656Y-73046500D01*
X97052344Y-73046500D01*
X97052347Y-73046500D01*
X97253556Y-73008888D01*
X97348991Y-72971916D01*
X97444423Y-72934946D01*
X97444425Y-72934944D01*
X97444427Y-72934944D01*
X97618462Y-72827186D01*
X97769732Y-72689285D01*
X97893088Y-72525935D01*
X97934883Y-72442000D01*
X97984324Y-72342710D01*
X97984324Y-72342707D01*
X97984328Y-72342701D01*
X98040345Y-72145821D01*
X98053285Y-72006178D01*
X98059232Y-71942004D01*
X98059232Y-71941995D01*
X98380768Y-71941995D01*
X98380768Y-71942004D01*
X98399654Y-72145816D01*
X98399654Y-72145818D01*
X98399655Y-72145821D01*
X98429014Y-72249007D01*
X98455671Y-72342698D01*
X98455675Y-72342710D01*
X98546909Y-72525931D01*
X98670268Y-72689285D01*
X98821537Y-72827185D01*
X98821538Y-72827186D01*
X98995571Y-72934943D01*
X98995576Y-72934946D01*
X99173093Y-73003715D01*
X99186444Y-73008888D01*
X99387653Y-73046500D01*
X99387656Y-73046500D01*
X99592344Y-73046500D01*
X99592347Y-73046500D01*
X99793556Y-73008888D01*
X99888991Y-72971916D01*
X99984423Y-72934946D01*
X99984425Y-72934944D01*
X99984427Y-72934944D01*
X100158462Y-72827186D01*
X100309732Y-72689285D01*
X100433088Y-72525935D01*
X100474883Y-72442000D01*
X100524324Y-72342710D01*
X100524324Y-72342707D01*
X100524328Y-72342701D01*
X100580345Y-72145821D01*
X100593285Y-72006178D01*
X100599232Y-71942004D01*
X100599232Y-71941995D01*
X100920768Y-71941995D01*
X100920768Y-71942004D01*
X100939654Y-72145816D01*
X100939654Y-72145818D01*
X100939655Y-72145821D01*
X100969014Y-72249007D01*
X100995671Y-72342698D01*
X100995675Y-72342710D01*
X101086909Y-72525931D01*
X101210268Y-72689285D01*
X101361537Y-72827185D01*
X101361538Y-72827186D01*
X101535571Y-72934943D01*
X101535576Y-72934946D01*
X101713093Y-73003715D01*
X101726444Y-73008888D01*
X101927653Y-73046500D01*
X101927656Y-73046500D01*
X102132344Y-73046500D01*
X102132347Y-73046500D01*
X102333556Y-73008888D01*
X102428991Y-72971916D01*
X102524423Y-72934946D01*
X102524425Y-72934944D01*
X102524427Y-72934944D01*
X102698462Y-72827186D01*
X102849732Y-72689285D01*
X102973088Y-72525935D01*
X103014883Y-72442000D01*
X103064324Y-72342710D01*
X103064324Y-72342707D01*
X103064328Y-72342701D01*
X103120345Y-72145821D01*
X103133285Y-72006178D01*
X103139232Y-71942004D01*
X103139232Y-71941995D01*
X103460768Y-71941995D01*
X103460768Y-71942004D01*
X103479654Y-72145816D01*
X103479654Y-72145818D01*
X103479655Y-72145821D01*
X103509014Y-72249007D01*
X103535671Y-72342698D01*
X103535675Y-72342710D01*
X103626909Y-72525931D01*
X103750268Y-72689285D01*
X103901537Y-72827185D01*
X103901538Y-72827186D01*
X104075571Y-72934943D01*
X104075576Y-72934946D01*
X104253093Y-73003715D01*
X104266444Y-73008888D01*
X104467653Y-73046500D01*
X104467656Y-73046500D01*
X104672344Y-73046500D01*
X104672347Y-73046500D01*
X104873556Y-73008888D01*
X104968991Y-72971916D01*
X105064423Y-72934946D01*
X105064425Y-72934944D01*
X105064427Y-72934944D01*
X105238462Y-72827186D01*
X105389732Y-72689285D01*
X105513088Y-72525935D01*
X105554883Y-72442000D01*
X105604324Y-72342710D01*
X105604324Y-72342707D01*
X105604328Y-72342701D01*
X105660345Y-72145821D01*
X105673285Y-72006178D01*
X105679232Y-71942004D01*
X105679232Y-71941995D01*
X106000768Y-71941995D01*
X106000768Y-71942004D01*
X106019654Y-72145816D01*
X106019654Y-72145818D01*
X106019655Y-72145821D01*
X106049014Y-72249007D01*
X106075671Y-72342698D01*
X106075675Y-72342710D01*
X106166909Y-72525931D01*
X106290268Y-72689285D01*
X106441537Y-72827185D01*
X106441538Y-72827186D01*
X106615571Y-72934943D01*
X106615576Y-72934946D01*
X106793093Y-73003715D01*
X106806444Y-73008888D01*
X107007653Y-73046500D01*
X107007656Y-73046500D01*
X107212344Y-73046500D01*
X107212347Y-73046500D01*
X107413556Y-73008888D01*
X107508991Y-72971916D01*
X107604423Y-72934946D01*
X107604425Y-72934944D01*
X107604427Y-72934944D01*
X107778462Y-72827186D01*
X107929732Y-72689285D01*
X108053088Y-72525935D01*
X108094883Y-72442000D01*
X108144324Y-72342710D01*
X108144324Y-72342707D01*
X108144328Y-72342701D01*
X108200345Y-72145821D01*
X108201349Y-72134993D01*
X108208788Y-72054708D01*
X108235538Y-71982367D01*
X108284147Y-71942001D01*
X108430151Y-71942001D01*
X108443240Y-71946841D01*
X108492513Y-72006178D01*
X108505516Y-72054706D01*
X108514737Y-72154212D01*
X108573062Y-72359204D01*
X108668063Y-72549993D01*
X108737683Y-72642183D01*
X109206328Y-72173537D01*
X109249901Y-72249007D01*
X109342993Y-72342099D01*
X109418460Y-72385670D01*
X108946926Y-72857204D01*
X108953994Y-72863646D01*
X108953999Y-72863650D01*
X109135206Y-72975848D01*
X109135209Y-72975850D01*
X109333934Y-73052836D01*
X109543432Y-73091999D01*
X109543440Y-73092000D01*
X109756560Y-73092000D01*
X109756567Y-73091999D01*
X109966065Y-73052836D01*
X110164790Y-72975850D01*
X110164793Y-72975848D01*
X110346000Y-72863650D01*
X110353071Y-72857204D01*
X109881538Y-72385670D01*
X109957007Y-72342099D01*
X110050099Y-72249007D01*
X110093670Y-72173538D01*
X110562316Y-72642184D01*
X110631936Y-72549995D01*
X110631940Y-72549989D01*
X110726937Y-72359206D01*
X110785262Y-72154212D01*
X110785263Y-72154211D01*
X110794483Y-72054708D01*
X110821233Y-71982367D01*
X110869842Y-71942001D01*
X111015846Y-71942001D01*
X111028935Y-71946841D01*
X111078208Y-72006178D01*
X111091211Y-72054706D01*
X111099654Y-72145817D01*
X111099654Y-72145820D01*
X111099655Y-72145821D01*
X111126842Y-72241373D01*
X111155671Y-72342698D01*
X111155675Y-72342710D01*
X111246909Y-72525931D01*
X111370268Y-72689285D01*
X111521537Y-72827185D01*
X111521538Y-72827186D01*
X111695571Y-72934943D01*
X111695576Y-72934946D01*
X111873093Y-73003715D01*
X111886444Y-73008888D01*
X112087653Y-73046500D01*
X112087656Y-73046500D01*
X112292344Y-73046500D01*
X112292347Y-73046500D01*
X112493556Y-73008888D01*
X112588991Y-72971916D01*
X112684423Y-72934946D01*
X112684425Y-72934944D01*
X112684427Y-72934944D01*
X112858462Y-72827186D01*
X113009732Y-72689285D01*
X113133088Y-72525935D01*
X113174883Y-72442000D01*
X113224324Y-72342710D01*
X113224324Y-72342707D01*
X113224328Y-72342701D01*
X113280345Y-72145821D01*
X113293285Y-72006178D01*
X113299232Y-71942004D01*
X113299232Y-71941995D01*
X113280345Y-71738183D01*
X113280345Y-71738179D01*
X113224328Y-71541299D01*
X113224325Y-71541294D01*
X113224324Y-71541289D01*
X113133090Y-71358068D01*
X113114918Y-71334005D01*
X113009732Y-71194715D01*
X112858462Y-71056814D01*
X112858461Y-71056813D01*
X112684428Y-70949056D01*
X112684423Y-70949053D01*
X112493560Y-70875113D01*
X112493557Y-70875112D01*
X112493556Y-70875112D01*
X112442799Y-70865623D01*
X112292351Y-70837500D01*
X112292347Y-70837500D01*
X112087653Y-70837500D01*
X112087648Y-70837500D01*
X111886439Y-70875113D01*
X111695576Y-70949053D01*
X111695571Y-70949056D01*
X111521538Y-71056813D01*
X111521537Y-71056814D01*
X111370268Y-71194714D01*
X111246909Y-71358068D01*
X111155675Y-71541289D01*
X111155671Y-71541301D01*
X111129014Y-71634993D01*
X111102043Y-71729788D01*
X111099654Y-71738183D01*
X111091211Y-71829293D01*
X111064460Y-71901633D01*
X111015846Y-71942001D01*
X110869842Y-71942001D01*
X110869847Y-71941997D01*
X110856758Y-71937157D01*
X110807485Y-71877819D01*
X110794483Y-71829291D01*
X110785263Y-71729788D01*
X110785262Y-71729787D01*
X110726937Y-71524793D01*
X110631941Y-71334013D01*
X110562315Y-71241815D01*
X110093670Y-71710460D01*
X110050099Y-71634993D01*
X109957007Y-71541901D01*
X109881537Y-71498328D01*
X110353071Y-71026795D01*
X110353071Y-71026794D01*
X110346005Y-71020353D01*
X110346000Y-71020349D01*
X110164793Y-70908151D01*
X110164790Y-70908149D01*
X109966065Y-70831163D01*
X109756567Y-70792000D01*
X109543432Y-70792000D01*
X109333934Y-70831163D01*
X109135209Y-70908149D01*
X109135206Y-70908151D01*
X108954001Y-71020347D01*
X108953994Y-71020352D01*
X108946927Y-71026794D01*
X108946927Y-71026795D01*
X109418461Y-71498329D01*
X109342993Y-71541901D01*
X109249901Y-71634993D01*
X109206329Y-71710461D01*
X108737682Y-71241814D01*
X108668063Y-71334005D01*
X108573062Y-71524795D01*
X108514737Y-71729787D01*
X108505516Y-71829293D01*
X108478765Y-71901633D01*
X108430151Y-71942001D01*
X108284147Y-71942001D01*
X108284152Y-71941997D01*
X108271063Y-71937157D01*
X108221790Y-71877819D01*
X108208788Y-71829291D01*
X108200346Y-71738184D01*
X108200345Y-71738183D01*
X108200345Y-71738179D01*
X108144328Y-71541299D01*
X108144325Y-71541294D01*
X108144324Y-71541289D01*
X108053090Y-71358068D01*
X108034918Y-71334005D01*
X107929732Y-71194715D01*
X107778462Y-71056814D01*
X107778461Y-71056813D01*
X107604428Y-70949056D01*
X107604423Y-70949053D01*
X107413560Y-70875113D01*
X107413557Y-70875112D01*
X107413556Y-70875112D01*
X107362799Y-70865623D01*
X107212351Y-70837500D01*
X107212347Y-70837500D01*
X107007653Y-70837500D01*
X107007648Y-70837500D01*
X106806439Y-70875113D01*
X106615576Y-70949053D01*
X106615571Y-70949056D01*
X106441538Y-71056813D01*
X106441537Y-71056814D01*
X106290268Y-71194714D01*
X106166909Y-71358068D01*
X106075675Y-71541289D01*
X106075671Y-71541301D01*
X106049014Y-71634993D01*
X106022043Y-71729788D01*
X106019654Y-71738183D01*
X106000768Y-71941995D01*
X105679232Y-71941995D01*
X105660345Y-71738183D01*
X105660345Y-71738179D01*
X105604328Y-71541299D01*
X105604325Y-71541294D01*
X105604324Y-71541289D01*
X105513090Y-71358068D01*
X105494918Y-71334005D01*
X105389732Y-71194715D01*
X105238462Y-71056814D01*
X105238461Y-71056813D01*
X105064428Y-70949056D01*
X105064423Y-70949053D01*
X104873560Y-70875113D01*
X104873557Y-70875112D01*
X104873556Y-70875112D01*
X104822799Y-70865623D01*
X104672351Y-70837500D01*
X104672347Y-70837500D01*
X104467653Y-70837500D01*
X104467648Y-70837500D01*
X104266439Y-70875113D01*
X104075576Y-70949053D01*
X104075571Y-70949056D01*
X103901538Y-71056813D01*
X103901537Y-71056814D01*
X103750268Y-71194714D01*
X103626909Y-71358068D01*
X103535675Y-71541289D01*
X103535671Y-71541301D01*
X103509014Y-71634993D01*
X103482043Y-71729788D01*
X103479654Y-71738183D01*
X103460768Y-71941995D01*
X103139232Y-71941995D01*
X103120345Y-71738183D01*
X103120345Y-71738179D01*
X103064328Y-71541299D01*
X103064325Y-71541294D01*
X103064324Y-71541289D01*
X102973090Y-71358068D01*
X102954918Y-71334005D01*
X102849732Y-71194715D01*
X102698462Y-71056814D01*
X102698461Y-71056813D01*
X102524428Y-70949056D01*
X102524423Y-70949053D01*
X102333560Y-70875113D01*
X102333557Y-70875112D01*
X102333556Y-70875112D01*
X102282799Y-70865623D01*
X102132351Y-70837500D01*
X102132347Y-70837500D01*
X101927653Y-70837500D01*
X101927648Y-70837500D01*
X101726439Y-70875113D01*
X101535576Y-70949053D01*
X101535571Y-70949056D01*
X101361538Y-71056813D01*
X101361537Y-71056814D01*
X101210268Y-71194714D01*
X101086909Y-71358068D01*
X100995675Y-71541289D01*
X100995671Y-71541301D01*
X100969014Y-71634993D01*
X100942043Y-71729788D01*
X100939654Y-71738183D01*
X100920768Y-71941995D01*
X100599232Y-71941995D01*
X100580345Y-71738183D01*
X100580345Y-71738179D01*
X100524328Y-71541299D01*
X100524325Y-71541294D01*
X100524324Y-71541289D01*
X100433090Y-71358068D01*
X100414918Y-71334005D01*
X100309732Y-71194715D01*
X100158462Y-71056814D01*
X100158461Y-71056813D01*
X99984428Y-70949056D01*
X99984423Y-70949053D01*
X99793560Y-70875113D01*
X99793557Y-70875112D01*
X99793556Y-70875112D01*
X99742799Y-70865623D01*
X99592351Y-70837500D01*
X99592347Y-70837500D01*
X99387653Y-70837500D01*
X99387648Y-70837500D01*
X99186439Y-70875113D01*
X98995576Y-70949053D01*
X98995571Y-70949056D01*
X98821538Y-71056813D01*
X98821537Y-71056814D01*
X98670268Y-71194714D01*
X98546909Y-71358068D01*
X98455675Y-71541289D01*
X98455671Y-71541301D01*
X98429014Y-71634993D01*
X98402043Y-71729788D01*
X98399654Y-71738183D01*
X98380768Y-71941995D01*
X98059232Y-71941995D01*
X98040345Y-71738183D01*
X98040345Y-71738179D01*
X97984328Y-71541299D01*
X97984325Y-71541294D01*
X97984324Y-71541289D01*
X97893090Y-71358068D01*
X97874918Y-71334005D01*
X97769732Y-71194715D01*
X97618462Y-71056814D01*
X97618461Y-71056813D01*
X97444428Y-70949056D01*
X97444423Y-70949053D01*
X97253560Y-70875113D01*
X97253557Y-70875112D01*
X97253556Y-70875112D01*
X97202799Y-70865623D01*
X97052351Y-70837500D01*
X97052347Y-70837500D01*
X96847653Y-70837500D01*
X96847648Y-70837500D01*
X96646439Y-70875113D01*
X96455576Y-70949053D01*
X96455571Y-70949056D01*
X96281538Y-71056813D01*
X96281537Y-71056814D01*
X96130268Y-71194714D01*
X96006909Y-71358068D01*
X95915675Y-71541289D01*
X95915671Y-71541301D01*
X95889014Y-71634993D01*
X95862043Y-71729788D01*
X95859654Y-71738183D01*
X95840768Y-71941995D01*
X95519232Y-71941995D01*
X95500345Y-71738183D01*
X95500345Y-71738179D01*
X95444328Y-71541299D01*
X95444325Y-71541294D01*
X95444324Y-71541289D01*
X95353090Y-71358068D01*
X95334918Y-71334005D01*
X95229732Y-71194715D01*
X95078462Y-71056814D01*
X95078461Y-71056813D01*
X94904428Y-70949056D01*
X94904423Y-70949053D01*
X94713560Y-70875113D01*
X94713557Y-70875112D01*
X94713556Y-70875112D01*
X94662799Y-70865623D01*
X94512351Y-70837500D01*
X94512347Y-70837500D01*
X94307653Y-70837500D01*
X94307648Y-70837500D01*
X94106439Y-70875113D01*
X93915576Y-70949053D01*
X93915571Y-70949056D01*
X93741538Y-71056813D01*
X93741537Y-71056814D01*
X93590268Y-71194714D01*
X93466909Y-71358068D01*
X93375675Y-71541289D01*
X93375671Y-71541301D01*
X93349014Y-71634993D01*
X93322043Y-71729788D01*
X93319654Y-71738183D01*
X93300768Y-71941995D01*
X92979232Y-71941995D01*
X92960345Y-71738183D01*
X92960345Y-71738179D01*
X92904328Y-71541299D01*
X92904325Y-71541294D01*
X92904324Y-71541289D01*
X92813090Y-71358068D01*
X92794918Y-71334005D01*
X92689732Y-71194715D01*
X92538462Y-71056814D01*
X92538461Y-71056813D01*
X92364428Y-70949056D01*
X92364423Y-70949053D01*
X92173560Y-70875113D01*
X92173557Y-70875112D01*
X92173556Y-70875112D01*
X92122799Y-70865623D01*
X91972351Y-70837500D01*
X91972347Y-70837500D01*
X91767653Y-70837500D01*
X91767648Y-70837500D01*
X91566439Y-70875113D01*
X91375576Y-70949053D01*
X91375571Y-70949056D01*
X91201538Y-71056813D01*
X91201537Y-71056814D01*
X91050268Y-71194714D01*
X90926909Y-71358068D01*
X90835675Y-71541289D01*
X90835671Y-71541301D01*
X90809014Y-71634993D01*
X90782043Y-71729788D01*
X90779654Y-71738183D01*
X90760768Y-71941995D01*
X90439232Y-71941995D01*
X90420345Y-71738183D01*
X90420345Y-71738179D01*
X90364328Y-71541299D01*
X90364325Y-71541294D01*
X90364324Y-71541289D01*
X90273090Y-71358068D01*
X90254918Y-71334005D01*
X90149732Y-71194715D01*
X89998462Y-71056814D01*
X89998461Y-71056813D01*
X89824428Y-70949056D01*
X89824423Y-70949053D01*
X89633560Y-70875113D01*
X89633557Y-70875112D01*
X89633556Y-70875112D01*
X89582799Y-70865623D01*
X89432351Y-70837500D01*
X89432347Y-70837500D01*
X89227653Y-70837500D01*
X89227648Y-70837500D01*
X89026439Y-70875113D01*
X88835576Y-70949053D01*
X88835571Y-70949056D01*
X88661538Y-71056813D01*
X88661537Y-71056814D01*
X88510268Y-71194714D01*
X88386909Y-71358068D01*
X88295675Y-71541289D01*
X88295671Y-71541301D01*
X88269014Y-71634993D01*
X88242043Y-71729788D01*
X88239654Y-71738183D01*
X88220768Y-71941995D01*
X87899232Y-71941995D01*
X87880345Y-71738183D01*
X87880345Y-71738179D01*
X87824328Y-71541299D01*
X87824325Y-71541294D01*
X87824324Y-71541289D01*
X87733090Y-71358068D01*
X87714918Y-71334005D01*
X87609732Y-71194715D01*
X87458462Y-71056814D01*
X87458461Y-71056813D01*
X87284428Y-70949056D01*
X87284423Y-70949053D01*
X87093560Y-70875113D01*
X87093557Y-70875112D01*
X87093556Y-70875112D01*
X87042799Y-70865623D01*
X86892351Y-70837500D01*
X86892347Y-70837500D01*
X86687653Y-70837500D01*
X86687648Y-70837500D01*
X86486439Y-70875113D01*
X86295576Y-70949053D01*
X86295571Y-70949056D01*
X86121538Y-71056813D01*
X86121537Y-71056814D01*
X85970268Y-71194714D01*
X85846909Y-71358068D01*
X85755675Y-71541289D01*
X85755671Y-71541301D01*
X85729014Y-71634993D01*
X85702043Y-71729788D01*
X85699654Y-71738183D01*
X85680768Y-71941995D01*
X85359232Y-71941995D01*
X85340345Y-71738183D01*
X85340345Y-71738179D01*
X85284328Y-71541299D01*
X85284325Y-71541294D01*
X85284324Y-71541289D01*
X85193090Y-71358068D01*
X85174918Y-71334005D01*
X85069732Y-71194715D01*
X84918462Y-71056814D01*
X84918461Y-71056813D01*
X84744428Y-70949056D01*
X84744423Y-70949053D01*
X84553560Y-70875113D01*
X84553557Y-70875112D01*
X84553556Y-70875112D01*
X84502799Y-70865623D01*
X84352351Y-70837500D01*
X84352347Y-70837500D01*
X84147653Y-70837500D01*
X84147648Y-70837500D01*
X83946439Y-70875113D01*
X83755576Y-70949053D01*
X83755571Y-70949056D01*
X83581538Y-71056813D01*
X83581537Y-71056814D01*
X83430268Y-71194714D01*
X83306909Y-71358068D01*
X83215675Y-71541289D01*
X83215671Y-71541301D01*
X83189014Y-71634993D01*
X83162043Y-71729788D01*
X83159654Y-71738183D01*
X83140768Y-71941995D01*
X75339466Y-71941995D01*
X75318005Y-56768996D01*
X90930312Y-56768996D01*
X90930312Y-56769003D01*
X90950956Y-56912591D01*
X90950958Y-56912596D01*
X91011222Y-57044557D01*
X91106225Y-57154196D01*
X91106226Y-57154197D01*
X91193209Y-57210097D01*
X91228268Y-57232629D01*
X91367464Y-57273500D01*
X91367466Y-57273500D01*
X91512534Y-57273500D01*
X91512536Y-57273500D01*
X91651732Y-57232629D01*
X91773775Y-57154196D01*
X91868777Y-57044558D01*
X91929042Y-56912596D01*
X91949688Y-56769000D01*
X91949688Y-56768996D01*
X91929043Y-56625408D01*
X91929042Y-56625406D01*
X91929042Y-56625404D01*
X91868777Y-56493442D01*
X91773775Y-56383804D01*
X91773774Y-56383803D01*
X91773773Y-56383802D01*
X91651737Y-56305374D01*
X91651732Y-56305371D01*
X91512536Y-56264500D01*
X91367464Y-56264500D01*
X91367463Y-56264500D01*
X91228267Y-56305371D01*
X91228262Y-56305374D01*
X91106226Y-56383802D01*
X91106225Y-56383803D01*
X91011222Y-56493442D01*
X90950958Y-56625403D01*
X90950956Y-56625408D01*
X90930312Y-56768996D01*
X75318005Y-56768996D01*
X75312230Y-52685710D01*
X75332086Y-52611187D01*
X75386547Y-52556572D01*
X75461018Y-52536504D01*
X75535546Y-52556361D01*
X75590161Y-52610822D01*
X75592872Y-52615711D01*
X75668214Y-52757821D01*
X75869035Y-53054008D01*
X76061395Y-53280471D01*
X76659010Y-52682856D01*
X76659010Y-52694718D01*
X76697070Y-52786604D01*
X76767396Y-52856930D01*
X76859282Y-52894990D01*
X76871141Y-52894990D01*
X76274630Y-53491500D01*
X76360486Y-53572828D01*
X76645360Y-53789384D01*
X76951976Y-53973869D01*
X77276752Y-54124126D01*
X77276762Y-54124131D01*
X77615857Y-54238384D01*
X77615871Y-54238388D01*
X77965319Y-54315307D01*
X77965333Y-54315310D01*
X78321078Y-54353999D01*
X78321088Y-54354000D01*
X78678912Y-54354000D01*
X78678921Y-54353999D01*
X79034666Y-54315310D01*
X79034680Y-54315307D01*
X79384128Y-54238388D01*
X79384142Y-54238384D01*
X79412005Y-54228996D01*
X89787312Y-54228996D01*
X89787312Y-54229003D01*
X89807956Y-54372591D01*
X89807958Y-54372596D01*
X89868222Y-54504557D01*
X89963225Y-54614196D01*
X89963226Y-54614197D01*
X90050209Y-54670097D01*
X90085268Y-54692629D01*
X90224464Y-54733500D01*
X90224466Y-54733500D01*
X90369534Y-54733500D01*
X90369536Y-54733500D01*
X90508732Y-54692629D01*
X90630775Y-54614196D01*
X90725777Y-54504558D01*
X90786042Y-54372596D01*
X90788716Y-54353999D01*
X90806688Y-54229003D01*
X90806688Y-54228996D01*
X90786043Y-54085408D01*
X90786042Y-54085406D01*
X90786042Y-54085404D01*
X90725777Y-53953442D01*
X90630775Y-53843804D01*
X90630774Y-53843803D01*
X90630773Y-53843802D01*
X90508737Y-53765374D01*
X90508732Y-53765371D01*
X90369536Y-53724500D01*
X90224464Y-53724500D01*
X90224463Y-53724500D01*
X90085267Y-53765371D01*
X90085262Y-53765374D01*
X89963226Y-53843802D01*
X89963225Y-53843803D01*
X89868222Y-53953442D01*
X89807958Y-54085403D01*
X89807956Y-54085408D01*
X89787312Y-54228996D01*
X79412005Y-54228996D01*
X79723237Y-54124131D01*
X79723247Y-54124126D01*
X80048023Y-53973869D01*
X80354639Y-53789384D01*
X80639513Y-53572828D01*
X80725368Y-53491500D01*
X80128858Y-52894990D01*
X80140718Y-52894990D01*
X80232604Y-52856930D01*
X80302930Y-52786604D01*
X80340990Y-52694718D01*
X80340990Y-52682858D01*
X80938603Y-53280471D01*
X81130961Y-53054013D01*
X81331785Y-52757821D01*
X81499393Y-52441677D01*
X81499399Y-52441664D01*
X81631849Y-52109238D01*
X81727581Y-51764447D01*
X81727582Y-51764442D01*
X81785473Y-51411317D01*
X81785474Y-51411308D01*
X81804847Y-51054008D01*
X81804847Y-51053991D01*
X81785474Y-50696691D01*
X81785473Y-50696682D01*
X81727582Y-50343557D01*
X81727581Y-50343552D01*
X81631849Y-49998761D01*
X81499399Y-49666335D01*
X81499393Y-49666322D01*
X81331785Y-49350178D01*
X81130964Y-49053991D01*
X80938603Y-48827527D01*
X80340990Y-49425140D01*
X80340990Y-49413282D01*
X80302930Y-49321396D01*
X80232604Y-49251070D01*
X80140718Y-49213010D01*
X80128857Y-49213010D01*
X80725368Y-48616498D01*
X80639513Y-48535171D01*
X80354639Y-48318615D01*
X80048022Y-48134130D01*
X79944897Y-48086419D01*
X79885665Y-48037019D01*
X79859068Y-47964622D01*
X79872232Y-47888626D01*
X79909989Y-47838495D01*
X79968189Y-47788160D01*
X80037596Y-47754526D01*
X80065278Y-47751860D01*
X83607253Y-47742893D01*
X83681803Y-47762667D01*
X83736479Y-47817067D01*
X83756630Y-47891516D01*
X83736856Y-47966066D01*
X83686068Y-48018576D01*
X83554002Y-48100347D01*
X83553994Y-48100352D01*
X83546927Y-48106794D01*
X83546927Y-48106795D01*
X84018461Y-48578329D01*
X83942993Y-48621901D01*
X83849901Y-48714993D01*
X83806329Y-48790461D01*
X83337682Y-48321814D01*
X83268063Y-48414005D01*
X83173062Y-48604795D01*
X83114737Y-48809787D01*
X83095073Y-49021995D01*
X83095073Y-49022004D01*
X83114737Y-49234212D01*
X83173062Y-49439204D01*
X83268063Y-49629993D01*
X83337683Y-49722183D01*
X83806328Y-49253537D01*
X83849901Y-49329007D01*
X83942993Y-49422099D01*
X84018460Y-49465670D01*
X83546926Y-49937204D01*
X83553994Y-49943646D01*
X83553999Y-49943650D01*
X83735206Y-50055848D01*
X83735209Y-50055850D01*
X83933934Y-50132836D01*
X84143432Y-50171999D01*
X84143440Y-50172000D01*
X84356560Y-50172000D01*
X84356567Y-50171999D01*
X84566065Y-50132836D01*
X84764790Y-50055850D01*
X84764793Y-50055848D01*
X84946000Y-49943650D01*
X84953071Y-49937204D01*
X84481538Y-49465670D01*
X84557007Y-49422099D01*
X84650099Y-49329007D01*
X84693670Y-49253538D01*
X85162316Y-49722184D01*
X85231936Y-49629995D01*
X85231940Y-49629989D01*
X85326937Y-49439206D01*
X85376688Y-49264350D01*
X85416276Y-49198157D01*
X85483657Y-49160626D01*
X85560776Y-49161814D01*
X85626969Y-49201402D01*
X85663312Y-49264350D01*
X85713062Y-49439204D01*
X85808063Y-49629993D01*
X85877683Y-49722183D01*
X86346328Y-49253537D01*
X86389901Y-49329007D01*
X86482993Y-49422099D01*
X86558460Y-49465670D01*
X86086926Y-49937204D01*
X86093994Y-49943646D01*
X86093999Y-49943650D01*
X86275206Y-50055848D01*
X86275209Y-50055850D01*
X86473934Y-50132836D01*
X86683432Y-50171999D01*
X86683440Y-50172000D01*
X86896560Y-50172000D01*
X86896567Y-50171999D01*
X87106065Y-50132836D01*
X87304790Y-50055850D01*
X87304793Y-50055848D01*
X87486000Y-49943650D01*
X87493071Y-49937204D01*
X87021538Y-49465670D01*
X87097007Y-49422099D01*
X87190099Y-49329007D01*
X87233670Y-49253538D01*
X87702316Y-49722184D01*
X87771936Y-49629995D01*
X87771940Y-49629989D01*
X87866937Y-49439206D01*
X87925262Y-49234212D01*
X87925263Y-49234211D01*
X87934483Y-49134708D01*
X87961233Y-49062367D01*
X88009847Y-49021997D01*
X87996758Y-49017157D01*
X87947485Y-48957819D01*
X87934483Y-48909291D01*
X87925263Y-48809788D01*
X87925262Y-48809787D01*
X87866937Y-48604793D01*
X87771941Y-48414013D01*
X87702315Y-48321815D01*
X87233670Y-48790460D01*
X87190099Y-48714993D01*
X87097007Y-48621901D01*
X87021537Y-48578328D01*
X87493071Y-48106795D01*
X87493071Y-48106794D01*
X87486005Y-48100353D01*
X87485992Y-48100343D01*
X87338356Y-48008931D01*
X87285523Y-47952740D01*
X87267865Y-47877660D01*
X87290112Y-47803811D01*
X87346303Y-47750978D01*
X87416414Y-47733249D01*
X88810793Y-47729719D01*
X88885342Y-47749493D01*
X88940018Y-47803893D01*
X88960169Y-47878342D01*
X88940395Y-47952892D01*
X88885995Y-48007568D01*
X88864996Y-48017657D01*
X88835570Y-48029056D01*
X88661538Y-48136813D01*
X88661537Y-48136814D01*
X88510268Y-48274714D01*
X88386909Y-48438068D01*
X88295675Y-48621289D01*
X88295671Y-48621301D01*
X88257838Y-48754272D01*
X88242043Y-48809788D01*
X88239654Y-48818183D01*
X88231211Y-48909293D01*
X88204460Y-48981633D01*
X88155846Y-49022001D01*
X88168935Y-49026841D01*
X88218208Y-49086178D01*
X88231211Y-49134706D01*
X88239654Y-49225817D01*
X88239654Y-49225820D01*
X88239655Y-49225821D01*
X88246839Y-49251070D01*
X88295671Y-49422698D01*
X88295675Y-49422710D01*
X88386909Y-49605931D01*
X88510268Y-49769285D01*
X88661537Y-49907185D01*
X88661538Y-49907186D01*
X88835571Y-50014943D01*
X88835576Y-50014946D01*
X89013093Y-50083715D01*
X89026444Y-50088888D01*
X89227653Y-50126500D01*
X89227656Y-50126500D01*
X89432344Y-50126500D01*
X89432347Y-50126500D01*
X89633556Y-50088888D01*
X89728991Y-50051916D01*
X89824423Y-50014946D01*
X89824425Y-50014944D01*
X89824427Y-50014944D01*
X89998462Y-49907186D01*
X90149732Y-49769285D01*
X90273088Y-49605935D01*
X90319495Y-49512738D01*
X90364324Y-49422710D01*
X90364324Y-49422707D01*
X90364328Y-49422701D01*
X90420345Y-49225821D01*
X90433586Y-49082930D01*
X90439232Y-49022004D01*
X90439232Y-49021995D01*
X90422908Y-48845842D01*
X90420345Y-48818179D01*
X90364328Y-48621299D01*
X90364325Y-48621294D01*
X90364324Y-48621289D01*
X90273090Y-48438068D01*
X90254918Y-48414005D01*
X90149732Y-48274715D01*
X90137845Y-48263879D01*
X89998462Y-48136814D01*
X89998461Y-48136813D01*
X89824428Y-48029056D01*
X89824426Y-48029055D01*
X89788267Y-48015047D01*
X89726010Y-47969520D01*
X89694856Y-47898964D01*
X89703155Y-47822283D01*
X89748682Y-47760026D01*
X89819238Y-47728872D01*
X89841708Y-47727109D01*
X91367502Y-47723246D01*
X91442049Y-47743020D01*
X91496725Y-47797420D01*
X91516876Y-47871869D01*
X91497102Y-47946419D01*
X91442702Y-48001095D01*
X91421704Y-48011183D01*
X91375576Y-48029053D01*
X91375571Y-48029056D01*
X91201538Y-48136813D01*
X91201537Y-48136814D01*
X91050268Y-48274714D01*
X90926909Y-48438068D01*
X90835675Y-48621289D01*
X90835671Y-48621301D01*
X90797838Y-48754272D01*
X90782043Y-48809788D01*
X90779654Y-48818183D01*
X90760768Y-49021995D01*
X90760768Y-49022004D01*
X90779654Y-49225816D01*
X90779654Y-49225818D01*
X90779655Y-49225821D01*
X90821256Y-49372035D01*
X90835671Y-49422698D01*
X90835675Y-49422710D01*
X90926909Y-49605931D01*
X91050268Y-49769285D01*
X91201537Y-49907185D01*
X91201538Y-49907186D01*
X91375571Y-50014943D01*
X91375576Y-50014946D01*
X91553093Y-50083715D01*
X91566444Y-50088888D01*
X91767653Y-50126500D01*
X91767656Y-50126500D01*
X91972344Y-50126500D01*
X91972347Y-50126500D01*
X92173556Y-50088888D01*
X92268991Y-50051916D01*
X92364423Y-50014946D01*
X92364425Y-50014944D01*
X92364427Y-50014944D01*
X92538462Y-49907186D01*
X92689732Y-49769285D01*
X92813088Y-49605935D01*
X92859495Y-49512738D01*
X92904324Y-49422710D01*
X92904324Y-49422707D01*
X92904328Y-49422701D01*
X92960345Y-49225821D01*
X92973586Y-49082930D01*
X92979232Y-49022004D01*
X92979232Y-49021995D01*
X92962908Y-48845842D01*
X92960345Y-48818179D01*
X92904328Y-48621299D01*
X92904325Y-48621294D01*
X92904324Y-48621289D01*
X92813090Y-48438068D01*
X92794918Y-48414005D01*
X92689732Y-48274715D01*
X92677845Y-48263879D01*
X92538462Y-48136814D01*
X92538461Y-48136813D01*
X92364428Y-48029056D01*
X92364429Y-48029056D01*
X92311776Y-48008658D01*
X92249519Y-47963130D01*
X92218366Y-47892573D01*
X92226665Y-47815893D01*
X92272193Y-47753636D01*
X92342750Y-47722483D01*
X92365213Y-47720720D01*
X93924207Y-47716774D01*
X93998757Y-47736548D01*
X94053433Y-47790948D01*
X94073584Y-47865397D01*
X94053810Y-47939947D01*
X93999410Y-47994623D01*
X93978410Y-48004712D01*
X93915573Y-48029055D01*
X93915571Y-48029056D01*
X93741538Y-48136813D01*
X93741537Y-48136814D01*
X93590268Y-48274714D01*
X93466909Y-48438068D01*
X93375675Y-48621289D01*
X93375671Y-48621301D01*
X93337838Y-48754272D01*
X93322043Y-48809788D01*
X93319654Y-48818183D01*
X93300768Y-49021995D01*
X93300768Y-49022004D01*
X93319654Y-49225816D01*
X93319654Y-49225818D01*
X93319655Y-49225821D01*
X93361256Y-49372035D01*
X93375671Y-49422698D01*
X93375675Y-49422710D01*
X93466909Y-49605931D01*
X93590268Y-49769285D01*
X93741537Y-49907185D01*
X93741538Y-49907186D01*
X93915571Y-50014943D01*
X93915576Y-50014946D01*
X94093093Y-50083715D01*
X94106444Y-50088888D01*
X94307653Y-50126500D01*
X94307656Y-50126500D01*
X94512344Y-50126500D01*
X94512347Y-50126500D01*
X94713556Y-50088888D01*
X94808991Y-50051916D01*
X94904423Y-50014946D01*
X94904425Y-50014944D01*
X94904427Y-50014944D01*
X95078462Y-49907186D01*
X95229732Y-49769285D01*
X95353088Y-49605935D01*
X95399495Y-49512738D01*
X95444324Y-49422710D01*
X95444324Y-49422707D01*
X95444328Y-49422701D01*
X95500345Y-49225821D01*
X95513586Y-49082930D01*
X95519232Y-49022004D01*
X95519232Y-49021995D01*
X95502908Y-48845842D01*
X95500345Y-48818179D01*
X95444328Y-48621299D01*
X95444325Y-48621294D01*
X95444324Y-48621289D01*
X95353090Y-48438068D01*
X95334918Y-48414005D01*
X95229732Y-48274715D01*
X95217845Y-48263879D01*
X95078462Y-48136814D01*
X95078461Y-48136813D01*
X94904428Y-48029056D01*
X94904426Y-48029055D01*
X94835286Y-48002270D01*
X94773029Y-47956743D01*
X94741875Y-47886187D01*
X94750174Y-47809506D01*
X94795701Y-47747249D01*
X94866257Y-47716095D01*
X94888730Y-47714332D01*
X96480916Y-47710301D01*
X96555465Y-47730075D01*
X96610141Y-47784475D01*
X96630292Y-47858924D01*
X96610518Y-47933474D01*
X96556118Y-47988150D01*
X96535118Y-47998239D01*
X96455573Y-48029055D01*
X96455571Y-48029056D01*
X96281538Y-48136813D01*
X96281537Y-48136814D01*
X96130268Y-48274714D01*
X96006909Y-48438068D01*
X95915675Y-48621289D01*
X95915671Y-48621301D01*
X95877838Y-48754272D01*
X95862043Y-48809788D01*
X95859654Y-48818183D01*
X95840768Y-49021995D01*
X95840768Y-49022004D01*
X95859654Y-49225816D01*
X95859654Y-49225818D01*
X95859655Y-49225821D01*
X95901256Y-49372035D01*
X95915671Y-49422698D01*
X95915675Y-49422710D01*
X96006909Y-49605931D01*
X96130268Y-49769285D01*
X96281537Y-49907185D01*
X96281538Y-49907186D01*
X96455571Y-50014943D01*
X96455576Y-50014946D01*
X96633093Y-50083715D01*
X96646444Y-50088888D01*
X96847653Y-50126500D01*
X96847656Y-50126500D01*
X97052344Y-50126500D01*
X97052347Y-50126500D01*
X97253556Y-50088888D01*
X97348991Y-50051916D01*
X97444423Y-50014946D01*
X97444425Y-50014944D01*
X97444427Y-50014944D01*
X97618462Y-49907186D01*
X97769732Y-49769285D01*
X97893088Y-49605935D01*
X97939495Y-49512738D01*
X97984324Y-49422710D01*
X97984324Y-49422707D01*
X97984328Y-49422701D01*
X98040345Y-49225821D01*
X98053586Y-49082930D01*
X98059232Y-49022004D01*
X98059232Y-49021995D01*
X98042908Y-48845842D01*
X98040345Y-48818179D01*
X97984328Y-48621299D01*
X97984325Y-48621294D01*
X97984324Y-48621289D01*
X97893090Y-48438068D01*
X97874918Y-48414005D01*
X97769732Y-48274715D01*
X97757845Y-48263879D01*
X97618462Y-48136814D01*
X97618461Y-48136813D01*
X97444428Y-48029056D01*
X97444426Y-48029055D01*
X97358795Y-47995881D01*
X97296537Y-47950354D01*
X97265384Y-47879797D01*
X97273683Y-47803117D01*
X97319210Y-47740859D01*
X97389767Y-47709706D01*
X97412234Y-47707943D01*
X99037625Y-47703828D01*
X99112173Y-47723602D01*
X99166849Y-47778002D01*
X99187000Y-47852451D01*
X99167226Y-47927001D01*
X99112826Y-47981677D01*
X99091826Y-47991766D01*
X98995573Y-48029055D01*
X98995571Y-48029056D01*
X98821538Y-48136813D01*
X98821537Y-48136814D01*
X98670268Y-48274714D01*
X98546909Y-48438068D01*
X98455675Y-48621289D01*
X98455671Y-48621301D01*
X98417838Y-48754272D01*
X98402043Y-48809788D01*
X98399654Y-48818183D01*
X98380768Y-49021995D01*
X98380768Y-49022004D01*
X98399654Y-49225816D01*
X98399654Y-49225818D01*
X98399655Y-49225821D01*
X98441256Y-49372035D01*
X98455671Y-49422698D01*
X98455675Y-49422710D01*
X98546909Y-49605931D01*
X98670268Y-49769285D01*
X98821537Y-49907185D01*
X98821538Y-49907186D01*
X98995571Y-50014943D01*
X98995576Y-50014946D01*
X99173093Y-50083715D01*
X99186444Y-50088888D01*
X99387653Y-50126500D01*
X99387656Y-50126500D01*
X99592344Y-50126500D01*
X99592347Y-50126500D01*
X99793556Y-50088888D01*
X99888991Y-50051916D01*
X99984423Y-50014946D01*
X99984425Y-50014944D01*
X99984427Y-50014944D01*
X100158462Y-49907186D01*
X100309732Y-49769285D01*
X100433088Y-49605935D01*
X100479495Y-49512738D01*
X100524324Y-49422710D01*
X100524324Y-49422707D01*
X100524328Y-49422701D01*
X100580345Y-49225821D01*
X100593586Y-49082930D01*
X100599232Y-49022004D01*
X100599232Y-49021995D01*
X100582908Y-48845842D01*
X100580345Y-48818179D01*
X100524328Y-48621299D01*
X100524325Y-48621294D01*
X100524324Y-48621289D01*
X100433090Y-48438068D01*
X100414918Y-48414005D01*
X100309732Y-48274715D01*
X100297845Y-48263879D01*
X100158462Y-48136814D01*
X100158461Y-48136813D01*
X99984428Y-48029056D01*
X99984423Y-48029053D01*
X99882305Y-47989493D01*
X99820047Y-47943967D01*
X99788893Y-47873410D01*
X99797192Y-47796730D01*
X99842718Y-47734472D01*
X99913275Y-47703318D01*
X99935752Y-47701555D01*
X101594331Y-47697356D01*
X101668881Y-47717130D01*
X101723557Y-47771530D01*
X101743708Y-47845979D01*
X101723934Y-47920529D01*
X101669534Y-47975205D01*
X101648533Y-47985294D01*
X101535577Y-48029053D01*
X101535571Y-48029056D01*
X101361538Y-48136813D01*
X101361537Y-48136814D01*
X101210268Y-48274714D01*
X101086909Y-48438068D01*
X100995675Y-48621289D01*
X100995671Y-48621301D01*
X100957838Y-48754272D01*
X100942043Y-48809788D01*
X100939654Y-48818183D01*
X100920768Y-49021995D01*
X100920768Y-49022004D01*
X100939654Y-49225816D01*
X100939654Y-49225818D01*
X100939655Y-49225821D01*
X100981256Y-49372035D01*
X100995671Y-49422698D01*
X100995675Y-49422710D01*
X101086909Y-49605931D01*
X101210268Y-49769285D01*
X101361537Y-49907185D01*
X101361538Y-49907186D01*
X101535571Y-50014943D01*
X101535576Y-50014946D01*
X101713093Y-50083715D01*
X101726444Y-50088888D01*
X101927653Y-50126500D01*
X101927656Y-50126500D01*
X102132344Y-50126500D01*
X102132347Y-50126500D01*
X102333556Y-50088888D01*
X102428991Y-50051916D01*
X102524423Y-50014946D01*
X102524425Y-50014944D01*
X102524427Y-50014944D01*
X102698462Y-49907186D01*
X102849732Y-49769285D01*
X102973088Y-49605935D01*
X103019495Y-49512738D01*
X103064324Y-49422710D01*
X103064324Y-49422707D01*
X103064328Y-49422701D01*
X103120345Y-49225821D01*
X103133586Y-49082930D01*
X103139232Y-49022004D01*
X103139232Y-49021995D01*
X103122908Y-48845842D01*
X103120345Y-48818179D01*
X103064328Y-48621299D01*
X103064325Y-48621294D01*
X103064324Y-48621289D01*
X102973090Y-48438068D01*
X102954918Y-48414005D01*
X102849732Y-48274715D01*
X102837845Y-48263879D01*
X102698462Y-48136814D01*
X102698461Y-48136813D01*
X102524428Y-48029056D01*
X102524422Y-48029053D01*
X102405814Y-47983104D01*
X102343556Y-47937577D01*
X102312402Y-47867021D01*
X102320701Y-47790341D01*
X102366228Y-47728083D01*
X102436784Y-47696929D01*
X102459256Y-47695166D01*
X104151040Y-47690883D01*
X104225589Y-47710657D01*
X104280265Y-47765057D01*
X104300416Y-47839506D01*
X104280642Y-47914056D01*
X104226242Y-47968732D01*
X104205242Y-47978821D01*
X104075573Y-48029055D01*
X104075571Y-48029056D01*
X103901538Y-48136813D01*
X103901537Y-48136814D01*
X103750268Y-48274714D01*
X103626909Y-48438068D01*
X103535675Y-48621289D01*
X103535671Y-48621301D01*
X103497838Y-48754272D01*
X103482043Y-48809788D01*
X103479654Y-48818183D01*
X103460768Y-49021995D01*
X103460768Y-49022004D01*
X103479654Y-49225816D01*
X103479654Y-49225818D01*
X103479655Y-49225821D01*
X103521256Y-49372035D01*
X103535671Y-49422698D01*
X103535675Y-49422710D01*
X103626909Y-49605931D01*
X103750268Y-49769285D01*
X103901537Y-49907185D01*
X103901538Y-49907186D01*
X104075571Y-50014943D01*
X104075576Y-50014946D01*
X104253093Y-50083715D01*
X104266444Y-50088888D01*
X104467653Y-50126500D01*
X104467656Y-50126500D01*
X104672344Y-50126500D01*
X104672347Y-50126500D01*
X104873556Y-50088888D01*
X104968991Y-50051916D01*
X105064423Y-50014946D01*
X105064425Y-50014944D01*
X105064427Y-50014944D01*
X105238462Y-49907186D01*
X105389732Y-49769285D01*
X105513088Y-49605935D01*
X105559495Y-49512738D01*
X105604324Y-49422710D01*
X105604324Y-49422707D01*
X105604328Y-49422701D01*
X105660345Y-49225821D01*
X105661349Y-49214993D01*
X105668788Y-49134708D01*
X105695538Y-49062367D01*
X105744152Y-49021997D01*
X105731063Y-49017157D01*
X105681790Y-48957819D01*
X105668788Y-48909291D01*
X105660346Y-48818184D01*
X105660345Y-48818183D01*
X105660345Y-48818179D01*
X105604328Y-48621299D01*
X105604325Y-48621294D01*
X105604324Y-48621289D01*
X105513090Y-48438068D01*
X105494918Y-48414005D01*
X105389732Y-48274715D01*
X105377845Y-48263879D01*
X105238462Y-48136814D01*
X105238461Y-48136813D01*
X105064428Y-48029056D01*
X105064426Y-48029055D01*
X104929322Y-47976715D01*
X104867065Y-47931188D01*
X104835911Y-47860632D01*
X104844210Y-47783951D01*
X104889737Y-47721694D01*
X104960293Y-47690540D01*
X104982760Y-47688777D01*
X106580968Y-47684731D01*
X106655516Y-47704505D01*
X106710192Y-47758905D01*
X106730343Y-47833354D01*
X106710569Y-47907904D01*
X106656169Y-47962580D01*
X106635171Y-47972668D01*
X106595209Y-47988149D01*
X106595206Y-47988151D01*
X106414001Y-48100347D01*
X106413994Y-48100352D01*
X106406927Y-48106794D01*
X106406927Y-48106795D01*
X106878461Y-48578329D01*
X106802993Y-48621901D01*
X106709901Y-48714993D01*
X106666329Y-48790461D01*
X106197682Y-48321814D01*
X106128063Y-48414005D01*
X106033062Y-48604795D01*
X105974737Y-48809787D01*
X105965516Y-48909293D01*
X105938765Y-48981633D01*
X105890151Y-49022001D01*
X105903240Y-49026841D01*
X105952513Y-49086178D01*
X105965516Y-49134706D01*
X105974737Y-49234212D01*
X106033062Y-49439204D01*
X106128063Y-49629993D01*
X106197683Y-49722183D01*
X106666328Y-49253537D01*
X106709901Y-49329007D01*
X106802993Y-49422099D01*
X106878460Y-49465670D01*
X106406926Y-49937204D01*
X106413994Y-49943646D01*
X106413999Y-49943650D01*
X106595206Y-50055848D01*
X106595209Y-50055850D01*
X106793934Y-50132836D01*
X107003432Y-50171999D01*
X107003440Y-50172000D01*
X107216560Y-50172000D01*
X107216567Y-50171999D01*
X107426065Y-50132836D01*
X107624790Y-50055850D01*
X107624793Y-50055848D01*
X107806000Y-49943650D01*
X107813071Y-49937204D01*
X107341538Y-49465670D01*
X107417007Y-49422099D01*
X107510099Y-49329007D01*
X107553670Y-49253538D01*
X108022316Y-49722184D01*
X108091936Y-49629995D01*
X108091940Y-49629989D01*
X108186937Y-49439206D01*
X108236688Y-49264350D01*
X108276276Y-49198157D01*
X108343657Y-49160626D01*
X108420776Y-49161814D01*
X108486969Y-49201402D01*
X108523312Y-49264350D01*
X108573062Y-49439204D01*
X108668063Y-49629993D01*
X108737683Y-49722183D01*
X109206328Y-49253537D01*
X109249901Y-49329007D01*
X109342993Y-49422099D01*
X109418460Y-49465670D01*
X108946926Y-49937204D01*
X108953994Y-49943646D01*
X108953999Y-49943650D01*
X109135206Y-50055848D01*
X109135209Y-50055850D01*
X109333934Y-50132836D01*
X109543432Y-50171999D01*
X109543440Y-50172000D01*
X109756560Y-50172000D01*
X109756567Y-50171999D01*
X109966065Y-50132836D01*
X110164790Y-50055850D01*
X110164793Y-50055848D01*
X110346000Y-49943650D01*
X110353071Y-49937204D01*
X109881538Y-49465670D01*
X109957007Y-49422099D01*
X110050099Y-49329007D01*
X110093670Y-49253538D01*
X110562316Y-49722184D01*
X110631936Y-49629995D01*
X110631940Y-49629989D01*
X110726937Y-49439206D01*
X110785262Y-49234212D01*
X110785263Y-49234211D01*
X110794483Y-49134708D01*
X110821233Y-49062367D01*
X110869847Y-49021997D01*
X110856758Y-49017157D01*
X110807485Y-48957819D01*
X110794483Y-48909291D01*
X110785263Y-48809788D01*
X110785262Y-48809787D01*
X110726937Y-48604793D01*
X110631941Y-48414013D01*
X110562315Y-48321815D01*
X110093670Y-48790460D01*
X110050099Y-48714993D01*
X109957007Y-48621901D01*
X109881537Y-48578328D01*
X110353071Y-48106795D01*
X110353071Y-48106794D01*
X110346005Y-48100353D01*
X110346000Y-48100349D01*
X110164793Y-47988151D01*
X110164790Y-47988150D01*
X110101475Y-47963621D01*
X110039217Y-47918093D01*
X110008064Y-47847537D01*
X110016363Y-47770857D01*
X110061891Y-47708599D01*
X110132447Y-47677446D01*
X110154914Y-47675683D01*
X111821163Y-47671465D01*
X111895712Y-47691239D01*
X111950388Y-47745639D01*
X111970539Y-47820088D01*
X111950765Y-47894638D01*
X111896365Y-47949314D01*
X111875365Y-47959403D01*
X111695573Y-48029055D01*
X111695571Y-48029056D01*
X111521538Y-48136813D01*
X111521537Y-48136814D01*
X111370268Y-48274714D01*
X111246909Y-48438068D01*
X111155675Y-48621289D01*
X111155671Y-48621301D01*
X111117838Y-48754272D01*
X111102043Y-48809788D01*
X111099654Y-48818183D01*
X111091211Y-48909293D01*
X111064460Y-48981633D01*
X111015846Y-49022001D01*
X111028935Y-49026841D01*
X111078208Y-49086178D01*
X111091211Y-49134706D01*
X111099654Y-49225817D01*
X111099654Y-49225820D01*
X111099655Y-49225821D01*
X111106839Y-49251070D01*
X111155671Y-49422698D01*
X111155675Y-49422710D01*
X111246909Y-49605931D01*
X111370268Y-49769285D01*
X111521537Y-49907185D01*
X111521538Y-49907186D01*
X111695571Y-50014943D01*
X111695576Y-50014946D01*
X111873093Y-50083715D01*
X111886444Y-50088888D01*
X112087653Y-50126500D01*
X112087656Y-50126500D01*
X112292344Y-50126500D01*
X112292347Y-50126500D01*
X112493556Y-50088888D01*
X112588991Y-50051916D01*
X112684423Y-50014946D01*
X112684425Y-50014944D01*
X112684427Y-50014944D01*
X112858462Y-49907186D01*
X113009732Y-49769285D01*
X113133088Y-49605935D01*
X113179495Y-49512738D01*
X113224324Y-49422710D01*
X113224324Y-49422707D01*
X113224328Y-49422701D01*
X113280345Y-49225821D01*
X113293586Y-49082930D01*
X113299232Y-49022004D01*
X113299232Y-49021995D01*
X113282908Y-48845842D01*
X113280345Y-48818179D01*
X113224328Y-48621299D01*
X113224325Y-48621294D01*
X113224324Y-48621289D01*
X113133090Y-48438068D01*
X113114918Y-48414005D01*
X113009732Y-48274715D01*
X112997845Y-48263879D01*
X112858462Y-48136814D01*
X112858461Y-48136813D01*
X112684428Y-48029056D01*
X112684426Y-48029055D01*
X112499849Y-47957549D01*
X112437592Y-47912022D01*
X112406438Y-47841466D01*
X112414737Y-47764785D01*
X112460264Y-47702528D01*
X112530820Y-47671374D01*
X112553286Y-47669611D01*
X130127575Y-47625120D01*
X130202125Y-47644894D01*
G37*
G04 #@! TD.AperFunction*
G04 #@! TA.AperFunction,Conductor*
G36*
X80053122Y-145195990D02*
G01*
X80041262Y-145195990D01*
X79949376Y-145234050D01*
X79879050Y-145304376D01*
X79840990Y-145396262D01*
X79840990Y-145408122D01*
X79451016Y-145018148D01*
X79477184Y-144999136D01*
X79644136Y-144832184D01*
X79663148Y-144806016D01*
X80053122Y-145195990D01*
G37*
G04 #@! TD.AperFunction*
G04 #@! TA.AperFunction,Conductor*
G36*
X131355864Y-144705184D02*
G01*
X131522816Y-144872136D01*
X131548983Y-144891147D01*
X131159010Y-145281120D01*
X131159010Y-145269262D01*
X131120950Y-145177376D01*
X131050624Y-145107050D01*
X130958738Y-145068990D01*
X130946876Y-145068990D01*
X131336851Y-144679014D01*
X131355864Y-144705184D01*
G37*
G04 #@! TD.AperFunction*
G04 #@! TA.AperFunction,Conductor*
G36*
X77548983Y-142691851D02*
G01*
X77522816Y-142710864D01*
X77355864Y-142877816D01*
X77336851Y-142903983D01*
X76946878Y-142514010D01*
X76958738Y-142514010D01*
X77050624Y-142475950D01*
X77120950Y-142405624D01*
X77159010Y-142313738D01*
X77159010Y-142301878D01*
X77548983Y-142691851D01*
G37*
G04 #@! TD.AperFunction*
G04 #@! TA.AperFunction,Conductor*
G36*
X79840990Y-142313738D02*
G01*
X79879050Y-142405624D01*
X79949376Y-142475950D01*
X80041262Y-142514010D01*
X80053120Y-142514010D01*
X79663147Y-142903983D01*
X79644136Y-142877816D01*
X79477184Y-142710864D01*
X79451014Y-142691851D01*
X79840990Y-142301876D01*
X79840990Y-142313738D01*
G37*
G04 #@! TD.AperFunction*
G04 #@! TA.AperFunction,Conductor*
G36*
X131548983Y-142564851D02*
G01*
X131522816Y-142583864D01*
X131355864Y-142750816D01*
X131336851Y-142776983D01*
X130946878Y-142387010D01*
X130958738Y-142387010D01*
X131050624Y-142348950D01*
X131120950Y-142278624D01*
X131159010Y-142186738D01*
X131159010Y-142174878D01*
X131548983Y-142564851D01*
G37*
G04 #@! TD.AperFunction*
G04 #@! TA.AperFunction,Conductor*
G36*
X133840990Y-142186738D02*
G01*
X133879050Y-142278624D01*
X133949376Y-142348950D01*
X134041262Y-142387010D01*
X134053121Y-142387010D01*
X133663147Y-142776983D01*
X133644136Y-142750816D01*
X133477184Y-142583864D01*
X133451014Y-142564851D01*
X133840990Y-142174876D01*
X133840990Y-142186738D01*
G37*
G04 #@! TD.AperFunction*
G04 #@! TA.AperFunction,Conductor*
G36*
X134053122Y-52461980D02*
G01*
X134041262Y-52461980D01*
X133949376Y-52500040D01*
X133879050Y-52570366D01*
X133840990Y-52662252D01*
X133840990Y-52674112D01*
X133451016Y-52284138D01*
X133477184Y-52265126D01*
X133644136Y-52098174D01*
X133663148Y-52072006D01*
X134053122Y-52461980D01*
G37*
G04 #@! TD.AperFunction*
G04 #@! TA.AperFunction,Conductor*
G36*
X131355864Y-52098174D02*
G01*
X131522816Y-52265126D01*
X131548983Y-52284137D01*
X131159010Y-52674110D01*
X131159010Y-52662252D01*
X131120950Y-52570366D01*
X131050624Y-52500040D01*
X130958738Y-52461980D01*
X130946876Y-52461980D01*
X131336851Y-52072004D01*
X131355864Y-52098174D01*
G37*
G04 #@! TD.AperFunction*
G04 #@! TA.AperFunction,Conductor*
G36*
X80053122Y-52394990D02*
G01*
X80041262Y-52394990D01*
X79949376Y-52433050D01*
X79879050Y-52503376D01*
X79840990Y-52595262D01*
X79840990Y-52607122D01*
X79451016Y-52217148D01*
X79477184Y-52198136D01*
X79644136Y-52031184D01*
X79663148Y-52005016D01*
X80053122Y-52394990D01*
G37*
G04 #@! TD.AperFunction*
G04 #@! TA.AperFunction,Conductor*
G36*
X77355864Y-52031184D02*
G01*
X77522816Y-52198136D01*
X77548983Y-52217147D01*
X77159010Y-52607120D01*
X77159010Y-52595262D01*
X77120950Y-52503376D01*
X77050624Y-52433050D01*
X76958738Y-52394990D01*
X76946877Y-52394990D01*
X77336851Y-52005015D01*
X77355864Y-52031184D01*
G37*
G04 #@! TD.AperFunction*
G04 #@! TA.AperFunction,Conductor*
G36*
X131548983Y-49957841D02*
G01*
X131522816Y-49976854D01*
X131355864Y-50143806D01*
X131336851Y-50169973D01*
X130946878Y-49780000D01*
X130958738Y-49780000D01*
X131050624Y-49741940D01*
X131120950Y-49671614D01*
X131159010Y-49579728D01*
X131159010Y-49567868D01*
X131548983Y-49957841D01*
G37*
G04 #@! TD.AperFunction*
G04 #@! TA.AperFunction,Conductor*
G36*
X79840990Y-49512738D02*
G01*
X79879050Y-49604624D01*
X79949376Y-49674950D01*
X80041262Y-49713010D01*
X80053120Y-49713010D01*
X79663147Y-50102983D01*
X79644136Y-50076816D01*
X79477184Y-49909864D01*
X79451015Y-49890851D01*
X79840990Y-49500876D01*
X79840990Y-49512738D01*
G37*
G04 #@! TD.AperFunction*
G04 #@! TA.AperFunction,Conductor*
G36*
X86232231Y-47756210D02*
G01*
X86286907Y-47810610D01*
X86307058Y-47885059D01*
X86287284Y-47959609D01*
X86236496Y-48012118D01*
X86094009Y-48100341D01*
X86093994Y-48100352D01*
X86086927Y-48106794D01*
X86086927Y-48106795D01*
X86558461Y-48578329D01*
X86482993Y-48621901D01*
X86389901Y-48714993D01*
X86346329Y-48790461D01*
X85877682Y-48321814D01*
X85808063Y-48414005D01*
X85713062Y-48604795D01*
X85663312Y-48779649D01*
X85623724Y-48845842D01*
X85556343Y-48883373D01*
X85479224Y-48882185D01*
X85413031Y-48842597D01*
X85376688Y-48779649D01*
X85326937Y-48604793D01*
X85231941Y-48414013D01*
X85162315Y-48321815D01*
X84693670Y-48790460D01*
X84650099Y-48714993D01*
X84557007Y-48621901D01*
X84481537Y-48578328D01*
X84953071Y-48106795D01*
X84953071Y-48106794D01*
X84946005Y-48100353D01*
X84945997Y-48100347D01*
X84808698Y-48015335D01*
X84755866Y-47959144D01*
X84738208Y-47884064D01*
X84760455Y-47810214D01*
X84816646Y-47757382D01*
X84886756Y-47739653D01*
X86157681Y-47736436D01*
X86232231Y-47756210D01*
G37*
G04 #@! TD.AperFunction*
G04 #@! TA.AperFunction,Conductor*
G36*
X109212224Y-47698033D02*
G01*
X109266900Y-47752433D01*
X109287051Y-47826882D01*
X109267277Y-47901432D01*
X109212877Y-47956108D01*
X109191876Y-47966197D01*
X109135210Y-47988149D01*
X109135206Y-47988151D01*
X108954001Y-48100347D01*
X108953994Y-48100352D01*
X108946927Y-48106794D01*
X108946927Y-48106795D01*
X109418461Y-48578329D01*
X109342993Y-48621901D01*
X109249901Y-48714993D01*
X109206329Y-48790461D01*
X108737682Y-48321814D01*
X108668063Y-48414005D01*
X108573062Y-48604795D01*
X108523312Y-48779649D01*
X108483724Y-48845842D01*
X108416343Y-48883373D01*
X108339224Y-48882185D01*
X108273031Y-48842597D01*
X108236688Y-48779649D01*
X108186937Y-48604793D01*
X108091941Y-48414013D01*
X108022315Y-48321815D01*
X107553670Y-48790460D01*
X107510099Y-48714993D01*
X107417007Y-48621901D01*
X107341537Y-48578328D01*
X107813071Y-48106795D01*
X107813071Y-48106794D01*
X107806005Y-48100353D01*
X107806000Y-48100349D01*
X107624793Y-47988151D01*
X107624790Y-47988150D01*
X107577966Y-47970010D01*
X107515708Y-47924483D01*
X107484555Y-47853926D01*
X107492854Y-47777246D01*
X107538381Y-47714988D01*
X107608938Y-47683835D01*
X107631410Y-47682072D01*
X109137674Y-47678259D01*
X109212224Y-47698033D01*
G37*
G04 #@! TD.AperFunction*
M02*
